%TF.GenerationSoftware,KiCad,Pcbnew,9.0.4*%
%TF.CreationDate,2025-10-08T17:20:44-05:00*%
%TF.ProjectId,ECE 445 - Suction Sense PCB-1,45434520-3434-4352-902d-205375637469,rev?*%
%TF.SameCoordinates,Original*%
%TF.FileFunction,Legend,Bot*%
%TF.FilePolarity,Positive*%
%FSLAX46Y46*%
G04 Gerber Fmt 4.6, Leading zero omitted, Abs format (unit mm)*
G04 Created by KiCad (PCBNEW 9.0.4) date 2025-10-08 17:20:44*
%MOMM*%
%LPD*%
G01*
G04 APERTURE LIST*
%ADD10C,0.150000*%
%ADD11C,0.120000*%
G04 APERTURE END LIST*
D10*
X111504819Y-119366666D02*
X112219104Y-119366666D01*
X112219104Y-119366666D02*
X112361961Y-119319047D01*
X112361961Y-119319047D02*
X112457200Y-119223809D01*
X112457200Y-119223809D02*
X112504819Y-119080952D01*
X112504819Y-119080952D02*
X112504819Y-118985714D01*
X111838152Y-120271428D02*
X112504819Y-120271428D01*
X111457200Y-120033333D02*
X112171485Y-119795238D01*
X112171485Y-119795238D02*
X112171485Y-120414285D01*
D11*
%TO.C,J4*%
X96200000Y-110600000D02*
X96200000Y-119800000D01*
X96200000Y-119800000D02*
X99750000Y-119800000D01*
X99750000Y-110600000D02*
X96200000Y-110600000D01*
X106450000Y-119800000D02*
X108900000Y-119800000D01*
X108900000Y-110600000D02*
X106450000Y-110600000D01*
X108900000Y-111000000D02*
X108900000Y-110600000D01*
X108900000Y-119400000D02*
X110900000Y-119400000D01*
X108900000Y-119800000D02*
X108900000Y-119400000D01*
X110900000Y-111000000D02*
X108900000Y-111000000D01*
X110900000Y-112600000D02*
X110900000Y-111000000D01*
X110900000Y-119400000D02*
X110900000Y-116400000D01*
X112800000Y-116390000D02*
X114540000Y-116390000D01*
X114540000Y-116390000D02*
X114540000Y-114650000D01*
%TD*%
M02*
