%TF.GenerationSoftware,KiCad,Pcbnew,9.0.4*%
%TF.CreationDate,2025-10-08T17:20:44-05:00*%
%TF.ProjectId,ECE 445 - Suction Sense PCB-1,45434520-3434-4352-902d-205375637469,rev?*%
%TF.SameCoordinates,Original*%
%TF.FileFunction,Legend,Top*%
%TF.FilePolarity,Positive*%
%FSLAX46Y46*%
G04 Gerber Fmt 4.6, Leading zero omitted, Abs format (unit mm)*
G04 Created by KiCad (PCBNEW 9.0.4) date 2025-10-08 17:20:44*
%MOMM*%
%LPD*%
G01*
G04 APERTURE LIST*
%ADD10C,0.150000*%
%ADD11C,0.120000*%
%ADD12C,0.200000*%
G04 APERTURE END LIST*
D10*
X121514286Y-103984819D02*
X122085714Y-103984819D01*
X121800000Y-104984819D02*
X121800000Y-103984819D01*
X122419048Y-104984819D02*
X122419048Y-103984819D01*
X122419048Y-104461009D02*
X122990476Y-104461009D01*
X122990476Y-104984819D02*
X122990476Y-103984819D01*
X123990476Y-104984819D02*
X123419048Y-104984819D01*
X123704762Y-104984819D02*
X123704762Y-103984819D01*
X123704762Y-103984819D02*
X123609524Y-104127676D01*
X123609524Y-104127676D02*
X123514286Y-104222914D01*
X123514286Y-104222914D02*
X123419048Y-104270533D01*
X98314642Y-59353819D02*
X97981309Y-58877628D01*
X97743214Y-59353819D02*
X97743214Y-58353819D01*
X97743214Y-58353819D02*
X98124166Y-58353819D01*
X98124166Y-58353819D02*
X98219404Y-58401438D01*
X98219404Y-58401438D02*
X98267023Y-58449057D01*
X98267023Y-58449057D02*
X98314642Y-58544295D01*
X98314642Y-58544295D02*
X98314642Y-58687152D01*
X98314642Y-58687152D02*
X98267023Y-58782390D01*
X98267023Y-58782390D02*
X98219404Y-58830009D01*
X98219404Y-58830009D02*
X98124166Y-58877628D01*
X98124166Y-58877628D02*
X97743214Y-58877628D01*
X99267023Y-59353819D02*
X98695595Y-59353819D01*
X98981309Y-59353819D02*
X98981309Y-58353819D01*
X98981309Y-58353819D02*
X98886071Y-58496676D01*
X98886071Y-58496676D02*
X98790833Y-58591914D01*
X98790833Y-58591914D02*
X98695595Y-58639533D01*
X100219404Y-59353819D02*
X99647976Y-59353819D01*
X99933690Y-59353819D02*
X99933690Y-58353819D01*
X99933690Y-58353819D02*
X99838452Y-58496676D01*
X99838452Y-58496676D02*
X99743214Y-58591914D01*
X99743214Y-58591914D02*
X99647976Y-58639533D01*
X154133333Y-99424819D02*
X153800000Y-98948628D01*
X153561905Y-99424819D02*
X153561905Y-98424819D01*
X153561905Y-98424819D02*
X153942857Y-98424819D01*
X153942857Y-98424819D02*
X154038095Y-98472438D01*
X154038095Y-98472438D02*
X154085714Y-98520057D01*
X154085714Y-98520057D02*
X154133333Y-98615295D01*
X154133333Y-98615295D02*
X154133333Y-98758152D01*
X154133333Y-98758152D02*
X154085714Y-98853390D01*
X154085714Y-98853390D02*
X154038095Y-98901009D01*
X154038095Y-98901009D02*
X153942857Y-98948628D01*
X153942857Y-98948628D02*
X153561905Y-98948628D01*
X155038095Y-98424819D02*
X154561905Y-98424819D01*
X154561905Y-98424819D02*
X154514286Y-98901009D01*
X154514286Y-98901009D02*
X154561905Y-98853390D01*
X154561905Y-98853390D02*
X154657143Y-98805771D01*
X154657143Y-98805771D02*
X154895238Y-98805771D01*
X154895238Y-98805771D02*
X154990476Y-98853390D01*
X154990476Y-98853390D02*
X155038095Y-98901009D01*
X155038095Y-98901009D02*
X155085714Y-98996247D01*
X155085714Y-98996247D02*
X155085714Y-99234342D01*
X155085714Y-99234342D02*
X155038095Y-99329580D01*
X155038095Y-99329580D02*
X154990476Y-99377200D01*
X154990476Y-99377200D02*
X154895238Y-99424819D01*
X154895238Y-99424819D02*
X154657143Y-99424819D01*
X154657143Y-99424819D02*
X154561905Y-99377200D01*
X154561905Y-99377200D02*
X154514286Y-99329580D01*
X167383333Y-107559580D02*
X167335714Y-107607200D01*
X167335714Y-107607200D02*
X167192857Y-107654819D01*
X167192857Y-107654819D02*
X167097619Y-107654819D01*
X167097619Y-107654819D02*
X166954762Y-107607200D01*
X166954762Y-107607200D02*
X166859524Y-107511961D01*
X166859524Y-107511961D02*
X166811905Y-107416723D01*
X166811905Y-107416723D02*
X166764286Y-107226247D01*
X166764286Y-107226247D02*
X166764286Y-107083390D01*
X166764286Y-107083390D02*
X166811905Y-106892914D01*
X166811905Y-106892914D02*
X166859524Y-106797676D01*
X166859524Y-106797676D02*
X166954762Y-106702438D01*
X166954762Y-106702438D02*
X167097619Y-106654819D01*
X167097619Y-106654819D02*
X167192857Y-106654819D01*
X167192857Y-106654819D02*
X167335714Y-106702438D01*
X167335714Y-106702438D02*
X167383333Y-106750057D01*
X168288095Y-106654819D02*
X167811905Y-106654819D01*
X167811905Y-106654819D02*
X167764286Y-107131009D01*
X167764286Y-107131009D02*
X167811905Y-107083390D01*
X167811905Y-107083390D02*
X167907143Y-107035771D01*
X167907143Y-107035771D02*
X168145238Y-107035771D01*
X168145238Y-107035771D02*
X168240476Y-107083390D01*
X168240476Y-107083390D02*
X168288095Y-107131009D01*
X168288095Y-107131009D02*
X168335714Y-107226247D01*
X168335714Y-107226247D02*
X168335714Y-107464342D01*
X168335714Y-107464342D02*
X168288095Y-107559580D01*
X168288095Y-107559580D02*
X168240476Y-107607200D01*
X168240476Y-107607200D02*
X168145238Y-107654819D01*
X168145238Y-107654819D02*
X167907143Y-107654819D01*
X167907143Y-107654819D02*
X167811905Y-107607200D01*
X167811905Y-107607200D02*
X167764286Y-107559580D01*
X144533333Y-99324819D02*
X144200000Y-98848628D01*
X143961905Y-99324819D02*
X143961905Y-98324819D01*
X143961905Y-98324819D02*
X144342857Y-98324819D01*
X144342857Y-98324819D02*
X144438095Y-98372438D01*
X144438095Y-98372438D02*
X144485714Y-98420057D01*
X144485714Y-98420057D02*
X144533333Y-98515295D01*
X144533333Y-98515295D02*
X144533333Y-98658152D01*
X144533333Y-98658152D02*
X144485714Y-98753390D01*
X144485714Y-98753390D02*
X144438095Y-98801009D01*
X144438095Y-98801009D02*
X144342857Y-98848628D01*
X144342857Y-98848628D02*
X143961905Y-98848628D01*
X144866667Y-98324819D02*
X145485714Y-98324819D01*
X145485714Y-98324819D02*
X145152381Y-98705771D01*
X145152381Y-98705771D02*
X145295238Y-98705771D01*
X145295238Y-98705771D02*
X145390476Y-98753390D01*
X145390476Y-98753390D02*
X145438095Y-98801009D01*
X145438095Y-98801009D02*
X145485714Y-98896247D01*
X145485714Y-98896247D02*
X145485714Y-99134342D01*
X145485714Y-99134342D02*
X145438095Y-99229580D01*
X145438095Y-99229580D02*
X145390476Y-99277200D01*
X145390476Y-99277200D02*
X145295238Y-99324819D01*
X145295238Y-99324819D02*
X145009524Y-99324819D01*
X145009524Y-99324819D02*
X144914286Y-99277200D01*
X144914286Y-99277200D02*
X144866667Y-99229580D01*
X104961905Y-72204819D02*
X104961905Y-71204819D01*
X104961905Y-71204819D02*
X105200000Y-71204819D01*
X105200000Y-71204819D02*
X105342857Y-71252438D01*
X105342857Y-71252438D02*
X105438095Y-71347676D01*
X105438095Y-71347676D02*
X105485714Y-71442914D01*
X105485714Y-71442914D02*
X105533333Y-71633390D01*
X105533333Y-71633390D02*
X105533333Y-71776247D01*
X105533333Y-71776247D02*
X105485714Y-71966723D01*
X105485714Y-71966723D02*
X105438095Y-72061961D01*
X105438095Y-72061961D02*
X105342857Y-72157200D01*
X105342857Y-72157200D02*
X105200000Y-72204819D01*
X105200000Y-72204819D02*
X104961905Y-72204819D01*
X106485714Y-72204819D02*
X105914286Y-72204819D01*
X106200000Y-72204819D02*
X106200000Y-71204819D01*
X106200000Y-71204819D02*
X106104762Y-71347676D01*
X106104762Y-71347676D02*
X106009524Y-71442914D01*
X106009524Y-71442914D02*
X105914286Y-71490533D01*
X98314642Y-65253819D02*
X97981309Y-64777628D01*
X97743214Y-65253819D02*
X97743214Y-64253819D01*
X97743214Y-64253819D02*
X98124166Y-64253819D01*
X98124166Y-64253819D02*
X98219404Y-64301438D01*
X98219404Y-64301438D02*
X98267023Y-64349057D01*
X98267023Y-64349057D02*
X98314642Y-64444295D01*
X98314642Y-64444295D02*
X98314642Y-64587152D01*
X98314642Y-64587152D02*
X98267023Y-64682390D01*
X98267023Y-64682390D02*
X98219404Y-64730009D01*
X98219404Y-64730009D02*
X98124166Y-64777628D01*
X98124166Y-64777628D02*
X97743214Y-64777628D01*
X99267023Y-65253819D02*
X98695595Y-65253819D01*
X98981309Y-65253819D02*
X98981309Y-64253819D01*
X98981309Y-64253819D02*
X98886071Y-64396676D01*
X98886071Y-64396676D02*
X98790833Y-64491914D01*
X98790833Y-64491914D02*
X98695595Y-64539533D01*
X99600357Y-64253819D02*
X100219404Y-64253819D01*
X100219404Y-64253819D02*
X99886071Y-64634771D01*
X99886071Y-64634771D02*
X100028928Y-64634771D01*
X100028928Y-64634771D02*
X100124166Y-64682390D01*
X100124166Y-64682390D02*
X100171785Y-64730009D01*
X100171785Y-64730009D02*
X100219404Y-64825247D01*
X100219404Y-64825247D02*
X100219404Y-65063342D01*
X100219404Y-65063342D02*
X100171785Y-65158580D01*
X100171785Y-65158580D02*
X100124166Y-65206200D01*
X100124166Y-65206200D02*
X100028928Y-65253819D01*
X100028928Y-65253819D02*
X99743214Y-65253819D01*
X99743214Y-65253819D02*
X99647976Y-65206200D01*
X99647976Y-65206200D02*
X99600357Y-65158580D01*
X107154819Y-98633333D02*
X107869104Y-98633333D01*
X107869104Y-98633333D02*
X108011961Y-98680952D01*
X108011961Y-98680952D02*
X108107200Y-98776190D01*
X108107200Y-98776190D02*
X108154819Y-98919047D01*
X108154819Y-98919047D02*
X108154819Y-99014285D01*
X107154819Y-98252380D02*
X107154819Y-97633333D01*
X107154819Y-97633333D02*
X107535771Y-97966666D01*
X107535771Y-97966666D02*
X107535771Y-97823809D01*
X107535771Y-97823809D02*
X107583390Y-97728571D01*
X107583390Y-97728571D02*
X107631009Y-97680952D01*
X107631009Y-97680952D02*
X107726247Y-97633333D01*
X107726247Y-97633333D02*
X107964342Y-97633333D01*
X107964342Y-97633333D02*
X108059580Y-97680952D01*
X108059580Y-97680952D02*
X108107200Y-97728571D01*
X108107200Y-97728571D02*
X108154819Y-97823809D01*
X108154819Y-97823809D02*
X108154819Y-98109523D01*
X108154819Y-98109523D02*
X108107200Y-98204761D01*
X108107200Y-98204761D02*
X108059580Y-98252380D01*
X125624819Y-102366666D02*
X125148628Y-102699999D01*
X125624819Y-102938094D02*
X124624819Y-102938094D01*
X124624819Y-102938094D02*
X124624819Y-102557142D01*
X124624819Y-102557142D02*
X124672438Y-102461904D01*
X124672438Y-102461904D02*
X124720057Y-102414285D01*
X124720057Y-102414285D02*
X124815295Y-102366666D01*
X124815295Y-102366666D02*
X124958152Y-102366666D01*
X124958152Y-102366666D02*
X125053390Y-102414285D01*
X125053390Y-102414285D02*
X125101009Y-102461904D01*
X125101009Y-102461904D02*
X125148628Y-102557142D01*
X125148628Y-102557142D02*
X125148628Y-102938094D01*
X124624819Y-101509523D02*
X124624819Y-101699999D01*
X124624819Y-101699999D02*
X124672438Y-101795237D01*
X124672438Y-101795237D02*
X124720057Y-101842856D01*
X124720057Y-101842856D02*
X124862914Y-101938094D01*
X124862914Y-101938094D02*
X125053390Y-101985713D01*
X125053390Y-101985713D02*
X125434342Y-101985713D01*
X125434342Y-101985713D02*
X125529580Y-101938094D01*
X125529580Y-101938094D02*
X125577200Y-101890475D01*
X125577200Y-101890475D02*
X125624819Y-101795237D01*
X125624819Y-101795237D02*
X125624819Y-101604761D01*
X125624819Y-101604761D02*
X125577200Y-101509523D01*
X125577200Y-101509523D02*
X125529580Y-101461904D01*
X125529580Y-101461904D02*
X125434342Y-101414285D01*
X125434342Y-101414285D02*
X125196247Y-101414285D01*
X125196247Y-101414285D02*
X125101009Y-101461904D01*
X125101009Y-101461904D02*
X125053390Y-101509523D01*
X125053390Y-101509523D02*
X125005771Y-101604761D01*
X125005771Y-101604761D02*
X125005771Y-101795237D01*
X125005771Y-101795237D02*
X125053390Y-101890475D01*
X125053390Y-101890475D02*
X125101009Y-101938094D01*
X125101009Y-101938094D02*
X125196247Y-101985713D01*
X98314642Y-62303819D02*
X97981309Y-61827628D01*
X97743214Y-62303819D02*
X97743214Y-61303819D01*
X97743214Y-61303819D02*
X98124166Y-61303819D01*
X98124166Y-61303819D02*
X98219404Y-61351438D01*
X98219404Y-61351438D02*
X98267023Y-61399057D01*
X98267023Y-61399057D02*
X98314642Y-61494295D01*
X98314642Y-61494295D02*
X98314642Y-61637152D01*
X98314642Y-61637152D02*
X98267023Y-61732390D01*
X98267023Y-61732390D02*
X98219404Y-61780009D01*
X98219404Y-61780009D02*
X98124166Y-61827628D01*
X98124166Y-61827628D02*
X97743214Y-61827628D01*
X99267023Y-62303819D02*
X98695595Y-62303819D01*
X98981309Y-62303819D02*
X98981309Y-61303819D01*
X98981309Y-61303819D02*
X98886071Y-61446676D01*
X98886071Y-61446676D02*
X98790833Y-61541914D01*
X98790833Y-61541914D02*
X98695595Y-61589533D01*
X99647976Y-61399057D02*
X99695595Y-61351438D01*
X99695595Y-61351438D02*
X99790833Y-61303819D01*
X99790833Y-61303819D02*
X100028928Y-61303819D01*
X100028928Y-61303819D02*
X100124166Y-61351438D01*
X100124166Y-61351438D02*
X100171785Y-61399057D01*
X100171785Y-61399057D02*
X100219404Y-61494295D01*
X100219404Y-61494295D02*
X100219404Y-61589533D01*
X100219404Y-61589533D02*
X100171785Y-61732390D01*
X100171785Y-61732390D02*
X99600357Y-62303819D01*
X99600357Y-62303819D02*
X100219404Y-62303819D01*
X103382380Y-72378876D02*
X103382380Y-72896971D01*
X103382380Y-72896971D02*
X103412857Y-72957923D01*
X103412857Y-72957923D02*
X103443333Y-72988400D01*
X103443333Y-72988400D02*
X103504285Y-73018876D01*
X103504285Y-73018876D02*
X103626190Y-73018876D01*
X103626190Y-73018876D02*
X103687142Y-72988400D01*
X103687142Y-72988400D02*
X103717619Y-72957923D01*
X103717619Y-72957923D02*
X103748095Y-72896971D01*
X103748095Y-72896971D02*
X103748095Y-72378876D01*
X104022380Y-72439828D02*
X104052856Y-72409352D01*
X104052856Y-72409352D02*
X104113809Y-72378876D01*
X104113809Y-72378876D02*
X104266190Y-72378876D01*
X104266190Y-72378876D02*
X104327142Y-72409352D01*
X104327142Y-72409352D02*
X104357618Y-72439828D01*
X104357618Y-72439828D02*
X104388095Y-72500780D01*
X104388095Y-72500780D02*
X104388095Y-72561733D01*
X104388095Y-72561733D02*
X104357618Y-72653161D01*
X104357618Y-72653161D02*
X103991904Y-73018876D01*
X103991904Y-73018876D02*
X104388095Y-73018876D01*
X139638095Y-124056819D02*
X140209523Y-124056819D01*
X139923809Y-125056819D02*
X139923809Y-124056819D01*
X140542857Y-125056819D02*
X140542857Y-124056819D01*
X140542857Y-124056819D02*
X140923809Y-124056819D01*
X140923809Y-124056819D02*
X141019047Y-124104438D01*
X141019047Y-124104438D02*
X141066666Y-124152057D01*
X141066666Y-124152057D02*
X141114285Y-124247295D01*
X141114285Y-124247295D02*
X141114285Y-124390152D01*
X141114285Y-124390152D02*
X141066666Y-124485390D01*
X141066666Y-124485390D02*
X141019047Y-124533009D01*
X141019047Y-124533009D02*
X140923809Y-124580628D01*
X140923809Y-124580628D02*
X140542857Y-124580628D01*
X141447619Y-124056819D02*
X142066666Y-124056819D01*
X142066666Y-124056819D02*
X141733333Y-124437771D01*
X141733333Y-124437771D02*
X141876190Y-124437771D01*
X141876190Y-124437771D02*
X141971428Y-124485390D01*
X141971428Y-124485390D02*
X142019047Y-124533009D01*
X142019047Y-124533009D02*
X142066666Y-124628247D01*
X142066666Y-124628247D02*
X142066666Y-124866342D01*
X142066666Y-124866342D02*
X142019047Y-124961580D01*
X142019047Y-124961580D02*
X141971428Y-125009200D01*
X141971428Y-125009200D02*
X141876190Y-125056819D01*
X141876190Y-125056819D02*
X141590476Y-125056819D01*
X141590476Y-125056819D02*
X141495238Y-125009200D01*
X141495238Y-125009200D02*
X141447619Y-124961580D01*
X120133333Y-107679580D02*
X120085714Y-107727200D01*
X120085714Y-107727200D02*
X119942857Y-107774819D01*
X119942857Y-107774819D02*
X119847619Y-107774819D01*
X119847619Y-107774819D02*
X119704762Y-107727200D01*
X119704762Y-107727200D02*
X119609524Y-107631961D01*
X119609524Y-107631961D02*
X119561905Y-107536723D01*
X119561905Y-107536723D02*
X119514286Y-107346247D01*
X119514286Y-107346247D02*
X119514286Y-107203390D01*
X119514286Y-107203390D02*
X119561905Y-107012914D01*
X119561905Y-107012914D02*
X119609524Y-106917676D01*
X119609524Y-106917676D02*
X119704762Y-106822438D01*
X119704762Y-106822438D02*
X119847619Y-106774819D01*
X119847619Y-106774819D02*
X119942857Y-106774819D01*
X119942857Y-106774819D02*
X120085714Y-106822438D01*
X120085714Y-106822438D02*
X120133333Y-106870057D01*
X120990476Y-106774819D02*
X120800000Y-106774819D01*
X120800000Y-106774819D02*
X120704762Y-106822438D01*
X120704762Y-106822438D02*
X120657143Y-106870057D01*
X120657143Y-106870057D02*
X120561905Y-107012914D01*
X120561905Y-107012914D02*
X120514286Y-107203390D01*
X120514286Y-107203390D02*
X120514286Y-107584342D01*
X120514286Y-107584342D02*
X120561905Y-107679580D01*
X120561905Y-107679580D02*
X120609524Y-107727200D01*
X120609524Y-107727200D02*
X120704762Y-107774819D01*
X120704762Y-107774819D02*
X120895238Y-107774819D01*
X120895238Y-107774819D02*
X120990476Y-107727200D01*
X120990476Y-107727200D02*
X121038095Y-107679580D01*
X121038095Y-107679580D02*
X121085714Y-107584342D01*
X121085714Y-107584342D02*
X121085714Y-107346247D01*
X121085714Y-107346247D02*
X121038095Y-107251009D01*
X121038095Y-107251009D02*
X120990476Y-107203390D01*
X120990476Y-107203390D02*
X120895238Y-107155771D01*
X120895238Y-107155771D02*
X120704762Y-107155771D01*
X120704762Y-107155771D02*
X120609524Y-107203390D01*
X120609524Y-107203390D02*
X120561905Y-107251009D01*
X120561905Y-107251009D02*
X120514286Y-107346247D01*
X123798333Y-64004819D02*
X123465000Y-63528628D01*
X123226905Y-64004819D02*
X123226905Y-63004819D01*
X123226905Y-63004819D02*
X123607857Y-63004819D01*
X123607857Y-63004819D02*
X123703095Y-63052438D01*
X123703095Y-63052438D02*
X123750714Y-63100057D01*
X123750714Y-63100057D02*
X123798333Y-63195295D01*
X123798333Y-63195295D02*
X123798333Y-63338152D01*
X123798333Y-63338152D02*
X123750714Y-63433390D01*
X123750714Y-63433390D02*
X123703095Y-63481009D01*
X123703095Y-63481009D02*
X123607857Y-63528628D01*
X123607857Y-63528628D02*
X123226905Y-63528628D01*
X124369762Y-63433390D02*
X124274524Y-63385771D01*
X124274524Y-63385771D02*
X124226905Y-63338152D01*
X124226905Y-63338152D02*
X124179286Y-63242914D01*
X124179286Y-63242914D02*
X124179286Y-63195295D01*
X124179286Y-63195295D02*
X124226905Y-63100057D01*
X124226905Y-63100057D02*
X124274524Y-63052438D01*
X124274524Y-63052438D02*
X124369762Y-63004819D01*
X124369762Y-63004819D02*
X124560238Y-63004819D01*
X124560238Y-63004819D02*
X124655476Y-63052438D01*
X124655476Y-63052438D02*
X124703095Y-63100057D01*
X124703095Y-63100057D02*
X124750714Y-63195295D01*
X124750714Y-63195295D02*
X124750714Y-63242914D01*
X124750714Y-63242914D02*
X124703095Y-63338152D01*
X124703095Y-63338152D02*
X124655476Y-63385771D01*
X124655476Y-63385771D02*
X124560238Y-63433390D01*
X124560238Y-63433390D02*
X124369762Y-63433390D01*
X124369762Y-63433390D02*
X124274524Y-63481009D01*
X124274524Y-63481009D02*
X124226905Y-63528628D01*
X124226905Y-63528628D02*
X124179286Y-63623866D01*
X124179286Y-63623866D02*
X124179286Y-63814342D01*
X124179286Y-63814342D02*
X124226905Y-63909580D01*
X124226905Y-63909580D02*
X124274524Y-63957200D01*
X124274524Y-63957200D02*
X124369762Y-64004819D01*
X124369762Y-64004819D02*
X124560238Y-64004819D01*
X124560238Y-64004819D02*
X124655476Y-63957200D01*
X124655476Y-63957200D02*
X124703095Y-63909580D01*
X124703095Y-63909580D02*
X124750714Y-63814342D01*
X124750714Y-63814342D02*
X124750714Y-63623866D01*
X124750714Y-63623866D02*
X124703095Y-63528628D01*
X124703095Y-63528628D02*
X124655476Y-63481009D01*
X124655476Y-63481009D02*
X124560238Y-63433390D01*
X167666666Y-76834819D02*
X167666666Y-77549104D01*
X167666666Y-77549104D02*
X167619047Y-77691961D01*
X167619047Y-77691961D02*
X167523809Y-77787200D01*
X167523809Y-77787200D02*
X167380952Y-77834819D01*
X167380952Y-77834819D02*
X167285714Y-77834819D01*
X168666666Y-77834819D02*
X168095238Y-77834819D01*
X168380952Y-77834819D02*
X168380952Y-76834819D01*
X168380952Y-76834819D02*
X168285714Y-76977676D01*
X168285714Y-76977676D02*
X168190476Y-77072914D01*
X168190476Y-77072914D02*
X168095238Y-77120533D01*
X126424405Y-113304819D02*
X126424405Y-112304819D01*
X126424405Y-112304819D02*
X126662500Y-112304819D01*
X126662500Y-112304819D02*
X126805357Y-112352438D01*
X126805357Y-112352438D02*
X126900595Y-112447676D01*
X126900595Y-112447676D02*
X126948214Y-112542914D01*
X126948214Y-112542914D02*
X126995833Y-112733390D01*
X126995833Y-112733390D02*
X126995833Y-112876247D01*
X126995833Y-112876247D02*
X126948214Y-113066723D01*
X126948214Y-113066723D02*
X126900595Y-113161961D01*
X126900595Y-113161961D02*
X126805357Y-113257200D01*
X126805357Y-113257200D02*
X126662500Y-113304819D01*
X126662500Y-113304819D02*
X126424405Y-113304819D01*
X127376786Y-112400057D02*
X127424405Y-112352438D01*
X127424405Y-112352438D02*
X127519643Y-112304819D01*
X127519643Y-112304819D02*
X127757738Y-112304819D01*
X127757738Y-112304819D02*
X127852976Y-112352438D01*
X127852976Y-112352438D02*
X127900595Y-112400057D01*
X127900595Y-112400057D02*
X127948214Y-112495295D01*
X127948214Y-112495295D02*
X127948214Y-112590533D01*
X127948214Y-112590533D02*
X127900595Y-112733390D01*
X127900595Y-112733390D02*
X127329167Y-113304819D01*
X127329167Y-113304819D02*
X127948214Y-113304819D01*
X178308095Y-129654819D02*
X178308095Y-128654819D01*
X178308095Y-129131009D02*
X178879523Y-129131009D01*
X178879523Y-129654819D02*
X178879523Y-128654819D01*
X179260476Y-128654819D02*
X179879523Y-128654819D01*
X179879523Y-128654819D02*
X179546190Y-129035771D01*
X179546190Y-129035771D02*
X179689047Y-129035771D01*
X179689047Y-129035771D02*
X179784285Y-129083390D01*
X179784285Y-129083390D02*
X179831904Y-129131009D01*
X179831904Y-129131009D02*
X179879523Y-129226247D01*
X179879523Y-129226247D02*
X179879523Y-129464342D01*
X179879523Y-129464342D02*
X179831904Y-129559580D01*
X179831904Y-129559580D02*
X179784285Y-129607200D01*
X179784285Y-129607200D02*
X179689047Y-129654819D01*
X179689047Y-129654819D02*
X179403333Y-129654819D01*
X179403333Y-129654819D02*
X179308095Y-129607200D01*
X179308095Y-129607200D02*
X179260476Y-129559580D01*
X134300595Y-112504819D02*
X134300595Y-113314342D01*
X134300595Y-113314342D02*
X134348214Y-113409580D01*
X134348214Y-113409580D02*
X134395833Y-113457200D01*
X134395833Y-113457200D02*
X134491071Y-113504819D01*
X134491071Y-113504819D02*
X134681547Y-113504819D01*
X134681547Y-113504819D02*
X134776785Y-113457200D01*
X134776785Y-113457200D02*
X134824404Y-113409580D01*
X134824404Y-113409580D02*
X134872023Y-113314342D01*
X134872023Y-113314342D02*
X134872023Y-112504819D01*
X135776785Y-112838152D02*
X135776785Y-113504819D01*
X135538690Y-112457200D02*
X135300595Y-113171485D01*
X135300595Y-113171485D02*
X135919642Y-113171485D01*
X134833333Y-118779580D02*
X134785714Y-118827200D01*
X134785714Y-118827200D02*
X134642857Y-118874819D01*
X134642857Y-118874819D02*
X134547619Y-118874819D01*
X134547619Y-118874819D02*
X134404762Y-118827200D01*
X134404762Y-118827200D02*
X134309524Y-118731961D01*
X134309524Y-118731961D02*
X134261905Y-118636723D01*
X134261905Y-118636723D02*
X134214286Y-118446247D01*
X134214286Y-118446247D02*
X134214286Y-118303390D01*
X134214286Y-118303390D02*
X134261905Y-118112914D01*
X134261905Y-118112914D02*
X134309524Y-118017676D01*
X134309524Y-118017676D02*
X134404762Y-117922438D01*
X134404762Y-117922438D02*
X134547619Y-117874819D01*
X134547619Y-117874819D02*
X134642857Y-117874819D01*
X134642857Y-117874819D02*
X134785714Y-117922438D01*
X134785714Y-117922438D02*
X134833333Y-117970057D01*
X135166667Y-117874819D02*
X135833333Y-117874819D01*
X135833333Y-117874819D02*
X135404762Y-118874819D01*
X129133333Y-87459580D02*
X129085714Y-87507200D01*
X129085714Y-87507200D02*
X128942857Y-87554819D01*
X128942857Y-87554819D02*
X128847619Y-87554819D01*
X128847619Y-87554819D02*
X128704762Y-87507200D01*
X128704762Y-87507200D02*
X128609524Y-87411961D01*
X128609524Y-87411961D02*
X128561905Y-87316723D01*
X128561905Y-87316723D02*
X128514286Y-87126247D01*
X128514286Y-87126247D02*
X128514286Y-86983390D01*
X128514286Y-86983390D02*
X128561905Y-86792914D01*
X128561905Y-86792914D02*
X128609524Y-86697676D01*
X128609524Y-86697676D02*
X128704762Y-86602438D01*
X128704762Y-86602438D02*
X128847619Y-86554819D01*
X128847619Y-86554819D02*
X128942857Y-86554819D01*
X128942857Y-86554819D02*
X129085714Y-86602438D01*
X129085714Y-86602438D02*
X129133333Y-86650057D01*
X129990476Y-86888152D02*
X129990476Y-87554819D01*
X129752381Y-86507200D02*
X129514286Y-87221485D01*
X129514286Y-87221485D02*
X130133333Y-87221485D01*
X133244819Y-81922904D02*
X134054342Y-81922904D01*
X134054342Y-81922904D02*
X134149580Y-81875285D01*
X134149580Y-81875285D02*
X134197200Y-81827666D01*
X134197200Y-81827666D02*
X134244819Y-81732428D01*
X134244819Y-81732428D02*
X134244819Y-81541952D01*
X134244819Y-81541952D02*
X134197200Y-81446714D01*
X134197200Y-81446714D02*
X134149580Y-81399095D01*
X134149580Y-81399095D02*
X134054342Y-81351476D01*
X134054342Y-81351476D02*
X133244819Y-81351476D01*
X134244819Y-80351476D02*
X134244819Y-80922904D01*
X134244819Y-80637190D02*
X133244819Y-80637190D01*
X133244819Y-80637190D02*
X133387676Y-80732428D01*
X133387676Y-80732428D02*
X133482914Y-80827666D01*
X133482914Y-80827666D02*
X133530533Y-80922904D01*
X115838095Y-62956819D02*
X116409523Y-62956819D01*
X116123809Y-63956819D02*
X116123809Y-62956819D01*
X116742857Y-63956819D02*
X116742857Y-62956819D01*
X116742857Y-62956819D02*
X117123809Y-62956819D01*
X117123809Y-62956819D02*
X117219047Y-63004438D01*
X117219047Y-63004438D02*
X117266666Y-63052057D01*
X117266666Y-63052057D02*
X117314285Y-63147295D01*
X117314285Y-63147295D02*
X117314285Y-63290152D01*
X117314285Y-63290152D02*
X117266666Y-63385390D01*
X117266666Y-63385390D02*
X117219047Y-63433009D01*
X117219047Y-63433009D02*
X117123809Y-63480628D01*
X117123809Y-63480628D02*
X116742857Y-63480628D01*
X118266666Y-63956819D02*
X117695238Y-63956819D01*
X117980952Y-63956819D02*
X117980952Y-62956819D01*
X117980952Y-62956819D02*
X117885714Y-63099676D01*
X117885714Y-63099676D02*
X117790476Y-63194914D01*
X117790476Y-63194914D02*
X117695238Y-63242533D01*
X93218095Y-129654819D02*
X93218095Y-128654819D01*
X93218095Y-129131009D02*
X93789523Y-129131009D01*
X93789523Y-129654819D02*
X93789523Y-128654819D01*
X94694285Y-128988152D02*
X94694285Y-129654819D01*
X94456190Y-128607200D02*
X94218095Y-129321485D01*
X94218095Y-129321485D02*
X94837142Y-129321485D01*
X98787833Y-68021580D02*
X98740214Y-68069200D01*
X98740214Y-68069200D02*
X98597357Y-68116819D01*
X98597357Y-68116819D02*
X98502119Y-68116819D01*
X98502119Y-68116819D02*
X98359262Y-68069200D01*
X98359262Y-68069200D02*
X98264024Y-67973961D01*
X98264024Y-67973961D02*
X98216405Y-67878723D01*
X98216405Y-67878723D02*
X98168786Y-67688247D01*
X98168786Y-67688247D02*
X98168786Y-67545390D01*
X98168786Y-67545390D02*
X98216405Y-67354914D01*
X98216405Y-67354914D02*
X98264024Y-67259676D01*
X98264024Y-67259676D02*
X98359262Y-67164438D01*
X98359262Y-67164438D02*
X98502119Y-67116819D01*
X98502119Y-67116819D02*
X98597357Y-67116819D01*
X98597357Y-67116819D02*
X98740214Y-67164438D01*
X98740214Y-67164438D02*
X98787833Y-67212057D01*
X99359262Y-67545390D02*
X99264024Y-67497771D01*
X99264024Y-67497771D02*
X99216405Y-67450152D01*
X99216405Y-67450152D02*
X99168786Y-67354914D01*
X99168786Y-67354914D02*
X99168786Y-67307295D01*
X99168786Y-67307295D02*
X99216405Y-67212057D01*
X99216405Y-67212057D02*
X99264024Y-67164438D01*
X99264024Y-67164438D02*
X99359262Y-67116819D01*
X99359262Y-67116819D02*
X99549738Y-67116819D01*
X99549738Y-67116819D02*
X99644976Y-67164438D01*
X99644976Y-67164438D02*
X99692595Y-67212057D01*
X99692595Y-67212057D02*
X99740214Y-67307295D01*
X99740214Y-67307295D02*
X99740214Y-67354914D01*
X99740214Y-67354914D02*
X99692595Y-67450152D01*
X99692595Y-67450152D02*
X99644976Y-67497771D01*
X99644976Y-67497771D02*
X99549738Y-67545390D01*
X99549738Y-67545390D02*
X99359262Y-67545390D01*
X99359262Y-67545390D02*
X99264024Y-67593009D01*
X99264024Y-67593009D02*
X99216405Y-67640628D01*
X99216405Y-67640628D02*
X99168786Y-67735866D01*
X99168786Y-67735866D02*
X99168786Y-67926342D01*
X99168786Y-67926342D02*
X99216405Y-68021580D01*
X99216405Y-68021580D02*
X99264024Y-68069200D01*
X99264024Y-68069200D02*
X99359262Y-68116819D01*
X99359262Y-68116819D02*
X99549738Y-68116819D01*
X99549738Y-68116819D02*
X99644976Y-68069200D01*
X99644976Y-68069200D02*
X99692595Y-68021580D01*
X99692595Y-68021580D02*
X99740214Y-67926342D01*
X99740214Y-67926342D02*
X99740214Y-67735866D01*
X99740214Y-67735866D02*
X99692595Y-67640628D01*
X99692595Y-67640628D02*
X99644976Y-67593009D01*
X99644976Y-67593009D02*
X99549738Y-67545390D01*
X178308095Y-49644819D02*
X178308095Y-48644819D01*
X178308095Y-49121009D02*
X178879523Y-49121009D01*
X178879523Y-49644819D02*
X178879523Y-48644819D01*
X179308095Y-48740057D02*
X179355714Y-48692438D01*
X179355714Y-48692438D02*
X179450952Y-48644819D01*
X179450952Y-48644819D02*
X179689047Y-48644819D01*
X179689047Y-48644819D02*
X179784285Y-48692438D01*
X179784285Y-48692438D02*
X179831904Y-48740057D01*
X179831904Y-48740057D02*
X179879523Y-48835295D01*
X179879523Y-48835295D02*
X179879523Y-48930533D01*
X179879523Y-48930533D02*
X179831904Y-49073390D01*
X179831904Y-49073390D02*
X179260476Y-49644819D01*
X179260476Y-49644819D02*
X179879523Y-49644819D01*
X152733333Y-121559580D02*
X152685714Y-121607200D01*
X152685714Y-121607200D02*
X152542857Y-121654819D01*
X152542857Y-121654819D02*
X152447619Y-121654819D01*
X152447619Y-121654819D02*
X152304762Y-121607200D01*
X152304762Y-121607200D02*
X152209524Y-121511961D01*
X152209524Y-121511961D02*
X152161905Y-121416723D01*
X152161905Y-121416723D02*
X152114286Y-121226247D01*
X152114286Y-121226247D02*
X152114286Y-121083390D01*
X152114286Y-121083390D02*
X152161905Y-120892914D01*
X152161905Y-120892914D02*
X152209524Y-120797676D01*
X152209524Y-120797676D02*
X152304762Y-120702438D01*
X152304762Y-120702438D02*
X152447619Y-120654819D01*
X152447619Y-120654819D02*
X152542857Y-120654819D01*
X152542857Y-120654819D02*
X152685714Y-120702438D01*
X152685714Y-120702438D02*
X152733333Y-120750057D01*
X153066667Y-120654819D02*
X153685714Y-120654819D01*
X153685714Y-120654819D02*
X153352381Y-121035771D01*
X153352381Y-121035771D02*
X153495238Y-121035771D01*
X153495238Y-121035771D02*
X153590476Y-121083390D01*
X153590476Y-121083390D02*
X153638095Y-121131009D01*
X153638095Y-121131009D02*
X153685714Y-121226247D01*
X153685714Y-121226247D02*
X153685714Y-121464342D01*
X153685714Y-121464342D02*
X153638095Y-121559580D01*
X153638095Y-121559580D02*
X153590476Y-121607200D01*
X153590476Y-121607200D02*
X153495238Y-121654819D01*
X153495238Y-121654819D02*
X153209524Y-121654819D01*
X153209524Y-121654819D02*
X153114286Y-121607200D01*
X153114286Y-121607200D02*
X153066667Y-121559580D01*
X149633333Y-107504819D02*
X149157143Y-107504819D01*
X149157143Y-107504819D02*
X149157143Y-106504819D01*
X150490476Y-107504819D02*
X149919048Y-107504819D01*
X150204762Y-107504819D02*
X150204762Y-106504819D01*
X150204762Y-106504819D02*
X150109524Y-106647676D01*
X150109524Y-106647676D02*
X150014286Y-106742914D01*
X150014286Y-106742914D02*
X149919048Y-106790533D01*
X133738095Y-98356819D02*
X134309523Y-98356819D01*
X134023809Y-99356819D02*
X134023809Y-98356819D01*
X134642857Y-99356819D02*
X134642857Y-98356819D01*
X134642857Y-98356819D02*
X135023809Y-98356819D01*
X135023809Y-98356819D02*
X135119047Y-98404438D01*
X135119047Y-98404438D02*
X135166666Y-98452057D01*
X135166666Y-98452057D02*
X135214285Y-98547295D01*
X135214285Y-98547295D02*
X135214285Y-98690152D01*
X135214285Y-98690152D02*
X135166666Y-98785390D01*
X135166666Y-98785390D02*
X135119047Y-98833009D01*
X135119047Y-98833009D02*
X135023809Y-98880628D01*
X135023809Y-98880628D02*
X134642857Y-98880628D01*
X135595238Y-98452057D02*
X135642857Y-98404438D01*
X135642857Y-98404438D02*
X135738095Y-98356819D01*
X135738095Y-98356819D02*
X135976190Y-98356819D01*
X135976190Y-98356819D02*
X136071428Y-98404438D01*
X136071428Y-98404438D02*
X136119047Y-98452057D01*
X136119047Y-98452057D02*
X136166666Y-98547295D01*
X136166666Y-98547295D02*
X136166666Y-98642533D01*
X136166666Y-98642533D02*
X136119047Y-98785390D01*
X136119047Y-98785390D02*
X135547619Y-99356819D01*
X135547619Y-99356819D02*
X136166666Y-99356819D01*
X119757142Y-116604819D02*
X119423809Y-116128628D01*
X119185714Y-116604819D02*
X119185714Y-115604819D01*
X119185714Y-115604819D02*
X119566666Y-115604819D01*
X119566666Y-115604819D02*
X119661904Y-115652438D01*
X119661904Y-115652438D02*
X119709523Y-115700057D01*
X119709523Y-115700057D02*
X119757142Y-115795295D01*
X119757142Y-115795295D02*
X119757142Y-115938152D01*
X119757142Y-115938152D02*
X119709523Y-116033390D01*
X119709523Y-116033390D02*
X119661904Y-116081009D01*
X119661904Y-116081009D02*
X119566666Y-116128628D01*
X119566666Y-116128628D02*
X119185714Y-116128628D01*
X120709523Y-116604819D02*
X120138095Y-116604819D01*
X120423809Y-116604819D02*
X120423809Y-115604819D01*
X120423809Y-115604819D02*
X120328571Y-115747676D01*
X120328571Y-115747676D02*
X120233333Y-115842914D01*
X120233333Y-115842914D02*
X120138095Y-115890533D01*
X121328571Y-115604819D02*
X121423809Y-115604819D01*
X121423809Y-115604819D02*
X121519047Y-115652438D01*
X121519047Y-115652438D02*
X121566666Y-115700057D01*
X121566666Y-115700057D02*
X121614285Y-115795295D01*
X121614285Y-115795295D02*
X121661904Y-115985771D01*
X121661904Y-115985771D02*
X121661904Y-116223866D01*
X121661904Y-116223866D02*
X121614285Y-116414342D01*
X121614285Y-116414342D02*
X121566666Y-116509580D01*
X121566666Y-116509580D02*
X121519047Y-116557200D01*
X121519047Y-116557200D02*
X121423809Y-116604819D01*
X121423809Y-116604819D02*
X121328571Y-116604819D01*
X121328571Y-116604819D02*
X121233333Y-116557200D01*
X121233333Y-116557200D02*
X121185714Y-116509580D01*
X121185714Y-116509580D02*
X121138095Y-116414342D01*
X121138095Y-116414342D02*
X121090476Y-116223866D01*
X121090476Y-116223866D02*
X121090476Y-115985771D01*
X121090476Y-115985771D02*
X121138095Y-115795295D01*
X121138095Y-115795295D02*
X121185714Y-115700057D01*
X121185714Y-115700057D02*
X121233333Y-115652438D01*
X121233333Y-115652438D02*
X121328571Y-115604819D01*
X129133333Y-110284819D02*
X128800000Y-109808628D01*
X128561905Y-110284819D02*
X128561905Y-109284819D01*
X128561905Y-109284819D02*
X128942857Y-109284819D01*
X128942857Y-109284819D02*
X129038095Y-109332438D01*
X129038095Y-109332438D02*
X129085714Y-109380057D01*
X129085714Y-109380057D02*
X129133333Y-109475295D01*
X129133333Y-109475295D02*
X129133333Y-109618152D01*
X129133333Y-109618152D02*
X129085714Y-109713390D01*
X129085714Y-109713390D02*
X129038095Y-109761009D01*
X129038095Y-109761009D02*
X128942857Y-109808628D01*
X128942857Y-109808628D02*
X128561905Y-109808628D01*
X130085714Y-110284819D02*
X129514286Y-110284819D01*
X129800000Y-110284819D02*
X129800000Y-109284819D01*
X129800000Y-109284819D02*
X129704762Y-109427676D01*
X129704762Y-109427676D02*
X129609524Y-109522914D01*
X129609524Y-109522914D02*
X129514286Y-109570533D01*
X137933333Y-102859580D02*
X137885714Y-102907200D01*
X137885714Y-102907200D02*
X137742857Y-102954819D01*
X137742857Y-102954819D02*
X137647619Y-102954819D01*
X137647619Y-102954819D02*
X137504762Y-102907200D01*
X137504762Y-102907200D02*
X137409524Y-102811961D01*
X137409524Y-102811961D02*
X137361905Y-102716723D01*
X137361905Y-102716723D02*
X137314286Y-102526247D01*
X137314286Y-102526247D02*
X137314286Y-102383390D01*
X137314286Y-102383390D02*
X137361905Y-102192914D01*
X137361905Y-102192914D02*
X137409524Y-102097676D01*
X137409524Y-102097676D02*
X137504762Y-102002438D01*
X137504762Y-102002438D02*
X137647619Y-101954819D01*
X137647619Y-101954819D02*
X137742857Y-101954819D01*
X137742857Y-101954819D02*
X137885714Y-102002438D01*
X137885714Y-102002438D02*
X137933333Y-102050057D01*
X138885714Y-102954819D02*
X138314286Y-102954819D01*
X138600000Y-102954819D02*
X138600000Y-101954819D01*
X138600000Y-101954819D02*
X138504762Y-102097676D01*
X138504762Y-102097676D02*
X138409524Y-102192914D01*
X138409524Y-102192914D02*
X138314286Y-102240533D01*
X161633333Y-98824819D02*
X161300000Y-98348628D01*
X161061905Y-98824819D02*
X161061905Y-97824819D01*
X161061905Y-97824819D02*
X161442857Y-97824819D01*
X161442857Y-97824819D02*
X161538095Y-97872438D01*
X161538095Y-97872438D02*
X161585714Y-97920057D01*
X161585714Y-97920057D02*
X161633333Y-98015295D01*
X161633333Y-98015295D02*
X161633333Y-98158152D01*
X161633333Y-98158152D02*
X161585714Y-98253390D01*
X161585714Y-98253390D02*
X161538095Y-98301009D01*
X161538095Y-98301009D02*
X161442857Y-98348628D01*
X161442857Y-98348628D02*
X161061905Y-98348628D01*
X162109524Y-98824819D02*
X162300000Y-98824819D01*
X162300000Y-98824819D02*
X162395238Y-98777200D01*
X162395238Y-98777200D02*
X162442857Y-98729580D01*
X162442857Y-98729580D02*
X162538095Y-98586723D01*
X162538095Y-98586723D02*
X162585714Y-98396247D01*
X162585714Y-98396247D02*
X162585714Y-98015295D01*
X162585714Y-98015295D02*
X162538095Y-97920057D01*
X162538095Y-97920057D02*
X162490476Y-97872438D01*
X162490476Y-97872438D02*
X162395238Y-97824819D01*
X162395238Y-97824819D02*
X162204762Y-97824819D01*
X162204762Y-97824819D02*
X162109524Y-97872438D01*
X162109524Y-97872438D02*
X162061905Y-97920057D01*
X162061905Y-97920057D02*
X162014286Y-98015295D01*
X162014286Y-98015295D02*
X162014286Y-98253390D01*
X162014286Y-98253390D02*
X162061905Y-98348628D01*
X162061905Y-98348628D02*
X162109524Y-98396247D01*
X162109524Y-98396247D02*
X162204762Y-98443866D01*
X162204762Y-98443866D02*
X162395238Y-98443866D01*
X162395238Y-98443866D02*
X162490476Y-98396247D01*
X162490476Y-98396247D02*
X162538095Y-98348628D01*
X162538095Y-98348628D02*
X162585714Y-98253390D01*
X149433333Y-99424819D02*
X149100000Y-98948628D01*
X148861905Y-99424819D02*
X148861905Y-98424819D01*
X148861905Y-98424819D02*
X149242857Y-98424819D01*
X149242857Y-98424819D02*
X149338095Y-98472438D01*
X149338095Y-98472438D02*
X149385714Y-98520057D01*
X149385714Y-98520057D02*
X149433333Y-98615295D01*
X149433333Y-98615295D02*
X149433333Y-98758152D01*
X149433333Y-98758152D02*
X149385714Y-98853390D01*
X149385714Y-98853390D02*
X149338095Y-98901009D01*
X149338095Y-98901009D02*
X149242857Y-98948628D01*
X149242857Y-98948628D02*
X148861905Y-98948628D01*
X149814286Y-98520057D02*
X149861905Y-98472438D01*
X149861905Y-98472438D02*
X149957143Y-98424819D01*
X149957143Y-98424819D02*
X150195238Y-98424819D01*
X150195238Y-98424819D02*
X150290476Y-98472438D01*
X150290476Y-98472438D02*
X150338095Y-98520057D01*
X150338095Y-98520057D02*
X150385714Y-98615295D01*
X150385714Y-98615295D02*
X150385714Y-98710533D01*
X150385714Y-98710533D02*
X150338095Y-98853390D01*
X150338095Y-98853390D02*
X149766667Y-99424819D01*
X149766667Y-99424819D02*
X150385714Y-99424819D01*
X142433333Y-113304819D02*
X142100000Y-112828628D01*
X141861905Y-113304819D02*
X141861905Y-112304819D01*
X141861905Y-112304819D02*
X142242857Y-112304819D01*
X142242857Y-112304819D02*
X142338095Y-112352438D01*
X142338095Y-112352438D02*
X142385714Y-112400057D01*
X142385714Y-112400057D02*
X142433333Y-112495295D01*
X142433333Y-112495295D02*
X142433333Y-112638152D01*
X142433333Y-112638152D02*
X142385714Y-112733390D01*
X142385714Y-112733390D02*
X142338095Y-112781009D01*
X142338095Y-112781009D02*
X142242857Y-112828628D01*
X142242857Y-112828628D02*
X141861905Y-112828628D01*
X142766667Y-112304819D02*
X143433333Y-112304819D01*
X143433333Y-112304819D02*
X143004762Y-113304819D01*
X149538095Y-116504819D02*
X149538095Y-117314342D01*
X149538095Y-117314342D02*
X149585714Y-117409580D01*
X149585714Y-117409580D02*
X149633333Y-117457200D01*
X149633333Y-117457200D02*
X149728571Y-117504819D01*
X149728571Y-117504819D02*
X149919047Y-117504819D01*
X149919047Y-117504819D02*
X150014285Y-117457200D01*
X150014285Y-117457200D02*
X150061904Y-117409580D01*
X150061904Y-117409580D02*
X150109523Y-117314342D01*
X150109523Y-117314342D02*
X150109523Y-116504819D01*
X150490476Y-116504819D02*
X151109523Y-116504819D01*
X151109523Y-116504819D02*
X150776190Y-116885771D01*
X150776190Y-116885771D02*
X150919047Y-116885771D01*
X150919047Y-116885771D02*
X151014285Y-116933390D01*
X151014285Y-116933390D02*
X151061904Y-116981009D01*
X151061904Y-116981009D02*
X151109523Y-117076247D01*
X151109523Y-117076247D02*
X151109523Y-117314342D01*
X151109523Y-117314342D02*
X151061904Y-117409580D01*
X151061904Y-117409580D02*
X151014285Y-117457200D01*
X151014285Y-117457200D02*
X150919047Y-117504819D01*
X150919047Y-117504819D02*
X150633333Y-117504819D01*
X150633333Y-117504819D02*
X150538095Y-117457200D01*
X150538095Y-117457200D02*
X150490476Y-117409580D01*
X93218095Y-49644819D02*
X93218095Y-48644819D01*
X93218095Y-49121009D02*
X93789523Y-49121009D01*
X93789523Y-49644819D02*
X93789523Y-48644819D01*
X94789523Y-49644819D02*
X94218095Y-49644819D01*
X94503809Y-49644819D02*
X94503809Y-48644819D01*
X94503809Y-48644819D02*
X94408571Y-48787676D01*
X94408571Y-48787676D02*
X94313333Y-48882914D01*
X94313333Y-48882914D02*
X94218095Y-48930533D01*
D11*
%TO.C,C2*%
X147200000Y-109590000D02*
X148200000Y-109590000D01*
X147700000Y-109090000D02*
X147700000Y-110090000D01*
X148440000Y-108904437D02*
X148440000Y-110590000D01*
X148440000Y-108904437D02*
X149504437Y-107840000D01*
X148440000Y-115295563D02*
X148440000Y-113610000D01*
X148440000Y-115295563D02*
X149504437Y-116360000D01*
X149504437Y-107840000D02*
X156960000Y-107840000D01*
X149504437Y-116360000D02*
X156960000Y-116360000D01*
X156960000Y-107840000D02*
X156960000Y-110590000D01*
X156960000Y-116360000D02*
X156960000Y-113610000D01*
%TO.C,R11*%
X98730436Y-59814000D02*
X99184564Y-59814000D01*
X98730436Y-61284000D02*
X99184564Y-61284000D01*
%TO.C,C5*%
X162050000Y-109890000D02*
X163050000Y-109890000D01*
X162550000Y-109390000D02*
X162550000Y-110390000D01*
X163290000Y-109204437D02*
X163290000Y-110890000D01*
X163290000Y-109204437D02*
X164354437Y-108140000D01*
X163290000Y-115595563D02*
X163290000Y-113910000D01*
X163290000Y-115595563D02*
X164354437Y-116660000D01*
X164354437Y-108140000D02*
X171810000Y-108140000D01*
X164354437Y-116660000D02*
X171810000Y-116660000D01*
X171810000Y-108140000D02*
X171810000Y-110890000D01*
X171810000Y-116660000D02*
X171810000Y-113910000D01*
%TO.C,R4*%
X105572936Y-64765000D02*
X106027064Y-64765000D01*
X105572936Y-66235000D02*
X106027064Y-66235000D01*
%TO.C,D1*%
X104700000Y-71060000D02*
X107385000Y-71060000D01*
X107385000Y-69140000D02*
X104700000Y-69140000D01*
X107385000Y-71060000D02*
X107385000Y-69140000D01*
%TO.C,R13*%
X98730436Y-65714000D02*
X99184564Y-65714000D01*
X98730436Y-67184000D02*
X99184564Y-67184000D01*
%TO.C,J3*%
X119700000Y-70750000D02*
X119700000Y-69750000D01*
X120200000Y-70250000D02*
X119200000Y-70250000D01*
%TO.C,R12*%
X98730436Y-62764000D02*
X99184564Y-62764000D01*
X98730436Y-64234000D02*
X99184564Y-64234000D01*
D12*
%TO.C,U2*%
X101638000Y-74537000D02*
G75*
G02*
X101438000Y-74537000I-100000J0D01*
G01*
X101438000Y-74537000D02*
G75*
G02*
X101638000Y-74537000I100000J0D01*
G01*
D11*
%TO.C,TP3*%
X142100000Y-126600000D02*
G75*
G02*
X139700000Y-126600000I-1200000J0D01*
G01*
X139700000Y-126600000D02*
G75*
G02*
X142100000Y-126600000I1200000J0D01*
G01*
%TO.C,C6*%
X120038748Y-108265000D02*
X120561252Y-108265000D01*
X120038748Y-109735000D02*
X120561252Y-109735000D01*
%TO.C,J1*%
X163790000Y-79500000D02*
X163790000Y-83500000D01*
X164080000Y-78470000D02*
X164080000Y-84490000D01*
X164080000Y-84490000D02*
X171920000Y-84490000D01*
X164660000Y-78470000D02*
X164660000Y-79070000D01*
X164660000Y-79070000D02*
X166260000Y-79070000D01*
X165460000Y-83490000D02*
X165710000Y-82960000D01*
X165460000Y-83490000D02*
X170540000Y-83490000D01*
X165460000Y-84490000D02*
X165460000Y-83490000D01*
X165710000Y-82960000D02*
X170290000Y-82960000D01*
X165710000Y-84490000D02*
X165710000Y-83490000D01*
X166260000Y-79070000D02*
X166260000Y-78470000D01*
X167200000Y-78470000D02*
X167200000Y-79070000D01*
X167200000Y-79070000D02*
X168800000Y-79070000D01*
X168800000Y-79070000D02*
X168800000Y-78470000D01*
X169740000Y-78470000D02*
X169740000Y-79070000D01*
X169740000Y-79070000D02*
X171340000Y-79070000D01*
X170290000Y-82960000D02*
X170540000Y-83490000D01*
X170290000Y-84490000D02*
X170290000Y-83490000D01*
X170540000Y-83490000D02*
X170540000Y-84490000D01*
X171340000Y-79070000D02*
X171340000Y-78470000D01*
X171920000Y-78470000D02*
X164080000Y-78470000D01*
X171920000Y-84490000D02*
X171920000Y-78470000D01*
%TO.C,D2*%
X125477500Y-113540000D02*
X125477500Y-115460000D01*
X125477500Y-115460000D02*
X128162500Y-115460000D01*
X128162500Y-113540000D02*
X125477500Y-113540000D01*
%TO.C,U4*%
X135062500Y-113890000D02*
X134262500Y-113890000D01*
X135062500Y-113890000D02*
X135862500Y-113890000D01*
X135062500Y-117010000D02*
X134262500Y-117010000D01*
X135062500Y-117010000D02*
X135862500Y-117010000D01*
X133762500Y-113940000D02*
X133522500Y-113610000D01*
X134002500Y-113610000D01*
X133762500Y-113940000D01*
G36*
X133762500Y-113940000D02*
G01*
X133522500Y-113610000D01*
X134002500Y-113610000D01*
X133762500Y-113940000D01*
G37*
%TO.C,C7*%
X134738748Y-119365000D02*
X135261252Y-119365000D01*
X134738748Y-120835000D02*
X135261252Y-120835000D01*
%TO.C,C4*%
X132600000Y-89490000D02*
X133600000Y-89490000D01*
X133100000Y-88990000D02*
X133100000Y-89990000D01*
X133840000Y-88804437D02*
X133840000Y-90490000D01*
X133840000Y-88804437D02*
X134904437Y-87740000D01*
X133840000Y-95195563D02*
X133840000Y-93510000D01*
X133840000Y-95195563D02*
X134904437Y-96260000D01*
X134904437Y-87740000D02*
X142360000Y-87740000D01*
X134904437Y-96260000D02*
X142360000Y-96260000D01*
X142360000Y-87740000D02*
X142360000Y-90490000D01*
X142360000Y-96260000D02*
X142360000Y-93510000D01*
%TO.C,U1*%
X135280000Y-56871000D02*
X135280000Y-63031000D01*
X135280000Y-56871000D02*
X153520000Y-56871000D01*
X135280000Y-81831000D02*
X135280000Y-82611000D01*
X135280000Y-82611000D02*
X136280000Y-82611000D01*
X153520000Y-56871000D02*
X153520000Y-63286000D01*
X153520000Y-81831000D02*
X153520000Y-82611000D01*
X153520000Y-82611000D02*
X152520000Y-82611000D01*
X135275000Y-63756000D02*
X134775000Y-63756000D01*
X135275000Y-63256000D01*
X135275000Y-63756000D01*
G36*
X135275000Y-63756000D02*
G01*
X134775000Y-63756000D01*
X135275000Y-63256000D01*
X135275000Y-63756000D01*
G37*
%TO.C,TP1*%
X118300000Y-65500000D02*
G75*
G02*
X115900000Y-65500000I-1200000J0D01*
G01*
X115900000Y-65500000D02*
G75*
G02*
X118300000Y-65500000I1200000J0D01*
G01*
%TO.C,C8*%
X98693248Y-68607000D02*
X99215752Y-68607000D01*
X98693248Y-70077000D02*
X99215752Y-70077000D01*
%TO.C,C3*%
X147400000Y-123890000D02*
X148400000Y-123890000D01*
X147900000Y-123390000D02*
X147900000Y-124390000D01*
X148640000Y-123204437D02*
X148640000Y-124890000D01*
X148640000Y-123204437D02*
X149704437Y-122140000D01*
X148640000Y-129595563D02*
X148640000Y-127910000D01*
X148640000Y-129595563D02*
X149704437Y-130660000D01*
X149704437Y-122140000D02*
X157160000Y-122140000D01*
X149704437Y-130660000D02*
X157160000Y-130660000D01*
X157160000Y-122140000D02*
X157160000Y-124890000D01*
X157160000Y-130660000D02*
X157160000Y-127910000D01*
%TO.C,L1*%
X150061252Y-104690000D02*
X149538748Y-104690000D01*
X150061252Y-106110000D02*
X149538748Y-106110000D01*
%TO.C,TP2*%
X136200000Y-100900000D02*
G75*
G02*
X133800000Y-100900000I-1200000J0D01*
G01*
X133800000Y-100900000D02*
G75*
G02*
X136200000Y-100900000I1200000J0D01*
G01*
%TO.C,R10*%
X120627064Y-113765000D02*
X120172936Y-113765000D01*
X120627064Y-115235000D02*
X120172936Y-115235000D01*
%TO.C,J2*%
X165550000Y-92000000D02*
X165550000Y-96000000D01*
X165840000Y-90970000D02*
X165840000Y-96990000D01*
X165840000Y-96990000D02*
X173680000Y-96990000D01*
X166420000Y-90970000D02*
X166420000Y-91570000D01*
X166420000Y-91570000D02*
X168020000Y-91570000D01*
X167220000Y-95990000D02*
X167470000Y-95460000D01*
X167220000Y-95990000D02*
X172300000Y-95990000D01*
X167220000Y-96990000D02*
X167220000Y-95990000D01*
X167470000Y-95460000D02*
X172050000Y-95460000D01*
X167470000Y-96990000D02*
X167470000Y-95990000D01*
X168020000Y-91570000D02*
X168020000Y-90970000D01*
X168960000Y-90970000D02*
X168960000Y-91570000D01*
X168960000Y-91570000D02*
X170560000Y-91570000D01*
X170560000Y-91570000D02*
X170560000Y-90970000D01*
X171500000Y-90970000D02*
X171500000Y-91570000D01*
X171500000Y-91570000D02*
X173100000Y-91570000D01*
X172050000Y-95460000D02*
X172300000Y-95990000D01*
X172050000Y-96990000D02*
X172050000Y-95990000D01*
X172300000Y-95990000D02*
X172300000Y-96990000D01*
X173100000Y-91570000D02*
X173100000Y-90970000D01*
X173680000Y-90970000D02*
X165840000Y-90970000D01*
X173680000Y-96990000D02*
X173680000Y-90970000D01*
%TO.C,C1*%
X132600000Y-105190000D02*
X133600000Y-105190000D01*
X133100000Y-104690000D02*
X133100000Y-105690000D01*
X133840000Y-104504437D02*
X133840000Y-106190000D01*
X133840000Y-104504437D02*
X134904437Y-103440000D01*
X133840000Y-110895563D02*
X133840000Y-109210000D01*
X133840000Y-110895563D02*
X134904437Y-111960000D01*
X134904437Y-103440000D02*
X142360000Y-103440000D01*
X134904437Y-111960000D02*
X142360000Y-111960000D01*
X142360000Y-103440000D02*
X142360000Y-106190000D01*
X142360000Y-111960000D02*
X142360000Y-109210000D01*
%TO.C,R7*%
X142372936Y-113765000D02*
X142827064Y-113765000D01*
X142372936Y-115235000D02*
X142827064Y-115235000D01*
%TO.C,U3*%
X150300000Y-117765000D02*
X149700000Y-117765000D01*
X150300000Y-117765000D02*
X150900000Y-117765000D01*
X150300000Y-119635000D02*
X149700000Y-119635000D01*
X150300000Y-119635000D02*
X150900000Y-119635000D01*
X148990000Y-118200000D02*
X148660000Y-118440000D01*
X148660000Y-117960000D01*
X148990000Y-118200000D01*
G36*
X148990000Y-118200000D02*
G01*
X148660000Y-118440000D01*
X148660000Y-117960000D01*
X148990000Y-118200000D01*
G37*
%TD*%
M02*
