M48
; DRILL file {KiCad 9.0.4} date 2025-10-08T17:20:46-0500
; FORMAT={-:-/ absolute / metric / decimal}
; #@! TF.CreationDate,2025-10-08T17:20:46-05:00
; #@! TF.GenerationSoftware,Kicad,Pcbnew,9.0.4
; #@! TF.FileFunction,Plated,1,2,PTH
FMAT,2
METRIC
; #@! TA.AperFunction,Plated,PTH,ComponentDrill
T1C0.200
; #@! TA.AperFunction,Plated,PTH,ViaDrill
T2C0.300
; #@! TA.AperFunction,Plated,PTH,ComponentDrill
T3C1.190
%
G90
G05
T1
X102.938Y-74.587
X102.938Y-75.287
X103.738Y-74.587
X103.738Y-75.287
X141.5Y-71.501
X141.5Y-72.901
X142.2Y-70.801
X142.2Y-72.201
X142.2Y-73.601
X142.875Y-71.501
X142.875Y-72.901
X143.6Y-70.801
X143.6Y-72.201
X143.6Y-73.601
X144.3Y-71.501
X144.3Y-72.901
T2
X98.0Y-74.2
X102.3Y-70.5
X102.5Y-77.1
X114.0Y-66.6
X115.1Y-62.1
X117.2Y-114.5
X121.54Y-63.73
X128.4Y-91.4
X129.4Y-72.9
X130.0Y-69.7
X130.0Y-72.0
X131.5Y-87.0
X132.9Y-72.3
X132.9Y-117.8
X133.3Y-84.6
X135.0Y-117.8
X135.5Y-83.3
X137.6Y-84.3
X138.6Y-79.9
X144.2Y-98.0
X155.3Y-105.4
X156.4Y-103.4
X157.6Y-103.4
X158.9Y-75.9
X160.9Y-103.3
X161.0Y-105.5
T3
X165.46Y-81.5
X167.22Y-94.0
X168.0Y-81.5
X169.76Y-94.0
X170.54Y-81.5
X172.3Y-94.0
M30
