%TF.GenerationSoftware,KiCad,Pcbnew,9.0.4*%
%TF.CreationDate,2025-10-03T16:26:10-05:00*%
%TF.ProjectId,ECE 445 - Suction Sense PCB-1,45434520-3434-4352-902d-205375637469,rev?*%
%TF.SameCoordinates,Original*%
%TF.FileFunction,Profile,NP*%
%FSLAX46Y46*%
G04 Gerber Fmt 4.6, Leading zero omitted, Abs format (unit mm)*
G04 Created by KiCad (PCBNEW 9.0.4) date 2025-10-03 16:26:10*
%MOMM*%
%LPD*%
G01*
G04 APERTURE LIST*
%TA.AperFunction,Profile*%
%ADD10C,0.050000*%
%TD*%
%TA.AperFunction,Profile*%
%ADD11C,0.100000*%
%TD*%
G04 APERTURE END LIST*
D10*
X90170000Y-49530000D02*
X182880000Y-49530000D01*
X182880000Y-138430000D01*
X90170000Y-138430000D01*
X90170000Y-49530000D01*
D11*
%TO.C,J3*%
X105600001Y-86100000D02*
X105751138Y-84241692D01*
X105751138Y-84241692D02*
X106200577Y-82432227D01*
X105751138Y-87958309D02*
X105600001Y-86100000D01*
X106200577Y-82432227D02*
X106936505Y-80719170D01*
X106200577Y-89767774D02*
X105751138Y-87958309D01*
X106936505Y-80719170D02*
X107939577Y-79147546D01*
X106936505Y-91480831D02*
X106200577Y-89767774D01*
X107939577Y-79147546D02*
X109183429Y-77758665D01*
X107939577Y-93052455D02*
X106936505Y-91480831D01*
X109183429Y-77758665D02*
X110635365Y-76589034D01*
X109183429Y-94441336D02*
X107939577Y-93052455D01*
X110635365Y-76589034D02*
X112257223Y-75669397D01*
X110635365Y-95610967D02*
X109183429Y-94441336D01*
X112257223Y-75669397D02*
X112539285Y-75509460D01*
X112257223Y-96530604D02*
X110635365Y-95610967D01*
X112539285Y-75509460D02*
X112791796Y-75306046D01*
X112539285Y-96690541D02*
X112257223Y-96530604D01*
X112791796Y-75306046D02*
X113008118Y-75064502D01*
X112791796Y-96893955D02*
X112539285Y-96690541D01*
X113008118Y-75064502D02*
X113182566Y-74791176D01*
X113008118Y-97135499D02*
X112791796Y-96893955D01*
X113182566Y-74791176D02*
X113310553Y-74493253D01*
X113182566Y-97408825D02*
X113008118Y-97135499D01*
X113310553Y-74493253D02*
X113388716Y-74178563D01*
X113310553Y-97706748D02*
X113182566Y-97408825D01*
X113388716Y-74178563D02*
X113415001Y-73855379D01*
X113388716Y-98021438D02*
X113310553Y-97706748D01*
X113415001Y-73855379D02*
X113415101Y-71800000D01*
X113415001Y-98344622D02*
X113388716Y-98021438D01*
X113417207Y-100400000D02*
X113415001Y-98344622D01*
X113815101Y-71400000D02*
X115015051Y-71400000D01*
X115017157Y-100800000D02*
X113817207Y-100800000D01*
X115415051Y-71800000D02*
X115415051Y-72600000D01*
X115415051Y-72600000D02*
X118785050Y-72600000D01*
X115415051Y-99600000D02*
X115414950Y-100400000D01*
X118785050Y-72600000D02*
X118785050Y-71800000D01*
X118785050Y-99600000D02*
X115415051Y-99600000D01*
X118785050Y-100400000D02*
X118785050Y-99600000D01*
X119185050Y-71400000D02*
X120385000Y-71400000D01*
X120385000Y-100800000D02*
X119185050Y-100800000D01*
X120785000Y-71800000D02*
X120785000Y-73855379D01*
X120785000Y-73855379D02*
X120811285Y-74178563D01*
X120785000Y-98344622D02*
X120785000Y-100400000D01*
X120811285Y-74178563D02*
X120889448Y-74493253D01*
X120811285Y-98021438D02*
X120785000Y-98344622D01*
X120889448Y-74493253D02*
X121017435Y-74791176D01*
X120889448Y-97706748D02*
X120811285Y-98021438D01*
X121017435Y-74791176D02*
X121191883Y-75064502D01*
X121017435Y-97408825D02*
X120889448Y-97706748D01*
X121191883Y-75064502D02*
X121408205Y-75306046D01*
X121191883Y-97135499D02*
X121017435Y-97408825D01*
X121408205Y-75306046D02*
X121660716Y-75509460D01*
X121408205Y-96893955D02*
X121191883Y-97135499D01*
X121660716Y-75509460D02*
X121942778Y-75669397D01*
X121660716Y-96690541D02*
X121408205Y-96893955D01*
X121942778Y-75669397D02*
X123564636Y-76589034D01*
X121942778Y-96530604D02*
X121660716Y-96690541D01*
X123564636Y-76589034D02*
X125016572Y-77758665D01*
X123564636Y-95610967D02*
X121942778Y-96530604D01*
X125016572Y-77758665D02*
X126260424Y-79147546D01*
X125016572Y-94441336D02*
X123564636Y-95610967D01*
X126260424Y-79147546D02*
X127263496Y-80719170D01*
X126260424Y-93052455D02*
X125016572Y-94441336D01*
X127263496Y-80719170D02*
X127999424Y-82432227D01*
X127263496Y-91480831D02*
X126260424Y-93052455D01*
X127999424Y-82432227D02*
X128448863Y-84241692D01*
X127999424Y-89767774D02*
X127263496Y-91480831D01*
X128448863Y-84241692D02*
X128600000Y-86100000D01*
X128448863Y-87958309D02*
X127999424Y-89767774D01*
X128600000Y-86100000D02*
X128448863Y-87958309D01*
X113415101Y-71800000D02*
G75*
G02*
X113815101Y-71400000I399999J1D01*
G01*
X113817207Y-100800000D02*
G75*
G02*
X113417200Y-100400000I-7J400000D01*
G01*
X115015051Y-71400000D02*
G75*
G02*
X115415051Y-71800000I1J-399999D01*
G01*
X115414950Y-100400000D02*
G75*
G02*
X115014950Y-100799950I-399950J0D01*
G01*
X118785050Y-71800000D02*
G75*
G02*
X119185050Y-71400000I399999J1D01*
G01*
X119185050Y-100800000D02*
G75*
G02*
X118785050Y-100400000I0J400000D01*
G01*
X120385000Y-71400000D02*
G75*
G02*
X120785000Y-71800000I1J-399999D01*
G01*
X120785000Y-100400000D02*
G75*
G02*
X120385000Y-100800000I-400000J0D01*
G01*
%TD*%
M02*
