%TF.GenerationSoftware,KiCad,Pcbnew,9.0.4*%
%TF.CreationDate,2025-10-29T19:36:09-05:00*%
%TF.ProjectId,ECE 445 - Suction Sense PCB-1,45434520-3434-4352-902d-205375637469,rev?*%
%TF.SameCoordinates,Original*%
%TF.FileFunction,Copper,L2,Bot*%
%TF.FilePolarity,Positive*%
%FSLAX46Y46*%
G04 Gerber Fmt 4.6, Leading zero omitted, Abs format (unit mm)*
G04 Created by KiCad (PCBNEW 9.0.4) date 2025-10-29 19:36:09*
%MOMM*%
%LPD*%
G01*
G04 APERTURE LIST*
G04 Aperture macros list*
%AMRoundRect*
0 Rectangle with rounded corners*
0 $1 Rounding radius*
0 $2 $3 $4 $5 $6 $7 $8 $9 X,Y pos of 4 corners*
0 Add a 4 corners polygon primitive as box body*
4,1,4,$2,$3,$4,$5,$6,$7,$8,$9,$2,$3,0*
0 Add four circle primitives for the rounded corners*
1,1,$1+$1,$2,$3*
1,1,$1+$1,$4,$5*
1,1,$1+$1,$6,$7*
1,1,$1+$1,$8,$9*
0 Add four rect primitives between the rounded corners*
20,1,$1+$1,$2,$3,$4,$5,0*
20,1,$1+$1,$4,$5,$6,$7,0*
20,1,$1+$1,$6,$7,$8,$9,0*
20,1,$1+$1,$8,$9,$2,$3,0*%
G04 Aperture macros list end*
%TA.AperFunction,ComponentPad*%
%ADD10C,0.300000*%
%TD*%
%TA.AperFunction,ComponentPad*%
%ADD11RoundRect,0.250000X-0.620000X-0.845000X0.620000X-0.845000X0.620000X0.845000X-0.620000X0.845000X0*%
%TD*%
%TA.AperFunction,ComponentPad*%
%ADD12O,1.740000X2.190000*%
%TD*%
%TA.AperFunction,HeatsinkPad*%
%ADD13C,0.600000*%
%TD*%
%TA.AperFunction,SMDPad,CuDef*%
%ADD14R,4.400000X3.300000*%
%TD*%
%TA.AperFunction,SMDPad,CuDef*%
%ADD15R,6.200000X3.900000*%
%TD*%
%TA.AperFunction,ViaPad*%
%ADD16C,0.600000*%
%TD*%
%TA.AperFunction,Conductor*%
%ADD17C,0.200000*%
%TD*%
G04 APERTURE END LIST*
D10*
%TO.P,U2,1_1,OUT__1*%
%TO.N,/BUCK_IN*%
X102938000Y-74587000D03*
%TO.P,U2,2_1,IN2__1*%
%TO.N,+5VB*%
X102938000Y-75287000D03*
%TO.P,U2,7_1,IN1__1*%
%TO.N,/5vA*%
X103738000Y-75287000D03*
%TO.P,U2,8_1,OUT__3*%
%TO.N,/BUCK_IN*%
X103738000Y-74587000D03*
%TD*%
D11*
%TO.P,J1,1,Pin_1*%
%TO.N,/3v3*%
X165460000Y-81500000D03*
D12*
%TO.P,J1,2,Pin_2*%
%TO.N,GND*%
X168000000Y-81500000D03*
%TO.P,J1,3,Pin_3*%
%TO.N,/IO5*%
X170540000Y-81500000D03*
%TD*%
D13*
%TO.P,U1,39,GND*%
%TO.N,GND*%
X141500000Y-71501000D03*
X141500000Y-72901000D03*
X142200000Y-70801000D03*
X142200000Y-72201000D03*
X142200000Y-73601000D03*
X142875000Y-71501000D03*
X142875000Y-72901000D03*
X143600000Y-70801000D03*
X143600000Y-72201000D03*
X143600000Y-73601000D03*
X144300000Y-71501000D03*
X144300000Y-72901000D03*
%TD*%
D11*
%TO.P,J2,1,Pin_1*%
%TO.N,/3v3*%
X167220000Y-94000000D03*
D12*
%TO.P,J2,2,Pin_2*%
%TO.N,GND*%
X169760000Y-94000000D03*
%TO.P,J2,3,Pin_3*%
%TO.N,/IO12*%
X172300000Y-94000000D03*
%TD*%
D14*
%TO.P,J4,1*%
%TO.N,+5VB*%
X112100000Y-114500000D03*
D15*
%TO.P,J4,2*%
%TO.N,GND*%
X103100000Y-121650000D03*
%TO.P,J4,3*%
%TO.N,N/C*%
X103100000Y-108750000D03*
%TD*%
D16*
%TO.N,/BUCK_IN*%
X153543000Y-118237000D03*
X107950000Y-75184000D03*
%TO.N,*%
X98000000Y-74200000D03*
X102300000Y-70500000D03*
%TO.N,/3v3*%
X130000000Y-72000000D03*
X144200000Y-98000000D03*
X130000000Y-69700000D03*
%TO.N,GND*%
X128400000Y-91400000D03*
X114000000Y-66600000D03*
X160900000Y-103300000D03*
X131500000Y-87000000D03*
X135500000Y-83300000D03*
X133300000Y-84600000D03*
X157600000Y-103400000D03*
X156400000Y-103400000D03*
X115100000Y-62100000D03*
%TO.N,Net-(U3-BST)*%
X161000000Y-105500000D03*
X155300000Y-105400000D03*
%TO.N,/BUCK_IN*%
X102500000Y-77100000D03*
%TO.N,/IO35*%
X132900000Y-72300000D03*
X129400000Y-72900000D03*
%TO.N,/IO5*%
X158900000Y-75900000D03*
%TO.N,/IO12*%
X138600000Y-79900000D03*
%TO.N,/IO2*%
X121539600Y-63730500D03*
X137600000Y-84300000D03*
%TO.N,+5VB*%
X117200000Y-114500000D03*
%TO.N,Net-(U4-V_{SS})*%
X135000000Y-117800000D03*
X132900000Y-117800000D03*
%TO.N,/5vA*%
X105283000Y-105918000D03*
X104648000Y-100838000D03*
%TD*%
D17*
%TO.N,/BUCK_IN*%
X112649000Y-70485000D02*
X123217900Y-70485000D01*
X123217900Y-70485000D02*
X132101000Y-79368100D01*
X132101000Y-96795000D02*
X153543000Y-118237000D01*
X107950000Y-75184000D02*
X112649000Y-70485000D01*
X132101000Y-79368100D02*
X132101000Y-96795000D01*
%TO.N,*%
X102300000Y-70500000D02*
X101700000Y-70500000D01*
X101700000Y-70500000D02*
X98000000Y-74200000D01*
%TO.N,/3v3*%
X165460000Y-81500000D02*
X160700000Y-81500000D01*
X167220000Y-94000000D02*
X167220000Y-92020000D01*
X160700000Y-81500000D02*
X152450000Y-89750000D01*
X152450000Y-89750000D02*
X144200000Y-98000000D01*
X159050000Y-83850000D02*
X159050000Y-83150000D01*
X167220000Y-92020000D02*
X159050000Y-83850000D01*
X152450000Y-89750000D02*
X153150000Y-89750000D01*
X130000000Y-72000000D02*
X130000000Y-69700000D01*
X153150000Y-89750000D02*
X159050000Y-83850000D01*
%TO.N,GND*%
X114000000Y-66600000D02*
X114000000Y-63200000D01*
X128400000Y-90100000D02*
X128400000Y-91400000D01*
X131500000Y-87000000D02*
X128400000Y-90100000D01*
X135500000Y-83300000D02*
X134600000Y-83300000D01*
X134600000Y-83300000D02*
X133300000Y-84600000D01*
X157600000Y-103400000D02*
X160800000Y-103400000D01*
X114000000Y-63200000D02*
X115100000Y-62100000D01*
X160800000Y-103400000D02*
X160900000Y-103300000D01*
%TO.N,Net-(U3-BST)*%
X155400000Y-105500000D02*
X155300000Y-105400000D01*
X161000000Y-105500000D02*
X155400000Y-105500000D01*
%TO.N,/BUCK_IN*%
X102500000Y-77100000D02*
X102436800Y-77036800D01*
X102436800Y-77036800D02*
X102436800Y-75088200D01*
X102436800Y-75088200D02*
X102938000Y-74587000D01*
%TO.N,/IO35*%
X129400000Y-72900000D02*
X132300000Y-72900000D01*
X132300000Y-72900000D02*
X132900000Y-72300000D01*
%TO.N,/IO5*%
X164940000Y-75900000D02*
X170540000Y-81500000D01*
X158900000Y-75900000D02*
X164940000Y-75900000D01*
%TO.N,/IO12*%
X166631000Y-80419800D02*
X166111000Y-79900000D01*
X172300000Y-94000000D02*
X166631000Y-88331000D01*
X166111000Y-79900000D02*
X138600000Y-79900000D01*
X166631000Y-88331000D02*
X166631000Y-80419800D01*
%TO.N,/IO2*%
X121539600Y-68239600D02*
X121539600Y-63730500D01*
X137600000Y-84300000D02*
X124349500Y-71049500D01*
X124349500Y-71049500D02*
X124099000Y-70799000D01*
X124099000Y-70799000D02*
X121539600Y-68239600D01*
%TO.N,+5VB*%
X112100000Y-114500000D02*
X106501000Y-108901000D01*
X106501000Y-108901000D02*
X106501000Y-91954100D01*
X103107900Y-87522000D02*
X102588400Y-88041500D01*
X102588400Y-88041500D02*
X101900000Y-87353100D01*
X112100000Y-114500000D02*
X117200000Y-114500000D01*
X106501000Y-91954100D02*
X102588400Y-88041500D01*
X103107900Y-75456900D02*
X103107900Y-87522000D01*
X102938000Y-75287000D02*
X103107900Y-75456900D01*
%TO.N,Net-(U4-V_{SS})*%
X135000000Y-117800000D02*
X132900000Y-117800000D01*
%TO.N,/5vA*%
X105664000Y-105537000D02*
X105283000Y-105918000D01*
X104648000Y-100838000D02*
X105664000Y-101854000D01*
X105664000Y-101854000D02*
X105664000Y-105537000D01*
%TD*%
%TA.AperFunction,Conductor*%
%TO.N,GND*%
G36*
X120343039Y-53359685D02*
G01*
X120388794Y-53412489D01*
X120400000Y-53464000D01*
X120400000Y-63181000D01*
X120715176Y-63181000D01*
X120782215Y-63200685D01*
X120827970Y-63253489D01*
X120837914Y-63322647D01*
X120829737Y-63352452D01*
X120769864Y-63496998D01*
X120769861Y-63497010D01*
X120739100Y-63651653D01*
X120739100Y-63809346D01*
X120769861Y-63963989D01*
X120769864Y-63964001D01*
X120830202Y-64109672D01*
X120830209Y-64109685D01*
X120918202Y-64241374D01*
X120939080Y-64308051D01*
X120939100Y-64310265D01*
X120939100Y-68152930D01*
X120939099Y-68152948D01*
X120939099Y-68318654D01*
X120939098Y-68318654D01*
X120980023Y-68471385D01*
X121008958Y-68521500D01*
X121008959Y-68521504D01*
X121008960Y-68521504D01*
X121059079Y-68608314D01*
X121059081Y-68608317D01*
X121177949Y-68727185D01*
X121177955Y-68727190D01*
X122123584Y-69672819D01*
X122157069Y-69734142D01*
X122152085Y-69803834D01*
X122110213Y-69859767D01*
X122044749Y-69884184D01*
X122035903Y-69884500D01*
X112735670Y-69884500D01*
X112735654Y-69884499D01*
X112728058Y-69884499D01*
X112569943Y-69884499D01*
X112513960Y-69899500D01*
X112417214Y-69925423D01*
X112417209Y-69925426D01*
X112280290Y-70004475D01*
X112280282Y-70004481D01*
X107935339Y-74349425D01*
X107874016Y-74382910D01*
X107871850Y-74383361D01*
X107716508Y-74414261D01*
X107716498Y-74414264D01*
X107570827Y-74474602D01*
X107570814Y-74474609D01*
X107439711Y-74562210D01*
X107439707Y-74562213D01*
X107328213Y-74673707D01*
X107328210Y-74673711D01*
X107240609Y-74804814D01*
X107240602Y-74804827D01*
X107180264Y-74950498D01*
X107180261Y-74950510D01*
X107149500Y-75105153D01*
X107149500Y-75262846D01*
X107180261Y-75417489D01*
X107180264Y-75417501D01*
X107240602Y-75563172D01*
X107240609Y-75563185D01*
X107328210Y-75694288D01*
X107328213Y-75694292D01*
X107439707Y-75805786D01*
X107439711Y-75805789D01*
X107570814Y-75893390D01*
X107570827Y-75893397D01*
X107674355Y-75936279D01*
X107716503Y-75953737D01*
X107842714Y-75978842D01*
X107871153Y-75984499D01*
X107871156Y-75984500D01*
X107871158Y-75984500D01*
X108028844Y-75984500D01*
X108028845Y-75984499D01*
X108183497Y-75953737D01*
X108329179Y-75893394D01*
X108460289Y-75805789D01*
X108571789Y-75694289D01*
X108659394Y-75563179D01*
X108719737Y-75417497D01*
X108743208Y-75299500D01*
X108750638Y-75262150D01*
X108783023Y-75200239D01*
X108784518Y-75198716D01*
X112861417Y-71121819D01*
X112922740Y-71088334D01*
X112949098Y-71085500D01*
X113486725Y-71085500D01*
X113553764Y-71105185D01*
X113599519Y-71157989D01*
X113609463Y-71227147D01*
X113580438Y-71290703D01*
X113540527Y-71321220D01*
X113520367Y-71330928D01*
X113423375Y-71408275D01*
X113346029Y-71505262D01*
X113292207Y-71617026D01*
X113264601Y-71737972D01*
X113264601Y-71789717D01*
X113264501Y-73844227D01*
X113264093Y-73854273D01*
X113240521Y-74144110D01*
X113237272Y-74163949D01*
X113169873Y-74435302D01*
X113163462Y-74454356D01*
X113053099Y-74711255D01*
X113043692Y-74729022D01*
X112893261Y-74964718D01*
X112881107Y-74980732D01*
X112694580Y-75189007D01*
X112679999Y-75202846D01*
X112462256Y-75378253D01*
X112445629Y-75389554D01*
X112179903Y-75540228D01*
X112179902Y-75540229D01*
X110588758Y-76442449D01*
X110588757Y-76442448D01*
X110576271Y-76449528D01*
X110564264Y-76453052D01*
X110550484Y-76464150D01*
X110541708Y-76469128D01*
X110535094Y-76472878D01*
X110533123Y-76474580D01*
X110516216Y-76491756D01*
X109113744Y-77621540D01*
X109102569Y-77630541D01*
X109091289Y-77635960D01*
X109079489Y-77649133D01*
X109071644Y-77655454D01*
X109071638Y-77655460D01*
X109068482Y-77658002D01*
X109065700Y-77660244D01*
X109064042Y-77662227D01*
X109050125Y-77681922D01*
X107848650Y-79023481D01*
X107848651Y-79023482D01*
X107839076Y-79034172D01*
X107828819Y-79041343D01*
X107819305Y-79056248D01*
X107812579Y-79063759D01*
X107812577Y-79063763D01*
X107807493Y-79069439D01*
X107806178Y-79071664D01*
X107795625Y-79093348D01*
X106826724Y-80611433D01*
X106819004Y-80623527D01*
X106810042Y-80632260D01*
X106803062Y-80648505D01*
X106797640Y-80657001D01*
X106797639Y-80657004D01*
X106793537Y-80663432D01*
X106792598Y-80665839D01*
X106785688Y-80688945D01*
X106074831Y-82343643D01*
X106069168Y-82356824D01*
X106061731Y-82366895D01*
X106057466Y-82384062D01*
X106053487Y-82393326D01*
X106050482Y-82400321D01*
X106049943Y-82402859D01*
X106046858Y-82426767D01*
X105612733Y-84174583D01*
X105612733Y-84174584D01*
X105609273Y-84188513D01*
X105603560Y-84199654D01*
X105602125Y-84217290D01*
X105599695Y-84227074D01*
X105597859Y-84234465D01*
X105597737Y-84237049D01*
X105598557Y-84261146D01*
X105452570Y-86056145D01*
X105451406Y-86070446D01*
X105447570Y-86082362D01*
X105449003Y-86099996D01*
X105448187Y-86110038D01*
X105448187Y-86110044D01*
X105447569Y-86117636D01*
X105447867Y-86120211D01*
X105452571Y-86143856D01*
X105580906Y-87721818D01*
X105599721Y-87953153D01*
X105597860Y-87965535D01*
X105602123Y-87982702D01*
X105602941Y-87992750D01*
X105603559Y-88000345D01*
X105604272Y-88002847D01*
X105612734Y-88025418D01*
X106046857Y-89773229D01*
X106046858Y-89773229D01*
X106050317Y-89787155D01*
X106050481Y-89799674D01*
X106057465Y-89815931D01*
X106059896Y-89825720D01*
X106059896Y-89825721D01*
X106059897Y-89825722D01*
X106061731Y-89833107D01*
X106062834Y-89835451D01*
X106074832Y-89856359D01*
X106439434Y-90705060D01*
X106447809Y-90774426D01*
X106417353Y-90837308D01*
X106357735Y-90873742D01*
X106287883Y-90872161D01*
X106237821Y-90841686D01*
X103525316Y-88129181D01*
X103525150Y-88128877D01*
X103524846Y-88128709D01*
X103508392Y-88098188D01*
X103491831Y-88067858D01*
X103491855Y-88067512D01*
X103491691Y-88067207D01*
X103494345Y-88032703D01*
X103496815Y-87998166D01*
X103497032Y-87997770D01*
X103497050Y-87997543D01*
X103497766Y-87996435D01*
X103514130Y-87966658D01*
X103519276Y-87959859D01*
X103588420Y-87890716D01*
X103638539Y-87803904D01*
X103667477Y-87753785D01*
X103708401Y-87601057D01*
X103708401Y-87442943D01*
X103708401Y-87435348D01*
X103708400Y-87435330D01*
X103708400Y-76057896D01*
X103728085Y-75990857D01*
X103780889Y-75945102D01*
X103808208Y-75936279D01*
X103861680Y-75925642D01*
X103927744Y-75912501D01*
X104046127Y-75863465D01*
X104152669Y-75792276D01*
X104243276Y-75701669D01*
X104314465Y-75595127D01*
X104363501Y-75476744D01*
X104374893Y-75419475D01*
X104388500Y-75351071D01*
X104388500Y-75222928D01*
X104363502Y-75097261D01*
X104363501Y-75097260D01*
X104363501Y-75097256D01*
X104316775Y-74984451D01*
X104309307Y-74914984D01*
X104316776Y-74889547D01*
X104317905Y-74886822D01*
X104363501Y-74776744D01*
X104374891Y-74719484D01*
X104388500Y-74651071D01*
X104388500Y-74522928D01*
X104363502Y-74397261D01*
X104363501Y-74397260D01*
X104363501Y-74397256D01*
X104314465Y-74278873D01*
X104314464Y-74278872D01*
X104314461Y-74278866D01*
X104243276Y-74172331D01*
X104243273Y-74172327D01*
X104152672Y-74081726D01*
X104152668Y-74081723D01*
X104046133Y-74010538D01*
X104046124Y-74010533D01*
X103927744Y-73961499D01*
X103927738Y-73961497D01*
X103802071Y-73936500D01*
X103802069Y-73936500D01*
X103673931Y-73936500D01*
X103673929Y-73936500D01*
X103548261Y-73961497D01*
X103548255Y-73961499D01*
X103429872Y-74010534D01*
X103406888Y-74025892D01*
X103340210Y-74046768D01*
X103272830Y-74028282D01*
X103269112Y-74025892D01*
X103246127Y-74010534D01*
X103127744Y-73961499D01*
X103127738Y-73961497D01*
X103002071Y-73936500D01*
X103002069Y-73936500D01*
X102873931Y-73936500D01*
X102873929Y-73936500D01*
X102748261Y-73961497D01*
X102748255Y-73961499D01*
X102629875Y-74010533D01*
X102629866Y-74010538D01*
X102523331Y-74081723D01*
X102523327Y-74081726D01*
X102432725Y-74172328D01*
X102361535Y-74278873D01*
X102345971Y-74316446D01*
X102319092Y-74356671D01*
X102068086Y-74607678D01*
X101956281Y-74719482D01*
X101956279Y-74719485D01*
X101938313Y-74750604D01*
X101920346Y-74781724D01*
X101877223Y-74856415D01*
X101836299Y-75009143D01*
X101836299Y-75009145D01*
X101836299Y-75177246D01*
X101836300Y-75177259D01*
X101836300Y-76614820D01*
X101816615Y-76681859D01*
X101815402Y-76683711D01*
X101790604Y-76720823D01*
X101730264Y-76866498D01*
X101730261Y-76866510D01*
X101699500Y-77021153D01*
X101699500Y-77178846D01*
X101730261Y-77333489D01*
X101730264Y-77333501D01*
X101790602Y-77479172D01*
X101790609Y-77479185D01*
X101878210Y-77610288D01*
X101878213Y-77610292D01*
X101989707Y-77721786D01*
X101989711Y-77721789D01*
X102120814Y-77809390D01*
X102120827Y-77809397D01*
X102266498Y-77869735D01*
X102266503Y-77869737D01*
X102318997Y-77880178D01*
X102407591Y-77897802D01*
X102469502Y-77930187D01*
X102504077Y-77990903D01*
X102507400Y-78019419D01*
X102507400Y-86811902D01*
X102487715Y-86878941D01*
X102434911Y-86924696D01*
X102365753Y-86934640D01*
X102302197Y-86905615D01*
X102295720Y-86899585D01*
X102268716Y-86872581D01*
X102131785Y-86793523D01*
X101979057Y-86752599D01*
X101820943Y-86752599D01*
X101706397Y-86783292D01*
X101668214Y-86793523D01*
X101531284Y-86872581D01*
X101531281Y-86872583D01*
X101419483Y-86984381D01*
X101419481Y-86984384D01*
X101340423Y-87121314D01*
X101340423Y-87121315D01*
X101299499Y-87274043D01*
X101299499Y-87274045D01*
X101299499Y-87432154D01*
X101299498Y-87432154D01*
X101299499Y-87432157D01*
X101340423Y-87584885D01*
X101419481Y-87721816D01*
X101419483Y-87721818D01*
X102226749Y-88529085D01*
X102226755Y-88529090D01*
X105864181Y-92166516D01*
X105897666Y-92227839D01*
X105900500Y-92254197D01*
X105900500Y-100941903D01*
X105880815Y-101008942D01*
X105828011Y-101054697D01*
X105758853Y-101064641D01*
X105695297Y-101035616D01*
X105688819Y-101029584D01*
X105482574Y-100823339D01*
X105449089Y-100762016D01*
X105448638Y-100759849D01*
X105430595Y-100669147D01*
X105417737Y-100604503D01*
X105408823Y-100582983D01*
X105357397Y-100458827D01*
X105357390Y-100458814D01*
X105269789Y-100327711D01*
X105269786Y-100327707D01*
X105158292Y-100216213D01*
X105158288Y-100216210D01*
X105027185Y-100128609D01*
X105027172Y-100128602D01*
X104881501Y-100068264D01*
X104881489Y-100068261D01*
X104726845Y-100037500D01*
X104726842Y-100037500D01*
X104569158Y-100037500D01*
X104569155Y-100037500D01*
X104414510Y-100068261D01*
X104414498Y-100068264D01*
X104268827Y-100128602D01*
X104268814Y-100128609D01*
X104137711Y-100216210D01*
X104137707Y-100216213D01*
X104026213Y-100327707D01*
X104026210Y-100327711D01*
X103938609Y-100458814D01*
X103938602Y-100458827D01*
X103878264Y-100604498D01*
X103878261Y-100604510D01*
X103847500Y-100759153D01*
X103847500Y-100916846D01*
X103878261Y-101071489D01*
X103878264Y-101071501D01*
X103938602Y-101217172D01*
X103938609Y-101217185D01*
X104026210Y-101348288D01*
X104026213Y-101348292D01*
X104137707Y-101459786D01*
X104137711Y-101459789D01*
X104268814Y-101547390D01*
X104268827Y-101547397D01*
X104414498Y-101607735D01*
X104414503Y-101607737D01*
X104479147Y-101620595D01*
X104569849Y-101638638D01*
X104631760Y-101671023D01*
X104633339Y-101672574D01*
X105027181Y-102066416D01*
X105060666Y-102127739D01*
X105063500Y-102154097D01*
X105063500Y-105059610D01*
X105043815Y-105126649D01*
X104991011Y-105172404D01*
X104986953Y-105174171D01*
X104903824Y-105208604D01*
X104903814Y-105208609D01*
X104772711Y-105296210D01*
X104772707Y-105296213D01*
X104661213Y-105407707D01*
X104661210Y-105407711D01*
X104573609Y-105538814D01*
X104573602Y-105538827D01*
X104513264Y-105684498D01*
X104513261Y-105684510D01*
X104482500Y-105839153D01*
X104482500Y-105996846D01*
X104513225Y-106151309D01*
X104506998Y-106220900D01*
X104464135Y-106276078D01*
X104398245Y-106299322D01*
X104391608Y-106299500D01*
X99952129Y-106299500D01*
X99952123Y-106299501D01*
X99892516Y-106305908D01*
X99757671Y-106356202D01*
X99757664Y-106356206D01*
X99642455Y-106442452D01*
X99642452Y-106442455D01*
X99556206Y-106557664D01*
X99556202Y-106557671D01*
X99505908Y-106692517D01*
X99499501Y-106752116D01*
X99499500Y-106752135D01*
X99499500Y-110747870D01*
X99499501Y-110747876D01*
X99505908Y-110807483D01*
X99556202Y-110942328D01*
X99556206Y-110942335D01*
X99642452Y-111057544D01*
X99642455Y-111057547D01*
X99757664Y-111143793D01*
X99757671Y-111143797D01*
X99892517Y-111194091D01*
X99892516Y-111194091D01*
X99899444Y-111194835D01*
X99952127Y-111200500D01*
X106247872Y-111200499D01*
X106307483Y-111194091D01*
X106442331Y-111143796D01*
X106557546Y-111057546D01*
X106643796Y-110942331D01*
X106694091Y-110807483D01*
X106700500Y-110747873D01*
X106700499Y-110249094D01*
X106720183Y-110182057D01*
X106772987Y-110136302D01*
X106842146Y-110126358D01*
X106905702Y-110155383D01*
X106912180Y-110161415D01*
X109373710Y-112622945D01*
X109407195Y-112684268D01*
X109406708Y-112739130D01*
X109405909Y-112742511D01*
X109399501Y-112802116D01*
X109399501Y-112802123D01*
X109399500Y-112802135D01*
X109399500Y-116197870D01*
X109399501Y-116197876D01*
X109405908Y-116257483D01*
X109456202Y-116392328D01*
X109456206Y-116392335D01*
X109542452Y-116507544D01*
X109542455Y-116507547D01*
X109657664Y-116593793D01*
X109657671Y-116593797D01*
X109792517Y-116644091D01*
X109792516Y-116644091D01*
X109799444Y-116644835D01*
X109852127Y-116650500D01*
X114347872Y-116650499D01*
X114407483Y-116644091D01*
X114542331Y-116593796D01*
X114657546Y-116507546D01*
X114743796Y-116392331D01*
X114794091Y-116257483D01*
X114800500Y-116197873D01*
X114800500Y-115224500D01*
X114820185Y-115157461D01*
X114872989Y-115111706D01*
X114924500Y-115100500D01*
X116620234Y-115100500D01*
X116687273Y-115120185D01*
X116689125Y-115121398D01*
X116820814Y-115209390D01*
X116820827Y-115209397D01*
X116966498Y-115269735D01*
X116966503Y-115269737D01*
X117121153Y-115300499D01*
X117121156Y-115300500D01*
X117121158Y-115300500D01*
X117278844Y-115300500D01*
X117278845Y-115300499D01*
X117433497Y-115269737D01*
X117579179Y-115209394D01*
X117710289Y-115121789D01*
X117821789Y-115010289D01*
X117909394Y-114879179D01*
X117969737Y-114733497D01*
X118000500Y-114578842D01*
X118000500Y-114421158D01*
X118000500Y-114421155D01*
X118000499Y-114421153D01*
X117980865Y-114322447D01*
X117969737Y-114266503D01*
X117948820Y-114216004D01*
X117909397Y-114120827D01*
X117909390Y-114120814D01*
X117821789Y-113989711D01*
X117821786Y-113989707D01*
X117710292Y-113878213D01*
X117710288Y-113878210D01*
X117579185Y-113790609D01*
X117579172Y-113790602D01*
X117433501Y-113730264D01*
X117433489Y-113730261D01*
X117278845Y-113699500D01*
X117278842Y-113699500D01*
X117121158Y-113699500D01*
X117121155Y-113699500D01*
X116966510Y-113730261D01*
X116966498Y-113730264D01*
X116820827Y-113790602D01*
X116820814Y-113790609D01*
X116689125Y-113878602D01*
X116622447Y-113899480D01*
X116620234Y-113899500D01*
X114924499Y-113899500D01*
X114857460Y-113879815D01*
X114811705Y-113827011D01*
X114800499Y-113775500D01*
X114800499Y-112802129D01*
X114800498Y-112802123D01*
X114800497Y-112802116D01*
X114794091Y-112742517D01*
X114743796Y-112607669D01*
X114743795Y-112607668D01*
X114743793Y-112607664D01*
X114657547Y-112492455D01*
X114657544Y-112492452D01*
X114542335Y-112406206D01*
X114542328Y-112406202D01*
X114407482Y-112355908D01*
X114407483Y-112355908D01*
X114347883Y-112349501D01*
X114347881Y-112349500D01*
X114347873Y-112349500D01*
X114347865Y-112349500D01*
X110850098Y-112349500D01*
X110783059Y-112329815D01*
X110762417Y-112313181D01*
X107137819Y-108688583D01*
X107104334Y-108627260D01*
X107101500Y-108600902D01*
X107101500Y-92443854D01*
X107121185Y-92376815D01*
X107173989Y-92331060D01*
X107243147Y-92321116D01*
X107306703Y-92350141D01*
X107330024Y-92377141D01*
X107349582Y-92407784D01*
X107795622Y-93106646D01*
X107803344Y-93118744D01*
X107807493Y-93130560D01*
X107819300Y-93143743D01*
X107828819Y-93158658D01*
X107830610Y-93160525D01*
X107848652Y-93176518D01*
X109050120Y-94518072D01*
X109059698Y-94528766D01*
X109065702Y-94539758D01*
X109079486Y-94550862D01*
X109086214Y-94558374D01*
X109086215Y-94558375D01*
X109091289Y-94564041D01*
X109093361Y-94565597D01*
X109113746Y-94578461D01*
X110527391Y-95717245D01*
X110535090Y-95727119D01*
X110550480Y-95735845D01*
X110558332Y-95742171D01*
X110564262Y-95746948D01*
X110566562Y-95748150D01*
X110588760Y-95757551D01*
X112156948Y-96646756D01*
X112445630Y-96810446D01*
X112462253Y-96821744D01*
X112680003Y-96997157D01*
X112694576Y-97010988D01*
X112881108Y-97219269D01*
X112893261Y-97235281D01*
X113043692Y-97470977D01*
X113053099Y-97488744D01*
X113163462Y-97745643D01*
X113169873Y-97764697D01*
X113237272Y-98036050D01*
X113240521Y-98055889D01*
X113264104Y-98345860D01*
X113264512Y-98355779D01*
X113266700Y-100393479D01*
X113266700Y-100462028D01*
X113270142Y-100477106D01*
X113294305Y-100582971D01*
X113348131Y-100694740D01*
X113425478Y-100791729D01*
X113522469Y-100869074D01*
X113634238Y-100922898D01*
X113634241Y-100922898D01*
X113634242Y-100922899D01*
X113674553Y-100932099D01*
X113755183Y-100950501D01*
X113817210Y-100950500D01*
X115014931Y-100950500D01*
X115047093Y-100950500D01*
X115059344Y-100950500D01*
X115059788Y-100950454D01*
X115076957Y-100950457D01*
X115197901Y-100922866D01*
X115309626Y-100869074D01*
X115309668Y-100869054D01*
X115309668Y-100869053D01*
X115309672Y-100869052D01*
X115406665Y-100791714D01*
X115484015Y-100694731D01*
X115537843Y-100582966D01*
X115565449Y-100462026D01*
X115565450Y-100400000D01*
X115565450Y-100398400D01*
X115565516Y-99874482D01*
X115585209Y-99807447D01*
X115638019Y-99761699D01*
X115689516Y-99750500D01*
X118510550Y-99750500D01*
X118577589Y-99770185D01*
X118623344Y-99822989D01*
X118634550Y-99874500D01*
X118634550Y-100348587D01*
X118634499Y-100348760D01*
X118634500Y-100462026D01*
X118634500Y-100462027D01*
X118634501Y-100462031D01*
X118662110Y-100582983D01*
X118715928Y-100694729D01*
X118715943Y-100694760D01*
X118762546Y-100753191D01*
X118793299Y-100791750D01*
X118890301Y-100869094D01*
X119002082Y-100922913D01*
X119123037Y-100950507D01*
X119123037Y-100950506D01*
X119123038Y-100950507D01*
X119185069Y-100950500D01*
X120447026Y-100950500D01*
X120567969Y-100922895D01*
X120679737Y-100869071D01*
X120776725Y-100791725D01*
X120854071Y-100694737D01*
X120907895Y-100582969D01*
X120935500Y-100462026D01*
X120935500Y-100400000D01*
X120935500Y-100365649D01*
X120935500Y-98355766D01*
X120935908Y-98345715D01*
X120936500Y-98338438D01*
X120959479Y-98055881D01*
X120962725Y-98036060D01*
X121030128Y-97764690D01*
X121036532Y-97745656D01*
X121146909Y-97488725D01*
X121156307Y-97470977D01*
X121306744Y-97235272D01*
X121318881Y-97219279D01*
X121505423Y-97010987D01*
X121520003Y-96997151D01*
X121737749Y-96821743D01*
X121754364Y-96810449D01*
X122043053Y-96646756D01*
X122043052Y-96646756D01*
X123623721Y-95750474D01*
X123635737Y-95746949D01*
X123649519Y-95735846D01*
X123664911Y-95727119D01*
X123664913Y-95727115D01*
X123666882Y-95725417D01*
X123683785Y-95708241D01*
X125097427Y-94569460D01*
X125108712Y-94564041D01*
X125120514Y-94550862D01*
X125134299Y-94539758D01*
X125134301Y-94539752D01*
X125135964Y-94537765D01*
X125149879Y-94518072D01*
X125187452Y-94476118D01*
X126360920Y-93165830D01*
X126371182Y-93158658D01*
X126380697Y-93143746D01*
X126387428Y-93136232D01*
X126387428Y-93136231D01*
X126387432Y-93136227D01*
X126392508Y-93130560D01*
X126392509Y-93130555D01*
X126393827Y-93128328D01*
X126404371Y-93106655D01*
X127380991Y-91576477D01*
X127389960Y-91567741D01*
X127396942Y-91551484D01*
X127402371Y-91542980D01*
X127402371Y-91542979D01*
X127406465Y-91536566D01*
X127406465Y-91536563D01*
X127406467Y-91536561D01*
X127407408Y-91534146D01*
X127414309Y-91511060D01*
X128130829Y-89843179D01*
X128138270Y-89833106D01*
X128142536Y-89815928D01*
X128149520Y-89799673D01*
X128149520Y-89799670D01*
X128150058Y-89797141D01*
X128153142Y-89773228D01*
X128166459Y-89719612D01*
X128590727Y-88011487D01*
X128596441Y-88000346D01*
X128597875Y-87982708D01*
X128602141Y-87965535D01*
X128602141Y-87965532D01*
X128602263Y-87962951D01*
X128601442Y-87938850D01*
X128748592Y-86129556D01*
X128752431Y-86117638D01*
X128750996Y-86100000D01*
X128752431Y-86082362D01*
X128752430Y-86082361D01*
X128752431Y-86082360D01*
X128752133Y-86079785D01*
X128747428Y-86056142D01*
X128600279Y-84246847D01*
X128602141Y-84234466D01*
X128597875Y-84217292D01*
X128596441Y-84199655D01*
X128596439Y-84199651D01*
X128595732Y-84197168D01*
X128587269Y-84174592D01*
X128149683Y-82412845D01*
X128149520Y-82400328D01*
X128142536Y-82384072D01*
X128138270Y-82366895D01*
X128138270Y-82366894D01*
X128137167Y-82364550D01*
X128125167Y-82343642D01*
X127408649Y-80675764D01*
X127406465Y-80663435D01*
X127396944Y-80648518D01*
X127389960Y-80632260D01*
X127388493Y-80630125D01*
X127373270Y-80611425D01*
X126986578Y-80005552D01*
X126396656Y-79081256D01*
X126392508Y-79069441D01*
X126380700Y-79056257D01*
X126371182Y-79041343D01*
X126371181Y-79041342D01*
X126369388Y-79039472D01*
X126351348Y-79023482D01*
X125149877Y-77681925D01*
X125149876Y-77681924D01*
X125140301Y-77671232D01*
X125134299Y-77660243D01*
X125120514Y-77649138D01*
X125113784Y-77641623D01*
X125108715Y-77635962D01*
X125106634Y-77634400D01*
X125086255Y-77621540D01*
X123683784Y-76491757D01*
X123683783Y-76491756D01*
X123672607Y-76482753D01*
X123664911Y-76472882D01*
X123649519Y-76464154D01*
X123641663Y-76457825D01*
X123635740Y-76453054D01*
X123635738Y-76453053D01*
X123635737Y-76453052D01*
X123635735Y-76453051D01*
X123633440Y-76451851D01*
X123611240Y-76442449D01*
X123554528Y-76410292D01*
X122749355Y-75953737D01*
X121998255Y-75527843D01*
X121998246Y-75527837D01*
X121754370Y-75389553D01*
X121737744Y-75378252D01*
X121520003Y-75202848D01*
X121505421Y-75189009D01*
X121344338Y-75009145D01*
X121318886Y-74980725D01*
X121306738Y-74964718D01*
X121156307Y-74729022D01*
X121146907Y-74711269D01*
X121036534Y-74454347D01*
X121030126Y-74435302D01*
X120962725Y-74163941D01*
X120959479Y-74144116D01*
X120937922Y-73879059D01*
X120935908Y-73854284D01*
X120935500Y-73844233D01*
X120935500Y-71737974D01*
X120907895Y-71617031D01*
X120907888Y-71617017D01*
X120875856Y-71550500D01*
X120854071Y-71505263D01*
X120776725Y-71408275D01*
X120721178Y-71363977D01*
X120679739Y-71330930D01*
X120659576Y-71321220D01*
X120607717Y-71274397D01*
X120589404Y-71206970D01*
X120610452Y-71140346D01*
X120664178Y-71095678D01*
X120713378Y-71085500D01*
X122917803Y-71085500D01*
X122984842Y-71105185D01*
X123005484Y-71121819D01*
X131464181Y-79580516D01*
X131497666Y-79641839D01*
X131500500Y-79668197D01*
X131500500Y-96708330D01*
X131500499Y-96708348D01*
X131500499Y-96874054D01*
X131500498Y-96874054D01*
X131541424Y-97026789D01*
X131541425Y-97026790D01*
X131568575Y-97073814D01*
X131568577Y-97073816D01*
X131620479Y-97163714D01*
X131620481Y-97163717D01*
X131739349Y-97282585D01*
X131739355Y-97282590D01*
X152708425Y-118251660D01*
X152741910Y-118312983D01*
X152742361Y-118315149D01*
X152773261Y-118470491D01*
X152773264Y-118470501D01*
X152833602Y-118616172D01*
X152833609Y-118616185D01*
X152921210Y-118747288D01*
X152921213Y-118747292D01*
X153032707Y-118858786D01*
X153032711Y-118858789D01*
X153163814Y-118946390D01*
X153163827Y-118946397D01*
X153309498Y-119006735D01*
X153309503Y-119006737D01*
X153464153Y-119037499D01*
X153464156Y-119037500D01*
X153464158Y-119037500D01*
X153621844Y-119037500D01*
X153621845Y-119037499D01*
X153776497Y-119006737D01*
X153922179Y-118946394D01*
X154053289Y-118858789D01*
X154164789Y-118747289D01*
X154252394Y-118616179D01*
X154312737Y-118470497D01*
X154343500Y-118315842D01*
X154343500Y-118158158D01*
X154343500Y-118158155D01*
X154343499Y-118158153D01*
X154318703Y-118033497D01*
X154312737Y-118003503D01*
X154261102Y-117878844D01*
X154252397Y-117857827D01*
X154252390Y-117857814D01*
X154164789Y-117726711D01*
X154164786Y-117726707D01*
X154053292Y-117615213D01*
X154053288Y-117615210D01*
X153922185Y-117527609D01*
X153922172Y-117527602D01*
X153776501Y-117467264D01*
X153776491Y-117467261D01*
X153621149Y-117436361D01*
X153559238Y-117403976D01*
X153557660Y-117402425D01*
X141476388Y-105321153D01*
X154499500Y-105321153D01*
X154499500Y-105478846D01*
X154530261Y-105633489D01*
X154530264Y-105633501D01*
X154590602Y-105779172D01*
X154590609Y-105779185D01*
X154678210Y-105910288D01*
X154678213Y-105910292D01*
X154789707Y-106021786D01*
X154789711Y-106021789D01*
X154920814Y-106109390D01*
X154920827Y-106109397D01*
X155022467Y-106151497D01*
X155066503Y-106169737D01*
X155221153Y-106200499D01*
X155221156Y-106200500D01*
X155221158Y-106200500D01*
X155378844Y-106200500D01*
X155378845Y-106200499D01*
X155533497Y-106169737D01*
X155650199Y-106121398D01*
X155677864Y-106109939D01*
X155725316Y-106100500D01*
X160420234Y-106100500D01*
X160487273Y-106120185D01*
X160489125Y-106121398D01*
X160620814Y-106209390D01*
X160620827Y-106209397D01*
X160766498Y-106269735D01*
X160766503Y-106269737D01*
X160915236Y-106299322D01*
X160921153Y-106300499D01*
X160921156Y-106300500D01*
X160921158Y-106300500D01*
X161078844Y-106300500D01*
X161078845Y-106300499D01*
X161233497Y-106269737D01*
X161379179Y-106209394D01*
X161510289Y-106121789D01*
X161621789Y-106010289D01*
X161709394Y-105879179D01*
X161769737Y-105733497D01*
X161800500Y-105578842D01*
X161800500Y-105421158D01*
X161800500Y-105421155D01*
X161800499Y-105421153D01*
X161797824Y-105407707D01*
X161769737Y-105266503D01*
X161745757Y-105208609D01*
X161709397Y-105120827D01*
X161709390Y-105120814D01*
X161621789Y-104989711D01*
X161621786Y-104989707D01*
X161510292Y-104878213D01*
X161510288Y-104878210D01*
X161379185Y-104790609D01*
X161379172Y-104790602D01*
X161233501Y-104730264D01*
X161233489Y-104730261D01*
X161078845Y-104699500D01*
X161078842Y-104699500D01*
X160921158Y-104699500D01*
X160921155Y-104699500D01*
X160766510Y-104730261D01*
X160766498Y-104730264D01*
X160620827Y-104790602D01*
X160620814Y-104790609D01*
X160489125Y-104878602D01*
X160422447Y-104899480D01*
X160420234Y-104899500D01*
X155982940Y-104899500D01*
X155915901Y-104879815D01*
X155895263Y-104863185D01*
X155810289Y-104778211D01*
X155810288Y-104778210D01*
X155810287Y-104778209D01*
X155679185Y-104690609D01*
X155679172Y-104690602D01*
X155533501Y-104630264D01*
X155533489Y-104630261D01*
X155378845Y-104599500D01*
X155378842Y-104599500D01*
X155221158Y-104599500D01*
X155221155Y-104599500D01*
X155066510Y-104630261D01*
X155066498Y-104630264D01*
X154920827Y-104690602D01*
X154920814Y-104690609D01*
X154789711Y-104778210D01*
X154789707Y-104778213D01*
X154678213Y-104889707D01*
X154678210Y-104889711D01*
X154590609Y-105020814D01*
X154590602Y-105020827D01*
X154530264Y-105166498D01*
X154530261Y-105166510D01*
X154499500Y-105321153D01*
X141476388Y-105321153D01*
X132737819Y-96582584D01*
X132704334Y-96521261D01*
X132701500Y-96494903D01*
X132701500Y-80550097D01*
X132721185Y-80483058D01*
X132773989Y-80437303D01*
X132843147Y-80427359D01*
X132906703Y-80456384D01*
X132913181Y-80462416D01*
X136765425Y-84314660D01*
X136798910Y-84375983D01*
X136799361Y-84378149D01*
X136830261Y-84533491D01*
X136830264Y-84533501D01*
X136890602Y-84679172D01*
X136890609Y-84679185D01*
X136978210Y-84810288D01*
X136978213Y-84810292D01*
X137089707Y-84921786D01*
X137089711Y-84921789D01*
X137220814Y-85009390D01*
X137220827Y-85009397D01*
X137366498Y-85069735D01*
X137366503Y-85069737D01*
X137521153Y-85100499D01*
X137521156Y-85100500D01*
X137521158Y-85100500D01*
X137678844Y-85100500D01*
X137678845Y-85100499D01*
X137833497Y-85069737D01*
X137979179Y-85009394D01*
X138110289Y-84921789D01*
X138221789Y-84810289D01*
X138309394Y-84679179D01*
X138369737Y-84533497D01*
X138400500Y-84378842D01*
X138400500Y-84221158D01*
X138400500Y-84221155D01*
X138400499Y-84221153D01*
X138397732Y-84207241D01*
X138369737Y-84066503D01*
X138369735Y-84066498D01*
X138309397Y-83920827D01*
X138309390Y-83920814D01*
X138221789Y-83789711D01*
X138221786Y-83789707D01*
X138110292Y-83678213D01*
X138110288Y-83678210D01*
X137979185Y-83590609D01*
X137979172Y-83590602D01*
X137833501Y-83530264D01*
X137833491Y-83530261D01*
X137678149Y-83499361D01*
X137616238Y-83466976D01*
X137614660Y-83465425D01*
X133970388Y-79821153D01*
X137799500Y-79821153D01*
X137799500Y-79978846D01*
X137830261Y-80133489D01*
X137830264Y-80133501D01*
X137890602Y-80279172D01*
X137890609Y-80279185D01*
X137978210Y-80410288D01*
X137978213Y-80410292D01*
X138089707Y-80521786D01*
X138089711Y-80521789D01*
X138220814Y-80609390D01*
X138220827Y-80609397D01*
X138357092Y-80665839D01*
X138366503Y-80669737D01*
X138463073Y-80688946D01*
X138521153Y-80700499D01*
X138521156Y-80700500D01*
X138521158Y-80700500D01*
X138678844Y-80700500D01*
X138678845Y-80700499D01*
X138833497Y-80669737D01*
X138946166Y-80623067D01*
X138979172Y-80609397D01*
X138979172Y-80609396D01*
X138979179Y-80609394D01*
X139058040Y-80556701D01*
X139110875Y-80521398D01*
X139177553Y-80500520D01*
X139179766Y-80500500D01*
X163965500Y-80500500D01*
X163974185Y-80503050D01*
X163983147Y-80501762D01*
X164007187Y-80512740D01*
X164032539Y-80520185D01*
X164038466Y-80527025D01*
X164046703Y-80530787D01*
X164060992Y-80553021D01*
X164078294Y-80572989D01*
X164080581Y-80583503D01*
X164084477Y-80589565D01*
X164089500Y-80624500D01*
X164089500Y-80775500D01*
X164069815Y-80842539D01*
X164017011Y-80888294D01*
X163965500Y-80899500D01*
X160786669Y-80899500D01*
X160786653Y-80899499D01*
X160779057Y-80899499D01*
X160620943Y-80899499D01*
X160513587Y-80928265D01*
X160468210Y-80940424D01*
X160468209Y-80940425D01*
X160418096Y-80969359D01*
X160418095Y-80969360D01*
X160374689Y-80994420D01*
X160331285Y-81019479D01*
X160331282Y-81019481D01*
X144185339Y-97165425D01*
X144124016Y-97198910D01*
X144121850Y-97199361D01*
X143966508Y-97230261D01*
X143966498Y-97230264D01*
X143820827Y-97290602D01*
X143820814Y-97290609D01*
X143689711Y-97378210D01*
X143689707Y-97378213D01*
X143578213Y-97489707D01*
X143578210Y-97489711D01*
X143490609Y-97620814D01*
X143490602Y-97620827D01*
X143430264Y-97766498D01*
X143430261Y-97766510D01*
X143399500Y-97921153D01*
X143399500Y-98078846D01*
X143430261Y-98233489D01*
X143430264Y-98233501D01*
X143490602Y-98379172D01*
X143490609Y-98379185D01*
X143578210Y-98510288D01*
X143578213Y-98510292D01*
X143689707Y-98621786D01*
X143689711Y-98621789D01*
X143820814Y-98709390D01*
X143820827Y-98709397D01*
X143966498Y-98769735D01*
X143966503Y-98769737D01*
X144121153Y-98800499D01*
X144121156Y-98800500D01*
X144121158Y-98800500D01*
X144278844Y-98800500D01*
X144278845Y-98800499D01*
X144433497Y-98769737D01*
X144579179Y-98709394D01*
X144710289Y-98621789D01*
X144821789Y-98510289D01*
X144909394Y-98379179D01*
X144969737Y-98233497D01*
X144989113Y-98136085D01*
X145000638Y-98078150D01*
X145033023Y-98016239D01*
X145034518Y-98014716D01*
X152662416Y-90386819D01*
X152723739Y-90353334D01*
X152750097Y-90350500D01*
X153063331Y-90350500D01*
X153063347Y-90350501D01*
X153070943Y-90350501D01*
X153229054Y-90350501D01*
X153229057Y-90350501D01*
X153381785Y-90309577D01*
X153431904Y-90280639D01*
X153518716Y-90230520D01*
X153630520Y-90118716D01*
X153630520Y-90118714D01*
X153640728Y-90108507D01*
X153640730Y-90108504D01*
X158962320Y-84786913D01*
X159023641Y-84753430D01*
X159093333Y-84758414D01*
X159137677Y-84786913D01*
X162872785Y-88522020D01*
X166551719Y-92200954D01*
X166585204Y-92262277D01*
X166580220Y-92331969D01*
X166538348Y-92387902D01*
X166476643Y-92411993D01*
X166447201Y-92415001D01*
X166447200Y-92415001D01*
X166280668Y-92470185D01*
X166280663Y-92470187D01*
X166131342Y-92562289D01*
X166007289Y-92686342D01*
X165915187Y-92835663D01*
X165915185Y-92835668D01*
X165914801Y-92836828D01*
X165860001Y-93002203D01*
X165860001Y-93002204D01*
X165860000Y-93002204D01*
X165849500Y-93104983D01*
X165849500Y-94895001D01*
X165849501Y-94895018D01*
X165860000Y-94997796D01*
X165860001Y-94997799D01*
X165897774Y-95111788D01*
X165915186Y-95164334D01*
X166007288Y-95313656D01*
X166131344Y-95437712D01*
X166280666Y-95529814D01*
X166447203Y-95584999D01*
X166549991Y-95595500D01*
X167890008Y-95595499D01*
X167992797Y-95584999D01*
X168159334Y-95529814D01*
X168308656Y-95437712D01*
X168432712Y-95313656D01*
X168524814Y-95164334D01*
X168524817Y-95164323D01*
X168525353Y-95163177D01*
X168525934Y-95162516D01*
X168528605Y-95158187D01*
X168529344Y-95158643D01*
X168571521Y-95110734D01*
X168638713Y-95091577D01*
X168705596Y-95111788D01*
X168725420Y-95127892D01*
X168867502Y-95269974D01*
X169041963Y-95396728D01*
X169234098Y-95494627D01*
X169439190Y-95561266D01*
X169510000Y-95572481D01*
X169510000Y-94542709D01*
X169530339Y-94554452D01*
X169681667Y-94595000D01*
X169838333Y-94595000D01*
X169989661Y-94554452D01*
X170010000Y-94542709D01*
X170010000Y-95572480D01*
X170080809Y-95561266D01*
X170285901Y-95494627D01*
X170478036Y-95396728D01*
X170652496Y-95269974D01*
X170652497Y-95269974D01*
X170804974Y-95117497D01*
X170804979Y-95117491D01*
X170929372Y-94946280D01*
X170984702Y-94903614D01*
X171054315Y-94897635D01*
X171116110Y-94930241D01*
X171130008Y-94946279D01*
X171254641Y-95117821D01*
X171407179Y-95270359D01*
X171581701Y-95397157D01*
X171773911Y-95495092D01*
X171979074Y-95561754D01*
X172046796Y-95572480D01*
X172192134Y-95595500D01*
X172192139Y-95595500D01*
X172407866Y-95595500D01*
X172526230Y-95576752D01*
X172620926Y-95561754D01*
X172826089Y-95495092D01*
X173018299Y-95397157D01*
X173192821Y-95270359D01*
X173345359Y-95117821D01*
X173472157Y-94943299D01*
X173570092Y-94751089D01*
X173636754Y-94545926D01*
X173651752Y-94451230D01*
X173670500Y-94332866D01*
X173670500Y-93667133D01*
X173636754Y-93454077D01*
X173636754Y-93454074D01*
X173570092Y-93248911D01*
X173472157Y-93056701D01*
X173345359Y-92882179D01*
X173192821Y-92729641D01*
X173018299Y-92602843D01*
X172826089Y-92504908D01*
X172620926Y-92438246D01*
X172620924Y-92438245D01*
X172620922Y-92438245D01*
X172407866Y-92404500D01*
X172407861Y-92404500D01*
X172192139Y-92404500D01*
X172192134Y-92404500D01*
X171979077Y-92438245D01*
X171979076Y-92438245D01*
X171773915Y-92504906D01*
X171769419Y-92506769D01*
X171768914Y-92505550D01*
X171706158Y-92517329D01*
X171641421Y-92491045D01*
X171630866Y-92481630D01*
X167267819Y-88118583D01*
X167234334Y-88057260D01*
X167231500Y-88030902D01*
X167231500Y-83073366D01*
X167251185Y-83006327D01*
X167303989Y-82960572D01*
X167373147Y-82950628D01*
X167411796Y-82962882D01*
X167474096Y-82994626D01*
X167679190Y-83061266D01*
X167750000Y-83072481D01*
X167750000Y-82042709D01*
X167770339Y-82054452D01*
X167921667Y-82095000D01*
X168078333Y-82095000D01*
X168229661Y-82054452D01*
X168250000Y-82042709D01*
X168250000Y-83072480D01*
X168320809Y-83061266D01*
X168525901Y-82994627D01*
X168718036Y-82896728D01*
X168892496Y-82769974D01*
X168892497Y-82769974D01*
X169044974Y-82617497D01*
X169044979Y-82617491D01*
X169169372Y-82446280D01*
X169224702Y-82403614D01*
X169294315Y-82397635D01*
X169356110Y-82430241D01*
X169370008Y-82446279D01*
X169494641Y-82617821D01*
X169647179Y-82770359D01*
X169821701Y-82897157D01*
X170013911Y-82995092D01*
X170219074Y-83061754D01*
X170286796Y-83072480D01*
X170432134Y-83095500D01*
X170432139Y-83095500D01*
X170647866Y-83095500D01*
X170766230Y-83076752D01*
X170860926Y-83061754D01*
X171066089Y-82995092D01*
X171258299Y-82897157D01*
X171432821Y-82770359D01*
X171585359Y-82617821D01*
X171712157Y-82443299D01*
X171810092Y-82251089D01*
X171876754Y-82045926D01*
X171891752Y-81951230D01*
X171910500Y-81832866D01*
X171910500Y-81167133D01*
X171876754Y-80954077D01*
X171876754Y-80954074D01*
X171810092Y-80748911D01*
X171712157Y-80556701D01*
X171585359Y-80382179D01*
X171432821Y-80229641D01*
X171258299Y-80102843D01*
X171066089Y-80004908D01*
X170860926Y-79938246D01*
X170860924Y-79938245D01*
X170860922Y-79938245D01*
X170647866Y-79904500D01*
X170647861Y-79904500D01*
X170432139Y-79904500D01*
X170432134Y-79904500D01*
X170219077Y-79938245D01*
X170013913Y-80004907D01*
X170009407Y-80006774D01*
X170008901Y-80005552D01*
X169946157Y-80017329D01*
X169881420Y-79991045D01*
X169870865Y-79981630D01*
X165427590Y-75538355D01*
X165427588Y-75538352D01*
X165308717Y-75419481D01*
X165308709Y-75419475D01*
X165199500Y-75356424D01*
X165199499Y-75356423D01*
X165180018Y-75345176D01*
X165171785Y-75340423D01*
X165019057Y-75299499D01*
X164860943Y-75299499D01*
X164853347Y-75299499D01*
X164853331Y-75299500D01*
X159479766Y-75299500D01*
X159412727Y-75279815D01*
X159410875Y-75278602D01*
X159279185Y-75190609D01*
X159279172Y-75190602D01*
X159133501Y-75130264D01*
X159133489Y-75130261D01*
X158978845Y-75099500D01*
X158978842Y-75099500D01*
X158821158Y-75099500D01*
X158821155Y-75099500D01*
X158666510Y-75130261D01*
X158666498Y-75130264D01*
X158520827Y-75190602D01*
X158520814Y-75190609D01*
X158389711Y-75278210D01*
X158389707Y-75278213D01*
X158278213Y-75389707D01*
X158278210Y-75389711D01*
X158190609Y-75520814D01*
X158190602Y-75520827D01*
X158130264Y-75666498D01*
X158130261Y-75666510D01*
X158099500Y-75821153D01*
X158099500Y-75978846D01*
X158130261Y-76133489D01*
X158130264Y-76133501D01*
X158190602Y-76279172D01*
X158190609Y-76279185D01*
X158278210Y-76410288D01*
X158278213Y-76410292D01*
X158389707Y-76521786D01*
X158389711Y-76521789D01*
X158520814Y-76609390D01*
X158520827Y-76609397D01*
X158666498Y-76669735D01*
X158666503Y-76669737D01*
X158821153Y-76700499D01*
X158821156Y-76700500D01*
X158821158Y-76700500D01*
X158978844Y-76700500D01*
X158978845Y-76700499D01*
X159133497Y-76669737D01*
X159246166Y-76623067D01*
X159279172Y-76609397D01*
X159279172Y-76609396D01*
X159279179Y-76609394D01*
X159279185Y-76609390D01*
X159410875Y-76521398D01*
X159477553Y-76500520D01*
X159479766Y-76500500D01*
X164639903Y-76500500D01*
X164706942Y-76520185D01*
X164727584Y-76536819D01*
X167895845Y-79705080D01*
X167929330Y-79766403D01*
X167924346Y-79836095D01*
X167882474Y-79892028D01*
X167827562Y-79915234D01*
X167679190Y-79938733D01*
X167474098Y-80005373D01*
X167278390Y-80105091D01*
X167272715Y-80106156D01*
X167268179Y-80109724D01*
X167238764Y-80112532D01*
X167209720Y-80117987D01*
X167204372Y-80115816D01*
X167198626Y-80116365D01*
X167172357Y-80102822D01*
X167144980Y-80091710D01*
X167140318Y-80086304D01*
X167136524Y-80084348D01*
X167114707Y-80056604D01*
X167111523Y-80051089D01*
X167111522Y-80051088D01*
X167111520Y-80051084D01*
X167111516Y-80051080D01*
X167111467Y-80051016D01*
X167111451Y-80050996D01*
X167111449Y-80050992D01*
X167057070Y-79996634D01*
X166999716Y-79939280D01*
X166999663Y-79939249D01*
X166765403Y-79705080D01*
X166539180Y-79478944D01*
X166479716Y-79419480D01*
X166479715Y-79419479D01*
X166479711Y-79419475D01*
X166479638Y-79419419D01*
X166479623Y-79419410D01*
X166428154Y-79389707D01*
X166414100Y-79381596D01*
X166414082Y-79381586D01*
X166342782Y-79340422D01*
X166342682Y-79340380D01*
X166315932Y-79333217D01*
X166265023Y-79319586D01*
X166263824Y-79319265D01*
X166190057Y-79299500D01*
X166190002Y-79299500D01*
X166189942Y-79299484D01*
X166189914Y-79299484D01*
X166189911Y-79299483D01*
X166108350Y-79299499D01*
X166108334Y-79299500D01*
X139179766Y-79299500D01*
X139112727Y-79279815D01*
X139110875Y-79278602D01*
X138979185Y-79190609D01*
X138979172Y-79190602D01*
X138833501Y-79130264D01*
X138833489Y-79130261D01*
X138678845Y-79099500D01*
X138678842Y-79099500D01*
X138521158Y-79099500D01*
X138521155Y-79099500D01*
X138366510Y-79130261D01*
X138366498Y-79130264D01*
X138220827Y-79190602D01*
X138220814Y-79190609D01*
X138089711Y-79278210D01*
X138089707Y-79278213D01*
X137978213Y-79389707D01*
X137978210Y-79389711D01*
X137890609Y-79520814D01*
X137890602Y-79520827D01*
X137830264Y-79666498D01*
X137830261Y-79666510D01*
X137799500Y-79821153D01*
X133970388Y-79821153D01*
X126970388Y-72821153D01*
X128599500Y-72821153D01*
X128599500Y-72978846D01*
X128630261Y-73133489D01*
X128630264Y-73133501D01*
X128690602Y-73279172D01*
X128690609Y-73279185D01*
X128778210Y-73410288D01*
X128778213Y-73410292D01*
X128889707Y-73521786D01*
X128889711Y-73521789D01*
X129020814Y-73609390D01*
X129020827Y-73609397D01*
X129166498Y-73669735D01*
X129166503Y-73669737D01*
X129321153Y-73700499D01*
X129321156Y-73700500D01*
X129321158Y-73700500D01*
X129478844Y-73700500D01*
X129478845Y-73700499D01*
X129633497Y-73669737D01*
X129779179Y-73609394D01*
X129825849Y-73578210D01*
X129910875Y-73521398D01*
X129977553Y-73500520D01*
X129979766Y-73500500D01*
X132213331Y-73500500D01*
X132213347Y-73500501D01*
X132220943Y-73500501D01*
X132379054Y-73500501D01*
X132379057Y-73500501D01*
X132531785Y-73459577D01*
X132582558Y-73430263D01*
X132668716Y-73380520D01*
X132780520Y-73268716D01*
X132780520Y-73268714D01*
X132790724Y-73258511D01*
X132790730Y-73258504D01*
X132914662Y-73134572D01*
X132975984Y-73101088D01*
X132978151Y-73100637D01*
X132978840Y-73100500D01*
X132978842Y-73100500D01*
X133133497Y-73069737D01*
X133279179Y-73009394D01*
X133410289Y-72921789D01*
X133521789Y-72810289D01*
X133609394Y-72679179D01*
X133669737Y-72533497D01*
X133700500Y-72378842D01*
X133700500Y-72221158D01*
X133700500Y-72221155D01*
X133700499Y-72221153D01*
X133682420Y-72130263D01*
X133669737Y-72066503D01*
X133609534Y-71921158D01*
X133609397Y-71920827D01*
X133609390Y-71920814D01*
X133521789Y-71789711D01*
X133521786Y-71789707D01*
X133410292Y-71678213D01*
X133410288Y-71678210D01*
X133279185Y-71590609D01*
X133279172Y-71590602D01*
X133133501Y-71530264D01*
X133133489Y-71530261D01*
X132978845Y-71499500D01*
X132978842Y-71499500D01*
X132821158Y-71499500D01*
X132821155Y-71499500D01*
X132666510Y-71530261D01*
X132666498Y-71530264D01*
X132520827Y-71590602D01*
X132520814Y-71590609D01*
X132389711Y-71678210D01*
X132389707Y-71678213D01*
X132278213Y-71789707D01*
X132278210Y-71789711D01*
X132190609Y-71920814D01*
X132190602Y-71920827D01*
X132130264Y-72066498D01*
X132130261Y-72066508D01*
X132103769Y-72199692D01*
X132071384Y-72261603D01*
X132010668Y-72296177D01*
X131982152Y-72299500D01*
X130907703Y-72299500D01*
X130840664Y-72279815D01*
X130794909Y-72227011D01*
X130784965Y-72157853D01*
X130786086Y-72151309D01*
X130800499Y-72078846D01*
X130800500Y-72078844D01*
X130800500Y-71921155D01*
X130800499Y-71921153D01*
X130786592Y-71851240D01*
X130769737Y-71766503D01*
X130757918Y-71737969D01*
X130709397Y-71620827D01*
X130709390Y-71620814D01*
X130621398Y-71489125D01*
X130600520Y-71422447D01*
X130600500Y-71420234D01*
X130600500Y-70279765D01*
X130620185Y-70212726D01*
X130621398Y-70210874D01*
X130674579Y-70131284D01*
X130709394Y-70079179D01*
X130769737Y-69933497D01*
X130800500Y-69778842D01*
X130800500Y-69621158D01*
X130800500Y-69621155D01*
X130800499Y-69621153D01*
X130769738Y-69466510D01*
X130769737Y-69466503D01*
X130769735Y-69466498D01*
X130709397Y-69320827D01*
X130709390Y-69320814D01*
X130621789Y-69189711D01*
X130621786Y-69189707D01*
X130510292Y-69078213D01*
X130510288Y-69078210D01*
X130379185Y-68990609D01*
X130379172Y-68990602D01*
X130233501Y-68930264D01*
X130233489Y-68930261D01*
X130078845Y-68899500D01*
X130078842Y-68899500D01*
X129921158Y-68899500D01*
X129921155Y-68899500D01*
X129766510Y-68930261D01*
X129766498Y-68930264D01*
X129620827Y-68990602D01*
X129620814Y-68990609D01*
X129489711Y-69078210D01*
X129489707Y-69078213D01*
X129378213Y-69189707D01*
X129378210Y-69189711D01*
X129290609Y-69320814D01*
X129290602Y-69320827D01*
X129230264Y-69466498D01*
X129230261Y-69466510D01*
X129199500Y-69621153D01*
X129199500Y-69778846D01*
X129230261Y-69933489D01*
X129230264Y-69933501D01*
X129290602Y-70079172D01*
X129290609Y-70079185D01*
X129378602Y-70210874D01*
X129399480Y-70277551D01*
X129399500Y-70279765D01*
X129399500Y-71420234D01*
X129379815Y-71487273D01*
X129378602Y-71489125D01*
X129290609Y-71620814D01*
X129290602Y-71620827D01*
X129230264Y-71766498D01*
X129230261Y-71766510D01*
X129199500Y-71921153D01*
X129199500Y-72033740D01*
X129179815Y-72100779D01*
X129127011Y-72146534D01*
X129122953Y-72148301D01*
X129020824Y-72190604D01*
X129020814Y-72190609D01*
X128889711Y-72278210D01*
X128889707Y-72278213D01*
X128778213Y-72389707D01*
X128778210Y-72389711D01*
X128690609Y-72520814D01*
X128690602Y-72520827D01*
X128630264Y-72666498D01*
X128630261Y-72666510D01*
X128599500Y-72821153D01*
X126970388Y-72821153D01*
X122176419Y-68027184D01*
X122142934Y-67965861D01*
X122140100Y-67939503D01*
X122140100Y-64310265D01*
X122159785Y-64243226D01*
X122160998Y-64241374D01*
X122248990Y-64109685D01*
X122248990Y-64109684D01*
X122248994Y-64109679D01*
X122309337Y-63963997D01*
X122340100Y-63809342D01*
X122340100Y-63651658D01*
X122340100Y-63651655D01*
X122340099Y-63651653D01*
X122309338Y-63497010D01*
X122309337Y-63497003D01*
X122309335Y-63496998D01*
X122249463Y-63352452D01*
X122241994Y-63282983D01*
X122273269Y-63220504D01*
X122333359Y-63184852D01*
X122364024Y-63181000D01*
X168400000Y-63181000D01*
X168400000Y-53464000D01*
X168419685Y-53396961D01*
X168472489Y-53351206D01*
X168524000Y-53340000D01*
X177195841Y-53340000D01*
X177262880Y-53359685D01*
X177308635Y-53412489D01*
X177318293Y-53450798D01*
X177318970Y-53450709D01*
X177319500Y-53454734D01*
X177349452Y-53682238D01*
X177349453Y-53682240D01*
X177408842Y-53903887D01*
X177496650Y-54115876D01*
X177496657Y-54115890D01*
X177611392Y-54314617D01*
X177751081Y-54496661D01*
X177751089Y-54496670D01*
X177913330Y-54658911D01*
X177913338Y-54658918D01*
X178095382Y-54798607D01*
X178095385Y-54798608D01*
X178095388Y-54798611D01*
X178294112Y-54913344D01*
X178294117Y-54913346D01*
X178294123Y-54913349D01*
X178385480Y-54951190D01*
X178506113Y-55001158D01*
X178727762Y-55060548D01*
X178941192Y-55088647D01*
X178959291Y-55091030D01*
X178959127Y-55092268D01*
X179019693Y-55114432D01*
X179061911Y-55170104D01*
X179070000Y-55214158D01*
X179070000Y-131475841D01*
X179050315Y-131542880D01*
X178997511Y-131588635D01*
X178959201Y-131598293D01*
X178959291Y-131598970D01*
X178814233Y-131618067D01*
X178727762Y-131629452D01*
X178634076Y-131654554D01*
X178506112Y-131688842D01*
X178294123Y-131776650D01*
X178294109Y-131776657D01*
X178095382Y-131891392D01*
X177913338Y-132031081D01*
X177751081Y-132193338D01*
X177611392Y-132375382D01*
X177496657Y-132574109D01*
X177496650Y-132574123D01*
X177408842Y-132786112D01*
X177349453Y-133007759D01*
X177349451Y-133007770D01*
X177318970Y-133239291D01*
X177317740Y-133239129D01*
X177295542Y-133299727D01*
X177239855Y-133341926D01*
X177195841Y-133350000D01*
X95854159Y-133350000D01*
X95787120Y-133330315D01*
X95741365Y-133277511D01*
X95731706Y-133239201D01*
X95731030Y-133239291D01*
X95728647Y-133221192D01*
X95700548Y-133007762D01*
X95641158Y-132786113D01*
X95553344Y-132574112D01*
X95438611Y-132375388D01*
X95438608Y-132375385D01*
X95438607Y-132375382D01*
X95298918Y-132193338D01*
X95298911Y-132193330D01*
X95136670Y-132031089D01*
X95136661Y-132031081D01*
X94954617Y-131891392D01*
X94755890Y-131776657D01*
X94755876Y-131776650D01*
X94543887Y-131688842D01*
X94322238Y-131629452D01*
X94166120Y-131608898D01*
X94090709Y-131598970D01*
X94090870Y-131597740D01*
X94030273Y-131575542D01*
X93988074Y-131519855D01*
X93980000Y-131475841D01*
X93980000Y-123647844D01*
X99500000Y-123647844D01*
X99506401Y-123707372D01*
X99506403Y-123707379D01*
X99556645Y-123842086D01*
X99556649Y-123842093D01*
X99642809Y-123957187D01*
X99642812Y-123957190D01*
X99757906Y-124043350D01*
X99757913Y-124043354D01*
X99892620Y-124093596D01*
X99892627Y-124093598D01*
X99952155Y-124099999D01*
X99952172Y-124100000D01*
X102850000Y-124100000D01*
X103350000Y-124100000D01*
X106247828Y-124100000D01*
X106247844Y-124099999D01*
X106307372Y-124093598D01*
X106307379Y-124093596D01*
X106442086Y-124043354D01*
X106442093Y-124043350D01*
X106557187Y-123957190D01*
X106557190Y-123957187D01*
X106643350Y-123842093D01*
X106643354Y-123842086D01*
X106693596Y-123707379D01*
X106693598Y-123707372D01*
X106699999Y-123647844D01*
X106700000Y-123647827D01*
X106700000Y-121900000D01*
X103350000Y-121900000D01*
X103350000Y-124100000D01*
X102850000Y-124100000D01*
X102850000Y-121900000D01*
X99500000Y-121900000D01*
X99500000Y-123647844D01*
X93980000Y-123647844D01*
X93980000Y-119652155D01*
X99500000Y-119652155D01*
X99500000Y-121400000D01*
X102850000Y-121400000D01*
X103350000Y-121400000D01*
X106700000Y-121400000D01*
X106700000Y-119652172D01*
X106699999Y-119652155D01*
X106693598Y-119592627D01*
X106693596Y-119592620D01*
X106643354Y-119457913D01*
X106643350Y-119457906D01*
X106557190Y-119342812D01*
X106557187Y-119342809D01*
X106442093Y-119256649D01*
X106442086Y-119256645D01*
X106307379Y-119206403D01*
X106307372Y-119206401D01*
X106247844Y-119200000D01*
X103350000Y-119200000D01*
X103350000Y-121400000D01*
X102850000Y-121400000D01*
X102850000Y-119200000D01*
X99952155Y-119200000D01*
X99892627Y-119206401D01*
X99892620Y-119206403D01*
X99757913Y-119256645D01*
X99757906Y-119256649D01*
X99642812Y-119342809D01*
X99642809Y-119342812D01*
X99556649Y-119457906D01*
X99556645Y-119457913D01*
X99506403Y-119592620D01*
X99506401Y-119592627D01*
X99500000Y-119652155D01*
X93980000Y-119652155D01*
X93980000Y-117721153D01*
X132099500Y-117721153D01*
X132099500Y-117878846D01*
X132130261Y-118033489D01*
X132130264Y-118033501D01*
X132190602Y-118179172D01*
X132190609Y-118179185D01*
X132278210Y-118310288D01*
X132278213Y-118310292D01*
X132389707Y-118421786D01*
X132389711Y-118421789D01*
X132520814Y-118509390D01*
X132520827Y-118509397D01*
X132666498Y-118569735D01*
X132666503Y-118569737D01*
X132821153Y-118600499D01*
X132821156Y-118600500D01*
X132821158Y-118600500D01*
X132978844Y-118600500D01*
X132978845Y-118600499D01*
X133133497Y-118569737D01*
X133279179Y-118509394D01*
X133279185Y-118509390D01*
X133410875Y-118421398D01*
X133477553Y-118400520D01*
X133479766Y-118400500D01*
X134420234Y-118400500D01*
X134487273Y-118420185D01*
X134489125Y-118421398D01*
X134620814Y-118509390D01*
X134620827Y-118509397D01*
X134766498Y-118569735D01*
X134766503Y-118569737D01*
X134921153Y-118600499D01*
X134921156Y-118600500D01*
X134921158Y-118600500D01*
X135078844Y-118600500D01*
X135078845Y-118600499D01*
X135233497Y-118569737D01*
X135379179Y-118509394D01*
X135510289Y-118421789D01*
X135621789Y-118310289D01*
X135709394Y-118179179D01*
X135769737Y-118033497D01*
X135800500Y-117878842D01*
X135800500Y-117721158D01*
X135800500Y-117721155D01*
X135800499Y-117721153D01*
X135779426Y-117615213D01*
X135769737Y-117566503D01*
X135753627Y-117527609D01*
X135709397Y-117420827D01*
X135709390Y-117420814D01*
X135621789Y-117289711D01*
X135621786Y-117289707D01*
X135510292Y-117178213D01*
X135510288Y-117178210D01*
X135379185Y-117090609D01*
X135379172Y-117090602D01*
X135233501Y-117030264D01*
X135233489Y-117030261D01*
X135078845Y-116999500D01*
X135078842Y-116999500D01*
X134921158Y-116999500D01*
X134921155Y-116999500D01*
X134766510Y-117030261D01*
X134766498Y-117030264D01*
X134620827Y-117090602D01*
X134620814Y-117090609D01*
X134489125Y-117178602D01*
X134422447Y-117199480D01*
X134420234Y-117199500D01*
X133479766Y-117199500D01*
X133412727Y-117179815D01*
X133410875Y-117178602D01*
X133279185Y-117090609D01*
X133279172Y-117090602D01*
X133133501Y-117030264D01*
X133133489Y-117030261D01*
X132978845Y-116999500D01*
X132978842Y-116999500D01*
X132821158Y-116999500D01*
X132821155Y-116999500D01*
X132666510Y-117030261D01*
X132666498Y-117030264D01*
X132520827Y-117090602D01*
X132520814Y-117090609D01*
X132389711Y-117178210D01*
X132389707Y-117178213D01*
X132278213Y-117289707D01*
X132278210Y-117289711D01*
X132190609Y-117420814D01*
X132190602Y-117420827D01*
X132130264Y-117566498D01*
X132130261Y-117566510D01*
X132099500Y-117721153D01*
X93980000Y-117721153D01*
X93980000Y-115109448D01*
X98149500Y-115109448D01*
X98149500Y-115290551D01*
X98177829Y-115469410D01*
X98233787Y-115641636D01*
X98233788Y-115641639D01*
X98316006Y-115802997D01*
X98422441Y-115949494D01*
X98422445Y-115949499D01*
X98550500Y-116077554D01*
X98550505Y-116077558D01*
X98678287Y-116170396D01*
X98697006Y-116183996D01*
X98802484Y-116237740D01*
X98858360Y-116266211D01*
X98858363Y-116266212D01*
X98944476Y-116294191D01*
X99030591Y-116322171D01*
X99113429Y-116335291D01*
X99209449Y-116350500D01*
X99209454Y-116350500D01*
X99390551Y-116350500D01*
X99477259Y-116336765D01*
X99569409Y-116322171D01*
X99741639Y-116266211D01*
X99902994Y-116183996D01*
X100049501Y-116077553D01*
X100177553Y-115949501D01*
X100283996Y-115802994D01*
X100366211Y-115641639D01*
X100422171Y-115469409D01*
X100436765Y-115377259D01*
X100450500Y-115290551D01*
X100450500Y-115109448D01*
X100434019Y-115005397D01*
X100422171Y-114930591D01*
X100366211Y-114758361D01*
X100366211Y-114758360D01*
X100337740Y-114702484D01*
X100283996Y-114597006D01*
X100270396Y-114578287D01*
X100177558Y-114450505D01*
X100177554Y-114450500D01*
X100049499Y-114322445D01*
X100049494Y-114322441D01*
X99902997Y-114216006D01*
X99902996Y-114216005D01*
X99902994Y-114216004D01*
X99851300Y-114189664D01*
X99741639Y-114133788D01*
X99741636Y-114133787D01*
X99569410Y-114077829D01*
X99390551Y-114049500D01*
X99390546Y-114049500D01*
X99209454Y-114049500D01*
X99209449Y-114049500D01*
X99030589Y-114077829D01*
X98858363Y-114133787D01*
X98858360Y-114133788D01*
X98697002Y-114216006D01*
X98550505Y-114322441D01*
X98550500Y-114322445D01*
X98422445Y-114450500D01*
X98422441Y-114450505D01*
X98316006Y-114597002D01*
X98233788Y-114758360D01*
X98233787Y-114758363D01*
X98177829Y-114930589D01*
X98149500Y-115109448D01*
X93980000Y-115109448D01*
X93980000Y-74121153D01*
X97199500Y-74121153D01*
X97199500Y-74278846D01*
X97230261Y-74433489D01*
X97230264Y-74433501D01*
X97290602Y-74579172D01*
X97290609Y-74579185D01*
X97378210Y-74710288D01*
X97378213Y-74710292D01*
X97489707Y-74821786D01*
X97489711Y-74821789D01*
X97620814Y-74909390D01*
X97620827Y-74909397D01*
X97754381Y-74964716D01*
X97766503Y-74969737D01*
X97921153Y-75000499D01*
X97921156Y-75000500D01*
X97921158Y-75000500D01*
X98078844Y-75000500D01*
X98078845Y-75000499D01*
X98233497Y-74969737D01*
X98346166Y-74923067D01*
X98379172Y-74909397D01*
X98379172Y-74909396D01*
X98379179Y-74909394D01*
X98510289Y-74821789D01*
X98621789Y-74710289D01*
X98709394Y-74579179D01*
X98716422Y-74562213D01*
X98731772Y-74525153D01*
X98769737Y-74433497D01*
X98793020Y-74316446D01*
X98800638Y-74278150D01*
X98833023Y-74216239D01*
X98834519Y-74214715D01*
X101804973Y-71244260D01*
X101866294Y-71210777D01*
X101935986Y-71215761D01*
X101940104Y-71217382D01*
X102066498Y-71269735D01*
X102066503Y-71269737D01*
X102221153Y-71300499D01*
X102221156Y-71300500D01*
X102221158Y-71300500D01*
X102378844Y-71300500D01*
X102378845Y-71300499D01*
X102533497Y-71269737D01*
X102679179Y-71209394D01*
X102810289Y-71121789D01*
X102921789Y-71010289D01*
X103009394Y-70879179D01*
X103069737Y-70733497D01*
X103100500Y-70578842D01*
X103100500Y-70421158D01*
X103100500Y-70421155D01*
X103100499Y-70421153D01*
X103072375Y-70279765D01*
X103069737Y-70266503D01*
X103013728Y-70131284D01*
X103009397Y-70120827D01*
X103009390Y-70120814D01*
X102921789Y-69989711D01*
X102921786Y-69989707D01*
X102810292Y-69878213D01*
X102810288Y-69878210D01*
X102679185Y-69790609D01*
X102679172Y-69790602D01*
X102533501Y-69730264D01*
X102533489Y-69730261D01*
X102378845Y-69699500D01*
X102378842Y-69699500D01*
X102221158Y-69699500D01*
X102221155Y-69699500D01*
X102066510Y-69730261D01*
X102066498Y-69730264D01*
X101920827Y-69790602D01*
X101920814Y-69790609D01*
X101789125Y-69878602D01*
X101722447Y-69899480D01*
X101720234Y-69899500D01*
X101620943Y-69899500D01*
X101468215Y-69940423D01*
X101468214Y-69940423D01*
X101468212Y-69940424D01*
X101468209Y-69940425D01*
X101418096Y-69969359D01*
X101418095Y-69969360D01*
X101382853Y-69989707D01*
X101331285Y-70019479D01*
X101331282Y-70019481D01*
X97985339Y-73365425D01*
X97924016Y-73398910D01*
X97921850Y-73399361D01*
X97766508Y-73430261D01*
X97766498Y-73430264D01*
X97620827Y-73490602D01*
X97620814Y-73490609D01*
X97489711Y-73578210D01*
X97489707Y-73578213D01*
X97378213Y-73689707D01*
X97378210Y-73689711D01*
X97290609Y-73820814D01*
X97290602Y-73820827D01*
X97230264Y-73966498D01*
X97230261Y-73966510D01*
X97199500Y-74121153D01*
X93980000Y-74121153D01*
X93980000Y-55214158D01*
X93999685Y-55147119D01*
X94052489Y-55101364D01*
X94090798Y-55091711D01*
X94090709Y-55091030D01*
X94106937Y-55088893D01*
X94322238Y-55060548D01*
X94543887Y-55001158D01*
X94755888Y-54913344D01*
X94954612Y-54798611D01*
X95136661Y-54658919D01*
X95136665Y-54658914D01*
X95136670Y-54658911D01*
X95298911Y-54496670D01*
X95298914Y-54496665D01*
X95298919Y-54496661D01*
X95438611Y-54314612D01*
X95553344Y-54115888D01*
X95641158Y-53903887D01*
X95700548Y-53682238D01*
X95730500Y-53454734D01*
X95731030Y-53450709D01*
X95732259Y-53450870D01*
X95754458Y-53390273D01*
X95810145Y-53348074D01*
X95854159Y-53340000D01*
X120276000Y-53340000D01*
X120343039Y-53359685D01*
G37*
%TD.AperFunction*%
%TD*%
M02*
