%TF.GenerationSoftware,KiCad,Pcbnew,9.0.4*%
%TF.CreationDate,2025-10-08T17:20:44-05:00*%
%TF.ProjectId,ECE 445 - Suction Sense PCB-1,45434520-3434-4352-902d-205375637469,rev?*%
%TF.SameCoordinates,Original*%
%TF.FileFunction,Copper,L1,Top*%
%TF.FilePolarity,Positive*%
%FSLAX46Y46*%
G04 Gerber Fmt 4.6, Leading zero omitted, Abs format (unit mm)*
G04 Created by KiCad (PCBNEW 9.0.4) date 2025-10-08 17:20:44*
%MOMM*%
%LPD*%
G01*
G04 APERTURE LIST*
G04 Aperture macros list*
%AMRoundRect*
0 Rectangle with rounded corners*
0 $1 Rounding radius*
0 $2 $3 $4 $5 $6 $7 $8 $9 X,Y pos of 4 corners*
0 Add a 4 corners polygon primitive as box body*
4,1,4,$2,$3,$4,$5,$6,$7,$8,$9,$2,$3,0*
0 Add four circle primitives for the rounded corners*
1,1,$1+$1,$2,$3*
1,1,$1+$1,$4,$5*
1,1,$1+$1,$6,$7*
1,1,$1+$1,$8,$9*
0 Add four rect primitives between the rounded corners*
20,1,$1+$1,$2,$3,$4,$5,0*
20,1,$1+$1,$4,$5,$6,$7,0*
20,1,$1+$1,$6,$7,$8,$9,0*
20,1,$1+$1,$8,$9,$2,$3,0*%
%AMFreePoly0*
4,1,30,0.200000,1.710000,0.236753,1.697426,0.376386,1.589219,0.526381,1.504463,0.606724,1.473357,0.606723,1.473356,0.687059,1.442253,0.771046,1.423078,0.855035,1.403901,1.028740,1.390056,1.444035,1.390057,1.486461,1.372484,1.504035,1.330057,1.504034,-1.539942,1.486460,-1.582368,1.444038,-1.599942,1.046227,-1.599966,0.870517,-1.612848,0.700699,-1.650739,0.538235,-1.712988,
0.386579,-1.798267,0.245504,-1.907443,0.208783,-1.919992,-1.650000,-1.919992,-1.692426,-1.902418,-1.710000,-1.859992,-1.710000,1.650007,-1.692426,1.692433,-1.650000,1.710007,0.200000,1.710000,0.200000,1.710000,$1*%
G04 Aperture macros list end*
%TA.AperFunction,Conductor*%
%ADD10C,0.200000*%
%TD*%
%TA.AperFunction,SMDPad,CuDef*%
%ADD11RoundRect,0.250000X-1.750000X-1.000000X1.750000X-1.000000X1.750000X1.000000X-1.750000X1.000000X0*%
%TD*%
%TA.AperFunction,SMDPad,CuDef*%
%ADD12RoundRect,0.237500X0.237500X0.837500X-0.237500X0.837500X-0.237500X-0.837500X0.237500X-0.837500X0*%
%TD*%
%TA.AperFunction,SMDPad,CuDef*%
%ADD13RoundRect,0.250000X-0.350000X-0.450000X0.350000X-0.450000X0.350000X0.450000X-0.350000X0.450000X0*%
%TD*%
%TA.AperFunction,SMDPad,CuDef*%
%ADD14RoundRect,0.237500X-0.237500X-0.837500X0.237500X-0.837500X0.237500X0.837500X-0.237500X0.837500X0*%
%TD*%
%TA.AperFunction,SMDPad,CuDef*%
%ADD15RoundRect,0.243750X0.243750X0.456250X-0.243750X0.456250X-0.243750X-0.456250X0.243750X-0.456250X0*%
%TD*%
%TA.AperFunction,SMDPad,CuDef*%
%ADD16FreePoly0,270.000000*%
%TD*%
%TA.AperFunction,SMDPad,CuDef*%
%ADD17FreePoly0,90.000000*%
%TD*%
%TA.AperFunction,SMDPad,CuDef*%
%ADD18RoundRect,0.237500X0.837500X-0.237500X0.837500X0.237500X-0.837500X0.237500X-0.837500X-0.237500X0*%
%TD*%
%TA.AperFunction,SMDPad,CuDef*%
%ADD19RoundRect,0.100000X-0.425000X-0.100000X0.425000X-0.100000X0.425000X0.100000X-0.425000X0.100000X0*%
%TD*%
%TA.AperFunction,ComponentPad*%
%ADD20C,0.300000*%
%TD*%
%TA.AperFunction,SMDPad,CuDef*%
%ADD21RoundRect,0.050000X-0.050000X-0.250000X0.050000X-0.250000X0.050000X0.250000X-0.050000X0.250000X0*%
%TD*%
%TA.AperFunction,SMDPad,CuDef*%
%ADD22C,2.000000*%
%TD*%
%TA.AperFunction,SMDPad,CuDef*%
%ADD23RoundRect,0.250000X-0.337500X-0.475000X0.337500X-0.475000X0.337500X0.475000X-0.337500X0.475000X0*%
%TD*%
%TA.AperFunction,ComponentPad*%
%ADD24RoundRect,0.250000X-0.620000X-0.845000X0.620000X-0.845000X0.620000X0.845000X-0.620000X0.845000X0*%
%TD*%
%TA.AperFunction,ComponentPad*%
%ADD25O,1.740000X2.190000*%
%TD*%
%TA.AperFunction,SMDPad,CuDef*%
%ADD26RoundRect,0.243750X-0.243750X-0.456250X0.243750X-0.456250X0.243750X0.456250X-0.243750X0.456250X0*%
%TD*%
%TA.AperFunction,SMDPad,CuDef*%
%ADD27RoundRect,0.150000X-0.512500X-0.150000X0.512500X-0.150000X0.512500X0.150000X-0.512500X0.150000X0*%
%TD*%
%TA.AperFunction,SMDPad,CuDef*%
%ADD28R,1.500000X0.900000*%
%TD*%
%TA.AperFunction,SMDPad,CuDef*%
%ADD29R,0.900000X1.500000*%
%TD*%
%TA.AperFunction,SMDPad,CuDef*%
%ADD30R,0.900000X0.900000*%
%TD*%
%TA.AperFunction,HeatsinkPad*%
%ADD31C,0.600000*%
%TD*%
%TA.AperFunction,HeatsinkPad*%
%ADD32R,3.800000X3.800000*%
%TD*%
%TA.AperFunction,SMDPad,CuDef*%
%ADD33RoundRect,0.250000X0.325000X0.450000X-0.325000X0.450000X-0.325000X-0.450000X0.325000X-0.450000X0*%
%TD*%
%TA.AperFunction,SMDPad,CuDef*%
%ADD34RoundRect,0.250000X0.350000X0.450000X-0.350000X0.450000X-0.350000X-0.450000X0.350000X-0.450000X0*%
%TD*%
%TA.AperFunction,SMDPad,CuDef*%
%ADD35RoundRect,0.075000X-0.262500X-0.075000X0.262500X-0.075000X0.262500X0.075000X-0.262500X0.075000X0*%
%TD*%
%TA.AperFunction,ViaPad*%
%ADD36C,0.600000*%
%TD*%
G04 APERTURE END LIST*
D10*
%TO.N,+5VB*%
X102235000Y-75184000D02*
X102870000Y-75438000D01*
%TD*%
D11*
%TO.P,C2,1*%
%TO.N,Net-(U3-SW)*%
X149650000Y-112100000D03*
%TO.P,C2,2*%
%TO.N,Net-(U3-BST)*%
X155750000Y-112100000D03*
%TD*%
D12*
%TO.P,TH1,1*%
%TO.N,Net-(R1-Pad2)*%
X123375000Y-102500000D03*
%TO.P,TH1,2*%
%TO.N,GND*%
X122225000Y-102500000D03*
%TD*%
D13*
%TO.P,R11,1*%
%TO.N,/IO2*%
X97957500Y-60549000D03*
%TO.P,R11,2*%
%TO.N,GND*%
X99957500Y-60549000D03*
%TD*%
D14*
%TO.P,R5,1*%
%TO.N,Net-(U3-FB)*%
X153725000Y-101000000D03*
%TO.P,R5,2*%
%TO.N,GND*%
X154875000Y-101000000D03*
%TD*%
D11*
%TO.P,C5,1*%
%TO.N,/IO35*%
X164500000Y-112400000D03*
%TO.P,C5,2*%
%TO.N,GND*%
X170600000Y-112400000D03*
%TD*%
D14*
%TO.P,R3,1*%
%TO.N,/3v3*%
X144125000Y-100900000D03*
%TO.P,R3,2*%
%TO.N,Net-(R2-Pad1)*%
X145275000Y-100900000D03*
%TD*%
D13*
%TO.P,R4,1*%
%TO.N,Net-(D1-A)*%
X104800000Y-65500000D03*
%TO.P,R4,2*%
%TO.N,+3.7VA*%
X106800000Y-65500000D03*
%TD*%
D15*
%TO.P,D1,1,K*%
%TO.N,GND*%
X106637500Y-70100000D03*
%TO.P,D1,2,A*%
%TO.N,Net-(D1-A)*%
X104762500Y-70100000D03*
%TD*%
D13*
%TO.P,R13,1*%
%TO.N,GND*%
X97957500Y-66449000D03*
%TO.P,R13,2*%
%TO.N,Net-(R12-Pad1)*%
X99957500Y-66449000D03*
%TD*%
D16*
%TO.P,J3,1,Pin_1*%
%TO.N,+3.7VA*%
X117200000Y-70950000D03*
D17*
%TO.P,J3,2,Pin_2*%
%TO.N,GND*%
X117000000Y-101250000D03*
%TD*%
D18*
%TO.P,R6,1*%
%TO.N,Net-(R1-Pad2)*%
X127200000Y-102775000D03*
%TO.P,R6,2*%
%TO.N,/IO35*%
X127200000Y-101625000D03*
%TD*%
D13*
%TO.P,R12,1*%
%TO.N,Net-(R12-Pad1)*%
X97957500Y-63499000D03*
%TO.P,R12,2*%
%TO.N,+3.7VA*%
X99957500Y-63499000D03*
%TD*%
D19*
%TO.P,U2,1,OUT*%
%TO.N,/BUCK_IN*%
X102663000Y-74587000D03*
D20*
%TO.P,U2,1_1,OUT__1*%
X102938000Y-74587000D03*
D19*
%TO.P,U2,2,IN2*%
%TO.N,+5VB*%
X102663000Y-75287000D03*
D20*
%TO.P,U2,2_1,IN2__1*%
X102938000Y-75287000D03*
D21*
%TO.P,U2,3,CP2*%
%TO.N,GND*%
X102588000Y-76087000D03*
%TO.P,U2,4,OV2*%
X103088000Y-76087000D03*
%TO.P,U2,5,OV1*%
X103588000Y-76087000D03*
%TO.P,U2,6,PR1*%
X104088000Y-76087000D03*
D19*
%TO.P,U2,7,IN1*%
%TO.N,+3.7VA*%
X104013000Y-75287000D03*
D20*
%TO.P,U2,7_1,IN1__1*%
X103738000Y-75287000D03*
D19*
%TO.P,U2,8,OUT__2*%
%TO.N,/BUCK_IN*%
X104013000Y-74587000D03*
D20*
%TO.P,U2,8_1,OUT__3*%
X103738000Y-74587000D03*
D21*
%TO.P,U2,9,ST*%
%TO.N,Net-(U2-ST)*%
X104088000Y-73787000D03*
%TO.P,U2,10,ILIM*%
%TO.N,unconnected-(U2-ILIM-Pad10)*%
X103588000Y-73787000D03*
%TO.P,U2,11,SS*%
%TO.N,unconnected-(U2-SS-Pad11)*%
X103088000Y-73787000D03*
%TO.P,U2,12,GND*%
%TO.N,GND*%
X102588000Y-73787000D03*
%TD*%
D22*
%TO.P,TP3,1,1*%
%TO.N,/BUCK_IN*%
X140900000Y-126600000D03*
%TD*%
D23*
%TO.P,C6,1*%
%TO.N,GND*%
X119262500Y-109000000D03*
%TO.P,C6,2*%
%TO.N,+5VB*%
X121337500Y-109000000D03*
%TD*%
D14*
%TO.P,R8,1*%
%TO.N,+3.7VA*%
X123525000Y-65600000D03*
%TO.P,R8,2*%
%TO.N,/EN*%
X124675000Y-65600000D03*
%TD*%
D24*
%TO.P,J1,1,Pin_1*%
%TO.N,/3v3*%
X165460000Y-81500000D03*
D25*
%TO.P,J1,2,Pin_2*%
%TO.N,GND*%
X168000000Y-81500000D03*
%TO.P,J1,3,Pin_3*%
%TO.N,/IO5*%
X170540000Y-81500000D03*
%TD*%
D26*
%TO.P,D2,1,K*%
%TO.N,Net-(D2-K)*%
X126225000Y-114500000D03*
%TO.P,D2,2,A*%
%TO.N,Net-(D2-A)*%
X128100000Y-114500000D03*
%TD*%
D27*
%TO.P,U4,1,STAT*%
%TO.N,Net-(D2-A)*%
X133925000Y-114500000D03*
%TO.P,U4,2,V_{SS}*%
%TO.N,Net-(U4-V_{SS})*%
X133925000Y-115450000D03*
%TO.P,U4,3,V_{BAT}*%
%TO.N,/3.7+*%
X133925000Y-116400000D03*
%TO.P,U4,4,V_{DD}*%
%TO.N,+5VB*%
X136200000Y-116400000D03*
%TO.P,U4,5,PROG*%
%TO.N,Net-(U4-PROG)*%
X136200000Y-114500000D03*
%TD*%
D23*
%TO.P,C7,1*%
%TO.N,/3.7+*%
X133962500Y-120100000D03*
%TO.P,C7,2*%
%TO.N,GND*%
X136037500Y-120100000D03*
%TD*%
D11*
%TO.P,C4,1*%
%TO.N,/3v3*%
X135050000Y-92000000D03*
%TO.P,C4,2*%
%TO.N,GND*%
X141150000Y-92000000D03*
%TD*%
D28*
%TO.P,U1,1,GND*%
%TO.N,GND*%
X135650000Y-64481000D03*
%TO.P,U1,2,VDD*%
%TO.N,/3v3*%
X135650000Y-65751000D03*
%TO.P,U1,3,EN*%
%TO.N,unconnected-(U1-EN-Pad3)*%
X135650000Y-67021000D03*
%TO.P,U1,4,SENSOR_VP*%
%TO.N,unconnected-(U1-SENSOR_VP-Pad4)*%
X135650000Y-68291000D03*
%TO.P,U1,5,SENSOR_VN*%
%TO.N,unconnected-(U1-SENSOR_VN-Pad5)*%
X135650000Y-69561000D03*
%TO.P,U1,6,IO34*%
%TO.N,/EN*%
X135650000Y-70831000D03*
%TO.P,U1,7,IO35*%
%TO.N,/IO35*%
X135650000Y-72101000D03*
%TO.P,U1,8,IO32*%
%TO.N,unconnected-(U1-IO32-Pad8)*%
X135650000Y-73371000D03*
%TO.P,U1,9,IO33*%
%TO.N,unconnected-(U1-IO33-Pad9)*%
X135650000Y-74641000D03*
%TO.P,U1,10,IO25*%
%TO.N,unconnected-(U1-IO25-Pad10)*%
X135650000Y-75911000D03*
%TO.P,U1,11,IO26*%
%TO.N,unconnected-(U1-IO26-Pad11)*%
X135650000Y-77181000D03*
%TO.P,U1,12,IO27*%
%TO.N,unconnected-(U1-IO27-Pad12)*%
X135650000Y-78451000D03*
%TO.P,U1,13,IO14*%
%TO.N,unconnected-(U1-IO14-Pad13)*%
X135650000Y-79721000D03*
%TO.P,U1,14,IO12*%
%TO.N,/IO12*%
X135650000Y-80991000D03*
D29*
%TO.P,U1,15,GND*%
%TO.N,GND*%
X138690000Y-82241000D03*
%TO.P,U1,16,IO13*%
%TO.N,unconnected-(U1-IO13-Pad16)*%
X139960000Y-82241000D03*
%TO.P,U1,17,NC*%
%TO.N,unconnected-(U1-NC-Pad17)*%
X141230000Y-82241000D03*
%TO.P,U1,18,NC*%
%TO.N,unconnected-(U1-NC-Pad18)*%
X142500000Y-82241000D03*
%TO.P,U1,19,NC*%
%TO.N,unconnected-(U1-NC-Pad19)*%
X143770000Y-82241000D03*
%TO.P,U1,20,NC*%
%TO.N,unconnected-(U1-NC-Pad20)*%
X145040000Y-82241000D03*
%TO.P,U1,21,NC*%
%TO.N,unconnected-(U1-NC-Pad21)*%
X146310000Y-82241000D03*
%TO.P,U1,22,NC*%
%TO.N,unconnected-(U1-NC-Pad22)*%
X147580000Y-82241000D03*
%TO.P,U1,23,IO15*%
%TO.N,unconnected-(U1-IO15-Pad23)*%
X148850000Y-82241000D03*
%TO.P,U1,24,IO2*%
%TO.N,/IO2*%
X150120000Y-82241000D03*
D28*
%TO.P,U1,25,IO0*%
%TO.N,unconnected-(U1-IO0-Pad25)*%
X153150000Y-80991000D03*
%TO.P,U1,26,IO4*%
%TO.N,unconnected-(U1-IO4-Pad26)*%
X153150000Y-79721000D03*
%TO.P,U1,27,IO16*%
%TO.N,unconnected-(U1-IO16-Pad27)*%
X153150000Y-78451000D03*
%TO.P,U1,28,IO17*%
%TO.N,unconnected-(U1-IO17-Pad28)*%
X153150000Y-77181000D03*
%TO.P,U1,29,IO5*%
%TO.N,/IO5*%
X153150000Y-75911000D03*
%TO.P,U1,30,IO18*%
%TO.N,unconnected-(U1-IO18-Pad30)*%
X153150000Y-74641000D03*
%TO.P,U1,31,IO19*%
%TO.N,unconnected-(U1-IO19-Pad31)*%
X153150000Y-73371000D03*
%TO.P,U1,32,NC*%
%TO.N,unconnected-(U1-NC-Pad32)*%
X153150000Y-72101000D03*
%TO.P,U1,33,IO21*%
%TO.N,unconnected-(U1-IO21-Pad33)*%
X153150000Y-70831000D03*
%TO.P,U1,34,RXD0/IO3*%
%TO.N,unconnected-(U1-RXD0{slash}IO3-Pad34)*%
X153150000Y-69561000D03*
%TO.P,U1,35,TXD0/IO1*%
%TO.N,unconnected-(U1-TXD0{slash}IO1-Pad35)*%
X153150000Y-68291000D03*
%TO.P,U1,36,IO22*%
%TO.N,unconnected-(U1-IO22-Pad36)*%
X153150000Y-67021000D03*
%TO.P,U1,37,IO23*%
%TO.N,unconnected-(U1-IO23-Pad37)*%
X153150000Y-65751000D03*
%TO.P,U1,38,GND*%
%TO.N,GND*%
X153150000Y-64481000D03*
D30*
%TO.P,U1,39,GND*%
X141500000Y-70801000D03*
D31*
X141500000Y-71501000D03*
D30*
X141500000Y-72201000D03*
D31*
X141500000Y-72901000D03*
D30*
X141500000Y-73601000D03*
D31*
X142200000Y-70801000D03*
X142200000Y-72201000D03*
X142200000Y-73601000D03*
X142875000Y-71501000D03*
X142875000Y-72901000D03*
D30*
X142900000Y-70801000D03*
X142900000Y-72201000D03*
D32*
X142900000Y-72201000D03*
D30*
X142900000Y-73601000D03*
D31*
X143600000Y-70801000D03*
X143600000Y-72201000D03*
X143600000Y-73601000D03*
D30*
X144300000Y-70801000D03*
D31*
X144300000Y-71501000D03*
D30*
X144300000Y-72201000D03*
D31*
X144300000Y-72901000D03*
D30*
X144300000Y-73601000D03*
%TD*%
D22*
%TO.P,TP1,1,1*%
%TO.N,+3.7VA*%
X117100000Y-65500000D03*
%TD*%
D23*
%TO.P,C8,1*%
%TO.N,Net-(U2-ST)*%
X97917000Y-69342000D03*
%TO.P,C8,2*%
%TO.N,GND*%
X99992000Y-69342000D03*
%TD*%
D11*
%TO.P,C3,1*%
%TO.N,/BUCK_IN*%
X149850000Y-126400000D03*
%TO.P,C3,2*%
%TO.N,GND*%
X155950000Y-126400000D03*
%TD*%
D33*
%TO.P,L1,1,1*%
%TO.N,Net-(U3-BST)*%
X150825000Y-105400000D03*
%TO.P,L1,2,2*%
%TO.N,/3v3*%
X148775000Y-105400000D03*
%TD*%
D22*
%TO.P,TP2,1,1*%
%TO.N,/3v3*%
X135000000Y-100900000D03*
%TD*%
D34*
%TO.P,R10,1*%
%TO.N,Net-(D2-K)*%
X121400000Y-114500000D03*
%TO.P,R10,2*%
%TO.N,+5VB*%
X119400000Y-114500000D03*
%TD*%
D24*
%TO.P,J2,1,Pin_1*%
%TO.N,/3v3*%
X167220000Y-94000000D03*
D25*
%TO.P,J2,2,Pin_2*%
%TO.N,GND*%
X169760000Y-94000000D03*
%TO.P,J2,3,Pin_3*%
%TO.N,/IO12*%
X172300000Y-94000000D03*
%TD*%
D12*
%TO.P,R1,1*%
%TO.N,/3v3*%
X129875000Y-107800000D03*
%TO.P,R1,2*%
%TO.N,Net-(R1-Pad2)*%
X128725000Y-107800000D03*
%TD*%
D11*
%TO.P,C1,1*%
%TO.N,/3v3*%
X135050000Y-107700000D03*
%TO.P,C1,2*%
%TO.N,GND*%
X141150000Y-107700000D03*
%TD*%
D14*
%TO.P,R9,1*%
%TO.N,/EN*%
X161225000Y-100400000D03*
%TO.P,R9,2*%
%TO.N,GND*%
X162375000Y-100400000D03*
%TD*%
%TO.P,R2,1*%
%TO.N,Net-(R2-Pad1)*%
X149025000Y-101000000D03*
%TO.P,R2,2*%
%TO.N,Net-(U3-FB)*%
X150175000Y-101000000D03*
%TD*%
D13*
%TO.P,R7,1*%
%TO.N,Net-(U4-PROG)*%
X141600000Y-114500000D03*
%TO.P,R7,2*%
%TO.N,Net-(U4-V_{SS})*%
X143600000Y-114500000D03*
%TD*%
D35*
%TO.P,U3,1,VIN*%
%TO.N,/BUCK_IN*%
X149587500Y-118200000D03*
%TO.P,U3,2,SW*%
%TO.N,Net-(U3-SW)*%
X149587500Y-118700000D03*
%TO.P,U3,3,GND*%
%TO.N,GND*%
X149587500Y-119200000D03*
%TO.P,U3,4,BST*%
%TO.N,Net-(U3-BST)*%
X151012500Y-119200000D03*
%TO.P,U3,5,EN*%
%TO.N,/EN*%
X151012500Y-118700000D03*
%TO.P,U3,6,FB*%
%TO.N,Net-(U3-FB)*%
X151012500Y-118200000D03*
%TD*%
D36*
%TO.N,*%
X98000000Y-74200000D03*
X102300000Y-70500000D03*
%TO.N,/3v3*%
X130000000Y-72000000D03*
X144200000Y-98000000D03*
X130000000Y-69700000D03*
%TO.N,GND*%
X128400000Y-91400000D03*
X114000000Y-66600000D03*
X160900000Y-103300000D03*
X131500000Y-87000000D03*
X135500000Y-83300000D03*
X133300000Y-84600000D03*
X157600000Y-103400000D03*
X156400000Y-103400000D03*
X115100000Y-62100000D03*
%TO.N,Net-(U3-BST)*%
X161000000Y-105500000D03*
X155300000Y-105400000D03*
%TO.N,/BUCK_IN*%
X102500000Y-77100000D03*
%TO.N,/IO35*%
X132900000Y-72300000D03*
X129400000Y-72900000D03*
%TO.N,/IO5*%
X158900000Y-75900000D03*
%TO.N,/IO12*%
X138600000Y-79900000D03*
%TO.N,/IO2*%
X121539600Y-63730500D03*
X137600000Y-84300000D03*
%TO.N,+5VB*%
X117200000Y-114500000D03*
%TO.N,Net-(U4-V_{SS})*%
X135000000Y-117800000D03*
X132900000Y-117800000D03*
%TD*%
D10*
%TO.N,GND*%
X147000000Y-119600000D02*
X146800000Y-119800000D01*
X149188000Y-119600000D02*
X147000000Y-119600000D01*
X149588000Y-119200000D02*
X149188000Y-119600000D01*
%TO.N,/3v3*%
X135000000Y-100900000D02*
X144125000Y-100900000D01*
X130000000Y-102650000D02*
X130000000Y-95900000D01*
X130000000Y-69700000D02*
X133949000Y-65751000D01*
X144200000Y-98000000D02*
X144125000Y-98075000D01*
X130000000Y-86950000D02*
X130000000Y-95900000D01*
X144125000Y-98075000D02*
X144125000Y-100900000D01*
X129975000Y-107700000D02*
X129875000Y-107800000D01*
X130000000Y-86950000D02*
X130000000Y-72000000D01*
X144125000Y-100900000D02*
X144125000Y-101975000D01*
X144125000Y-101975000D02*
X147550000Y-105400000D01*
X147550000Y-105400000D02*
X148775000Y-105400000D01*
X135050000Y-107700000D02*
X130000000Y-102650000D01*
X135050000Y-107700000D02*
X129975000Y-107700000D01*
X130000000Y-95900000D02*
X135000000Y-100900000D01*
X135050000Y-92000000D02*
X130000000Y-86950000D01*
X133949000Y-65751000D02*
X135650000Y-65751000D01*
%TO.N,GND*%
X101613000Y-73787000D02*
X101600000Y-73800000D01*
X128400000Y-91400000D02*
X128400000Y-92000000D01*
X101413000Y-76087000D02*
X101400000Y-76100000D01*
X132950000Y-85450000D02*
X132900000Y-85500000D01*
X102588000Y-76087000D02*
X104088000Y-76087000D01*
X102588000Y-73787000D02*
X102100000Y-73787000D01*
X102100000Y-73787000D02*
X101613000Y-73787000D01*
X131500000Y-86900000D02*
X131500000Y-87000000D01*
X106638000Y-69892500D02*
X106680000Y-69850000D01*
X117000000Y-101250000D02*
X117000000Y-104700000D01*
X106638000Y-70100000D02*
X106638000Y-69892500D01*
X133300000Y-84600000D02*
X133300000Y-85100000D01*
X136559000Y-82241000D02*
X135500000Y-83300000D01*
X156400000Y-103400000D02*
X157600000Y-103400000D01*
X154875000Y-101000000D02*
X156400000Y-102525000D01*
X133300000Y-85100000D02*
X132950000Y-85450000D01*
X102588000Y-76087000D02*
X101413000Y-76087000D01*
X138690000Y-82241000D02*
X136559000Y-82241000D01*
X156400000Y-102525000D02*
X156400000Y-103400000D01*
X132950000Y-85450000D02*
X131500000Y-86900000D01*
%TO.N,Net-(U3-SW)*%
X147600000Y-118700000D02*
X149588000Y-118700000D01*
X149650000Y-112100000D02*
X147600000Y-114150000D01*
X147600000Y-114150000D02*
X147600000Y-118700000D01*
%TO.N,Net-(U3-BST)*%
X150825000Y-105400000D02*
X155300000Y-105400000D01*
X158000000Y-108100000D02*
X158000000Y-109850000D01*
X153900000Y-119200000D02*
X161000000Y-112100000D01*
X158000000Y-109850000D02*
X155750000Y-112100000D01*
X151012500Y-119200000D02*
X151226400Y-119200000D01*
X151226400Y-119200000D02*
X153900000Y-119200000D01*
X151012000Y-119200000D02*
X151012500Y-119200000D01*
X155300000Y-105400000D02*
X158000000Y-108100000D01*
X161000000Y-112100000D02*
X161000000Y-105500000D01*
%TO.N,/BUCK_IN*%
X148551000Y-121126000D02*
X147000000Y-121126000D01*
X146526000Y-121600000D02*
X133074000Y-121600000D01*
X149977000Y-118200000D02*
X150226000Y-118449000D01*
X140900000Y-126600000D02*
X143950000Y-123550000D01*
X149587500Y-118200000D02*
X149588000Y-118200000D01*
X122550000Y-120700000D02*
X102500000Y-100650000D01*
X102663000Y-74587000D02*
X102938000Y-74587000D01*
X103738000Y-74587000D02*
X102938000Y-74587000D01*
X104013000Y-74587000D02*
X103738000Y-74587000D01*
X149588000Y-118200000D02*
X149977000Y-118200000D01*
X147000000Y-121126000D02*
X146526000Y-121600000D01*
X132174000Y-120700000D02*
X122550000Y-120700000D01*
X150226000Y-119451000D02*
X148551000Y-121126000D01*
X147000000Y-123550000D02*
X147000000Y-121126000D01*
X133074000Y-121600000D02*
X132174000Y-120700000D01*
X143950000Y-123550000D02*
X147000000Y-123550000D01*
X102500000Y-100650000D02*
X102500000Y-77100000D01*
X149850000Y-126400000D02*
X147000000Y-123550000D01*
X150226000Y-118449000D02*
X150226000Y-119451000D01*
%TO.N,/IO35*%
X164500000Y-112400000D02*
X164500000Y-94819000D01*
X136600000Y-72101000D02*
X135650000Y-72101000D01*
X127200000Y-101625000D02*
X129400000Y-99425000D01*
X164500000Y-94819000D02*
X145881000Y-76200000D01*
X132900000Y-72300000D02*
X133099000Y-72101000D01*
X129400000Y-99425000D02*
X129400000Y-72900000D01*
X140699000Y-76200000D02*
X136600000Y-72101000D01*
X145881000Y-76200000D02*
X140699000Y-76200000D01*
X133099000Y-72101000D02*
X135650000Y-72101000D01*
%TO.N,/IO5*%
X153150000Y-75911000D02*
X158889000Y-75911000D01*
X158889000Y-75911000D02*
X158900000Y-75900000D01*
%TO.N,/IO12*%
X137509000Y-80991000D02*
X138600000Y-79900000D01*
X135650000Y-80991000D02*
X137509000Y-80991000D01*
%TO.N,Net-(R1-Pad2)*%
X127200000Y-105800000D02*
X126962000Y-106038000D01*
X123425000Y-102500000D02*
X123375000Y-102500000D01*
X127200000Y-102775000D02*
X127200000Y-105800000D01*
X126962000Y-106038000D02*
X123425000Y-102500000D01*
X128725000Y-107800000D02*
X126962000Y-106038000D01*
%TO.N,Net-(U3-FB)*%
X153186000Y-116026000D02*
X153186000Y-109322000D01*
X151012300Y-118199700D02*
X151012000Y-118200000D01*
X150175000Y-101000000D02*
X153725000Y-101000000D01*
X151012300Y-118199800D02*
X151012300Y-118199700D01*
X151012300Y-118199700D02*
X152099000Y-117113000D01*
X152099000Y-117113000D02*
X151012300Y-118199700D01*
X149949000Y-103251000D02*
X152200000Y-101000000D01*
X149949000Y-106085000D02*
X149949000Y-103251000D01*
X151012500Y-118200000D02*
X151012300Y-118199800D01*
X153186000Y-109322000D02*
X149949000Y-106085000D01*
X151012000Y-118200000D02*
X151012300Y-118199700D01*
X152099000Y-117113000D02*
X153186000Y-116026000D01*
%TO.N,Net-(D1-A)*%
X104762000Y-67831200D02*
X104762000Y-67831700D01*
X104700000Y-65500000D02*
X104762000Y-65562500D01*
X104762000Y-67831700D02*
X104762000Y-70100000D01*
X104762000Y-65562500D02*
X104762000Y-67831200D01*
X104762500Y-70100000D02*
X104762000Y-70100000D01*
X104800000Y-65500000D02*
X104700000Y-65500000D01*
X104762000Y-67831200D02*
X104762000Y-70100000D01*
%TO.N,/EN*%
X158401000Y-102683000D02*
X141418000Y-85700000D01*
X161225000Y-100400000D02*
X158942000Y-102683000D01*
X129906000Y-70831000D02*
X132300000Y-70831000D01*
X158942000Y-102683000D02*
X158401000Y-102683000D01*
X132300000Y-70831000D02*
X135650000Y-70831000D01*
X136400000Y-85700000D02*
X132300000Y-81600000D01*
X152686000Y-118700000D02*
X158401000Y-112985000D01*
X132300000Y-81600000D02*
X132300000Y-70831000D01*
X151012000Y-118700000D02*
X152686000Y-118700000D01*
X141418000Y-85700000D02*
X136400000Y-85700000D01*
X158401000Y-112985000D02*
X158401000Y-102683000D01*
X124675000Y-65600000D02*
X129906000Y-70831000D01*
%TO.N,/IO2*%
X150120000Y-82241000D02*
X150120000Y-83191000D01*
X111709000Y-61885800D02*
X99900000Y-61885800D01*
X121539600Y-63730500D02*
X113553700Y-63730500D01*
X99294300Y-61885800D02*
X99900000Y-61885800D01*
X149011000Y-84300000D02*
X137600000Y-84300000D01*
X150120000Y-83191000D02*
X149011000Y-84300000D01*
X113553700Y-63730500D02*
X111709000Y-61885800D01*
X97957500Y-60549000D02*
X99294300Y-61885800D01*
%TO.N,Net-(U2-ST)*%
X104088000Y-73401900D02*
X104088000Y-73787000D01*
X97917000Y-69342000D02*
X100308700Y-71733700D01*
X100308700Y-71733700D02*
X102419800Y-71733700D01*
X102419800Y-71733700D02*
X104088000Y-73401900D01*
%TO.N,Net-(R12-Pad1)*%
X98954700Y-67451800D02*
X99957500Y-66449000D01*
X97035500Y-67184200D02*
X97303100Y-67451800D01*
X97303100Y-67451800D02*
X98954700Y-67451800D01*
X97035500Y-64421000D02*
X97035500Y-67184200D01*
X97957500Y-63499000D02*
X97035500Y-64421000D01*
%TO.N,Net-(D2-K)*%
X121400000Y-114500000D02*
X126225000Y-114500000D01*
%TO.N,Net-(D2-A)*%
X128100000Y-114500000D02*
X133925000Y-114500000D01*
%TO.N,+3.7VA*%
X104799000Y-63499000D02*
X106800000Y-65500000D01*
X99957500Y-63499000D02*
X104799000Y-63499000D01*
X103738000Y-75287000D02*
X104013000Y-75287000D01*
X117300000Y-65300000D02*
X117300000Y-65100000D01*
X123425000Y-65500000D02*
X123525000Y-65600000D01*
X104013000Y-75287000D02*
X107087000Y-75287000D01*
X117200000Y-65600000D02*
X117100000Y-65500000D01*
X117100000Y-65500000D02*
X117300000Y-65300000D01*
X117100000Y-65500000D02*
X106800000Y-65500000D01*
X117100000Y-65500000D02*
X107200000Y-75400000D01*
X117200000Y-70950000D02*
X117200000Y-65600000D01*
X117100000Y-65500000D02*
X123425000Y-65500000D01*
X107087000Y-75287000D02*
X107200000Y-75400000D01*
%TO.N,+5VB*%
X121338000Y-109413000D02*
X121338000Y-112136000D01*
X117200000Y-114500000D02*
X119300000Y-114500000D01*
X119400000Y-114500000D02*
X119300000Y-114500000D01*
X121337500Y-109000000D02*
X121338000Y-109000000D01*
X122700000Y-113499000D02*
X134576000Y-113499000D01*
X119400000Y-114500000D02*
X120401000Y-113499000D01*
X102938000Y-75287000D02*
X102663000Y-75287000D01*
X134576000Y-113499000D02*
X135236000Y-114159000D01*
X120401000Y-113499000D02*
X122700000Y-113499000D01*
X121338000Y-109412000D02*
X121338000Y-109000000D01*
X121338000Y-109000000D02*
X121338000Y-109413000D01*
X121338000Y-112136000D02*
X122700000Y-113499000D01*
X135236000Y-115436000D02*
X136200000Y-116400000D01*
X121338000Y-109413000D02*
X121338000Y-109412000D01*
X135236000Y-114159000D02*
X135236000Y-115436000D01*
%TO.N,Net-(R2-Pad1)*%
X148925000Y-100900000D02*
X149025000Y-101000000D01*
X145275000Y-100900000D02*
X148925000Y-100900000D01*
%TO.N,Net-(U4-V_{SS})*%
X132400000Y-117300000D02*
X132400000Y-116313000D01*
X133263000Y-115450000D02*
X133925000Y-115450000D01*
X132400000Y-116313000D02*
X133263000Y-115450000D01*
X143600000Y-114500000D02*
X140300000Y-117800000D01*
X140300000Y-117800000D02*
X135000000Y-117800000D01*
X132900000Y-117800000D02*
X132400000Y-117300000D01*
%TO.N,Net-(U4-PROG)*%
X136200000Y-114500000D02*
X141600000Y-114500000D01*
%TO.N,/3.7+*%
X133925000Y-116400000D02*
X133925000Y-120062000D01*
X133925000Y-120062000D02*
X133962000Y-120100000D01*
X133962500Y-120100000D02*
X133962000Y-120100000D01*
%TD*%
%TA.AperFunction,Conductor*%
%TO.N,GND*%
G36*
X120343039Y-53359685D02*
G01*
X120388794Y-53412489D01*
X120400000Y-53464000D01*
X120400000Y-63006000D01*
X120380315Y-63073039D01*
X120327511Y-63118794D01*
X120276000Y-63130000D01*
X113853798Y-63130000D01*
X113786759Y-63110315D01*
X113766117Y-63093681D01*
X112196590Y-61524155D01*
X112196588Y-61524152D01*
X112077717Y-61405281D01*
X112077716Y-61405280D01*
X111990904Y-61355160D01*
X111990904Y-61355159D01*
X111990900Y-61355158D01*
X111940785Y-61326223D01*
X111788057Y-61285299D01*
X111629943Y-61285299D01*
X111622347Y-61285299D01*
X111622331Y-61285300D01*
X101170670Y-61285300D01*
X101103631Y-61265615D01*
X101057876Y-61212811D01*
X101047312Y-61148697D01*
X101057499Y-61048985D01*
X101057500Y-61048973D01*
X101057500Y-60799000D01*
X100081500Y-60799000D01*
X100014461Y-60779315D01*
X99968706Y-60726511D01*
X99957500Y-60675000D01*
X99957500Y-60549000D01*
X99831500Y-60549000D01*
X99764461Y-60529315D01*
X99718706Y-60476511D01*
X99707500Y-60425000D01*
X99707500Y-60299000D01*
X100207500Y-60299000D01*
X101057499Y-60299000D01*
X101057499Y-60049028D01*
X101057498Y-60049013D01*
X101047005Y-59946302D01*
X100991858Y-59779880D01*
X100991856Y-59779875D01*
X100899815Y-59630654D01*
X100775845Y-59506684D01*
X100626624Y-59414643D01*
X100626619Y-59414641D01*
X100460197Y-59359494D01*
X100460190Y-59359493D01*
X100357486Y-59349000D01*
X100207500Y-59349000D01*
X100207500Y-60299000D01*
X99707500Y-60299000D01*
X99707500Y-59349000D01*
X99557527Y-59349000D01*
X99557512Y-59349001D01*
X99454802Y-59359494D01*
X99288380Y-59414641D01*
X99288375Y-59414643D01*
X99139157Y-59506682D01*
X99045534Y-59600305D01*
X98984210Y-59633789D01*
X98914519Y-59628805D01*
X98870172Y-59600304D01*
X98776157Y-59506289D01*
X98776156Y-59506288D01*
X98626834Y-59414186D01*
X98460297Y-59359001D01*
X98460295Y-59359000D01*
X98357510Y-59348500D01*
X97557498Y-59348500D01*
X97557480Y-59348501D01*
X97454703Y-59359000D01*
X97454700Y-59359001D01*
X97288168Y-59414185D01*
X97288163Y-59414187D01*
X97138842Y-59506289D01*
X97014789Y-59630342D01*
X96922687Y-59779663D01*
X96922685Y-59779668D01*
X96922615Y-59779880D01*
X96867501Y-59946203D01*
X96867501Y-59946204D01*
X96867500Y-59946204D01*
X96857000Y-60048983D01*
X96857000Y-61049001D01*
X96857001Y-61049019D01*
X96867500Y-61151796D01*
X96867501Y-61151799D01*
X96922685Y-61318331D01*
X96922686Y-61318334D01*
X97014788Y-61467656D01*
X97138844Y-61591712D01*
X97288166Y-61683814D01*
X97454703Y-61738999D01*
X97557491Y-61749500D01*
X98257401Y-61749499D01*
X98324440Y-61769183D01*
X98345082Y-61785818D01*
X98700491Y-62141227D01*
X98733976Y-62202550D01*
X98728992Y-62272242D01*
X98687120Y-62328175D01*
X98621656Y-62352592D01*
X98573807Y-62346614D01*
X98460299Y-62309001D01*
X98460295Y-62309000D01*
X98357510Y-62298500D01*
X97557498Y-62298500D01*
X97557480Y-62298501D01*
X97454703Y-62309000D01*
X97454700Y-62309001D01*
X97288168Y-62364185D01*
X97288163Y-62364187D01*
X97138842Y-62456289D01*
X97014789Y-62580342D01*
X96922687Y-62729663D01*
X96922686Y-62729666D01*
X96867501Y-62896203D01*
X96867501Y-62896204D01*
X96867500Y-62896204D01*
X96857000Y-62998983D01*
X96857000Y-63698902D01*
X96837315Y-63765941D01*
X96820681Y-63786583D01*
X96554981Y-64052282D01*
X96554979Y-64052285D01*
X96504861Y-64139094D01*
X96504859Y-64139096D01*
X96475925Y-64189209D01*
X96475924Y-64189210D01*
X96462104Y-64240788D01*
X96434999Y-64341943D01*
X96434999Y-64341945D01*
X96434999Y-64510046D01*
X96435000Y-64510059D01*
X96435000Y-67097530D01*
X96434999Y-67097548D01*
X96434999Y-67263254D01*
X96434998Y-67263254D01*
X96434999Y-67263257D01*
X96475923Y-67415985D01*
X96503058Y-67462984D01*
X96503058Y-67462985D01*
X96554975Y-67552909D01*
X96554981Y-67552917D01*
X96684220Y-67682156D01*
X96684225Y-67682160D01*
X96934384Y-67932320D01*
X96934386Y-67932321D01*
X96934390Y-67932324D01*
X97071309Y-68011373D01*
X97071316Y-68011377D01*
X97118362Y-68023983D01*
X97178020Y-68060347D01*
X97208549Y-68123194D01*
X97200254Y-68192570D01*
X97155769Y-68246448D01*
X97151363Y-68249295D01*
X97110847Y-68274285D01*
X97110843Y-68274288D01*
X96986789Y-68398342D01*
X96894687Y-68547663D01*
X96894685Y-68547668D01*
X96894615Y-68547880D01*
X96839501Y-68714203D01*
X96839501Y-68714204D01*
X96839500Y-68714204D01*
X96829000Y-68816983D01*
X96829000Y-69867001D01*
X96829001Y-69867019D01*
X96839500Y-69969796D01*
X96839501Y-69969799D01*
X96894685Y-70136331D01*
X96894687Y-70136336D01*
X96915230Y-70169642D01*
X96986788Y-70285656D01*
X97110844Y-70409712D01*
X97260166Y-70501814D01*
X97426703Y-70556999D01*
X97529491Y-70567500D01*
X98241901Y-70567499D01*
X98308940Y-70587183D01*
X98329582Y-70603818D01*
X99939984Y-72214220D01*
X99939986Y-72214221D01*
X99939990Y-72214224D01*
X100050824Y-72278213D01*
X100076916Y-72293277D01*
X100229643Y-72334201D01*
X100229645Y-72334201D01*
X100395354Y-72334201D01*
X100395370Y-72334200D01*
X102119703Y-72334200D01*
X102186742Y-72353885D01*
X102207384Y-72370519D01*
X102612184Y-72775319D01*
X102645669Y-72836642D01*
X102640685Y-72906334D01*
X102598813Y-72962267D01*
X102533349Y-72986684D01*
X102524503Y-72987000D01*
X102494946Y-72987000D01*
X102406556Y-72997613D01*
X102265904Y-73053079D01*
X102145435Y-73144435D01*
X102054079Y-73264904D01*
X101998613Y-73405556D01*
X101988000Y-73493946D01*
X101988000Y-73860767D01*
X101968315Y-73927806D01*
X101939487Y-73959143D01*
X101809718Y-74058718D01*
X101713463Y-74184160D01*
X101652956Y-74330237D01*
X101652955Y-74330239D01*
X101637500Y-74447638D01*
X101637500Y-74726363D01*
X101652954Y-74843755D01*
X101652954Y-74843756D01*
X101652955Y-74843760D01*
X101652956Y-74843762D01*
X101669952Y-74884794D01*
X101677419Y-74954264D01*
X101670522Y-74978295D01*
X101648088Y-75034381D01*
X101648088Y-75034382D01*
X101629362Y-75191380D01*
X101629362Y-75191384D01*
X101636233Y-75239069D01*
X101637500Y-75256750D01*
X101637500Y-75426363D01*
X101652953Y-75543753D01*
X101652956Y-75543762D01*
X101713464Y-75689841D01*
X101809718Y-75815282D01*
X101894735Y-75880518D01*
X101939486Y-75914856D01*
X101980689Y-75971284D01*
X101988000Y-76013232D01*
X101988000Y-76380055D01*
X101991520Y-76409373D01*
X101979967Y-76478281D01*
X101956085Y-76511836D01*
X101878213Y-76589707D01*
X101878210Y-76589711D01*
X101790609Y-76720814D01*
X101790602Y-76720827D01*
X101730264Y-76866498D01*
X101730261Y-76866510D01*
X101699500Y-77021153D01*
X101699500Y-77178846D01*
X101730261Y-77333489D01*
X101730264Y-77333501D01*
X101790602Y-77479172D01*
X101790609Y-77479185D01*
X101878602Y-77610874D01*
X101899480Y-77677551D01*
X101899500Y-77679765D01*
X101899500Y-100563330D01*
X101899499Y-100563348D01*
X101899499Y-100729054D01*
X101899498Y-100729054D01*
X101937016Y-100869072D01*
X101940423Y-100881785D01*
X101962879Y-100920679D01*
X102011764Y-101005351D01*
X102019479Y-101018714D01*
X102019481Y-101018717D01*
X102138349Y-101137585D01*
X102138355Y-101137590D01*
X122065139Y-121064374D01*
X122065149Y-121064385D01*
X122069479Y-121068715D01*
X122069480Y-121068716D01*
X122181284Y-121180520D01*
X122268095Y-121230639D01*
X122268097Y-121230641D01*
X122306151Y-121252611D01*
X122318215Y-121259577D01*
X122470943Y-121300501D01*
X122470946Y-121300501D01*
X122636653Y-121300501D01*
X122636669Y-121300500D01*
X131873903Y-121300500D01*
X131940942Y-121320185D01*
X131961584Y-121336819D01*
X132589139Y-121964374D01*
X132589149Y-121964385D01*
X132593479Y-121968715D01*
X132593480Y-121968716D01*
X132705284Y-122080520D01*
X132792095Y-122130639D01*
X132792097Y-122130641D01*
X132842213Y-122159576D01*
X132842215Y-122159577D01*
X132994942Y-122200500D01*
X132994943Y-122200500D01*
X146275500Y-122200500D01*
X146342539Y-122220185D01*
X146388294Y-122272989D01*
X146399500Y-122324500D01*
X146399500Y-122825500D01*
X146379815Y-122892539D01*
X146327011Y-122938294D01*
X146275500Y-122949500D01*
X143870940Y-122949500D01*
X143830019Y-122960464D01*
X143830019Y-122960465D01*
X143792751Y-122970451D01*
X143718214Y-122990423D01*
X143718209Y-122990426D01*
X143581290Y-123069475D01*
X143581282Y-123069481D01*
X143469478Y-123181286D01*
X141503563Y-125147200D01*
X141442240Y-125180685D01*
X141377564Y-125177450D01*
X141251370Y-125136447D01*
X141018097Y-125099500D01*
X141018092Y-125099500D01*
X140781908Y-125099500D01*
X140781903Y-125099500D01*
X140548631Y-125136446D01*
X140324003Y-125209433D01*
X140113566Y-125316657D01*
X140004550Y-125395862D01*
X139922490Y-125455483D01*
X139922488Y-125455485D01*
X139922487Y-125455485D01*
X139755485Y-125622487D01*
X139755485Y-125622488D01*
X139755483Y-125622490D01*
X139695862Y-125704550D01*
X139616657Y-125813566D01*
X139509433Y-126024003D01*
X139436446Y-126248631D01*
X139399500Y-126481902D01*
X139399500Y-126718097D01*
X139436446Y-126951368D01*
X139509433Y-127175996D01*
X139616657Y-127386433D01*
X139755483Y-127577510D01*
X139922490Y-127744517D01*
X140113567Y-127883343D01*
X140212991Y-127934002D01*
X140324003Y-127990566D01*
X140324005Y-127990566D01*
X140324008Y-127990568D01*
X140444412Y-128029689D01*
X140548631Y-128063553D01*
X140781903Y-128100500D01*
X140781908Y-128100500D01*
X141018097Y-128100500D01*
X141251368Y-128063553D01*
X141475992Y-127990568D01*
X141686433Y-127883343D01*
X141877510Y-127744517D01*
X142044517Y-127577510D01*
X142183343Y-127386433D01*
X142290568Y-127175992D01*
X142363553Y-126951368D01*
X142400500Y-126718097D01*
X142400500Y-126481902D01*
X142363553Y-126248635D01*
X142363553Y-126248632D01*
X142322547Y-126122433D01*
X142320553Y-126052593D01*
X142352796Y-125996437D01*
X144162416Y-124186819D01*
X144223739Y-124153334D01*
X144250097Y-124150500D01*
X146699903Y-124150500D01*
X146766942Y-124170185D01*
X146787584Y-124186819D01*
X147447427Y-124846662D01*
X147480912Y-124907985D01*
X147475928Y-124977677D01*
X147465286Y-124999438D01*
X147415189Y-125080661D01*
X147415185Y-125080668D01*
X147415115Y-125080880D01*
X147360001Y-125247203D01*
X147360001Y-125247204D01*
X147360000Y-125247204D01*
X147349500Y-125349983D01*
X147349500Y-127450001D01*
X147349501Y-127450018D01*
X147360000Y-127552796D01*
X147360001Y-127552799D01*
X147415115Y-127719119D01*
X147415186Y-127719334D01*
X147507288Y-127868656D01*
X147631344Y-127992712D01*
X147780666Y-128084814D01*
X147947203Y-128139999D01*
X148049991Y-128150500D01*
X151650008Y-128150499D01*
X151752797Y-128139999D01*
X151919334Y-128084814D01*
X152068656Y-127992712D01*
X152192712Y-127868656D01*
X152284814Y-127719334D01*
X152339999Y-127552797D01*
X152350500Y-127450009D01*
X152350500Y-127449986D01*
X153450001Y-127449986D01*
X153460494Y-127552697D01*
X153515641Y-127719119D01*
X153515643Y-127719124D01*
X153607684Y-127868345D01*
X153731654Y-127992315D01*
X153880875Y-128084356D01*
X153880880Y-128084358D01*
X154047302Y-128139505D01*
X154047309Y-128139506D01*
X154150019Y-128149999D01*
X155699999Y-128149999D01*
X156200000Y-128149999D01*
X157749972Y-128149999D01*
X157749986Y-128149998D01*
X157852697Y-128139505D01*
X158019119Y-128084358D01*
X158019124Y-128084356D01*
X158168345Y-127992315D01*
X158292315Y-127868345D01*
X158384356Y-127719124D01*
X158384358Y-127719119D01*
X158439505Y-127552697D01*
X158439506Y-127552690D01*
X158449999Y-127449986D01*
X158450000Y-127449973D01*
X158450000Y-126650000D01*
X156200000Y-126650000D01*
X156200000Y-128149999D01*
X155699999Y-128149999D01*
X155700000Y-128149998D01*
X155700000Y-126650000D01*
X153450001Y-126650000D01*
X153450001Y-127449986D01*
X152350500Y-127449986D01*
X152350499Y-126248635D01*
X152350499Y-125350013D01*
X153450000Y-125350013D01*
X153450000Y-126150000D01*
X155700000Y-126150000D01*
X156200000Y-126150000D01*
X158449999Y-126150000D01*
X158449999Y-125350028D01*
X158449998Y-125350013D01*
X158439505Y-125247302D01*
X158384358Y-125080880D01*
X158384356Y-125080875D01*
X158292315Y-124931654D01*
X158168345Y-124807684D01*
X158019124Y-124715643D01*
X158019119Y-124715641D01*
X157852697Y-124660494D01*
X157852690Y-124660493D01*
X157749986Y-124650000D01*
X156200000Y-124650000D01*
X156200000Y-126150000D01*
X155700000Y-126150000D01*
X155700000Y-124650000D01*
X154150028Y-124650000D01*
X154150012Y-124650001D01*
X154047302Y-124660494D01*
X153880880Y-124715641D01*
X153880875Y-124715643D01*
X153731654Y-124807684D01*
X153607684Y-124931654D01*
X153515643Y-125080875D01*
X153515641Y-125080880D01*
X153460494Y-125247302D01*
X153460493Y-125247309D01*
X153450000Y-125350013D01*
X152350499Y-125350013D01*
X152350499Y-125349998D01*
X152350498Y-125349981D01*
X152339999Y-125247203D01*
X152339998Y-125247200D01*
X152303298Y-125136447D01*
X152284814Y-125080666D01*
X152192712Y-124931344D01*
X152068656Y-124807288D01*
X151919334Y-124715186D01*
X151752797Y-124660001D01*
X151752795Y-124660000D01*
X151650016Y-124649500D01*
X151650009Y-124649500D01*
X149000098Y-124649500D01*
X148933059Y-124629815D01*
X148912417Y-124613181D01*
X147636819Y-123337583D01*
X147603334Y-123276260D01*
X147600500Y-123249902D01*
X147600500Y-121850500D01*
X147620185Y-121783461D01*
X147672989Y-121737706D01*
X147724500Y-121726500D01*
X148464331Y-121726500D01*
X148464347Y-121726501D01*
X148471943Y-121726501D01*
X148630054Y-121726501D01*
X148630057Y-121726501D01*
X148782785Y-121685577D01*
X148832904Y-121656639D01*
X148919716Y-121606520D01*
X149031520Y-121494716D01*
X149031520Y-121494714D01*
X149041728Y-121484507D01*
X149041729Y-121484504D01*
X150639416Y-119886819D01*
X150700739Y-119853334D01*
X150727097Y-119850500D01*
X151312713Y-119850500D01*
X151312720Y-119850500D01*
X151425236Y-119835687D01*
X151487396Y-119809938D01*
X151534849Y-119800500D01*
X153813331Y-119800500D01*
X153813347Y-119800501D01*
X153820943Y-119800501D01*
X153979054Y-119800501D01*
X153979057Y-119800501D01*
X154131785Y-119759577D01*
X154181904Y-119730639D01*
X154268716Y-119680520D01*
X154380520Y-119568716D01*
X154380520Y-119568714D01*
X154390728Y-119558507D01*
X154390730Y-119558504D01*
X161358506Y-112590728D01*
X161358511Y-112590724D01*
X161368714Y-112580520D01*
X161368716Y-112580520D01*
X161480520Y-112468716D01*
X161538911Y-112367579D01*
X161559577Y-112331785D01*
X161600500Y-112179058D01*
X161600500Y-112020943D01*
X161600500Y-112020942D01*
X161600500Y-106079765D01*
X161620185Y-106012726D01*
X161621398Y-106010874D01*
X161624545Y-106006165D01*
X161709394Y-105879179D01*
X161769737Y-105733497D01*
X161800500Y-105578842D01*
X161800500Y-105421158D01*
X161800500Y-105421155D01*
X161800499Y-105421153D01*
X161786597Y-105351264D01*
X161769737Y-105266503D01*
X161728314Y-105166498D01*
X161709397Y-105120827D01*
X161709390Y-105120814D01*
X161621789Y-104989711D01*
X161621786Y-104989707D01*
X161510292Y-104878213D01*
X161510288Y-104878210D01*
X161379185Y-104790609D01*
X161379172Y-104790602D01*
X161233501Y-104730264D01*
X161233489Y-104730261D01*
X161078845Y-104699500D01*
X161078842Y-104699500D01*
X160921158Y-104699500D01*
X160921155Y-104699500D01*
X160766510Y-104730261D01*
X160766498Y-104730264D01*
X160620827Y-104790602D01*
X160620814Y-104790609D01*
X160489711Y-104878210D01*
X160489707Y-104878213D01*
X160378213Y-104989707D01*
X160378210Y-104989711D01*
X160290609Y-105120814D01*
X160290602Y-105120827D01*
X160230264Y-105266498D01*
X160230261Y-105266510D01*
X160199500Y-105421153D01*
X160199500Y-105578846D01*
X160230261Y-105733489D01*
X160230264Y-105733501D01*
X160290602Y-105879172D01*
X160290609Y-105879185D01*
X160364343Y-105989534D01*
X160375455Y-106006165D01*
X160378602Y-106010874D01*
X160399480Y-106077551D01*
X160399500Y-106079765D01*
X160399500Y-111799903D01*
X160379815Y-111866942D01*
X160363181Y-111887584D01*
X159213182Y-113037583D01*
X159193749Y-113048194D01*
X159177015Y-113062695D01*
X159163681Y-113064612D01*
X159151859Y-113071068D01*
X159129772Y-113069488D01*
X159107856Y-113072640D01*
X159095603Y-113067044D01*
X159082167Y-113066084D01*
X159064442Y-113052814D01*
X159044300Y-113043617D01*
X159037016Y-113032283D01*
X159026234Y-113024212D01*
X159018496Y-113003466D01*
X159006525Y-112984839D01*
X159003372Y-112962919D01*
X159001817Y-112958748D01*
X159001501Y-112949904D01*
X159001501Y-112939422D01*
X159001501Y-112905942D01*
X159001500Y-112905938D01*
X159001500Y-103383889D01*
X159021185Y-103316850D01*
X159073989Y-103271095D01*
X159093400Y-103264116D01*
X159173785Y-103242577D01*
X159230942Y-103209577D01*
X159310716Y-103163520D01*
X159422520Y-103051716D01*
X159422520Y-103051714D01*
X159432724Y-103041511D01*
X159432728Y-103041506D01*
X160536964Y-101937269D01*
X160598285Y-101903786D01*
X160666615Y-101908672D01*
X160666628Y-101908636D01*
X160666772Y-101908683D01*
X160667977Y-101908770D01*
X160671553Y-101910267D01*
X160673480Y-101910905D01*
X160673484Y-101910908D01*
X160837247Y-101965174D01*
X160938323Y-101975500D01*
X161511676Y-101975499D01*
X161511684Y-101975498D01*
X161511687Y-101975498D01*
X161567030Y-101969844D01*
X161612753Y-101965174D01*
X161761792Y-101915786D01*
X161831616Y-101913385D01*
X161839797Y-101915787D01*
X161987348Y-101964680D01*
X162088352Y-101974999D01*
X162125000Y-101974999D01*
X162625000Y-101974999D01*
X162661640Y-101974999D01*
X162661654Y-101974998D01*
X162762652Y-101964680D01*
X162926300Y-101910453D01*
X162926311Y-101910448D01*
X163073034Y-101819947D01*
X163073038Y-101819944D01*
X163194944Y-101698038D01*
X163194947Y-101698034D01*
X163285448Y-101551311D01*
X163285453Y-101551300D01*
X163339680Y-101387652D01*
X163349999Y-101286654D01*
X163350000Y-101286641D01*
X163350000Y-100650000D01*
X162625000Y-100650000D01*
X162625000Y-101974999D01*
X162125000Y-101974999D01*
X162125000Y-101602397D01*
X162134685Y-101558719D01*
X162133636Y-101558372D01*
X162135976Y-101551311D01*
X162190174Y-101387753D01*
X162200500Y-101286677D01*
X162200499Y-100150000D01*
X162625000Y-100150000D01*
X163349999Y-100150000D01*
X163349999Y-99513360D01*
X163349998Y-99513345D01*
X163339680Y-99412347D01*
X163285453Y-99248699D01*
X163285448Y-99248688D01*
X163194947Y-99101965D01*
X163194944Y-99101961D01*
X163073038Y-98980055D01*
X163073034Y-98980052D01*
X162926311Y-98889551D01*
X162926300Y-98889546D01*
X162762652Y-98835319D01*
X162661654Y-98825000D01*
X162625000Y-98825000D01*
X162625000Y-100150000D01*
X162200499Y-100150000D01*
X162200499Y-99513324D01*
X162200101Y-99509432D01*
X162190174Y-99412247D01*
X162135908Y-99248484D01*
X162135906Y-99248481D01*
X162133636Y-99241630D01*
X162134683Y-99241282D01*
X162125000Y-99197602D01*
X162125000Y-98825000D01*
X162088361Y-98825000D01*
X162088343Y-98825001D01*
X161987346Y-98835319D01*
X161839795Y-98884212D01*
X161769967Y-98886613D01*
X161761798Y-98884215D01*
X161612753Y-98834826D01*
X161612751Y-98834825D01*
X161511678Y-98824500D01*
X160938330Y-98824500D01*
X160938312Y-98824501D01*
X160837247Y-98834825D01*
X160673484Y-98889092D01*
X160673481Y-98889093D01*
X160526648Y-98979661D01*
X160404661Y-99101648D01*
X160314093Y-99248481D01*
X160314091Y-99248486D01*
X160296665Y-99301076D01*
X160259826Y-99412247D01*
X160259826Y-99412248D01*
X160259825Y-99412248D01*
X160249500Y-99513315D01*
X160249500Y-100474901D01*
X160229815Y-100541940D01*
X160213181Y-100562582D01*
X158759180Y-102016583D01*
X158697857Y-102050068D01*
X158628165Y-102045084D01*
X158583818Y-102016583D01*
X141905590Y-85338355D01*
X141905588Y-85338352D01*
X141786717Y-85219481D01*
X141786716Y-85219480D01*
X141768083Y-85208722D01*
X141700965Y-85169972D01*
X141700943Y-85169960D01*
X141699904Y-85169360D01*
X141649785Y-85140423D01*
X141645106Y-85139169D01*
X141634071Y-85133084D01*
X141614135Y-85112982D01*
X141592092Y-85095217D01*
X141589856Y-85088500D01*
X141584872Y-85083474D01*
X141578969Y-85055786D01*
X141570029Y-85028923D01*
X141571779Y-85022063D01*
X141570304Y-85015140D01*
X141580307Y-84988656D01*
X141587310Y-84961224D01*
X141592491Y-84956399D01*
X141594993Y-84949778D01*
X141617725Y-84932907D01*
X141638448Y-84913615D01*
X141646184Y-84911786D01*
X141651100Y-84908139D01*
X141665816Y-84907147D01*
X141693950Y-84900500D01*
X148924331Y-84900500D01*
X148924347Y-84900501D01*
X148931943Y-84900501D01*
X149090054Y-84900501D01*
X149090057Y-84900501D01*
X149242785Y-84859577D01*
X149292904Y-84830639D01*
X149379716Y-84780520D01*
X149491520Y-84668716D01*
X149491520Y-84668714D01*
X149501728Y-84658507D01*
X149501730Y-84658504D01*
X150488713Y-83671521D01*
X150488716Y-83671520D01*
X150600520Y-83559716D01*
X150618773Y-83528099D01*
X150627883Y-83518134D01*
X150646675Y-83506750D01*
X150662580Y-83491585D01*
X150676073Y-83485616D01*
X150677479Y-83485091D01*
X150677483Y-83485091D01*
X150812331Y-83434796D01*
X150927546Y-83348546D01*
X151013796Y-83233331D01*
X151064091Y-83098483D01*
X151070500Y-83038873D01*
X151070499Y-82538094D01*
X151090183Y-82471057D01*
X151142987Y-82425302D01*
X151212146Y-82415358D01*
X151275702Y-82444383D01*
X151282180Y-82450415D01*
X163863181Y-95031416D01*
X163896666Y-95092739D01*
X163899500Y-95119097D01*
X163899500Y-110525500D01*
X163879815Y-110592539D01*
X163827011Y-110638294D01*
X163775500Y-110649500D01*
X162699998Y-110649500D01*
X162699981Y-110649501D01*
X162597203Y-110660000D01*
X162597200Y-110660001D01*
X162430668Y-110715185D01*
X162430663Y-110715187D01*
X162281342Y-110807289D01*
X162157289Y-110931342D01*
X162065187Y-111080663D01*
X162065185Y-111080668D01*
X162065115Y-111080880D01*
X162010001Y-111247203D01*
X162010001Y-111247204D01*
X162010000Y-111247204D01*
X161999500Y-111349983D01*
X161999500Y-113450001D01*
X161999501Y-113450018D01*
X162010000Y-113552796D01*
X162010001Y-113552799D01*
X162065185Y-113719331D01*
X162065187Y-113719336D01*
X162083025Y-113748256D01*
X162157288Y-113868656D01*
X162281344Y-113992712D01*
X162430666Y-114084814D01*
X162597203Y-114139999D01*
X162699991Y-114150500D01*
X166300008Y-114150499D01*
X166402797Y-114139999D01*
X166569334Y-114084814D01*
X166718656Y-113992712D01*
X166842712Y-113868656D01*
X166934814Y-113719334D01*
X166989999Y-113552797D01*
X167000500Y-113450009D01*
X167000500Y-113449986D01*
X168100001Y-113449986D01*
X168110494Y-113552697D01*
X168165641Y-113719119D01*
X168165643Y-113719124D01*
X168257684Y-113868345D01*
X168381654Y-113992315D01*
X168530875Y-114084356D01*
X168530880Y-114084358D01*
X168697302Y-114139505D01*
X168697309Y-114139506D01*
X168800019Y-114149999D01*
X170349999Y-114149999D01*
X170850000Y-114149999D01*
X172399972Y-114149999D01*
X172399986Y-114149998D01*
X172502697Y-114139505D01*
X172669119Y-114084358D01*
X172669124Y-114084356D01*
X172818345Y-113992315D01*
X172942315Y-113868345D01*
X173034356Y-113719124D01*
X173034358Y-113719119D01*
X173089505Y-113552697D01*
X173089506Y-113552690D01*
X173099999Y-113449986D01*
X173100000Y-113449973D01*
X173100000Y-112650000D01*
X170850000Y-112650000D01*
X170850000Y-114149999D01*
X170349999Y-114149999D01*
X170350000Y-114149998D01*
X170350000Y-112650000D01*
X168100001Y-112650000D01*
X168100001Y-113449986D01*
X167000500Y-113449986D01*
X167000499Y-112367784D01*
X167000499Y-111350013D01*
X168100000Y-111350013D01*
X168100000Y-112150000D01*
X170350000Y-112150000D01*
X170850000Y-112150000D01*
X173099999Y-112150000D01*
X173099999Y-111350028D01*
X173099998Y-111350013D01*
X173089505Y-111247302D01*
X173034358Y-111080880D01*
X173034356Y-111080875D01*
X172942315Y-110931654D01*
X172818345Y-110807684D01*
X172669124Y-110715643D01*
X172669119Y-110715641D01*
X172502697Y-110660494D01*
X172502690Y-110660493D01*
X172399986Y-110650000D01*
X170850000Y-110650000D01*
X170850000Y-112150000D01*
X170350000Y-112150000D01*
X170350000Y-110650000D01*
X168800028Y-110650000D01*
X168800012Y-110650001D01*
X168697302Y-110660494D01*
X168530880Y-110715641D01*
X168530875Y-110715643D01*
X168381654Y-110807684D01*
X168257684Y-110931654D01*
X168165643Y-111080875D01*
X168165641Y-111080880D01*
X168110494Y-111247302D01*
X168110493Y-111247309D01*
X168100000Y-111350013D01*
X167000499Y-111350013D01*
X167000499Y-111349998D01*
X167000498Y-111349981D01*
X166989999Y-111247203D01*
X166989998Y-111247200D01*
X166934814Y-111080666D01*
X166842712Y-110931344D01*
X166718656Y-110807288D01*
X166569334Y-110715186D01*
X166402797Y-110660001D01*
X166402795Y-110660000D01*
X166300016Y-110649500D01*
X166300009Y-110649500D01*
X165224500Y-110649500D01*
X165157461Y-110629815D01*
X165111706Y-110577011D01*
X165100500Y-110525500D01*
X165100500Y-94739944D01*
X165100499Y-94739940D01*
X165093461Y-94713671D01*
X165059577Y-94587215D01*
X165028550Y-94533476D01*
X164980520Y-94450284D01*
X164868716Y-94338480D01*
X164868715Y-94338479D01*
X164864385Y-94334149D01*
X164864374Y-94334139D01*
X163635218Y-93104983D01*
X165849500Y-93104983D01*
X165849500Y-94895001D01*
X165849501Y-94895018D01*
X165860000Y-94997796D01*
X165860001Y-94997799D01*
X165897774Y-95111788D01*
X165915186Y-95164334D01*
X166007288Y-95313656D01*
X166131344Y-95437712D01*
X166280666Y-95529814D01*
X166447203Y-95584999D01*
X166549991Y-95595500D01*
X167890008Y-95595499D01*
X167992797Y-95584999D01*
X168159334Y-95529814D01*
X168308656Y-95437712D01*
X168432712Y-95313656D01*
X168524814Y-95164334D01*
X168524817Y-95164323D01*
X168525353Y-95163177D01*
X168525934Y-95162516D01*
X168528605Y-95158187D01*
X168529344Y-95158643D01*
X168571521Y-95110734D01*
X168638713Y-95091577D01*
X168705596Y-95111788D01*
X168725420Y-95127892D01*
X168867502Y-95269974D01*
X169041963Y-95396728D01*
X169234098Y-95494627D01*
X169439190Y-95561266D01*
X169510000Y-95572481D01*
X169510000Y-94542709D01*
X169530339Y-94554452D01*
X169681667Y-94595000D01*
X169838333Y-94595000D01*
X169989661Y-94554452D01*
X170010000Y-94542709D01*
X170010000Y-95572480D01*
X170080809Y-95561266D01*
X170285901Y-95494627D01*
X170478036Y-95396728D01*
X170652496Y-95269974D01*
X170652497Y-95269974D01*
X170804974Y-95117497D01*
X170804979Y-95117491D01*
X170929372Y-94946280D01*
X170984702Y-94903614D01*
X171054315Y-94897635D01*
X171116110Y-94930241D01*
X171130008Y-94946279D01*
X171254641Y-95117821D01*
X171407179Y-95270359D01*
X171581701Y-95397157D01*
X171773911Y-95495092D01*
X171979074Y-95561754D01*
X172046796Y-95572480D01*
X172192134Y-95595500D01*
X172192139Y-95595500D01*
X172407866Y-95595500D01*
X172526230Y-95576752D01*
X172620926Y-95561754D01*
X172826089Y-95495092D01*
X173018299Y-95397157D01*
X173192821Y-95270359D01*
X173345359Y-95117821D01*
X173472157Y-94943299D01*
X173570092Y-94751089D01*
X173636754Y-94545926D01*
X173651902Y-94450284D01*
X173670500Y-94332866D01*
X173670500Y-93667133D01*
X173647810Y-93523882D01*
X173636754Y-93454074D01*
X173570092Y-93248911D01*
X173472157Y-93056701D01*
X173345359Y-92882179D01*
X173192821Y-92729641D01*
X173018299Y-92602843D01*
X172826089Y-92504908D01*
X172620926Y-92438246D01*
X172620924Y-92438245D01*
X172620922Y-92438245D01*
X172407866Y-92404500D01*
X172407861Y-92404500D01*
X172192139Y-92404500D01*
X172192134Y-92404500D01*
X171979077Y-92438245D01*
X171773908Y-92504909D01*
X171581700Y-92602843D01*
X171482129Y-92675186D01*
X171407179Y-92729641D01*
X171407177Y-92729643D01*
X171407176Y-92729643D01*
X171254642Y-92882177D01*
X171130008Y-93053720D01*
X171074677Y-93096385D01*
X171005064Y-93102364D01*
X170943269Y-93069758D01*
X170929372Y-93053720D01*
X170804974Y-92882503D01*
X170804974Y-92882502D01*
X170652497Y-92730025D01*
X170478036Y-92603271D01*
X170285899Y-92505372D01*
X170080805Y-92438733D01*
X170010000Y-92427518D01*
X170010000Y-93457290D01*
X169989661Y-93445548D01*
X169838333Y-93405000D01*
X169681667Y-93405000D01*
X169530339Y-93445548D01*
X169510000Y-93457290D01*
X169510000Y-92427518D01*
X169509999Y-92427518D01*
X169439194Y-92438733D01*
X169234100Y-92505372D01*
X169041963Y-92603271D01*
X168867506Y-92730022D01*
X168725420Y-92872108D01*
X168664097Y-92905592D01*
X168594405Y-92900608D01*
X168538472Y-92858736D01*
X168525356Y-92836828D01*
X168524816Y-92835670D01*
X168459654Y-92730025D01*
X168432712Y-92686344D01*
X168308656Y-92562288D01*
X168159334Y-92470186D01*
X167992797Y-92415001D01*
X167992795Y-92415000D01*
X167890010Y-92404500D01*
X166549998Y-92404500D01*
X166549981Y-92404501D01*
X166447203Y-92415000D01*
X166447200Y-92415001D01*
X166280668Y-92470185D01*
X166280663Y-92470187D01*
X166131342Y-92562289D01*
X166007289Y-92686342D01*
X165915187Y-92835663D01*
X165915185Y-92835668D01*
X165914801Y-92836828D01*
X165860001Y-93002203D01*
X165860001Y-93002204D01*
X165860000Y-93002204D01*
X165849500Y-93104983D01*
X163635218Y-93104983D01*
X152683415Y-82153180D01*
X152649930Y-82091857D01*
X152654914Y-82022165D01*
X152696786Y-81966232D01*
X152762250Y-81941815D01*
X152771096Y-81941499D01*
X153947871Y-81941499D01*
X153947872Y-81941499D01*
X154007483Y-81935091D01*
X154142331Y-81884796D01*
X154257546Y-81798546D01*
X154343796Y-81683331D01*
X154394091Y-81548483D01*
X154400500Y-81488873D01*
X154400499Y-80604983D01*
X164089500Y-80604983D01*
X164089500Y-82395001D01*
X164089501Y-82395018D01*
X164100000Y-82497796D01*
X164100001Y-82497799D01*
X164137774Y-82611788D01*
X164155186Y-82664334D01*
X164247288Y-82813656D01*
X164371344Y-82937712D01*
X164520666Y-83029814D01*
X164687203Y-83084999D01*
X164789991Y-83095500D01*
X166130008Y-83095499D01*
X166232797Y-83084999D01*
X166399334Y-83029814D01*
X166548656Y-82937712D01*
X166672712Y-82813656D01*
X166764814Y-82664334D01*
X166764817Y-82664323D01*
X166765353Y-82663177D01*
X166765934Y-82662516D01*
X166768605Y-82658187D01*
X166769344Y-82658643D01*
X166811521Y-82610734D01*
X166878713Y-82591577D01*
X166945596Y-82611788D01*
X166965420Y-82627892D01*
X167107502Y-82769974D01*
X167281963Y-82896728D01*
X167474098Y-82994627D01*
X167679190Y-83061266D01*
X167750000Y-83072481D01*
X167750000Y-82042709D01*
X167770339Y-82054452D01*
X167921667Y-82095000D01*
X168078333Y-82095000D01*
X168229661Y-82054452D01*
X168250000Y-82042709D01*
X168250000Y-83072480D01*
X168320809Y-83061266D01*
X168525901Y-82994627D01*
X168718036Y-82896728D01*
X168892496Y-82769974D01*
X168892497Y-82769974D01*
X169044974Y-82617497D01*
X169044979Y-82617491D01*
X169169372Y-82446280D01*
X169224702Y-82403614D01*
X169294315Y-82397635D01*
X169356110Y-82430241D01*
X169370008Y-82446279D01*
X169494641Y-82617821D01*
X169647179Y-82770359D01*
X169821701Y-82897157D01*
X170013911Y-82995092D01*
X170219074Y-83061754D01*
X170286796Y-83072480D01*
X170432134Y-83095500D01*
X170432139Y-83095500D01*
X170647866Y-83095500D01*
X170766230Y-83076752D01*
X170860926Y-83061754D01*
X171066089Y-82995092D01*
X171258299Y-82897157D01*
X171432821Y-82770359D01*
X171585359Y-82617821D01*
X171712157Y-82443299D01*
X171810092Y-82251089D01*
X171876754Y-82045926D01*
X171891752Y-81951230D01*
X171910500Y-81832866D01*
X171910500Y-81167133D01*
X171885558Y-81009659D01*
X171876754Y-80954074D01*
X171810092Y-80748911D01*
X171712157Y-80556701D01*
X171585359Y-80382179D01*
X171432821Y-80229641D01*
X171258299Y-80102843D01*
X171066089Y-80004908D01*
X170860926Y-79938246D01*
X170860924Y-79938245D01*
X170860922Y-79938245D01*
X170647866Y-79904500D01*
X170647861Y-79904500D01*
X170432139Y-79904500D01*
X170432134Y-79904500D01*
X170219077Y-79938245D01*
X170013908Y-80004909D01*
X169821700Y-80102843D01*
X169722129Y-80175186D01*
X169647179Y-80229641D01*
X169647177Y-80229643D01*
X169647176Y-80229643D01*
X169494642Y-80382177D01*
X169370008Y-80553720D01*
X169314677Y-80596385D01*
X169245064Y-80602364D01*
X169183269Y-80569758D01*
X169169372Y-80553720D01*
X169044974Y-80382503D01*
X169044974Y-80382502D01*
X168892497Y-80230025D01*
X168718036Y-80103271D01*
X168525899Y-80005372D01*
X168320805Y-79938733D01*
X168250000Y-79927518D01*
X168250000Y-80957290D01*
X168229661Y-80945548D01*
X168078333Y-80905000D01*
X167921667Y-80905000D01*
X167770339Y-80945548D01*
X167750000Y-80957290D01*
X167750000Y-79927518D01*
X167749999Y-79927518D01*
X167679194Y-79938733D01*
X167474100Y-80005372D01*
X167281963Y-80103271D01*
X167107506Y-80230022D01*
X166965420Y-80372108D01*
X166904097Y-80405592D01*
X166834405Y-80400608D01*
X166778472Y-80358736D01*
X166765356Y-80336828D01*
X166764816Y-80335670D01*
X166750629Y-80312669D01*
X166672712Y-80186344D01*
X166548656Y-80062288D01*
X166399334Y-79970186D01*
X166232797Y-79915001D01*
X166232795Y-79915000D01*
X166130010Y-79904500D01*
X164789998Y-79904500D01*
X164789981Y-79904501D01*
X164687203Y-79915000D01*
X164687200Y-79915001D01*
X164520668Y-79970185D01*
X164520663Y-79970187D01*
X164371342Y-80062289D01*
X164247289Y-80186342D01*
X164155187Y-80335663D01*
X164155185Y-80335668D01*
X164143966Y-80369526D01*
X164100001Y-80502203D01*
X164100001Y-80502204D01*
X164100000Y-80502204D01*
X164089500Y-80604983D01*
X154400499Y-80604983D01*
X154400499Y-80493128D01*
X154394091Y-80433517D01*
X154375946Y-80384869D01*
X154374263Y-80369526D01*
X154377792Y-80349713D01*
X154376357Y-80329642D01*
X154381340Y-80312669D01*
X154394091Y-80278483D01*
X154400500Y-80218873D01*
X154400499Y-79223128D01*
X154394091Y-79163517D01*
X154381340Y-79129332D01*
X154376357Y-79059642D01*
X154381340Y-79042669D01*
X154394091Y-79008483D01*
X154400500Y-78948873D01*
X154400499Y-77953128D01*
X154394091Y-77893517D01*
X154381340Y-77859332D01*
X154376357Y-77789642D01*
X154381340Y-77772669D01*
X154394091Y-77738483D01*
X154400500Y-77678873D01*
X154400499Y-76683128D01*
X154396804Y-76648753D01*
X154409211Y-76579994D01*
X154456822Y-76528857D01*
X154520094Y-76511500D01*
X158336697Y-76511500D01*
X158403736Y-76531185D01*
X158405588Y-76532398D01*
X158520814Y-76609390D01*
X158520827Y-76609397D01*
X158666498Y-76669735D01*
X158666503Y-76669737D01*
X158821153Y-76700499D01*
X158821156Y-76700500D01*
X158821158Y-76700500D01*
X158978844Y-76700500D01*
X158978845Y-76700499D01*
X159133497Y-76669737D01*
X159279179Y-76609394D01*
X159410289Y-76521789D01*
X159521789Y-76410289D01*
X159609394Y-76279179D01*
X159669737Y-76133497D01*
X159700500Y-75978842D01*
X159700500Y-75821158D01*
X159700500Y-75821155D01*
X159700499Y-75821153D01*
X159680275Y-75719480D01*
X159669737Y-75666503D01*
X159669735Y-75666498D01*
X159609397Y-75520827D01*
X159609390Y-75520814D01*
X159521789Y-75389711D01*
X159521786Y-75389707D01*
X159410292Y-75278213D01*
X159410288Y-75278210D01*
X159279185Y-75190609D01*
X159279172Y-75190602D01*
X159133501Y-75130264D01*
X159133489Y-75130261D01*
X158978845Y-75099500D01*
X158978842Y-75099500D01*
X158821158Y-75099500D01*
X158821155Y-75099500D01*
X158666510Y-75130261D01*
X158666498Y-75130264D01*
X158520827Y-75190602D01*
X158520814Y-75190609D01*
X158389711Y-75278210D01*
X158385001Y-75282076D01*
X158383231Y-75279919D01*
X158332417Y-75307666D01*
X158306059Y-75310500D01*
X154520094Y-75310500D01*
X154453055Y-75290815D01*
X154407300Y-75238011D01*
X154396804Y-75173246D01*
X154397077Y-75170706D01*
X154400500Y-75138873D01*
X154400499Y-74143128D01*
X154394091Y-74083517D01*
X154381340Y-74049332D01*
X154376357Y-73979642D01*
X154381340Y-73962669D01*
X154394091Y-73928483D01*
X154400500Y-73868873D01*
X154400499Y-72873128D01*
X154394091Y-72813517D01*
X154381340Y-72779332D01*
X154376357Y-72709642D01*
X154381340Y-72692669D01*
X154394091Y-72658483D01*
X154400500Y-72598873D01*
X154400499Y-71603128D01*
X154394091Y-71543517D01*
X154381340Y-71509332D01*
X154376357Y-71439642D01*
X154381340Y-71422669D01*
X154394091Y-71388483D01*
X154400500Y-71328873D01*
X154400499Y-70333128D01*
X154394091Y-70273517D01*
X154381340Y-70239332D01*
X154376357Y-70169642D01*
X154381340Y-70152669D01*
X154394091Y-70118483D01*
X154400500Y-70058873D01*
X154400499Y-69063128D01*
X154394091Y-69003517D01*
X154381340Y-68969332D01*
X154376357Y-68899642D01*
X154381340Y-68882669D01*
X154394091Y-68848483D01*
X154400500Y-68788873D01*
X154400499Y-67793128D01*
X154394091Y-67733517D01*
X154381340Y-67699332D01*
X154376357Y-67629642D01*
X154381340Y-67612669D01*
X154394091Y-67578483D01*
X154400500Y-67518873D01*
X154400499Y-66523128D01*
X154394091Y-66463517D01*
X154381340Y-66429332D01*
X154376357Y-66359642D01*
X154381340Y-66342669D01*
X154394091Y-66308483D01*
X154400500Y-66248873D01*
X154400499Y-65253128D01*
X154394091Y-65193517D01*
X154381073Y-65158616D01*
X154376090Y-65088926D01*
X154381075Y-65071949D01*
X154393597Y-65038375D01*
X154393598Y-65038372D01*
X154399999Y-64978844D01*
X154400000Y-64978827D01*
X154400000Y-64731000D01*
X151900000Y-64731000D01*
X151900000Y-64978844D01*
X151906401Y-65038372D01*
X151906403Y-65038379D01*
X151918925Y-65071952D01*
X151923909Y-65141643D01*
X151918925Y-65158617D01*
X151905909Y-65193514D01*
X151905908Y-65193516D01*
X151899501Y-65253116D01*
X151899501Y-65253123D01*
X151899500Y-65253135D01*
X151899500Y-66248870D01*
X151899501Y-66248876D01*
X151905908Y-66308481D01*
X151918659Y-66342669D01*
X151923642Y-66412361D01*
X151918659Y-66429331D01*
X151905908Y-66463518D01*
X151899501Y-66523116D01*
X151899501Y-66523123D01*
X151899500Y-66523135D01*
X151899500Y-67518870D01*
X151899501Y-67518876D01*
X151905908Y-67578481D01*
X151918659Y-67612669D01*
X151923642Y-67682361D01*
X151918659Y-67699331D01*
X151905908Y-67733518D01*
X151903906Y-67752143D01*
X151899501Y-67793123D01*
X151899500Y-67793135D01*
X151899500Y-68788870D01*
X151899501Y-68788876D01*
X151905908Y-68848481D01*
X151918659Y-68882669D01*
X151923642Y-68952361D01*
X151918659Y-68969331D01*
X151905908Y-69003518D01*
X151899501Y-69063116D01*
X151899501Y-69063123D01*
X151899500Y-69063135D01*
X151899500Y-70058870D01*
X151899501Y-70058876D01*
X151905908Y-70118481D01*
X151918659Y-70152669D01*
X151923642Y-70222361D01*
X151918659Y-70239331D01*
X151905908Y-70273518D01*
X151900849Y-70320577D01*
X151899501Y-70333123D01*
X151899500Y-70333135D01*
X151899500Y-71328870D01*
X151899501Y-71328876D01*
X151905908Y-71388481D01*
X151918659Y-71422669D01*
X151923642Y-71492361D01*
X151918659Y-71509331D01*
X151905908Y-71543518D01*
X151901963Y-71580217D01*
X151899501Y-71603123D01*
X151899500Y-71603135D01*
X151899500Y-72598870D01*
X151899501Y-72598876D01*
X151905908Y-72658481D01*
X151918659Y-72692669D01*
X151923642Y-72762361D01*
X151918659Y-72779331D01*
X151905908Y-72813518D01*
X151901162Y-72857666D01*
X151899501Y-72873123D01*
X151899500Y-72873135D01*
X151899500Y-73868870D01*
X151899501Y-73868876D01*
X151905908Y-73928481D01*
X151918659Y-73962669D01*
X151923642Y-74032361D01*
X151918659Y-74049331D01*
X151905908Y-74083518D01*
X151901862Y-74121155D01*
X151899501Y-74143123D01*
X151899500Y-74143135D01*
X151899500Y-75138870D01*
X151899501Y-75138876D01*
X151905908Y-75198481D01*
X151918659Y-75232669D01*
X151923642Y-75302361D01*
X151918659Y-75319331D01*
X151905908Y-75353518D01*
X151901612Y-75393479D01*
X151899501Y-75413123D01*
X151899500Y-75413135D01*
X151899500Y-76408870D01*
X151899501Y-76408876D01*
X151905908Y-76468481D01*
X151918659Y-76502669D01*
X151923642Y-76572361D01*
X151918659Y-76589331D01*
X151905908Y-76623518D01*
X151899780Y-76680520D01*
X151899501Y-76683123D01*
X151899500Y-76683135D01*
X151899500Y-77678870D01*
X151899501Y-77678876D01*
X151905908Y-77738481D01*
X151918659Y-77772669D01*
X151923642Y-77842361D01*
X151918659Y-77859331D01*
X151905908Y-77893518D01*
X151899501Y-77953116D01*
X151899501Y-77953123D01*
X151899500Y-77953135D01*
X151899500Y-78948870D01*
X151899501Y-78948876D01*
X151905908Y-79008481D01*
X151918659Y-79042669D01*
X151923642Y-79112361D01*
X151918659Y-79129331D01*
X151905908Y-79163518D01*
X151902996Y-79190609D01*
X151899501Y-79223123D01*
X151899500Y-79223135D01*
X151899500Y-80218870D01*
X151899501Y-80218876D01*
X151905908Y-80278481D01*
X151918659Y-80312669D01*
X151923642Y-80382361D01*
X151918659Y-80399331D01*
X151905908Y-80433518D01*
X151899501Y-80493116D01*
X151899500Y-80493135D01*
X151899500Y-81069903D01*
X151879815Y-81136942D01*
X151827011Y-81182697D01*
X151757853Y-81192641D01*
X151694297Y-81163616D01*
X151687819Y-81157584D01*
X146368590Y-75838355D01*
X146368588Y-75838352D01*
X146249717Y-75719481D01*
X146249716Y-75719480D01*
X146157956Y-75666503D01*
X146157955Y-75666502D01*
X146112783Y-75640422D01*
X146056881Y-75625443D01*
X145960057Y-75599499D01*
X145801943Y-75599499D01*
X145794347Y-75599499D01*
X145794331Y-75599500D01*
X140999097Y-75599500D01*
X140932058Y-75579815D01*
X140911416Y-75563181D01*
X139447079Y-74098844D01*
X140550000Y-74098844D01*
X140556401Y-74158372D01*
X140556403Y-74158379D01*
X140606645Y-74293086D01*
X140606649Y-74293093D01*
X140692809Y-74408187D01*
X140692812Y-74408190D01*
X140807906Y-74494350D01*
X140807913Y-74494354D01*
X140942620Y-74544596D01*
X140942627Y-74544598D01*
X141002155Y-74550999D01*
X141002172Y-74551000D01*
X141250000Y-74551000D01*
X141750000Y-74551000D01*
X141997828Y-74551000D01*
X141997844Y-74550999D01*
X142057372Y-74544598D01*
X142057376Y-74544597D01*
X142156666Y-74507564D01*
X142226358Y-74502580D01*
X142243334Y-74507564D01*
X142342623Y-74544597D01*
X142342627Y-74544598D01*
X142402155Y-74550999D01*
X142402172Y-74551000D01*
X142650000Y-74551000D01*
X143150000Y-74551000D01*
X143397828Y-74551000D01*
X143397844Y-74550999D01*
X143457372Y-74544598D01*
X143457376Y-74544597D01*
X143556666Y-74507564D01*
X143626358Y-74502580D01*
X143643334Y-74507564D01*
X143742623Y-74544597D01*
X143742627Y-74544598D01*
X143802155Y-74550999D01*
X143802172Y-74551000D01*
X144050000Y-74551000D01*
X144550000Y-74551000D01*
X144797828Y-74551000D01*
X144797844Y-74550999D01*
X144857372Y-74544598D01*
X144857379Y-74544596D01*
X144992086Y-74494354D01*
X144992093Y-74494350D01*
X145107187Y-74408190D01*
X145107190Y-74408187D01*
X145193350Y-74293093D01*
X145193354Y-74293086D01*
X145243596Y-74158379D01*
X145243598Y-74158372D01*
X145249999Y-74098844D01*
X145250000Y-74098827D01*
X145250000Y-73851000D01*
X144550000Y-73851000D01*
X144550000Y-74551000D01*
X144050000Y-74551000D01*
X144050000Y-73851000D01*
X143150000Y-73851000D01*
X143150000Y-74551000D01*
X142650000Y-74551000D01*
X142650000Y-73851000D01*
X141750000Y-73851000D01*
X141750000Y-74551000D01*
X141250000Y-74551000D01*
X141250000Y-73851000D01*
X140550000Y-73851000D01*
X140550000Y-74098844D01*
X139447079Y-74098844D01*
X138047079Y-72698844D01*
X140550000Y-72698844D01*
X140556401Y-72758372D01*
X140556403Y-72758383D01*
X140593434Y-72857668D01*
X140598418Y-72927360D01*
X140593434Y-72944332D01*
X140556403Y-73043616D01*
X140556401Y-73043627D01*
X140550000Y-73103155D01*
X140550000Y-73351000D01*
X141250000Y-73351000D01*
X141750000Y-73351000D01*
X142650000Y-73351000D01*
X143150000Y-73351000D01*
X144050000Y-73351000D01*
X144550000Y-73351000D01*
X145250000Y-73351000D01*
X145250000Y-73103172D01*
X145249999Y-73103155D01*
X145243598Y-73043627D01*
X145243597Y-73043623D01*
X145206564Y-72944334D01*
X145201580Y-72874642D01*
X145206564Y-72857666D01*
X145243597Y-72758376D01*
X145243598Y-72758372D01*
X145249999Y-72698844D01*
X145250000Y-72698827D01*
X145250000Y-72451000D01*
X144550000Y-72451000D01*
X144550000Y-73351000D01*
X144050000Y-73351000D01*
X144050000Y-72451000D01*
X143150000Y-72451000D01*
X143150000Y-73351000D01*
X142650000Y-73351000D01*
X142650000Y-72451000D01*
X141750000Y-72451000D01*
X141750000Y-73351000D01*
X141250000Y-73351000D01*
X141250000Y-72451000D01*
X140550000Y-72451000D01*
X140550000Y-72698844D01*
X138047079Y-72698844D01*
X137089597Y-71741362D01*
X137080521Y-71732286D01*
X137080520Y-71732284D01*
X136968716Y-71620480D01*
X136937152Y-71602257D01*
X136927216Y-71593190D01*
X136915785Y-71574357D01*
X136900582Y-71558413D01*
X136894616Y-71544925D01*
X136881341Y-71509332D01*
X136876357Y-71439640D01*
X136881340Y-71422669D01*
X136894091Y-71388483D01*
X136900500Y-71328873D01*
X136900500Y-71298844D01*
X140550000Y-71298844D01*
X140556401Y-71358372D01*
X140556403Y-71358383D01*
X140593434Y-71457668D01*
X140598418Y-71527360D01*
X140593434Y-71544332D01*
X140556403Y-71643616D01*
X140556401Y-71643627D01*
X140550000Y-71703155D01*
X140550000Y-71951000D01*
X141250000Y-71951000D01*
X141750000Y-71951000D01*
X142650000Y-71951000D01*
X143150000Y-71951000D01*
X144050000Y-71951000D01*
X144550000Y-71951000D01*
X145250000Y-71951000D01*
X145250000Y-71703172D01*
X145249999Y-71703155D01*
X145243598Y-71643627D01*
X145243597Y-71643623D01*
X145206564Y-71544334D01*
X145201580Y-71474642D01*
X145206564Y-71457666D01*
X145243597Y-71358376D01*
X145243598Y-71358372D01*
X145249999Y-71298844D01*
X145250000Y-71298827D01*
X145250000Y-71051000D01*
X144550000Y-71051000D01*
X144550000Y-71951000D01*
X144050000Y-71951000D01*
X144050000Y-71051000D01*
X143150000Y-71051000D01*
X143150000Y-71951000D01*
X142650000Y-71951000D01*
X142650000Y-71051000D01*
X141750000Y-71051000D01*
X141750000Y-71951000D01*
X141250000Y-71951000D01*
X141250000Y-71051000D01*
X140550000Y-71051000D01*
X140550000Y-71298844D01*
X136900500Y-71298844D01*
X136900499Y-70778680D01*
X136900499Y-70333129D01*
X136900498Y-70333118D01*
X136899150Y-70320577D01*
X136899149Y-70320575D01*
X136897277Y-70303155D01*
X140550000Y-70303155D01*
X140550000Y-70551000D01*
X141250000Y-70551000D01*
X141750000Y-70551000D01*
X142650000Y-70551000D01*
X143150000Y-70551000D01*
X144050000Y-70551000D01*
X144550000Y-70551000D01*
X145250000Y-70551000D01*
X145250000Y-70303172D01*
X145249999Y-70303155D01*
X145243598Y-70243627D01*
X145243596Y-70243620D01*
X145193354Y-70108913D01*
X145193350Y-70108906D01*
X145107190Y-69993812D01*
X145107187Y-69993809D01*
X144992093Y-69907649D01*
X144992086Y-69907645D01*
X144857379Y-69857403D01*
X144857372Y-69857401D01*
X144797844Y-69851000D01*
X144550000Y-69851000D01*
X144550000Y-70551000D01*
X144050000Y-70551000D01*
X144050000Y-69851000D01*
X143802155Y-69851000D01*
X143742627Y-69857401D01*
X143742616Y-69857403D01*
X143643332Y-69894434D01*
X143573640Y-69899418D01*
X143556668Y-69894434D01*
X143457383Y-69857403D01*
X143457372Y-69857401D01*
X143397844Y-69851000D01*
X143150000Y-69851000D01*
X143150000Y-70551000D01*
X142650000Y-70551000D01*
X142650000Y-69851000D01*
X142402155Y-69851000D01*
X142342627Y-69857401D01*
X142342616Y-69857403D01*
X142243332Y-69894434D01*
X142173640Y-69899418D01*
X142156668Y-69894434D01*
X142057383Y-69857403D01*
X142057372Y-69857401D01*
X141997844Y-69851000D01*
X141750000Y-69851000D01*
X141750000Y-70551000D01*
X141250000Y-70551000D01*
X141250000Y-69851000D01*
X141002155Y-69851000D01*
X140942627Y-69857401D01*
X140942620Y-69857403D01*
X140807913Y-69907645D01*
X140807906Y-69907649D01*
X140692812Y-69993809D01*
X140692809Y-69993812D01*
X140606649Y-70108906D01*
X140606645Y-70108913D01*
X140556403Y-70243620D01*
X140556401Y-70243627D01*
X140550000Y-70303155D01*
X136897277Y-70303155D01*
X136894091Y-70273517D01*
X136878544Y-70231834D01*
X136876736Y-70224046D01*
X136878301Y-70196830D01*
X136876357Y-70169642D01*
X136880719Y-70154781D01*
X136880748Y-70154292D01*
X136880941Y-70154025D01*
X136881340Y-70152669D01*
X136894091Y-70118483D01*
X136900500Y-70058873D01*
X136900499Y-69063128D01*
X136894091Y-69003517D01*
X136881340Y-68969332D01*
X136876357Y-68899642D01*
X136881340Y-68882669D01*
X136894091Y-68848483D01*
X136900500Y-68788873D01*
X136900499Y-67793128D01*
X136894091Y-67733517D01*
X136881340Y-67699332D01*
X136876357Y-67629642D01*
X136881340Y-67612669D01*
X136894091Y-67578483D01*
X136900500Y-67518873D01*
X136900499Y-66523128D01*
X136894091Y-66463517D01*
X136881340Y-66429332D01*
X136876357Y-66359642D01*
X136881340Y-66342669D01*
X136894091Y-66308483D01*
X136900500Y-66248873D01*
X136900499Y-65253128D01*
X136894091Y-65193517D01*
X136881073Y-65158616D01*
X136876090Y-65088926D01*
X136881075Y-65071949D01*
X136893597Y-65038375D01*
X136893598Y-65038372D01*
X136899999Y-64978844D01*
X136900000Y-64978827D01*
X136900000Y-64731000D01*
X134400000Y-64731000D01*
X134400000Y-64978839D01*
X134403700Y-65013242D01*
X134391296Y-65082002D01*
X134343687Y-65133140D01*
X134280411Y-65150500D01*
X133869940Y-65150500D01*
X133829019Y-65161464D01*
X133829019Y-65161465D01*
X133791751Y-65171451D01*
X133717214Y-65191423D01*
X133717209Y-65191426D01*
X133580290Y-65270475D01*
X133580282Y-65270481D01*
X129985339Y-68865425D01*
X129924016Y-68898910D01*
X129921850Y-68899361D01*
X129766508Y-68930261D01*
X129766498Y-68930264D01*
X129620827Y-68990602D01*
X129620814Y-68990609D01*
X129489711Y-69078210D01*
X129489707Y-69078213D01*
X129378213Y-69189707D01*
X129356304Y-69222497D01*
X129302691Y-69267301D01*
X129233366Y-69276008D01*
X129170339Y-69245853D01*
X129165521Y-69241286D01*
X125686818Y-65762583D01*
X125653333Y-65701260D01*
X125650499Y-65674902D01*
X125650499Y-64713330D01*
X125650498Y-64713313D01*
X125640174Y-64612247D01*
X125629933Y-64581342D01*
X125585908Y-64448484D01*
X125495340Y-64301650D01*
X125373350Y-64179660D01*
X125226516Y-64089092D01*
X125062753Y-64034826D01*
X125062751Y-64034825D01*
X124961678Y-64024500D01*
X124388330Y-64024500D01*
X124388312Y-64024501D01*
X124287247Y-64034825D01*
X124287244Y-64034826D01*
X124139003Y-64083949D01*
X124069175Y-64086351D01*
X124060999Y-64083950D01*
X123912753Y-64034826D01*
X123912751Y-64034825D01*
X123811678Y-64024500D01*
X123238330Y-64024500D01*
X123238312Y-64024501D01*
X123137247Y-64034825D01*
X122973484Y-64089092D01*
X122973481Y-64089093D01*
X122826648Y-64179661D01*
X122704661Y-64301648D01*
X122614093Y-64448481D01*
X122614091Y-64448486D01*
X122611174Y-64457289D01*
X122559826Y-64612247D01*
X122559826Y-64612248D01*
X122559825Y-64612248D01*
X122549500Y-64713315D01*
X122549500Y-64775500D01*
X122529815Y-64842539D01*
X122477011Y-64888294D01*
X122425500Y-64899500D01*
X118554068Y-64899500D01*
X118487029Y-64879815D01*
X118443583Y-64831795D01*
X118383343Y-64713567D01*
X118248436Y-64527884D01*
X118224957Y-64462079D01*
X118240782Y-64394025D01*
X118290888Y-64345330D01*
X118348755Y-64331000D01*
X120959834Y-64331000D01*
X121026873Y-64350685D01*
X121028725Y-64351898D01*
X121160414Y-64439890D01*
X121160427Y-64439897D01*
X121239494Y-64472647D01*
X121306103Y-64500237D01*
X121417976Y-64522490D01*
X121460753Y-64530999D01*
X121460756Y-64531000D01*
X121460758Y-64531000D01*
X121618444Y-64531000D01*
X121618445Y-64530999D01*
X121773097Y-64500237D01*
X121918779Y-64439894D01*
X122049889Y-64352289D01*
X122161389Y-64240789D01*
X122248994Y-64109679D01*
X122301402Y-63983155D01*
X134400000Y-63983155D01*
X134400000Y-64231000D01*
X135400000Y-64231000D01*
X135900000Y-64231000D01*
X136900000Y-64231000D01*
X136900000Y-63983172D01*
X136899999Y-63983155D01*
X151900000Y-63983155D01*
X151900000Y-64231000D01*
X152900000Y-64231000D01*
X153400000Y-64231000D01*
X154400000Y-64231000D01*
X154400000Y-63983172D01*
X154399999Y-63983155D01*
X154393598Y-63923627D01*
X154393596Y-63923620D01*
X154343354Y-63788913D01*
X154343350Y-63788906D01*
X154257190Y-63673812D01*
X154257187Y-63673809D01*
X154142093Y-63587649D01*
X154142086Y-63587645D01*
X154007379Y-63537403D01*
X154007372Y-63537401D01*
X153947844Y-63531000D01*
X153400000Y-63531000D01*
X153400000Y-64231000D01*
X152900000Y-64231000D01*
X152900000Y-63531000D01*
X152352155Y-63531000D01*
X152292627Y-63537401D01*
X152292620Y-63537403D01*
X152157913Y-63587645D01*
X152157906Y-63587649D01*
X152042812Y-63673809D01*
X152042809Y-63673812D01*
X151956649Y-63788906D01*
X151956645Y-63788913D01*
X151906403Y-63923620D01*
X151906401Y-63923627D01*
X151900000Y-63983155D01*
X136899999Y-63983155D01*
X136893598Y-63923627D01*
X136893596Y-63923620D01*
X136843354Y-63788913D01*
X136843350Y-63788906D01*
X136757190Y-63673812D01*
X136757187Y-63673809D01*
X136642093Y-63587649D01*
X136642086Y-63587645D01*
X136507379Y-63537403D01*
X136507372Y-63537401D01*
X136447844Y-63531000D01*
X135900000Y-63531000D01*
X135900000Y-64231000D01*
X135400000Y-64231000D01*
X135400000Y-63531000D01*
X134852155Y-63531000D01*
X134792627Y-63537401D01*
X134792620Y-63537403D01*
X134657913Y-63587645D01*
X134657906Y-63587649D01*
X134542812Y-63673809D01*
X134542809Y-63673812D01*
X134456649Y-63788906D01*
X134456645Y-63788913D01*
X134406403Y-63923620D01*
X134406401Y-63923627D01*
X134400000Y-63983155D01*
X122301402Y-63983155D01*
X122309337Y-63963997D01*
X122340100Y-63809342D01*
X122340100Y-63651658D01*
X122340100Y-63651655D01*
X122340099Y-63651653D01*
X122317373Y-63537403D01*
X122309337Y-63497003D01*
X122309335Y-63496998D01*
X122249463Y-63352452D01*
X122241994Y-63282983D01*
X122273269Y-63220504D01*
X122333359Y-63184852D01*
X122364024Y-63181000D01*
X168400000Y-63181000D01*
X168400000Y-53464000D01*
X168419685Y-53396961D01*
X168472489Y-53351206D01*
X168524000Y-53340000D01*
X177195841Y-53340000D01*
X177262880Y-53359685D01*
X177308635Y-53412489D01*
X177318293Y-53450798D01*
X177318970Y-53450709D01*
X177319500Y-53454734D01*
X177349452Y-53682238D01*
X177349453Y-53682240D01*
X177408842Y-53903887D01*
X177496650Y-54115876D01*
X177496657Y-54115890D01*
X177611392Y-54314617D01*
X177751081Y-54496661D01*
X177751089Y-54496670D01*
X177913330Y-54658911D01*
X177913338Y-54658918D01*
X178095382Y-54798607D01*
X178095385Y-54798608D01*
X178095388Y-54798611D01*
X178294112Y-54913344D01*
X178294117Y-54913346D01*
X178294123Y-54913349D01*
X178385480Y-54951190D01*
X178506113Y-55001158D01*
X178727762Y-55060548D01*
X178941192Y-55088647D01*
X178959291Y-55091030D01*
X178959127Y-55092268D01*
X179019693Y-55114432D01*
X179061911Y-55170104D01*
X179070000Y-55214158D01*
X179070000Y-131475841D01*
X179050315Y-131542880D01*
X178997511Y-131588635D01*
X178959201Y-131598293D01*
X178959291Y-131598970D01*
X178814233Y-131618067D01*
X178727762Y-131629452D01*
X178634076Y-131654554D01*
X178506112Y-131688842D01*
X178294123Y-131776650D01*
X178294109Y-131776657D01*
X178095382Y-131891392D01*
X177913338Y-132031081D01*
X177751081Y-132193338D01*
X177611392Y-132375382D01*
X177496657Y-132574109D01*
X177496650Y-132574123D01*
X177408842Y-132786112D01*
X177349453Y-133007759D01*
X177349451Y-133007770D01*
X177318970Y-133239291D01*
X177317740Y-133239129D01*
X177295542Y-133299727D01*
X177239855Y-133341926D01*
X177195841Y-133350000D01*
X95854159Y-133350000D01*
X95787120Y-133330315D01*
X95741365Y-133277511D01*
X95731706Y-133239201D01*
X95731030Y-133239291D01*
X95728647Y-133221192D01*
X95700548Y-133007762D01*
X95641158Y-132786113D01*
X95553344Y-132574112D01*
X95438611Y-132375388D01*
X95438608Y-132375385D01*
X95438607Y-132375382D01*
X95298918Y-132193338D01*
X95298911Y-132193330D01*
X95136670Y-132031089D01*
X95136661Y-132031081D01*
X94954617Y-131891392D01*
X94755890Y-131776657D01*
X94755876Y-131776650D01*
X94543887Y-131688842D01*
X94322238Y-131629452D01*
X94166120Y-131608898D01*
X94090709Y-131598970D01*
X94090870Y-131597740D01*
X94030273Y-131575542D01*
X93988074Y-131519855D01*
X93980000Y-131475841D01*
X93980000Y-115109448D01*
X98149500Y-115109448D01*
X98149500Y-115290551D01*
X98177829Y-115469410D01*
X98233787Y-115641636D01*
X98233788Y-115641639D01*
X98273809Y-115720182D01*
X98310882Y-115792942D01*
X98316006Y-115802997D01*
X98422441Y-115949494D01*
X98422445Y-115949499D01*
X98550500Y-116077554D01*
X98550505Y-116077558D01*
X98678287Y-116170396D01*
X98697006Y-116183996D01*
X98795032Y-116233943D01*
X98858360Y-116266211D01*
X98858363Y-116266212D01*
X98944476Y-116294191D01*
X99030591Y-116322171D01*
X99113429Y-116335291D01*
X99209449Y-116350500D01*
X99209454Y-116350500D01*
X99390551Y-116350500D01*
X99477259Y-116336765D01*
X99569409Y-116322171D01*
X99741639Y-116266211D01*
X99902994Y-116183996D01*
X100049501Y-116077553D01*
X100177553Y-115949501D01*
X100283996Y-115802994D01*
X100366211Y-115641639D01*
X100422171Y-115469409D01*
X100439128Y-115362349D01*
X100450500Y-115290551D01*
X100450500Y-115109448D01*
X100433166Y-115000009D01*
X100422171Y-114930591D01*
X100366211Y-114758361D01*
X100366211Y-114758360D01*
X100337740Y-114702484D01*
X100283996Y-114597006D01*
X100270396Y-114578287D01*
X100177558Y-114450505D01*
X100177554Y-114450500D01*
X100049499Y-114322445D01*
X100049494Y-114322441D01*
X99902997Y-114216006D01*
X99902996Y-114216005D01*
X99902994Y-114216004D01*
X99851300Y-114189664D01*
X99741639Y-114133788D01*
X99741636Y-114133787D01*
X99569410Y-114077829D01*
X99390551Y-114049500D01*
X99390546Y-114049500D01*
X99209454Y-114049500D01*
X99209449Y-114049500D01*
X99030589Y-114077829D01*
X98858363Y-114133787D01*
X98858360Y-114133788D01*
X98697002Y-114216006D01*
X98550505Y-114322441D01*
X98550500Y-114322445D01*
X98422445Y-114450500D01*
X98422441Y-114450505D01*
X98316006Y-114597002D01*
X98233788Y-114758360D01*
X98233787Y-114758363D01*
X98177829Y-114930589D01*
X98149500Y-115109448D01*
X93980000Y-115109448D01*
X93980000Y-74121153D01*
X97199500Y-74121153D01*
X97199500Y-74278846D01*
X97230261Y-74433489D01*
X97230264Y-74433501D01*
X97290602Y-74579172D01*
X97290609Y-74579185D01*
X97378210Y-74710288D01*
X97378213Y-74710292D01*
X97489707Y-74821786D01*
X97489711Y-74821789D01*
X97620814Y-74909390D01*
X97620827Y-74909397D01*
X97754381Y-74964716D01*
X97766503Y-74969737D01*
X97921153Y-75000499D01*
X97921156Y-75000500D01*
X97921158Y-75000500D01*
X98078844Y-75000500D01*
X98078845Y-75000499D01*
X98233497Y-74969737D01*
X98379179Y-74909394D01*
X98510289Y-74821789D01*
X98621789Y-74710289D01*
X98709394Y-74579179D01*
X98769737Y-74433497D01*
X98800500Y-74278842D01*
X98800500Y-74121158D01*
X98800500Y-74121155D01*
X98800499Y-74121153D01*
X98786213Y-74049334D01*
X98769737Y-73966503D01*
X98768064Y-73962464D01*
X98709397Y-73820827D01*
X98709390Y-73820814D01*
X98621789Y-73689711D01*
X98621786Y-73689707D01*
X98510292Y-73578213D01*
X98510288Y-73578210D01*
X98379185Y-73490609D01*
X98379172Y-73490602D01*
X98233501Y-73430264D01*
X98233489Y-73430261D01*
X98078845Y-73399500D01*
X98078842Y-73399500D01*
X97921158Y-73399500D01*
X97921155Y-73399500D01*
X97766510Y-73430261D01*
X97766498Y-73430264D01*
X97620827Y-73490602D01*
X97620814Y-73490609D01*
X97489711Y-73578210D01*
X97489707Y-73578213D01*
X97378213Y-73689707D01*
X97378210Y-73689711D01*
X97290609Y-73820814D01*
X97290602Y-73820827D01*
X97230264Y-73966498D01*
X97230261Y-73966510D01*
X97199500Y-74121153D01*
X93980000Y-74121153D01*
X93980000Y-55214158D01*
X93999685Y-55147119D01*
X94052489Y-55101364D01*
X94090798Y-55091711D01*
X94090709Y-55091030D01*
X94106937Y-55088893D01*
X94322238Y-55060548D01*
X94543887Y-55001158D01*
X94755888Y-54913344D01*
X94954612Y-54798611D01*
X95136661Y-54658919D01*
X95136665Y-54658914D01*
X95136670Y-54658911D01*
X95298911Y-54496670D01*
X95298914Y-54496665D01*
X95298919Y-54496661D01*
X95438611Y-54314612D01*
X95553344Y-54115888D01*
X95641158Y-53903887D01*
X95700548Y-53682238D01*
X95730500Y-53454734D01*
X95731030Y-53450709D01*
X95732259Y-53450870D01*
X95754458Y-53390273D01*
X95810145Y-53348074D01*
X95854159Y-53340000D01*
X120276000Y-53340000D01*
X120343039Y-53359685D01*
G37*
%TD.AperFunction*%
%TA.AperFunction,Conductor*%
G36*
X116518834Y-67032914D02*
G01*
X116574767Y-67074786D01*
X116599184Y-67140250D01*
X116599500Y-67149096D01*
X116599500Y-68605500D01*
X116579815Y-68672539D01*
X116527011Y-68718294D01*
X116475500Y-68729500D01*
X115340004Y-68729500D01*
X115285971Y-68732395D01*
X115146563Y-68767978D01*
X115146559Y-68767979D01*
X115100599Y-68787017D01*
X115005745Y-68838810D01*
X114900440Y-68936854D01*
X114827028Y-69060586D01*
X114827025Y-69060592D01*
X114807989Y-69106549D01*
X114807979Y-69106575D01*
X114789984Y-69157582D01*
X114785365Y-69189707D01*
X114772958Y-69276008D01*
X114769508Y-69300001D01*
X114769508Y-71125500D01*
X114749823Y-71192539D01*
X114697019Y-71238294D01*
X114645508Y-71249500D01*
X113770731Y-71249500D01*
X113770723Y-71249501D01*
X113753068Y-71249501D01*
X113632140Y-71277102D01*
X113632132Y-71277105D01*
X113520367Y-71330928D01*
X113423375Y-71408275D01*
X113346029Y-71505262D01*
X113292207Y-71617026D01*
X113264601Y-71737972D01*
X113264601Y-71781505D01*
X113264501Y-73844227D01*
X113264093Y-73854273D01*
X113240521Y-74144110D01*
X113237272Y-74163949D01*
X113169873Y-74435302D01*
X113163462Y-74454356D01*
X113053099Y-74711255D01*
X113043692Y-74729022D01*
X112893261Y-74964718D01*
X112881107Y-74980732D01*
X112694580Y-75189007D01*
X112679999Y-75202846D01*
X112462256Y-75378253D01*
X112445629Y-75389554D01*
X112179903Y-75540228D01*
X112179902Y-75540229D01*
X110588758Y-76442449D01*
X110588757Y-76442448D01*
X110576271Y-76449528D01*
X110564264Y-76453052D01*
X110550484Y-76464150D01*
X110541708Y-76469128D01*
X110535094Y-76472878D01*
X110533123Y-76474580D01*
X110516216Y-76491756D01*
X109113744Y-77621540D01*
X109102569Y-77630541D01*
X109091289Y-77635960D01*
X109079489Y-77649133D01*
X109071644Y-77655454D01*
X109071638Y-77655460D01*
X109068482Y-77658002D01*
X109065700Y-77660244D01*
X109064042Y-77662227D01*
X109050125Y-77681922D01*
X107848650Y-79023481D01*
X107848651Y-79023482D01*
X107839076Y-79034172D01*
X107828819Y-79041343D01*
X107819305Y-79056248D01*
X107812579Y-79063759D01*
X107812577Y-79063763D01*
X107807493Y-79069439D01*
X107806178Y-79071664D01*
X107795625Y-79093348D01*
X106826724Y-80611433D01*
X106819004Y-80623527D01*
X106810042Y-80632260D01*
X106803062Y-80648505D01*
X106797640Y-80657001D01*
X106797639Y-80657004D01*
X106793537Y-80663432D01*
X106792598Y-80665839D01*
X106785688Y-80688945D01*
X106074831Y-82343643D01*
X106069168Y-82356824D01*
X106061731Y-82366895D01*
X106057466Y-82384062D01*
X106053487Y-82393326D01*
X106050482Y-82400321D01*
X106049943Y-82402859D01*
X106046858Y-82426767D01*
X105612733Y-84174583D01*
X105612733Y-84174584D01*
X105609273Y-84188513D01*
X105603560Y-84199654D01*
X105602125Y-84217290D01*
X105599695Y-84227074D01*
X105597859Y-84234465D01*
X105597737Y-84237049D01*
X105598557Y-84261146D01*
X105452570Y-86056145D01*
X105451406Y-86070446D01*
X105447570Y-86082362D01*
X105449003Y-86099996D01*
X105448187Y-86110038D01*
X105448187Y-86110044D01*
X105447569Y-86117636D01*
X105447867Y-86120211D01*
X105452571Y-86143856D01*
X105461982Y-86259576D01*
X105599721Y-87953153D01*
X105597860Y-87965535D01*
X105602123Y-87982702D01*
X105602941Y-87992750D01*
X105603559Y-88000345D01*
X105604272Y-88002847D01*
X105612734Y-88025418D01*
X106046857Y-89773229D01*
X106046858Y-89773229D01*
X106050317Y-89787155D01*
X106050481Y-89799674D01*
X106057465Y-89815931D01*
X106059896Y-89825720D01*
X106059896Y-89825721D01*
X106059897Y-89825722D01*
X106061731Y-89833107D01*
X106062834Y-89835451D01*
X106074832Y-89856359D01*
X106785688Y-91511054D01*
X106785687Y-91511054D01*
X106791350Y-91524237D01*
X106793536Y-91536566D01*
X106803056Y-91551482D01*
X106807037Y-91560748D01*
X106810040Y-91567737D01*
X106810042Y-91567741D01*
X106810044Y-91567743D01*
X106811514Y-91569883D01*
X106826725Y-91588569D01*
X107795623Y-93106647D01*
X107803344Y-93118744D01*
X107807493Y-93130560D01*
X107819300Y-93143743D01*
X107825080Y-93152799D01*
X107828819Y-93158658D01*
X107830610Y-93160525D01*
X107848652Y-93176518D01*
X109050120Y-94518072D01*
X109059698Y-94528766D01*
X109065702Y-94539758D01*
X109079486Y-94550862D01*
X109086214Y-94558374D01*
X109086215Y-94558375D01*
X109091289Y-94564041D01*
X109093361Y-94565597D01*
X109113746Y-94578461D01*
X110527391Y-95717245D01*
X110535090Y-95727119D01*
X110550480Y-95735845D01*
X110558332Y-95742171D01*
X110564262Y-95746948D01*
X110566562Y-95748150D01*
X110588760Y-95757551D01*
X112156948Y-96646756D01*
X112445630Y-96810446D01*
X112462253Y-96821744D01*
X112680003Y-96997157D01*
X112694576Y-97010988D01*
X112881108Y-97219269D01*
X112893261Y-97235281D01*
X113043692Y-97470977D01*
X113053099Y-97488744D01*
X113163462Y-97745643D01*
X113169873Y-97764697D01*
X113237272Y-98036050D01*
X113240521Y-98055889D01*
X113264104Y-98345860D01*
X113264512Y-98355779D01*
X113266700Y-100393479D01*
X113266700Y-100462028D01*
X113270142Y-100477106D01*
X113294305Y-100582971D01*
X113348131Y-100694740D01*
X113425478Y-100791729D01*
X113522469Y-100869074D01*
X113634238Y-100922898D01*
X113634241Y-100922898D01*
X113634242Y-100922899D01*
X113674553Y-100932099D01*
X113755183Y-100950501D01*
X113817210Y-100950500D01*
X114656000Y-100950500D01*
X114723039Y-100970185D01*
X114768794Y-101022989D01*
X114780000Y-101074500D01*
X114780000Y-101102983D01*
X119429992Y-101102983D01*
X119429992Y-101074500D01*
X119449677Y-101007461D01*
X119502481Y-100961706D01*
X119553992Y-100950500D01*
X120447026Y-100950500D01*
X120567969Y-100922895D01*
X120679737Y-100869071D01*
X120776725Y-100791725D01*
X120854071Y-100694737D01*
X120907895Y-100582969D01*
X120935500Y-100462026D01*
X120935500Y-100400000D01*
X120935500Y-100365649D01*
X120935500Y-98355766D01*
X120935908Y-98345715D01*
X120936500Y-98338438D01*
X120959479Y-98055881D01*
X120962725Y-98036060D01*
X121030128Y-97764690D01*
X121036532Y-97745656D01*
X121146909Y-97488725D01*
X121156307Y-97470977D01*
X121306744Y-97235272D01*
X121318881Y-97219279D01*
X121505423Y-97010987D01*
X121520003Y-96997151D01*
X121737749Y-96821743D01*
X121754364Y-96810449D01*
X122043053Y-96646756D01*
X122043052Y-96646756D01*
X123623721Y-95750474D01*
X123635737Y-95746949D01*
X123649519Y-95735846D01*
X123664911Y-95727119D01*
X123664913Y-95727115D01*
X123666882Y-95725417D01*
X123683785Y-95708241D01*
X125097427Y-94569460D01*
X125108712Y-94564041D01*
X125120514Y-94550862D01*
X125134299Y-94539758D01*
X125134301Y-94539752D01*
X125135964Y-94537765D01*
X125149879Y-94518072D01*
X125210589Y-94450284D01*
X126360920Y-93165830D01*
X126371182Y-93158658D01*
X126380697Y-93143746D01*
X126387428Y-93136232D01*
X126387428Y-93136231D01*
X126387432Y-93136227D01*
X126392508Y-93130560D01*
X126392509Y-93130555D01*
X126393827Y-93128328D01*
X126404371Y-93106655D01*
X127380991Y-91576477D01*
X127389960Y-91567741D01*
X127396942Y-91551484D01*
X127402371Y-91542980D01*
X127402371Y-91542979D01*
X127406465Y-91536566D01*
X127406465Y-91536563D01*
X127406467Y-91536561D01*
X127407408Y-91534146D01*
X127414309Y-91511060D01*
X128130829Y-89843179D01*
X128138270Y-89833106D01*
X128142536Y-89815928D01*
X128149520Y-89799673D01*
X128149520Y-89799670D01*
X128150058Y-89797141D01*
X128153142Y-89773228D01*
X128443214Y-88605384D01*
X128555157Y-88154692D01*
X128590421Y-88094375D01*
X128652697Y-88062699D01*
X128722214Y-88069720D01*
X128776898Y-88113209D01*
X128799390Y-88179360D01*
X128799500Y-88184584D01*
X128799500Y-99124902D01*
X128779815Y-99191941D01*
X128763181Y-99212583D01*
X127362582Y-100613181D01*
X127301259Y-100646666D01*
X127274901Y-100649500D01*
X126313330Y-100649500D01*
X126313313Y-100649501D01*
X126212247Y-100659825D01*
X126048484Y-100714092D01*
X126048481Y-100714093D01*
X125901648Y-100804661D01*
X125779661Y-100926648D01*
X125689093Y-101073481D01*
X125689091Y-101073486D01*
X125670192Y-101130520D01*
X125634826Y-101237247D01*
X125634826Y-101237248D01*
X125634825Y-101237248D01*
X125624500Y-101338315D01*
X125624500Y-101911669D01*
X125624501Y-101911687D01*
X125634825Y-102012752D01*
X125634826Y-102012755D01*
X125683949Y-102160996D01*
X125686351Y-102230824D01*
X125683949Y-102239004D01*
X125634826Y-102387247D01*
X125634825Y-102387248D01*
X125624500Y-102488315D01*
X125624500Y-103061669D01*
X125624501Y-103061687D01*
X125634825Y-103162752D01*
X125689092Y-103326515D01*
X125689093Y-103326518D01*
X125696901Y-103339177D01*
X125779660Y-103473350D01*
X125901650Y-103595340D01*
X126048484Y-103685908D01*
X126212247Y-103740174D01*
X126313323Y-103750500D01*
X126475500Y-103750499D01*
X126542539Y-103770183D01*
X126588294Y-103822987D01*
X126599500Y-103874499D01*
X126599500Y-104526618D01*
X126579815Y-104593657D01*
X126527011Y-104639412D01*
X126457853Y-104649356D01*
X126394297Y-104620331D01*
X126387806Y-104614287D01*
X124386805Y-102612721D01*
X124353329Y-102551393D01*
X124350499Y-102525052D01*
X124350499Y-101613330D01*
X124350498Y-101613313D01*
X124340174Y-101512247D01*
X124336281Y-101500500D01*
X124285908Y-101348484D01*
X124195340Y-101201650D01*
X124073350Y-101079660D01*
X123973541Y-101018097D01*
X123926518Y-100989093D01*
X123926513Y-100989091D01*
X123911789Y-100984212D01*
X123762753Y-100934826D01*
X123762751Y-100934825D01*
X123661678Y-100924500D01*
X123088330Y-100924500D01*
X123088312Y-100924501D01*
X122987247Y-100934825D01*
X122987244Y-100934826D01*
X122838210Y-100984212D01*
X122768382Y-100986614D01*
X122760202Y-100984212D01*
X122612652Y-100935319D01*
X122511654Y-100925000D01*
X122475000Y-100925000D01*
X122475000Y-101297602D01*
X122465317Y-101341282D01*
X122466364Y-101341629D01*
X122464092Y-101348482D01*
X122464092Y-101348484D01*
X122409826Y-101512247D01*
X122409826Y-101512248D01*
X122409825Y-101512248D01*
X122399500Y-101613315D01*
X122399500Y-101613323D01*
X122399500Y-102498590D01*
X122399501Y-102500000D01*
X122399501Y-103386686D01*
X122409825Y-103487752D01*
X122409826Y-103487755D01*
X122413796Y-103499735D01*
X122464020Y-103651300D01*
X122466364Y-103658372D01*
X122465314Y-103658719D01*
X122475000Y-103702397D01*
X122475000Y-104074999D01*
X122511640Y-104074999D01*
X122511654Y-104074998D01*
X122612652Y-104064680D01*
X122760202Y-104015787D01*
X122830030Y-104013385D01*
X122838190Y-104015781D01*
X122987247Y-104065174D01*
X123088323Y-104075500D01*
X123661676Y-104075499D01*
X123661684Y-104075498D01*
X123661687Y-104075498D01*
X123717030Y-104069844D01*
X123762753Y-104065174D01*
X123926516Y-104010908D01*
X123941932Y-104001399D01*
X124009321Y-103982958D01*
X124075985Y-104003879D01*
X124094723Y-104019268D01*
X124855055Y-104779815D01*
X126481459Y-106406679D01*
X126481481Y-106406716D01*
X126481541Y-106406776D01*
X126481585Y-106406852D01*
X126537530Y-106462765D01*
X126537531Y-106462767D01*
X126575147Y-106500392D01*
X126592905Y-106518156D01*
X126598894Y-106524146D01*
X126599314Y-106524514D01*
X126949639Y-106874640D01*
X127713156Y-107637724D01*
X127746659Y-107699036D01*
X127749500Y-107725429D01*
X127749500Y-108686669D01*
X127749501Y-108686686D01*
X127759825Y-108787752D01*
X127814092Y-108951515D01*
X127814093Y-108951518D01*
X127815183Y-108953285D01*
X127904660Y-109098350D01*
X128026650Y-109220340D01*
X128173484Y-109310908D01*
X128337247Y-109365174D01*
X128438323Y-109375500D01*
X129011676Y-109375499D01*
X129011684Y-109375498D01*
X129011687Y-109375498D01*
X129067030Y-109369844D01*
X129112753Y-109365174D01*
X129260998Y-109316049D01*
X129330823Y-109313648D01*
X129338981Y-109316043D01*
X129487247Y-109365174D01*
X129588323Y-109375500D01*
X130161676Y-109375499D01*
X130161684Y-109375498D01*
X130161687Y-109375498D01*
X130217030Y-109369844D01*
X130262753Y-109365174D01*
X130426516Y-109310908D01*
X130573350Y-109220340D01*
X130695340Y-109098350D01*
X130785908Y-108951516D01*
X130840174Y-108787753D01*
X130850500Y-108686677D01*
X130850500Y-108424500D01*
X130870185Y-108357461D01*
X130922989Y-108311706D01*
X130974500Y-108300500D01*
X132425501Y-108300500D01*
X132492540Y-108320185D01*
X132538295Y-108372989D01*
X132549501Y-108424500D01*
X132549501Y-108750018D01*
X132560000Y-108852796D01*
X132560001Y-108852799D01*
X132615185Y-109019331D01*
X132615187Y-109019336D01*
X132627991Y-109040095D01*
X132707288Y-109168656D01*
X132831344Y-109292712D01*
X132980666Y-109384814D01*
X133147203Y-109439999D01*
X133249991Y-109450500D01*
X136850008Y-109450499D01*
X136952797Y-109439999D01*
X137119334Y-109384814D01*
X137268656Y-109292712D01*
X137392712Y-109168656D01*
X137484814Y-109019334D01*
X137539999Y-108852797D01*
X137550500Y-108750009D01*
X137550500Y-108749986D01*
X138650001Y-108749986D01*
X138660494Y-108852697D01*
X138715641Y-109019119D01*
X138715643Y-109019124D01*
X138807684Y-109168345D01*
X138931654Y-109292315D01*
X139080875Y-109384356D01*
X139080880Y-109384358D01*
X139247302Y-109439505D01*
X139247309Y-109439506D01*
X139350019Y-109449999D01*
X140899999Y-109449999D01*
X141400000Y-109449999D01*
X142949972Y-109449999D01*
X142949986Y-109449998D01*
X143052697Y-109439505D01*
X143219119Y-109384358D01*
X143219124Y-109384356D01*
X143368345Y-109292315D01*
X143492315Y-109168345D01*
X143584356Y-109019124D01*
X143584358Y-109019119D01*
X143639505Y-108852697D01*
X143639506Y-108852690D01*
X143649999Y-108749986D01*
X143650000Y-108749973D01*
X143650000Y-107950000D01*
X141400000Y-107950000D01*
X141400000Y-109449999D01*
X140899999Y-109449999D01*
X140900000Y-109449998D01*
X140900000Y-107950000D01*
X138650001Y-107950000D01*
X138650001Y-108749986D01*
X137550500Y-108749986D01*
X137550499Y-107699036D01*
X137550499Y-106650013D01*
X138650000Y-106650013D01*
X138650000Y-107450000D01*
X140900000Y-107450000D01*
X141400000Y-107450000D01*
X143649999Y-107450000D01*
X143649999Y-106650028D01*
X143649998Y-106650013D01*
X143639505Y-106547302D01*
X143584358Y-106380880D01*
X143584356Y-106380875D01*
X143492315Y-106231654D01*
X143368345Y-106107684D01*
X143219124Y-106015643D01*
X143219119Y-106015641D01*
X143052697Y-105960494D01*
X143052690Y-105960493D01*
X142949986Y-105950000D01*
X141400000Y-105950000D01*
X141400000Y-107450000D01*
X140900000Y-107450000D01*
X140900000Y-105950000D01*
X139350028Y-105950000D01*
X139350012Y-105950001D01*
X139247302Y-105960494D01*
X139080880Y-106015641D01*
X139080875Y-106015643D01*
X138931654Y-106107684D01*
X138807684Y-106231654D01*
X138715643Y-106380875D01*
X138715641Y-106380880D01*
X138660494Y-106547302D01*
X138660493Y-106547309D01*
X138650000Y-106650013D01*
X137550499Y-106650013D01*
X137550499Y-106649998D01*
X137550498Y-106649981D01*
X137539999Y-106547203D01*
X137539998Y-106547200D01*
X137524904Y-106501650D01*
X137484814Y-106380666D01*
X137392712Y-106231344D01*
X137268656Y-106107288D01*
X137140192Y-106028051D01*
X137119336Y-106015187D01*
X137119331Y-106015185D01*
X137091090Y-106005827D01*
X136952797Y-105960001D01*
X136952795Y-105960000D01*
X136850016Y-105949500D01*
X136850009Y-105949500D01*
X134200097Y-105949500D01*
X134133058Y-105929815D01*
X134112416Y-105913181D01*
X130636819Y-102437584D01*
X130603334Y-102376261D01*
X130600500Y-102349903D01*
X130600500Y-97649097D01*
X130620185Y-97582058D01*
X130672989Y-97536303D01*
X130742147Y-97526359D01*
X130805703Y-97555384D01*
X130812181Y-97561416D01*
X133547200Y-100296435D01*
X133580685Y-100357758D01*
X133577450Y-100422433D01*
X133536447Y-100548628D01*
X133499500Y-100781902D01*
X133499500Y-101018097D01*
X133536446Y-101251368D01*
X133609433Y-101475996D01*
X133691377Y-101636819D01*
X133716657Y-101686433D01*
X133855483Y-101877510D01*
X134022490Y-102044517D01*
X134213567Y-102183343D01*
X134250963Y-102202397D01*
X134424003Y-102290566D01*
X134424005Y-102290566D01*
X134424008Y-102290568D01*
X134544412Y-102329689D01*
X134648631Y-102363553D01*
X134881903Y-102400500D01*
X134881908Y-102400500D01*
X135118097Y-102400500D01*
X135351368Y-102363553D01*
X135393378Y-102349903D01*
X135575992Y-102290568D01*
X135786433Y-102183343D01*
X135977510Y-102044517D01*
X136144517Y-101877510D01*
X136283343Y-101686433D01*
X136343583Y-101568204D01*
X136391558Y-101517409D01*
X136454068Y-101500500D01*
X143025501Y-101500500D01*
X143092540Y-101520185D01*
X143138295Y-101572989D01*
X143149501Y-101624500D01*
X143149501Y-101786686D01*
X143159825Y-101887752D01*
X143188902Y-101975498D01*
X143214092Y-102051516D01*
X143304660Y-102198350D01*
X143426650Y-102320340D01*
X143573484Y-102410908D01*
X143737247Y-102465174D01*
X143737250Y-102465174D01*
X143737917Y-102465317D01*
X143738292Y-102465520D01*
X143743675Y-102467304D01*
X143743357Y-102468263D01*
X143799355Y-102498590D01*
X147065139Y-105764374D01*
X147065149Y-105764385D01*
X147069479Y-105768715D01*
X147069480Y-105768716D01*
X147181284Y-105880520D01*
X147181286Y-105880521D01*
X147181290Y-105880524D01*
X147266666Y-105929815D01*
X147318216Y-105959577D01*
X147430019Y-105989534D01*
X147470942Y-106000500D01*
X147470943Y-106000500D01*
X147623940Y-106000500D01*
X147628173Y-106000790D01*
X147657127Y-106011490D01*
X147686738Y-106020185D01*
X147689603Y-106023492D01*
X147693711Y-106025010D01*
X147712286Y-106049669D01*
X147732493Y-106072989D01*
X147735369Y-106080312D01*
X147735750Y-106080818D01*
X147735792Y-106081390D01*
X147737403Y-106085492D01*
X147745324Y-106109394D01*
X147765185Y-106169331D01*
X147765187Y-106169336D01*
X147765435Y-106169738D01*
X147857288Y-106318656D01*
X147981344Y-106442712D01*
X148130666Y-106534814D01*
X148297203Y-106589999D01*
X148399991Y-106600500D01*
X149150008Y-106600499D01*
X149150016Y-106600498D01*
X149150019Y-106600498D01*
X149206302Y-106594748D01*
X149252797Y-106589999D01*
X149419334Y-106534814D01*
X149419340Y-106534810D01*
X149425883Y-106531760D01*
X149426818Y-106533766D01*
X149444954Y-106528797D01*
X149472689Y-106518452D01*
X149478275Y-106519667D01*
X149483791Y-106518156D01*
X149512037Y-106527010D01*
X149540962Y-106533302D01*
X149547341Y-106538077D01*
X149550462Y-106539056D01*
X149569211Y-106554447D01*
X149580284Y-106565520D01*
X149580286Y-106565521D01*
X149587354Y-106572589D01*
X152549181Y-109534416D01*
X152582666Y-109595739D01*
X152585500Y-109622097D01*
X152585500Y-115725903D01*
X152565815Y-115792942D01*
X152549181Y-115813584D01*
X150849584Y-117513181D01*
X150788261Y-117546666D01*
X150761903Y-117549500D01*
X150712272Y-117549500D01*
X150599764Y-117564313D01*
X150599763Y-117564313D01*
X150459769Y-117622300D01*
X150459767Y-117622301D01*
X150404260Y-117664893D01*
X150385617Y-117672099D01*
X150369338Y-117683694D01*
X150353696Y-117684439D01*
X150339091Y-117690086D01*
X150319511Y-117686069D01*
X150299547Y-117687022D01*
X150273688Y-117676671D01*
X150270646Y-117676047D01*
X150266781Y-117673906D01*
X150257794Y-117668718D01*
X150257788Y-117668715D01*
X150208785Y-117640423D01*
X150208780Y-117640421D01*
X150146384Y-117623701D01*
X150131028Y-117618488D01*
X150000239Y-117564314D01*
X150000237Y-117564313D01*
X150000236Y-117564313D01*
X149986171Y-117562461D01*
X149887727Y-117549500D01*
X149887720Y-117549500D01*
X149287280Y-117549500D01*
X149287272Y-117549500D01*
X149174764Y-117564313D01*
X149174763Y-117564313D01*
X149034770Y-117622300D01*
X149034767Y-117622301D01*
X149034767Y-117622302D01*
X148914549Y-117714549D01*
X148863928Y-117780520D01*
X148822300Y-117834770D01*
X148764313Y-117974763D01*
X148764313Y-117974764D01*
X148762085Y-117991687D01*
X148733817Y-118055584D01*
X148675492Y-118094054D01*
X148639146Y-118099500D01*
X148324500Y-118099500D01*
X148257461Y-118079815D01*
X148211706Y-118027011D01*
X148200500Y-117975500D01*
X148200500Y-114450096D01*
X148220185Y-114383057D01*
X148236815Y-114362419D01*
X148712416Y-113886817D01*
X148773739Y-113853333D01*
X148800097Y-113850499D01*
X151450002Y-113850499D01*
X151450008Y-113850499D01*
X151552797Y-113839999D01*
X151719334Y-113784814D01*
X151868656Y-113692712D01*
X151992712Y-113568656D01*
X152084814Y-113419334D01*
X152139999Y-113252797D01*
X152150500Y-113150009D01*
X152150499Y-111049992D01*
X152139999Y-110947203D01*
X152084814Y-110780666D01*
X151992712Y-110631344D01*
X151868656Y-110507288D01*
X151719334Y-110415186D01*
X151552797Y-110360001D01*
X151552795Y-110360000D01*
X151450010Y-110349500D01*
X147849998Y-110349500D01*
X147849981Y-110349501D01*
X147747203Y-110360000D01*
X147747200Y-110360001D01*
X147580668Y-110415185D01*
X147580663Y-110415187D01*
X147431342Y-110507289D01*
X147307289Y-110631342D01*
X147215187Y-110780663D01*
X147215186Y-110780666D01*
X147160001Y-110947203D01*
X147160001Y-110947204D01*
X147160000Y-110947204D01*
X147149500Y-111049983D01*
X147149500Y-113150001D01*
X147149501Y-113150018D01*
X147160000Y-113252796D01*
X147160001Y-113252799D01*
X147215185Y-113419331D01*
X147215189Y-113419340D01*
X147265285Y-113500559D01*
X147273090Y-113529087D01*
X147283430Y-113556805D01*
X147282209Y-113562414D01*
X147283725Y-113567952D01*
X147274866Y-113596175D01*
X147268580Y-113625079D01*
X147263784Y-113631486D01*
X147262802Y-113634615D01*
X147247430Y-113653334D01*
X147231286Y-113669478D01*
X147119481Y-113781282D01*
X147119477Y-113781287D01*
X147069579Y-113867715D01*
X147069579Y-113867716D01*
X147040423Y-113918214D01*
X147040423Y-113918215D01*
X146999499Y-114070943D01*
X146999499Y-114070945D01*
X146999499Y-114239046D01*
X146999500Y-114239059D01*
X146999500Y-118779057D01*
X147038173Y-118923385D01*
X147040423Y-118931783D01*
X147040426Y-118931790D01*
X147119475Y-119068709D01*
X147119479Y-119068714D01*
X147119480Y-119068716D01*
X147231284Y-119180520D01*
X147231286Y-119180521D01*
X147231290Y-119180524D01*
X147368209Y-119259573D01*
X147368216Y-119259577D01*
X147520943Y-119300500D01*
X147679057Y-119300500D01*
X148639651Y-119300500D01*
X148706690Y-119320185D01*
X148752445Y-119372989D01*
X148762590Y-119408316D01*
X148764799Y-119425103D01*
X148764801Y-119425108D01*
X148822736Y-119564978D01*
X148914906Y-119685095D01*
X148931602Y-119697906D01*
X148972806Y-119754333D01*
X148976961Y-119824079D01*
X148943798Y-119883964D01*
X148338584Y-120489181D01*
X148277261Y-120522666D01*
X148250903Y-120525500D01*
X147079057Y-120525500D01*
X146920942Y-120525500D01*
X146768215Y-120566423D01*
X146768214Y-120566423D01*
X146768212Y-120566424D01*
X146768209Y-120566425D01*
X146718096Y-120595359D01*
X146718095Y-120595360D01*
X146674689Y-120620420D01*
X146631285Y-120645479D01*
X146631282Y-120645481D01*
X146519478Y-120757286D01*
X146313584Y-120963181D01*
X146252261Y-120996666D01*
X146225903Y-120999500D01*
X137196159Y-120999500D01*
X137129120Y-120979815D01*
X137083365Y-120927011D01*
X137073421Y-120857853D01*
X137078453Y-120836496D01*
X137114505Y-120727697D01*
X137114506Y-120727690D01*
X137124999Y-120624986D01*
X137125000Y-120624973D01*
X137125000Y-120350000D01*
X136161500Y-120350000D01*
X136094461Y-120330315D01*
X136048706Y-120277511D01*
X136037500Y-120226000D01*
X136037500Y-120100000D01*
X135911500Y-120100000D01*
X135844461Y-120080315D01*
X135798706Y-120027511D01*
X135787500Y-119976000D01*
X135787500Y-119850000D01*
X136287500Y-119850000D01*
X137124999Y-119850000D01*
X137124999Y-119575028D01*
X137124998Y-119575013D01*
X137114505Y-119472302D01*
X137059358Y-119305880D01*
X137059356Y-119305875D01*
X136967315Y-119156654D01*
X136843345Y-119032684D01*
X136694124Y-118940643D01*
X136694119Y-118940641D01*
X136527697Y-118885494D01*
X136527690Y-118885493D01*
X136424986Y-118875000D01*
X136287500Y-118875000D01*
X136287500Y-119850000D01*
X135787500Y-119850000D01*
X135787500Y-118875000D01*
X135650027Y-118875000D01*
X135650012Y-118875001D01*
X135547302Y-118885494D01*
X135380880Y-118940641D01*
X135380875Y-118940643D01*
X135231654Y-119032684D01*
X135107683Y-119156655D01*
X135107679Y-119156660D01*
X135105826Y-119159665D01*
X135104018Y-119161290D01*
X135103202Y-119162323D01*
X135103025Y-119162183D01*
X135053874Y-119206385D01*
X134984911Y-119217601D01*
X134920831Y-119189752D01*
X134894753Y-119159653D01*
X134894737Y-119159628D01*
X134892712Y-119156344D01*
X134768656Y-119032288D01*
X134619334Y-118940186D01*
X134619333Y-118940185D01*
X134619332Y-118940185D01*
X134610493Y-118937256D01*
X134590461Y-118923385D01*
X134568297Y-118913264D01*
X134562247Y-118903851D01*
X134553049Y-118897482D01*
X134543696Y-118874983D01*
X134530523Y-118854486D01*
X134528063Y-118837380D01*
X134526228Y-118832965D01*
X134525500Y-118819551D01*
X134525500Y-118655489D01*
X134545185Y-118588450D01*
X134597989Y-118542695D01*
X134667147Y-118532751D01*
X134696948Y-118540926D01*
X134766503Y-118569737D01*
X134916131Y-118599500D01*
X134921153Y-118600499D01*
X134921156Y-118600500D01*
X134921158Y-118600500D01*
X135078844Y-118600500D01*
X135078845Y-118600499D01*
X135233497Y-118569737D01*
X135379179Y-118509394D01*
X135474501Y-118445702D01*
X135510875Y-118421398D01*
X135577553Y-118400520D01*
X135579766Y-118400500D01*
X140213331Y-118400500D01*
X140213347Y-118400501D01*
X140220943Y-118400501D01*
X140379054Y-118400501D01*
X140379057Y-118400501D01*
X140531785Y-118359577D01*
X140612943Y-118312720D01*
X140668716Y-118280520D01*
X140780520Y-118168716D01*
X140780520Y-118168714D01*
X140790724Y-118158511D01*
X140790728Y-118158506D01*
X143212416Y-115736818D01*
X143273739Y-115703333D01*
X143300097Y-115700499D01*
X144000002Y-115700499D01*
X144000008Y-115700499D01*
X144102797Y-115689999D01*
X144269334Y-115634814D01*
X144418656Y-115542712D01*
X144542712Y-115418656D01*
X144634814Y-115269334D01*
X144689999Y-115102797D01*
X144700500Y-115000009D01*
X144700499Y-113999992D01*
X144699755Y-113992712D01*
X144689999Y-113897203D01*
X144689998Y-113897200D01*
X144668365Y-113831917D01*
X144634814Y-113730666D01*
X144542712Y-113581344D01*
X144418656Y-113457288D01*
X144269334Y-113365186D01*
X144102797Y-113310001D01*
X144102795Y-113310000D01*
X144000010Y-113299500D01*
X143199998Y-113299500D01*
X143199980Y-113299501D01*
X143097203Y-113310000D01*
X143097200Y-113310001D01*
X142930668Y-113365185D01*
X142930663Y-113365187D01*
X142781342Y-113457289D01*
X142687681Y-113550951D01*
X142626358Y-113584436D01*
X142556666Y-113579452D01*
X142512319Y-113550951D01*
X142418657Y-113457289D01*
X142418656Y-113457288D01*
X142269334Y-113365186D01*
X142102797Y-113310001D01*
X142102795Y-113310000D01*
X142000010Y-113299500D01*
X141199998Y-113299500D01*
X141199980Y-113299501D01*
X141097203Y-113310000D01*
X141097200Y-113310001D01*
X140930668Y-113365185D01*
X140930663Y-113365187D01*
X140781342Y-113457289D01*
X140657289Y-113581342D01*
X140565187Y-113730663D01*
X140565185Y-113730668D01*
X140537405Y-113814504D01*
X140497632Y-113871949D01*
X140433116Y-113898772D01*
X140419699Y-113899500D01*
X137233308Y-113899500D01*
X137166269Y-113879815D01*
X137145626Y-113863180D01*
X137114370Y-113831923D01*
X137114362Y-113831917D01*
X137028751Y-113781287D01*
X136972898Y-113748256D01*
X136972897Y-113748255D01*
X136972896Y-113748255D01*
X136972893Y-113748254D01*
X136815073Y-113702402D01*
X136815067Y-113702401D01*
X136778201Y-113699500D01*
X136778194Y-113699500D01*
X135677097Y-113699500D01*
X135610058Y-113679815D01*
X135589416Y-113663181D01*
X135063590Y-113137355D01*
X135063588Y-113137352D01*
X134944717Y-113018481D01*
X134944716Y-113018480D01*
X134842692Y-112959577D01*
X134842691Y-112959576D01*
X134807783Y-112939422D01*
X134751881Y-112924443D01*
X134655057Y-112898499D01*
X134496943Y-112898499D01*
X134489347Y-112898499D01*
X134489331Y-112898500D01*
X123000254Y-112898500D01*
X122933215Y-112878815D01*
X122912541Y-112862149D01*
X121974787Y-111923706D01*
X121941324Y-111862371D01*
X121938500Y-111836057D01*
X121938500Y-110263459D01*
X121958185Y-110196420D01*
X121997402Y-110157921D01*
X122143656Y-110067712D01*
X122267712Y-109943656D01*
X122359814Y-109794334D01*
X122414999Y-109627797D01*
X122425500Y-109525009D01*
X122425499Y-108474992D01*
X122414999Y-108372203D01*
X122359814Y-108205666D01*
X122267712Y-108056344D01*
X122143656Y-107932288D01*
X121994334Y-107840186D01*
X121827797Y-107785001D01*
X121827795Y-107785000D01*
X121725010Y-107774500D01*
X120949998Y-107774500D01*
X120949980Y-107774501D01*
X120847203Y-107785000D01*
X120847200Y-107785001D01*
X120680668Y-107840185D01*
X120680663Y-107840187D01*
X120531342Y-107932289D01*
X120407288Y-108056343D01*
X120407283Y-108056349D01*
X120405241Y-108059661D01*
X120403247Y-108061453D01*
X120402807Y-108062011D01*
X120402711Y-108061935D01*
X120353291Y-108106383D01*
X120284328Y-108117602D01*
X120220247Y-108089755D01*
X120194168Y-108059656D01*
X120192319Y-108056659D01*
X120192316Y-108056655D01*
X120068345Y-107932684D01*
X119919124Y-107840643D01*
X119919119Y-107840641D01*
X119752697Y-107785494D01*
X119752690Y-107785493D01*
X119649986Y-107775000D01*
X119512500Y-107775000D01*
X119512500Y-110224999D01*
X119649972Y-110224999D01*
X119649986Y-110224998D01*
X119752697Y-110214505D01*
X119919119Y-110159358D01*
X119919124Y-110159356D01*
X120068345Y-110067315D01*
X120192318Y-109943342D01*
X120194165Y-109940348D01*
X120195969Y-109938724D01*
X120196798Y-109937677D01*
X120196976Y-109937818D01*
X120246110Y-109893621D01*
X120315073Y-109882396D01*
X120379156Y-109910236D01*
X120405243Y-109940341D01*
X120407288Y-109943656D01*
X120531344Y-110067712D01*
X120678598Y-110158538D01*
X120725321Y-110210483D01*
X120737500Y-110264075D01*
X120737500Y-112134439D01*
X120737470Y-112214837D01*
X120737500Y-112214949D01*
X120737500Y-112215057D01*
X120750843Y-112264856D01*
X120757515Y-112289757D01*
X120757526Y-112289798D01*
X120778337Y-112367577D01*
X120778421Y-112367780D01*
X120778422Y-112367782D01*
X120778423Y-112367784D01*
X120817800Y-112435989D01*
X120817811Y-112436032D01*
X120817821Y-112436027D01*
X120857338Y-112504529D01*
X120857340Y-112504532D01*
X120857345Y-112504540D01*
X120857351Y-112504546D01*
X120857474Y-112504707D01*
X120857480Y-112504716D01*
X120913241Y-112560477D01*
X121039523Y-112686852D01*
X121072985Y-112748187D01*
X121067975Y-112817876D01*
X121026083Y-112873794D01*
X120960610Y-112898187D01*
X120951809Y-112898500D01*
X120487670Y-112898500D01*
X120487654Y-112898499D01*
X120480058Y-112898499D01*
X120321943Y-112898499D01*
X120245579Y-112918961D01*
X120169214Y-112939423D01*
X120169209Y-112939426D01*
X120032290Y-113018475D01*
X120032282Y-113018481D01*
X119787582Y-113263181D01*
X119726259Y-113296666D01*
X119699901Y-113299500D01*
X118999998Y-113299500D01*
X118999980Y-113299501D01*
X118897203Y-113310000D01*
X118897200Y-113310001D01*
X118730668Y-113365185D01*
X118730663Y-113365187D01*
X118581342Y-113457289D01*
X118457289Y-113581342D01*
X118365187Y-113730663D01*
X118365185Y-113730668D01*
X118337405Y-113814504D01*
X118297632Y-113871949D01*
X118233116Y-113898772D01*
X118219699Y-113899500D01*
X117779766Y-113899500D01*
X117712727Y-113879815D01*
X117710875Y-113878602D01*
X117579185Y-113790609D01*
X117579172Y-113790602D01*
X117433501Y-113730264D01*
X117433489Y-113730261D01*
X117278845Y-113699500D01*
X117278842Y-113699500D01*
X117121158Y-113699500D01*
X117121155Y-113699500D01*
X116966510Y-113730261D01*
X116966498Y-113730264D01*
X116820827Y-113790602D01*
X116820816Y-113790608D01*
X116707025Y-113866641D01*
X116640348Y-113887518D01*
X116572968Y-113869033D01*
X116550454Y-113851219D01*
X112224221Y-109524986D01*
X118175001Y-109524986D01*
X118185494Y-109627697D01*
X118240641Y-109794119D01*
X118240643Y-109794124D01*
X118332684Y-109943345D01*
X118456654Y-110067315D01*
X118605875Y-110159356D01*
X118605880Y-110159358D01*
X118772302Y-110214505D01*
X118772309Y-110214506D01*
X118875019Y-110224999D01*
X119012499Y-110224999D01*
X119012500Y-110224998D01*
X119012500Y-109250000D01*
X118175001Y-109250000D01*
X118175001Y-109524986D01*
X112224221Y-109524986D01*
X111174248Y-108475013D01*
X118175000Y-108475013D01*
X118175000Y-108750000D01*
X119012500Y-108750000D01*
X119012500Y-107775000D01*
X118875027Y-107775000D01*
X118875012Y-107775001D01*
X118772302Y-107785494D01*
X118605880Y-107840641D01*
X118605875Y-107840643D01*
X118456654Y-107932684D01*
X118332684Y-108056654D01*
X118240643Y-108205875D01*
X118240641Y-108205880D01*
X118185494Y-108372302D01*
X118185493Y-108372309D01*
X118175000Y-108475013D01*
X111174248Y-108475013D01*
X105599235Y-102900000D01*
X114779993Y-102900000D01*
X114782885Y-102953975D01*
X114782887Y-102953988D01*
X114818433Y-103093251D01*
X114818434Y-103093256D01*
X114837472Y-103139216D01*
X114889214Y-103233977D01*
X114987158Y-103339174D01*
X114987161Y-103339177D01*
X115110771Y-103412518D01*
X115156734Y-103431556D01*
X115156760Y-103431566D01*
X115207716Y-103449543D01*
X115349994Y-103469999D01*
X115349996Y-103470000D01*
X116854992Y-103470000D01*
X117354992Y-103470000D01*
X118859995Y-103470000D01*
X118913967Y-103467107D01*
X118913980Y-103467105D01*
X119053243Y-103431559D01*
X119053248Y-103431558D01*
X119099208Y-103412520D01*
X119146579Y-103386654D01*
X121250001Y-103386654D01*
X121260319Y-103487652D01*
X121314546Y-103651300D01*
X121314551Y-103651311D01*
X121405052Y-103798034D01*
X121405055Y-103798038D01*
X121526961Y-103919944D01*
X121526965Y-103919947D01*
X121673688Y-104010448D01*
X121673699Y-104010453D01*
X121837347Y-104064680D01*
X121938352Y-104074999D01*
X121975000Y-104074999D01*
X121975000Y-102750000D01*
X121250001Y-102750000D01*
X121250001Y-103386654D01*
X119146579Y-103386654D01*
X119193969Y-103360778D01*
X119299166Y-103262834D01*
X119299169Y-103262831D01*
X119372510Y-103139221D01*
X119391548Y-103093258D01*
X119391558Y-103093232D01*
X119409535Y-103042276D01*
X119429991Y-102899998D01*
X119429992Y-102899997D01*
X119429992Y-101613345D01*
X121250000Y-101613345D01*
X121250000Y-102250000D01*
X121975000Y-102250000D01*
X121975000Y-100925000D01*
X121938361Y-100925000D01*
X121938343Y-100925001D01*
X121837347Y-100935319D01*
X121673699Y-100989546D01*
X121673688Y-100989551D01*
X121526965Y-101080052D01*
X121526961Y-101080055D01*
X121405055Y-101201961D01*
X121405052Y-101201965D01*
X121314551Y-101348688D01*
X121314546Y-101348699D01*
X121260319Y-101512347D01*
X121250000Y-101613345D01*
X119429992Y-101613345D01*
X119429992Y-101602983D01*
X117354992Y-101602983D01*
X117354992Y-103470000D01*
X116854992Y-103470000D01*
X116854992Y-101602983D01*
X114779997Y-101602983D01*
X114779993Y-102900000D01*
X105599235Y-102900000D01*
X103136819Y-100437584D01*
X103103334Y-100376261D01*
X103100500Y-100349903D01*
X103100500Y-77679765D01*
X103120185Y-77612726D01*
X103121398Y-77610874D01*
X103209390Y-77479185D01*
X103209390Y-77479184D01*
X103209394Y-77479179D01*
X103269737Y-77333497D01*
X103300500Y-77178842D01*
X103300500Y-77021158D01*
X103300498Y-77021152D01*
X103299937Y-77015450D01*
X103312954Y-76946803D01*
X103361018Y-76896092D01*
X103428868Y-76879415D01*
X103438125Y-76880177D01*
X103494940Y-76887000D01*
X103681054Y-76887000D01*
X103769443Y-76876386D01*
X103792508Y-76867290D01*
X103862094Y-76861007D01*
X103883492Y-76867290D01*
X103906556Y-76876386D01*
X103994946Y-76887000D01*
X104181054Y-76887000D01*
X104269443Y-76876386D01*
X104410095Y-76820920D01*
X104530564Y-76729564D01*
X104621920Y-76609095D01*
X104677386Y-76468443D01*
X104688000Y-76380053D01*
X104688000Y-76013232D01*
X104689073Y-76009576D01*
X104688219Y-76005863D01*
X104698840Y-75976312D01*
X104707685Y-75946193D01*
X104710938Y-75942656D01*
X104711853Y-75940112D01*
X104736510Y-75914859D01*
X104738767Y-75913127D01*
X104803935Y-75887930D01*
X104814257Y-75887500D01*
X106810149Y-75887500D01*
X106872148Y-75904112D01*
X106968215Y-75959577D01*
X107120943Y-76000501D01*
X107120946Y-76000501D01*
X107279054Y-76000501D01*
X107279057Y-76000501D01*
X107431785Y-75959577D01*
X107568716Y-75880519D01*
X116387819Y-67061414D01*
X116449142Y-67027930D01*
X116518834Y-67032914D01*
G37*
%TD.AperFunction*%
%TA.AperFunction,Conductor*%
G36*
X155068039Y-101019685D02*
G01*
X155113794Y-101072489D01*
X155125000Y-101124000D01*
X155125000Y-102574999D01*
X155161640Y-102574999D01*
X155161654Y-102574998D01*
X155262652Y-102564680D01*
X155426300Y-102510453D01*
X155426311Y-102510448D01*
X155573034Y-102419947D01*
X155573038Y-102419944D01*
X155694944Y-102298038D01*
X155694947Y-102298034D01*
X155785448Y-102151311D01*
X155785453Y-102151300D01*
X155839680Y-101987652D01*
X155849999Y-101886654D01*
X155849999Y-101280596D01*
X155869683Y-101213557D01*
X155922487Y-101167802D01*
X155991646Y-101157858D01*
X156055202Y-101186883D01*
X156061680Y-101192915D01*
X157764181Y-102895416D01*
X157797666Y-102956739D01*
X157800500Y-102983097D01*
X157800500Y-106751902D01*
X157780815Y-106818941D01*
X157728011Y-106864696D01*
X157658853Y-106874640D01*
X157595297Y-106845615D01*
X157588819Y-106839583D01*
X156134573Y-105385337D01*
X156101088Y-105324014D01*
X156100637Y-105321847D01*
X156069738Y-105166510D01*
X156069737Y-105166503D01*
X156050812Y-105120814D01*
X156009397Y-105020827D01*
X156009390Y-105020814D01*
X155921789Y-104889711D01*
X155921786Y-104889707D01*
X155810292Y-104778213D01*
X155810288Y-104778210D01*
X155679185Y-104690609D01*
X155679172Y-104690602D01*
X155533501Y-104630264D01*
X155533489Y-104630261D01*
X155378845Y-104599500D01*
X155378842Y-104599500D01*
X155221158Y-104599500D01*
X155221155Y-104599500D01*
X155066510Y-104630261D01*
X155066498Y-104630264D01*
X154920827Y-104690602D01*
X154920814Y-104690609D01*
X154789125Y-104778602D01*
X154722447Y-104799480D01*
X154720234Y-104799500D01*
X151980301Y-104799500D01*
X151913262Y-104779815D01*
X151867507Y-104727011D01*
X151862595Y-104714504D01*
X151837712Y-104639412D01*
X151834814Y-104630666D01*
X151742712Y-104481344D01*
X151618656Y-104357288D01*
X151469334Y-104265186D01*
X151302797Y-104210001D01*
X151302795Y-104210000D01*
X151200016Y-104199500D01*
X151200009Y-104199500D01*
X150673500Y-104199500D01*
X150606461Y-104179815D01*
X150560706Y-104127011D01*
X150549500Y-104075500D01*
X150549500Y-103551097D01*
X150569185Y-103484058D01*
X150585819Y-103463416D01*
X152412417Y-101636819D01*
X152439344Y-101622115D01*
X152465163Y-101605523D01*
X152471363Y-101604631D01*
X152473740Y-101603334D01*
X152500098Y-101600500D01*
X152625501Y-101600500D01*
X152692540Y-101620185D01*
X152738295Y-101672989D01*
X152749501Y-101724500D01*
X152749501Y-101886686D01*
X152759825Y-101987752D01*
X152791222Y-102082500D01*
X152814092Y-102151516D01*
X152904660Y-102298350D01*
X153026650Y-102420340D01*
X153173484Y-102510908D01*
X153337247Y-102565174D01*
X153438323Y-102575500D01*
X154011676Y-102575499D01*
X154011684Y-102575498D01*
X154011687Y-102575498D01*
X154067030Y-102569844D01*
X154112753Y-102565174D01*
X154261792Y-102515786D01*
X154331616Y-102513385D01*
X154339797Y-102515787D01*
X154487348Y-102564680D01*
X154588352Y-102574999D01*
X154625000Y-102574999D01*
X154625000Y-102202397D01*
X154634685Y-102158719D01*
X154633636Y-102158372D01*
X154635976Y-102151311D01*
X154690174Y-101987753D01*
X154700500Y-101886677D01*
X154700499Y-101123998D01*
X154703049Y-101115313D01*
X154701761Y-101106353D01*
X154712738Y-101082316D01*
X154720183Y-101056961D01*
X154727025Y-101051032D01*
X154730786Y-101042797D01*
X154753017Y-101028510D01*
X154772987Y-101011206D01*
X154783502Y-101008918D01*
X154789564Y-101005023D01*
X154824499Y-101000000D01*
X155001000Y-101000000D01*
X155068039Y-101019685D01*
G37*
%TD.AperFunction*%
%TA.AperFunction,Conductor*%
G36*
X131642539Y-71451185D02*
G01*
X131688294Y-71503989D01*
X131699500Y-71555500D01*
X131699500Y-81513330D01*
X131699499Y-81513348D01*
X131699499Y-81679054D01*
X131699498Y-81679054D01*
X131740423Y-81831786D01*
X131740424Y-81831787D01*
X131763805Y-81872284D01*
X131819480Y-81968716D01*
X131819482Y-81968718D01*
X131938349Y-82087585D01*
X131938354Y-82087589D01*
X136031284Y-86180520D01*
X136031286Y-86180521D01*
X136031290Y-86180524D01*
X136168209Y-86259573D01*
X136168216Y-86259577D01*
X136320943Y-86300501D01*
X136320945Y-86300501D01*
X136486654Y-86300501D01*
X136486670Y-86300500D01*
X141117903Y-86300500D01*
X141184942Y-86320185D01*
X141205584Y-86336819D01*
X154081584Y-99212819D01*
X154115069Y-99274142D01*
X154110085Y-99343834D01*
X154068213Y-99399767D01*
X154002749Y-99424184D01*
X153993903Y-99424500D01*
X153438330Y-99424500D01*
X153438312Y-99424501D01*
X153337247Y-99434825D01*
X153173484Y-99489092D01*
X153173481Y-99489093D01*
X153026648Y-99579661D01*
X152904661Y-99701648D01*
X152814093Y-99848481D01*
X152814092Y-99848484D01*
X152759826Y-100012247D01*
X152759826Y-100012248D01*
X152759825Y-100012248D01*
X152749500Y-100113315D01*
X152749500Y-100275500D01*
X152729815Y-100342539D01*
X152677011Y-100388294D01*
X152625500Y-100399500D01*
X152279062Y-100399500D01*
X152279058Y-100399499D01*
X152120943Y-100399499D01*
X152120939Y-100399500D01*
X151274499Y-100399500D01*
X151207460Y-100379815D01*
X151161705Y-100327011D01*
X151150499Y-100275500D01*
X151150499Y-100113330D01*
X151150498Y-100113313D01*
X151140174Y-100012247D01*
X151110431Y-99922490D01*
X151085908Y-99848484D01*
X150995340Y-99701650D01*
X150873350Y-99579660D01*
X150765788Y-99513315D01*
X150726518Y-99489093D01*
X150726513Y-99489091D01*
X150718244Y-99486351D01*
X150562753Y-99434826D01*
X150562751Y-99434825D01*
X150461678Y-99424500D01*
X149888330Y-99424500D01*
X149888312Y-99424501D01*
X149787247Y-99434825D01*
X149787244Y-99434826D01*
X149639003Y-99483949D01*
X149569175Y-99486351D01*
X149560999Y-99483950D01*
X149412753Y-99434826D01*
X149412751Y-99434825D01*
X149311678Y-99424500D01*
X148738330Y-99424500D01*
X148738312Y-99424501D01*
X148637247Y-99434825D01*
X148473484Y-99489092D01*
X148473481Y-99489093D01*
X148326648Y-99579661D01*
X148204661Y-99701648D01*
X148114093Y-99848481D01*
X148114092Y-99848484D01*
X148059826Y-100012247D01*
X148059826Y-100012248D01*
X148059825Y-100012248D01*
X148049500Y-100113315D01*
X148049500Y-100175500D01*
X148029815Y-100242539D01*
X147977011Y-100288294D01*
X147925500Y-100299500D01*
X146374499Y-100299500D01*
X146307460Y-100279815D01*
X146261705Y-100227011D01*
X146250499Y-100175500D01*
X146250499Y-100013330D01*
X146250498Y-100013313D01*
X146240174Y-99912247D01*
X146185908Y-99748484D01*
X146095340Y-99601650D01*
X145973350Y-99479660D01*
X145826516Y-99389092D01*
X145662753Y-99334826D01*
X145662751Y-99334825D01*
X145561678Y-99324500D01*
X144988330Y-99324500D01*
X144988312Y-99324501D01*
X144887247Y-99334825D01*
X144880622Y-99336244D01*
X144880289Y-99334692D01*
X144818672Y-99336810D01*
X144758631Y-99301076D01*
X144727441Y-99238555D01*
X144725500Y-99216703D01*
X144725500Y-98657940D01*
X144745185Y-98590901D01*
X144761814Y-98570263D01*
X144821789Y-98510289D01*
X144909394Y-98379179D01*
X144969737Y-98233497D01*
X145000500Y-98078842D01*
X145000500Y-97921158D01*
X145000500Y-97921155D01*
X145000499Y-97921153D01*
X144969738Y-97766510D01*
X144969737Y-97766503D01*
X144931773Y-97674848D01*
X144909397Y-97620827D01*
X144909390Y-97620814D01*
X144821789Y-97489711D01*
X144821786Y-97489707D01*
X144710292Y-97378213D01*
X144710288Y-97378210D01*
X144579185Y-97290609D01*
X144579172Y-97290602D01*
X144433501Y-97230264D01*
X144433489Y-97230261D01*
X144278845Y-97199500D01*
X144278842Y-97199500D01*
X144121158Y-97199500D01*
X144121155Y-97199500D01*
X143966510Y-97230261D01*
X143966498Y-97230264D01*
X143820827Y-97290602D01*
X143820814Y-97290609D01*
X143689711Y-97378210D01*
X143689707Y-97378213D01*
X143578213Y-97489707D01*
X143578210Y-97489711D01*
X143490609Y-97620814D01*
X143490602Y-97620827D01*
X143430264Y-97766498D01*
X143430261Y-97766510D01*
X143399500Y-97921153D01*
X143399500Y-98078846D01*
X143430261Y-98233489D01*
X143430264Y-98233501D01*
X143490603Y-98379174D01*
X143490604Y-98379175D01*
X143490606Y-98379179D01*
X143503602Y-98398628D01*
X143524480Y-98465305D01*
X143524500Y-98467519D01*
X143524500Y-99350098D01*
X143504815Y-99417137D01*
X143465598Y-99455636D01*
X143426650Y-99479659D01*
X143304661Y-99601648D01*
X143214093Y-99748481D01*
X143214091Y-99748486D01*
X143211772Y-99755485D01*
X143159826Y-99912247D01*
X143159826Y-99912248D01*
X143159825Y-99912248D01*
X143149500Y-100013315D01*
X143149500Y-100175500D01*
X143129815Y-100242539D01*
X143077011Y-100288294D01*
X143025500Y-100299500D01*
X136454068Y-100299500D01*
X136387029Y-100279815D01*
X136343583Y-100231795D01*
X136283343Y-100113567D01*
X136144517Y-99922490D01*
X135977510Y-99755483D01*
X135786433Y-99616657D01*
X135756880Y-99601599D01*
X135575996Y-99509433D01*
X135351368Y-99436446D01*
X135118097Y-99399500D01*
X135118092Y-99399500D01*
X134881908Y-99399500D01*
X134881903Y-99399500D01*
X134648628Y-99436447D01*
X134522433Y-99477450D01*
X134452592Y-99479445D01*
X134396435Y-99447200D01*
X130636819Y-95687584D01*
X130603334Y-95626261D01*
X130600500Y-95599903D01*
X130600500Y-88699097D01*
X130620185Y-88632058D01*
X130672989Y-88586303D01*
X130742147Y-88576359D01*
X130805703Y-88605384D01*
X130812181Y-88611416D01*
X132647427Y-90446662D01*
X132680912Y-90507985D01*
X132675928Y-90577677D01*
X132665286Y-90599438D01*
X132615189Y-90680661D01*
X132615185Y-90680668D01*
X132615115Y-90680880D01*
X132560001Y-90847203D01*
X132560001Y-90847204D01*
X132560000Y-90847204D01*
X132549500Y-90949983D01*
X132549500Y-93050001D01*
X132549501Y-93050018D01*
X132560000Y-93152796D01*
X132560001Y-93152799D01*
X132591849Y-93248908D01*
X132615186Y-93319334D01*
X132707288Y-93468656D01*
X132831344Y-93592712D01*
X132980666Y-93684814D01*
X133147203Y-93739999D01*
X133249991Y-93750500D01*
X136850008Y-93750499D01*
X136952797Y-93739999D01*
X137119334Y-93684814D01*
X137268656Y-93592712D01*
X137392712Y-93468656D01*
X137484814Y-93319334D01*
X137539999Y-93152797D01*
X137550500Y-93050009D01*
X137550500Y-93049986D01*
X138650001Y-93049986D01*
X138660494Y-93152697D01*
X138715641Y-93319119D01*
X138715643Y-93319124D01*
X138807684Y-93468345D01*
X138931654Y-93592315D01*
X139080875Y-93684356D01*
X139080880Y-93684358D01*
X139247302Y-93739505D01*
X139247309Y-93739506D01*
X139350019Y-93749999D01*
X140899999Y-93749999D01*
X141400000Y-93749999D01*
X142949972Y-93749999D01*
X142949986Y-93749998D01*
X143052697Y-93739505D01*
X143219119Y-93684358D01*
X143219124Y-93684356D01*
X143368345Y-93592315D01*
X143492315Y-93468345D01*
X143584356Y-93319124D01*
X143584358Y-93319119D01*
X143639505Y-93152697D01*
X143639506Y-93152690D01*
X143649999Y-93049986D01*
X143650000Y-93049973D01*
X143650000Y-92250000D01*
X141400000Y-92250000D01*
X141400000Y-93749999D01*
X140899999Y-93749999D01*
X140900000Y-93749998D01*
X140900000Y-92250000D01*
X138650001Y-92250000D01*
X138650001Y-93049986D01*
X137550500Y-93049986D01*
X137550499Y-91750000D01*
X137550499Y-90950013D01*
X138650000Y-90950013D01*
X138650000Y-91750000D01*
X140900000Y-91750000D01*
X141400000Y-91750000D01*
X143649999Y-91750000D01*
X143649999Y-90950028D01*
X143649998Y-90950013D01*
X143639505Y-90847302D01*
X143584358Y-90680880D01*
X143584356Y-90680875D01*
X143492315Y-90531654D01*
X143368345Y-90407684D01*
X143219124Y-90315643D01*
X143219119Y-90315641D01*
X143052697Y-90260494D01*
X143052690Y-90260493D01*
X142949986Y-90250000D01*
X141400000Y-90250000D01*
X141400000Y-91750000D01*
X140900000Y-91750000D01*
X140900000Y-90250000D01*
X139350028Y-90250000D01*
X139350012Y-90250001D01*
X139247302Y-90260494D01*
X139080880Y-90315641D01*
X139080875Y-90315643D01*
X138931654Y-90407684D01*
X138807684Y-90531654D01*
X138715643Y-90680875D01*
X138715641Y-90680880D01*
X138660494Y-90847302D01*
X138660493Y-90847309D01*
X138650000Y-90950013D01*
X137550499Y-90950013D01*
X137550499Y-90949998D01*
X137550498Y-90949981D01*
X137539999Y-90847203D01*
X137539998Y-90847200D01*
X137484814Y-90680666D01*
X137392712Y-90531344D01*
X137268656Y-90407288D01*
X137119334Y-90315186D01*
X136952797Y-90260001D01*
X136952795Y-90260000D01*
X136850016Y-90249500D01*
X136850009Y-90249500D01*
X134200097Y-90249500D01*
X134133058Y-90229815D01*
X134112416Y-90213181D01*
X130636819Y-86737584D01*
X130603334Y-86676261D01*
X130600500Y-86649903D01*
X130600500Y-72579765D01*
X130620185Y-72512726D01*
X130621398Y-72510874D01*
X130709390Y-72379185D01*
X130709390Y-72379184D01*
X130709394Y-72379179D01*
X130769737Y-72233497D01*
X130800500Y-72078842D01*
X130800500Y-71921158D01*
X130800500Y-71921155D01*
X130800499Y-71921153D01*
X130783297Y-71834673D01*
X130769737Y-71766503D01*
X130751676Y-71722900D01*
X130709397Y-71620827D01*
X130706521Y-71615446D01*
X130708627Y-71614320D01*
X130690902Y-71557717D01*
X130709384Y-71490337D01*
X130761362Y-71443645D01*
X130814882Y-71431500D01*
X131575500Y-71431500D01*
X131642539Y-71451185D01*
G37*
%TD.AperFunction*%
%TA.AperFunction,Conductor*%
G36*
X134294927Y-72705910D02*
G01*
X134310571Y-72705352D01*
X134327763Y-72715552D01*
X134346945Y-72721185D01*
X134357196Y-72733015D01*
X134370660Y-72741004D01*
X134379609Y-72758881D01*
X134392700Y-72773989D01*
X134395346Y-72790319D01*
X134401936Y-72803483D01*
X134403195Y-72838751D01*
X134399500Y-72873127D01*
X134399500Y-72873128D01*
X134399500Y-72873132D01*
X134399500Y-73868870D01*
X134399501Y-73868876D01*
X134405908Y-73928481D01*
X134418659Y-73962669D01*
X134423642Y-74032361D01*
X134418659Y-74049331D01*
X134405908Y-74083518D01*
X134401862Y-74121155D01*
X134399501Y-74143123D01*
X134399500Y-74143135D01*
X134399500Y-75138870D01*
X134399501Y-75138876D01*
X134405908Y-75198481D01*
X134418659Y-75232669D01*
X134423642Y-75302361D01*
X134418659Y-75319331D01*
X134405908Y-75353518D01*
X134401612Y-75393479D01*
X134399501Y-75413123D01*
X134399500Y-75413135D01*
X134399500Y-76408870D01*
X134399501Y-76408876D01*
X134405908Y-76468481D01*
X134418659Y-76502669D01*
X134423642Y-76572361D01*
X134418659Y-76589331D01*
X134405908Y-76623518D01*
X134399780Y-76680520D01*
X134399501Y-76683123D01*
X134399500Y-76683135D01*
X134399500Y-77678870D01*
X134399501Y-77678876D01*
X134405908Y-77738481D01*
X134418659Y-77772669D01*
X134423642Y-77842361D01*
X134418659Y-77859331D01*
X134405908Y-77893518D01*
X134399501Y-77953116D01*
X134399501Y-77953123D01*
X134399500Y-77953135D01*
X134399500Y-78948870D01*
X134399501Y-78948876D01*
X134405908Y-79008481D01*
X134418659Y-79042669D01*
X134423642Y-79112361D01*
X134418659Y-79129331D01*
X134405908Y-79163518D01*
X134402996Y-79190609D01*
X134399501Y-79223123D01*
X134399500Y-79223135D01*
X134399500Y-80218870D01*
X134399501Y-80218876D01*
X134405908Y-80278481D01*
X134418659Y-80312669D01*
X134423642Y-80382361D01*
X134418659Y-80399331D01*
X134405908Y-80433518D01*
X134399501Y-80493116D01*
X134399500Y-80493135D01*
X134399500Y-81488870D01*
X134399501Y-81488876D01*
X134405908Y-81548483D01*
X134456202Y-81683328D01*
X134456206Y-81683335D01*
X134542452Y-81798544D01*
X134542455Y-81798547D01*
X134657664Y-81884793D01*
X134657671Y-81884797D01*
X134792517Y-81935091D01*
X134792516Y-81935091D01*
X134799444Y-81935835D01*
X134852127Y-81941500D01*
X136447872Y-81941499D01*
X136507483Y-81935091D01*
X136642331Y-81884796D01*
X136757546Y-81798546D01*
X136843796Y-81683331D01*
X136847960Y-81672165D01*
X136889829Y-81616234D01*
X136955293Y-81591816D01*
X136964141Y-81591500D01*
X137429939Y-81591500D01*
X137429943Y-81591501D01*
X137588057Y-81591501D01*
X137598700Y-81588649D01*
X137614007Y-81588403D01*
X137633506Y-81593789D01*
X137653731Y-81594267D01*
X137666498Y-81602903D01*
X137681354Y-81607008D01*
X137694845Y-81622081D01*
X137711602Y-81633417D01*
X137717672Y-81647584D01*
X137727952Y-81659069D01*
X137731152Y-81679044D01*
X137739120Y-81697639D01*
X137740000Y-81712387D01*
X137740000Y-81991000D01*
X138440000Y-81991000D01*
X138440000Y-80960597D01*
X138448645Y-80931153D01*
X138455168Y-80901171D01*
X138458922Y-80896155D01*
X138459685Y-80893558D01*
X138476314Y-80872919D01*
X138614663Y-80734571D01*
X138675982Y-80701089D01*
X138678150Y-80700638D01*
X138736927Y-80688946D01*
X138833497Y-80669737D01*
X138946166Y-80623067D01*
X138979172Y-80609397D01*
X138979172Y-80609396D01*
X138979179Y-80609394D01*
X139110289Y-80521789D01*
X139221789Y-80410289D01*
X139309394Y-80279179D01*
X139369737Y-80133497D01*
X139400500Y-79978842D01*
X139400500Y-79821158D01*
X139400500Y-79821155D01*
X139400499Y-79821153D01*
X139369738Y-79666510D01*
X139369738Y-79666508D01*
X139369737Y-79666503D01*
X139369735Y-79666498D01*
X139309397Y-79520827D01*
X139309390Y-79520814D01*
X139221789Y-79389711D01*
X139221786Y-79389707D01*
X139110292Y-79278213D01*
X139110288Y-79278210D01*
X138979185Y-79190609D01*
X138979172Y-79190602D01*
X138833501Y-79130264D01*
X138833489Y-79130261D01*
X138678845Y-79099500D01*
X138678842Y-79099500D01*
X138521158Y-79099500D01*
X138521155Y-79099500D01*
X138366510Y-79130261D01*
X138366498Y-79130264D01*
X138220827Y-79190602D01*
X138220814Y-79190609D01*
X138089711Y-79278210D01*
X138089707Y-79278213D01*
X137978213Y-79389707D01*
X137978210Y-79389711D01*
X137890609Y-79520814D01*
X137890602Y-79520827D01*
X137830264Y-79666498D01*
X137830261Y-79666508D01*
X137799361Y-79821850D01*
X137766976Y-79883761D01*
X137765425Y-79885339D01*
X137296584Y-80354181D01*
X137269656Y-80368884D01*
X137243838Y-80385477D01*
X137237637Y-80386368D01*
X137235261Y-80387666D01*
X137208903Y-80390500D01*
X137020094Y-80390500D01*
X136953055Y-80370815D01*
X136907300Y-80318011D01*
X136896804Y-80253246D01*
X136900500Y-80218873D01*
X136900499Y-79223128D01*
X136894091Y-79163517D01*
X136881340Y-79129332D01*
X136876357Y-79059642D01*
X136881340Y-79042669D01*
X136894091Y-79008483D01*
X136900500Y-78948873D01*
X136900499Y-77953128D01*
X136894091Y-77893517D01*
X136881340Y-77859332D01*
X136876357Y-77789642D01*
X136881340Y-77772669D01*
X136894091Y-77738483D01*
X136900500Y-77678873D01*
X136900499Y-76683128D01*
X136894091Y-76623517D01*
X136881340Y-76589332D01*
X136876357Y-76519642D01*
X136881340Y-76502669D01*
X136894091Y-76468483D01*
X136900500Y-76408873D01*
X136900499Y-75413128D01*
X136894091Y-75353517D01*
X136881340Y-75319332D01*
X136876357Y-75249642D01*
X136881340Y-75232669D01*
X136894091Y-75198483D01*
X136900500Y-75138873D01*
X136900499Y-74143128D01*
X136894091Y-74083517D01*
X136881340Y-74049332D01*
X136876357Y-73979642D01*
X136881340Y-73962669D01*
X136894091Y-73928483D01*
X136900500Y-73868873D01*
X136900499Y-73550094D01*
X136920183Y-73483057D01*
X136972987Y-73437302D01*
X137042146Y-73427358D01*
X137105701Y-73456383D01*
X137112180Y-73462415D01*
X140214139Y-76564374D01*
X140214149Y-76564385D01*
X140218479Y-76568715D01*
X140218480Y-76568716D01*
X140330284Y-76680520D01*
X140330286Y-76680521D01*
X140330290Y-76680524D01*
X140400088Y-76720821D01*
X140467216Y-76759577D01*
X140579019Y-76789534D01*
X140619942Y-76800500D01*
X140619943Y-76800500D01*
X145580903Y-76800500D01*
X145647942Y-76820185D01*
X145668584Y-76836819D01*
X149620577Y-80788812D01*
X149621078Y-80789731D01*
X149621990Y-80790248D01*
X149637781Y-80820318D01*
X149654062Y-80850135D01*
X149653987Y-80851180D01*
X149654474Y-80852107D01*
X149651502Y-80885918D01*
X149649078Y-80919827D01*
X149648449Y-80920666D01*
X149648358Y-80921709D01*
X149627563Y-80948565D01*
X149607206Y-80975760D01*
X149606014Y-80976398D01*
X149605584Y-80976954D01*
X149601406Y-80978865D01*
X149574336Y-80993364D01*
X149565130Y-80996628D01*
X149562517Y-80996909D01*
X149527386Y-81010011D01*
X149526440Y-81010347D01*
X149492524Y-81012219D01*
X149458639Y-81014642D01*
X149457055Y-81014177D01*
X149456677Y-81014198D01*
X149456194Y-81013924D01*
X149441669Y-81009659D01*
X149424140Y-81003121D01*
X149407483Y-80996909D01*
X149407482Y-80996908D01*
X149347883Y-80990501D01*
X149347881Y-80990500D01*
X149347873Y-80990500D01*
X149347864Y-80990500D01*
X148352129Y-80990500D01*
X148352123Y-80990501D01*
X148292518Y-80996908D01*
X148258331Y-81009659D01*
X148188639Y-81014642D01*
X148171669Y-81009659D01*
X148154140Y-81003121D01*
X148137483Y-80996909D01*
X148137482Y-80996908D01*
X148077883Y-80990501D01*
X148077881Y-80990500D01*
X148077873Y-80990500D01*
X148077864Y-80990500D01*
X147082129Y-80990500D01*
X147082123Y-80990501D01*
X147022518Y-80996908D01*
X146988331Y-81009659D01*
X146918639Y-81014642D01*
X146901669Y-81009659D01*
X146884140Y-81003121D01*
X146867483Y-80996909D01*
X146867482Y-80996908D01*
X146807883Y-80990501D01*
X146807881Y-80990500D01*
X146807873Y-80990500D01*
X146807864Y-80990500D01*
X145812129Y-80990500D01*
X145812123Y-80990501D01*
X145752518Y-80996908D01*
X145718331Y-81009659D01*
X145648639Y-81014642D01*
X145631669Y-81009659D01*
X145614140Y-81003121D01*
X145597483Y-80996909D01*
X145597482Y-80996908D01*
X145537883Y-80990501D01*
X145537881Y-80990500D01*
X145537873Y-80990500D01*
X145537864Y-80990500D01*
X144542129Y-80990500D01*
X144542123Y-80990501D01*
X144482518Y-80996908D01*
X144448331Y-81009659D01*
X144378639Y-81014642D01*
X144361669Y-81009659D01*
X144344140Y-81003121D01*
X144327483Y-80996909D01*
X144327482Y-80996908D01*
X144267883Y-80990501D01*
X144267881Y-80990500D01*
X144267873Y-80990500D01*
X144267864Y-80990500D01*
X143272129Y-80990500D01*
X143272123Y-80990501D01*
X143212518Y-80996908D01*
X143178331Y-81009659D01*
X143108639Y-81014642D01*
X143091669Y-81009659D01*
X143074140Y-81003121D01*
X143057483Y-80996909D01*
X143057482Y-80996908D01*
X142997883Y-80990501D01*
X142997881Y-80990500D01*
X142997873Y-80990500D01*
X142997864Y-80990500D01*
X142002129Y-80990500D01*
X142002123Y-80990501D01*
X141942518Y-80996908D01*
X141908331Y-81009659D01*
X141838639Y-81014642D01*
X141821669Y-81009659D01*
X141804140Y-81003121D01*
X141787483Y-80996909D01*
X141787482Y-80996908D01*
X141727883Y-80990501D01*
X141727881Y-80990500D01*
X141727873Y-80990500D01*
X141727864Y-80990500D01*
X140732129Y-80990500D01*
X140732123Y-80990501D01*
X140672518Y-80996908D01*
X140638331Y-81009659D01*
X140568639Y-81014642D01*
X140551669Y-81009659D01*
X140534140Y-81003121D01*
X140517483Y-80996909D01*
X140517482Y-80996908D01*
X140457883Y-80990501D01*
X140457881Y-80990500D01*
X140457873Y-80990500D01*
X140457864Y-80990500D01*
X139462129Y-80990500D01*
X139462123Y-80990501D01*
X139402520Y-80996908D01*
X139402517Y-80996908D01*
X139402517Y-80996909D01*
X139367620Y-81009925D01*
X139367617Y-81009926D01*
X139297925Y-81014909D01*
X139280952Y-81009925D01*
X139247379Y-80997403D01*
X139247372Y-80997401D01*
X139187844Y-80991000D01*
X138940000Y-80991000D01*
X138940000Y-82117000D01*
X138920315Y-82184039D01*
X138867511Y-82229794D01*
X138816000Y-82241000D01*
X138690000Y-82241000D01*
X138690000Y-82367000D01*
X138670315Y-82434039D01*
X138617511Y-82479794D01*
X138566000Y-82491000D01*
X137740000Y-82491000D01*
X137740000Y-83038844D01*
X137746401Y-83098372D01*
X137746403Y-83098379D01*
X137796645Y-83233086D01*
X137796647Y-83233089D01*
X137857652Y-83314580D01*
X137882070Y-83380044D01*
X137867219Y-83448317D01*
X137817814Y-83497723D01*
X137749542Y-83512576D01*
X137734196Y-83510510D01*
X137678842Y-83499500D01*
X137521158Y-83499500D01*
X137521155Y-83499500D01*
X137366510Y-83530261D01*
X137366498Y-83530264D01*
X137220827Y-83590602D01*
X137220814Y-83590609D01*
X137089711Y-83678210D01*
X137089707Y-83678213D01*
X136978213Y-83789707D01*
X136978210Y-83789711D01*
X136890609Y-83920814D01*
X136890602Y-83920827D01*
X136830264Y-84066498D01*
X136830261Y-84066510D01*
X136799500Y-84221153D01*
X136799500Y-84378846D01*
X136830261Y-84533489D01*
X136830264Y-84533501D01*
X136890602Y-84679172D01*
X136890609Y-84679185D01*
X136978210Y-84810288D01*
X136978213Y-84810292D01*
X137055740Y-84887819D01*
X137089225Y-84949142D01*
X137084241Y-85018834D01*
X137042369Y-85074767D01*
X136976905Y-85099184D01*
X136968059Y-85099500D01*
X136700098Y-85099500D01*
X136633059Y-85079815D01*
X136612417Y-85063181D01*
X132936819Y-81387583D01*
X132903334Y-81326260D01*
X132900500Y-81299902D01*
X132900500Y-73217847D01*
X132920185Y-73150808D01*
X132972989Y-73105053D01*
X133000309Y-73096230D01*
X133016291Y-73093050D01*
X133133497Y-73069737D01*
X133279179Y-73009394D01*
X133410289Y-72921789D01*
X133521789Y-72810289D01*
X133557657Y-72756608D01*
X133611269Y-72711804D01*
X133660759Y-72701500D01*
X134279906Y-72701500D01*
X134294927Y-72705910D01*
G37*
%TD.AperFunction*%
%TA.AperFunction,Conductor*%
G36*
X104231068Y-64119185D02*
G01*
X104276823Y-64171989D01*
X104286767Y-64241147D01*
X104257742Y-64304703D01*
X104203033Y-64341206D01*
X104130668Y-64365185D01*
X104130663Y-64365187D01*
X103981342Y-64457289D01*
X103857289Y-64581342D01*
X103765187Y-64730663D01*
X103765185Y-64730668D01*
X103737405Y-64814504D01*
X103710001Y-64897203D01*
X103710001Y-64897204D01*
X103710000Y-64897204D01*
X103699500Y-64999983D01*
X103699500Y-66000001D01*
X103699501Y-66000019D01*
X103710000Y-66102796D01*
X103710001Y-66102799D01*
X103758406Y-66248873D01*
X103765186Y-66269334D01*
X103857288Y-66418656D01*
X103981344Y-66542712D01*
X104102596Y-66617500D01*
X104149321Y-66669448D01*
X104161500Y-66723039D01*
X104161500Y-68920458D01*
X104141815Y-68987497D01*
X104102598Y-69025996D01*
X104053997Y-69055973D01*
X103930974Y-69178996D01*
X103930971Y-69179000D01*
X103839642Y-69327066D01*
X103839637Y-69327077D01*
X103784913Y-69492223D01*
X103774500Y-69594144D01*
X103774500Y-70605855D01*
X103784913Y-70707776D01*
X103839637Y-70872922D01*
X103839642Y-70872933D01*
X103930971Y-71020999D01*
X103930974Y-71021003D01*
X104053996Y-71144025D01*
X104054000Y-71144028D01*
X104202066Y-71235357D01*
X104202069Y-71235358D01*
X104202075Y-71235362D01*
X104367225Y-71290087D01*
X104469152Y-71300500D01*
X104469157Y-71300500D01*
X105055843Y-71300500D01*
X105055848Y-71300500D01*
X105157775Y-71290087D01*
X105322925Y-71235362D01*
X105471003Y-71144026D01*
X105594026Y-71021003D01*
X105594755Y-71019821D01*
X105595466Y-71019181D01*
X105598507Y-71015336D01*
X105599163Y-71015855D01*
X105646701Y-70973097D01*
X105715664Y-70961873D01*
X105779746Y-70989715D01*
X105801761Y-71015123D01*
X105801888Y-71015023D01*
X105804113Y-71017838D01*
X105805833Y-71019822D01*
X105806365Y-71020685D01*
X105806369Y-71020690D01*
X105929308Y-71143629D01*
X106077285Y-71234903D01*
X106077290Y-71234905D01*
X106242326Y-71289592D01*
X106344184Y-71299999D01*
X106344197Y-71300000D01*
X106387500Y-71300000D01*
X106887500Y-71300000D01*
X106930803Y-71300000D01*
X106930815Y-71299999D01*
X107032673Y-71289592D01*
X107197709Y-71234905D01*
X107197714Y-71234903D01*
X107345691Y-71143629D01*
X107468629Y-71020691D01*
X107559903Y-70872714D01*
X107559905Y-70872709D01*
X107614592Y-70707673D01*
X107624999Y-70605815D01*
X107625000Y-70605802D01*
X107625000Y-70350000D01*
X106887500Y-70350000D01*
X106887500Y-71300000D01*
X106387500Y-71300000D01*
X106387500Y-69850000D01*
X106887500Y-69850000D01*
X107625000Y-69850000D01*
X107625000Y-69594197D01*
X107624999Y-69594184D01*
X107614592Y-69492326D01*
X107559905Y-69327290D01*
X107559903Y-69327285D01*
X107468629Y-69179308D01*
X107345691Y-69056370D01*
X107197714Y-68965096D01*
X107197709Y-68965094D01*
X107032673Y-68910407D01*
X106930815Y-68900000D01*
X106887500Y-68900000D01*
X106887500Y-69850000D01*
X106387500Y-69850000D01*
X106387500Y-68900000D01*
X106344184Y-68900000D01*
X106242326Y-68910407D01*
X106077290Y-68965094D01*
X106077285Y-68965096D01*
X105929308Y-69056370D01*
X105806369Y-69179309D01*
X105806364Y-69179315D01*
X105805829Y-69180184D01*
X105805306Y-69180654D01*
X105801888Y-69184977D01*
X105801149Y-69184392D01*
X105753879Y-69226906D01*
X105684916Y-69238125D01*
X105620835Y-69210278D01*
X105598586Y-69184601D01*
X105598507Y-69184664D01*
X105597111Y-69182898D01*
X105594758Y-69180183D01*
X105594028Y-69178999D01*
X105471002Y-69055973D01*
X105421402Y-69025379D01*
X105374678Y-68973430D01*
X105362500Y-68919841D01*
X105362500Y-66759755D01*
X105382185Y-66692716D01*
X105434989Y-66646961D01*
X105447477Y-66642056D01*
X105469334Y-66634814D01*
X105618656Y-66542712D01*
X105712319Y-66449049D01*
X105773642Y-66415564D01*
X105843334Y-66420548D01*
X105887681Y-66449049D01*
X105981344Y-66542712D01*
X106130666Y-66634814D01*
X106297203Y-66689999D01*
X106399991Y-66700500D01*
X107200008Y-66700499D01*
X107200016Y-66700498D01*
X107200019Y-66700498D01*
X107276199Y-66692716D01*
X107302797Y-66689999D01*
X107469334Y-66634814D01*
X107618656Y-66542712D01*
X107742712Y-66418656D01*
X107834814Y-66269334D01*
X107862595Y-66185495D01*
X107902368Y-66128051D01*
X107966884Y-66101228D01*
X107980301Y-66100500D01*
X115350903Y-66100500D01*
X115417942Y-66120185D01*
X115463697Y-66172989D01*
X115473641Y-66242147D01*
X115444616Y-66305703D01*
X115438584Y-66312181D01*
X107100585Y-74650180D01*
X107073655Y-74664884D01*
X107047848Y-74681473D01*
X107041641Y-74682365D01*
X107039262Y-74683665D01*
X107012914Y-74686499D01*
X107007943Y-74686499D01*
X107007941Y-74686499D01*
X107000341Y-74686500D01*
X107000339Y-74686499D01*
X107000331Y-74686500D01*
X105162499Y-74686500D01*
X105095460Y-74666815D01*
X105049705Y-74614011D01*
X105038499Y-74562500D01*
X105038499Y-74447636D01*
X105023046Y-74330246D01*
X105023044Y-74330239D01*
X105023044Y-74330238D01*
X104962536Y-74184159D01*
X104866282Y-74058718D01*
X104740841Y-73962464D01*
X104740840Y-73962463D01*
X104737013Y-73959527D01*
X104695811Y-73903099D01*
X104688500Y-73861151D01*
X104688500Y-73322844D01*
X104688500Y-73322843D01*
X104676800Y-73279179D01*
X104647577Y-73170115D01*
X104618639Y-73119995D01*
X104568520Y-73033184D01*
X104456716Y-72921380D01*
X104456715Y-72921379D01*
X104452385Y-72917049D01*
X104452374Y-72917039D01*
X102907390Y-71372055D01*
X102900321Y-71364986D01*
X102900320Y-71364984D01*
X102821385Y-71286049D01*
X102792636Y-71233396D01*
X102787903Y-71224729D01*
X102790002Y-71195385D01*
X102792887Y-71155037D01*
X102821386Y-71110691D01*
X102921789Y-71010289D01*
X103009394Y-70879179D01*
X103011985Y-70872925D01*
X103069735Y-70733501D01*
X103069737Y-70733497D01*
X103100500Y-70578842D01*
X103100500Y-70421158D01*
X103100500Y-70421155D01*
X103100499Y-70421153D01*
X103082990Y-70333129D01*
X103069737Y-70266503D01*
X103047635Y-70213143D01*
X103009397Y-70120827D01*
X103009390Y-70120814D01*
X102921789Y-69989711D01*
X102921786Y-69989707D01*
X102810292Y-69878213D01*
X102810288Y-69878210D01*
X102679185Y-69790609D01*
X102679172Y-69790602D01*
X102533501Y-69730264D01*
X102533489Y-69730261D01*
X102378845Y-69699500D01*
X102378842Y-69699500D01*
X102221158Y-69699500D01*
X102221155Y-69699500D01*
X102066510Y-69730261D01*
X102066498Y-69730264D01*
X101920827Y-69790602D01*
X101920814Y-69790609D01*
X101789711Y-69878210D01*
X101789707Y-69878213D01*
X101678213Y-69989707D01*
X101678210Y-69989711D01*
X101590609Y-70120814D01*
X101590602Y-70120827D01*
X101530264Y-70266498D01*
X101530261Y-70266510D01*
X101499500Y-70421153D01*
X101499500Y-70578846D01*
X101530261Y-70733489D01*
X101530264Y-70733501D01*
X101590602Y-70879172D01*
X101590609Y-70879185D01*
X101631451Y-70940309D01*
X101652329Y-71006987D01*
X101633844Y-71074367D01*
X101581865Y-71121057D01*
X101528349Y-71133200D01*
X100608798Y-71133200D01*
X100541759Y-71113515D01*
X100521117Y-71096881D01*
X100202916Y-70778680D01*
X100169431Y-70717357D01*
X100174415Y-70647665D01*
X100216287Y-70591732D01*
X100281751Y-70567315D01*
X100290597Y-70566999D01*
X100379472Y-70566999D01*
X100379486Y-70566998D01*
X100482197Y-70556505D01*
X100648619Y-70501358D01*
X100648624Y-70501356D01*
X100797845Y-70409315D01*
X100921815Y-70285345D01*
X101013856Y-70136124D01*
X101013858Y-70136119D01*
X101069005Y-69969697D01*
X101069006Y-69969690D01*
X101079499Y-69866986D01*
X101079500Y-69866973D01*
X101079500Y-69592000D01*
X100116000Y-69592000D01*
X100048961Y-69572315D01*
X100003206Y-69519511D01*
X99992000Y-69468000D01*
X99992000Y-69342000D01*
X99866000Y-69342000D01*
X99798961Y-69322315D01*
X99753206Y-69269511D01*
X99742000Y-69218000D01*
X99742000Y-69092000D01*
X100242000Y-69092000D01*
X101079499Y-69092000D01*
X101079499Y-68817028D01*
X101079498Y-68817013D01*
X101069005Y-68714302D01*
X101013858Y-68547880D01*
X101013856Y-68547875D01*
X100921815Y-68398654D01*
X100797845Y-68274684D01*
X100648624Y-68182643D01*
X100648619Y-68182641D01*
X100482197Y-68127494D01*
X100482190Y-68127493D01*
X100379486Y-68117000D01*
X100242000Y-68117000D01*
X100242000Y-69092000D01*
X99742000Y-69092000D01*
X99742000Y-68117000D01*
X99604527Y-68117000D01*
X99604512Y-68117001D01*
X99501801Y-68127494D01*
X99437295Y-68148869D01*
X99430178Y-68149113D01*
X99423908Y-68152488D01*
X99395720Y-68150298D01*
X99367467Y-68151270D01*
X99361348Y-68147628D01*
X99354248Y-68147077D01*
X99331716Y-68129994D01*
X99307425Y-68115538D01*
X99304246Y-68109167D01*
X99298572Y-68104865D01*
X99288854Y-68078315D01*
X99276233Y-68053018D01*
X99277003Y-68045938D01*
X99274556Y-68039252D01*
X99280734Y-68011661D01*
X99283794Y-67983558D01*
X99288639Y-67976364D01*
X99289825Y-67971071D01*
X99300731Y-67958412D01*
X99311149Y-67942947D01*
X99319784Y-67934416D01*
X99323416Y-67932320D01*
X99435220Y-67820516D01*
X99435221Y-67820513D01*
X99569918Y-67685815D01*
X99631239Y-67652333D01*
X99657597Y-67649499D01*
X100357502Y-67649499D01*
X100357508Y-67649499D01*
X100460297Y-67638999D01*
X100626834Y-67583814D01*
X100776156Y-67491712D01*
X100900212Y-67367656D01*
X100992314Y-67218334D01*
X101047499Y-67051797D01*
X101058000Y-66949009D01*
X101057999Y-65948992D01*
X101047499Y-65846203D01*
X100992314Y-65679666D01*
X100900212Y-65530344D01*
X100776156Y-65406288D01*
X100626834Y-65314186D01*
X100460297Y-65259001D01*
X100460295Y-65259000D01*
X100357510Y-65248500D01*
X99557498Y-65248500D01*
X99557480Y-65248501D01*
X99454703Y-65259000D01*
X99454700Y-65259001D01*
X99288168Y-65314185D01*
X99288163Y-65314187D01*
X99138845Y-65406287D01*
X99044827Y-65500305D01*
X98983503Y-65533789D01*
X98913812Y-65528805D01*
X98869465Y-65500304D01*
X98775845Y-65406684D01*
X98626624Y-65314643D01*
X98626619Y-65314641D01*
X98460197Y-65259494D01*
X98460190Y-65259493D01*
X98357486Y-65249000D01*
X98207500Y-65249000D01*
X98207500Y-66325000D01*
X98187815Y-66392039D01*
X98135011Y-66437794D01*
X98083500Y-66449000D01*
X97831500Y-66449000D01*
X97764461Y-66429315D01*
X97718706Y-66376511D01*
X97707500Y-66325000D01*
X97707500Y-65249000D01*
X97672319Y-65213819D01*
X97638834Y-65152496D01*
X97636000Y-65126138D01*
X97636000Y-64823499D01*
X97655685Y-64756460D01*
X97708489Y-64710705D01*
X97760000Y-64699499D01*
X98357502Y-64699499D01*
X98357508Y-64699499D01*
X98460297Y-64688999D01*
X98626834Y-64633814D01*
X98776156Y-64541712D01*
X98869819Y-64448049D01*
X98931142Y-64414564D01*
X99000834Y-64419548D01*
X99045181Y-64448049D01*
X99138844Y-64541712D01*
X99288166Y-64633814D01*
X99454703Y-64688999D01*
X99557491Y-64699500D01*
X100357508Y-64699499D01*
X100357516Y-64699498D01*
X100357519Y-64699498D01*
X100413802Y-64693748D01*
X100460297Y-64688999D01*
X100626834Y-64633814D01*
X100776156Y-64541712D01*
X100900212Y-64417656D01*
X100992314Y-64268334D01*
X101020095Y-64184495D01*
X101059868Y-64127051D01*
X101124384Y-64100228D01*
X101137801Y-64099500D01*
X104164029Y-64099500D01*
X104231068Y-64119185D01*
G37*
%TD.AperFunction*%
%TD*%
M02*
