%TF.GenerationSoftware,KiCad,Pcbnew,9.0.4*%
%TF.CreationDate,2025-10-03T16:26:10-05:00*%
%TF.ProjectId,ECE 445 - Suction Sense PCB-1,45434520-3434-4352-902d-205375637469,rev?*%
%TF.SameCoordinates,Original*%
%TF.FileFunction,Copper,L2,Bot*%
%TF.FilePolarity,Positive*%
%FSLAX46Y46*%
G04 Gerber Fmt 4.6, Leading zero omitted, Abs format (unit mm)*
G04 Created by KiCad (PCBNEW 9.0.4) date 2025-10-03 16:26:10*
%MOMM*%
%LPD*%
G01*
G04 APERTURE LIST*
G04 Aperture macros list*
%AMRoundRect*
0 Rectangle with rounded corners*
0 $1 Rounding radius*
0 $2 $3 $4 $5 $6 $7 $8 $9 X,Y pos of 4 corners*
0 Add a 4 corners polygon primitive as box body*
4,1,4,$2,$3,$4,$5,$6,$7,$8,$9,$2,$3,0*
0 Add four circle primitives for the rounded corners*
1,1,$1+$1,$2,$3*
1,1,$1+$1,$4,$5*
1,1,$1+$1,$6,$7*
1,1,$1+$1,$8,$9*
0 Add four rect primitives between the rounded corners*
20,1,$1+$1,$2,$3,$4,$5,0*
20,1,$1+$1,$4,$5,$6,$7,0*
20,1,$1+$1,$6,$7,$8,$9,0*
20,1,$1+$1,$8,$9,$2,$3,0*%
G04 Aperture macros list end*
%TA.AperFunction,HeatsinkPad*%
%ADD10C,0.600000*%
%TD*%
%TA.AperFunction,ComponentPad*%
%ADD11RoundRect,0.250000X-0.620000X-0.845000X0.620000X-0.845000X0.620000X0.845000X-0.620000X0.845000X0*%
%TD*%
%TA.AperFunction,ComponentPad*%
%ADD12O,1.740000X2.190000*%
%TD*%
%TA.AperFunction,SMDPad,CuDef*%
%ADD13R,4.400000X3.300000*%
%TD*%
%TA.AperFunction,SMDPad,CuDef*%
%ADD14R,6.200000X3.900000*%
%TD*%
%TA.AperFunction,ViaPad*%
%ADD15C,0.600000*%
%TD*%
%TA.AperFunction,Conductor*%
%ADD16C,0.200000*%
%TD*%
G04 APERTURE END LIST*
D10*
%TO.P,U1,39,GND*%
%TO.N,GND*%
X144300000Y-72901000D03*
X144300000Y-71501000D03*
X143600000Y-73601000D03*
X143600000Y-72201000D03*
X143600000Y-70801000D03*
X142875000Y-72901000D03*
X142875000Y-71501000D03*
X142200000Y-73601000D03*
X142200000Y-72201000D03*
X142200000Y-70801000D03*
X141500000Y-72901000D03*
X141500000Y-71501000D03*
%TD*%
D11*
%TO.P,J1,1,Pin_1*%
%TO.N,/3v3*%
X165460000Y-81500000D03*
D12*
%TO.P,J1,2,Pin_2*%
%TO.N,GND*%
X168000000Y-81500000D03*
%TO.P,J1,3,Pin_3*%
%TO.N,/IO5*%
X170540000Y-81500000D03*
%TD*%
D11*
%TO.P,J2,1,Pin_1*%
%TO.N,/3v3*%
X167220000Y-94000000D03*
D12*
%TO.P,J2,2,Pin_2*%
%TO.N,GND*%
X169760000Y-94000000D03*
%TO.P,J2,3,Pin_3*%
%TO.N,/IO12*%
X172300000Y-94000000D03*
%TD*%
D13*
%TO.P,J4,1*%
%TO.N,+5VB*%
X112100000Y-114500000D03*
D14*
%TO.P,J4,2*%
%TO.N,GND*%
X103100000Y-121650000D03*
%TO.P,J4,3*%
%TO.N,N/C*%
X103100000Y-108750000D03*
%TD*%
D15*
%TO.N,GND*%
X131500000Y-87000000D03*
X128400000Y-91400000D03*
%TO.N,*%
X102400000Y-102800000D03*
X104400000Y-100900000D03*
%TO.N,GND*%
X133300000Y-84600000D03*
X135500000Y-83300000D03*
X160900000Y-103300000D03*
X157600000Y-103400000D03*
X156400000Y-103400000D03*
%TO.N,/IO2*%
X137600000Y-84300000D03*
%TO.N,/3v3*%
X130000000Y-69700000D03*
X144200000Y-98000000D03*
X130000000Y-72000000D03*
%TO.N,Net-(U3-BST)*%
X161000000Y-105500000D03*
X155300000Y-105400000D03*
%TO.N,/BUCK_IN*%
X102500000Y-77100000D03*
%TO.N,/IO35*%
X132900000Y-72300000D03*
X129400000Y-72900000D03*
%TO.N,/IO5*%
X158900000Y-75900000D03*
%TO.N,/IO12*%
X138600000Y-79900000D03*
%TO.N,+5VB*%
X117200000Y-114500000D03*
%TO.N,Net-(U4-V_{SS})*%
X132900000Y-117800000D03*
X135000000Y-117800000D03*
%TD*%
D16*
%TO.N,GND*%
X131500000Y-87000000D02*
X128400000Y-90100000D01*
X128400000Y-90100000D02*
X128400000Y-91400000D01*
%TO.N,*%
X104300000Y-100900000D02*
X102400000Y-102800000D01*
X104400000Y-100900000D02*
X104300000Y-100900000D01*
%TO.N,GND*%
X134600000Y-83300000D02*
X133300000Y-84600000D01*
X135500000Y-83300000D02*
X134600000Y-83300000D01*
X157600000Y-103400000D02*
X160800000Y-103400000D01*
X160800000Y-103400000D02*
X160900000Y-103300000D01*
%TO.N,/IO2*%
X101050000Y-75800000D02*
X101499000Y-75800000D01*
X99000000Y-73750000D02*
X101050000Y-75800000D01*
X137600000Y-84300000D02*
X124099000Y-70799000D01*
X101951000Y-70799000D02*
X99000000Y-73750000D01*
X124099000Y-70799000D02*
X101951000Y-70799000D01*
%TO.N,/3v3*%
X130000000Y-72000000D02*
X130000000Y-69700000D01*
X167220000Y-92020000D02*
X159050000Y-83850000D01*
X167220000Y-94000000D02*
X167220000Y-92020000D01*
X165460000Y-81500000D02*
X160700000Y-81500000D01*
X159050000Y-83850000D02*
X159050000Y-83150000D01*
X160700000Y-81500000D02*
X159050000Y-83150000D01*
X159050000Y-83150000D02*
X144200000Y-98000000D01*
%TO.N,Net-(U3-BST)*%
X155400000Y-105500000D02*
X155300000Y-105400000D01*
X161000000Y-105500000D02*
X155400000Y-105500000D01*
%TO.N,/BUCK_IN*%
X102500000Y-75200000D02*
X102300000Y-75000000D01*
X102500000Y-77100000D02*
X102500000Y-75200000D01*
%TO.N,/IO35*%
X132300000Y-72900000D02*
X132900000Y-72300000D01*
X129400000Y-72900000D02*
X132300000Y-72900000D01*
%TO.N,/IO5*%
X158900000Y-75900000D02*
X164940000Y-75900000D01*
X164940000Y-75900000D02*
X170540000Y-81500000D01*
%TO.N,/IO12*%
X166631000Y-88331000D02*
X166631000Y-80419840D01*
X166111160Y-79900000D02*
X138600000Y-79900000D01*
X172300000Y-94000000D02*
X166631000Y-88331000D01*
X166631000Y-80419840D02*
X166111160Y-79900000D01*
%TO.N,+5VB*%
X112100000Y-114500000D02*
X106501000Y-108901000D01*
X106501000Y-91954140D02*
X101900000Y-87353140D01*
X112100000Y-114500000D02*
X117200000Y-114500000D01*
X101900000Y-87353140D02*
X101900000Y-75400000D01*
X106501000Y-108901000D02*
X106501000Y-91954140D01*
%TO.N,Net-(U4-V_{SS})*%
X135000000Y-117800000D02*
X132900000Y-117800000D01*
%TD*%
%TA.AperFunction,Conductor*%
%TO.N,GND*%
G36*
X120343039Y-53359685D02*
G01*
X120388794Y-53412489D01*
X120400000Y-53464000D01*
X120400000Y-63181000D01*
X168400000Y-63181000D01*
X168400000Y-53464000D01*
X168419685Y-53396961D01*
X168472489Y-53351206D01*
X168524000Y-53340000D01*
X177195841Y-53340000D01*
X177262880Y-53359685D01*
X177308635Y-53412489D01*
X177318293Y-53450798D01*
X177318970Y-53450709D01*
X177319500Y-53454734D01*
X177349452Y-53682238D01*
X177349453Y-53682240D01*
X177408842Y-53903887D01*
X177496650Y-54115876D01*
X177496657Y-54115890D01*
X177611392Y-54314617D01*
X177751081Y-54496661D01*
X177751089Y-54496670D01*
X177913330Y-54658911D01*
X177913338Y-54658918D01*
X178095382Y-54798607D01*
X178095385Y-54798608D01*
X178095388Y-54798611D01*
X178294112Y-54913344D01*
X178294117Y-54913346D01*
X178294123Y-54913349D01*
X178385480Y-54951190D01*
X178506113Y-55001158D01*
X178727762Y-55060548D01*
X178941192Y-55088647D01*
X178959291Y-55091030D01*
X178959127Y-55092268D01*
X179019693Y-55114432D01*
X179061911Y-55170104D01*
X179070000Y-55214158D01*
X179070000Y-131475841D01*
X179050315Y-131542880D01*
X178997511Y-131588635D01*
X178959201Y-131598293D01*
X178959291Y-131598970D01*
X178814233Y-131618067D01*
X178727762Y-131629452D01*
X178634076Y-131654554D01*
X178506112Y-131688842D01*
X178294123Y-131776650D01*
X178294109Y-131776657D01*
X178095382Y-131891392D01*
X177913338Y-132031081D01*
X177751081Y-132193338D01*
X177611392Y-132375382D01*
X177496657Y-132574109D01*
X177496650Y-132574123D01*
X177408842Y-132786112D01*
X177349453Y-133007759D01*
X177349451Y-133007770D01*
X177318970Y-133239291D01*
X177317740Y-133239129D01*
X177295542Y-133299727D01*
X177239855Y-133341926D01*
X177195841Y-133350000D01*
X95854159Y-133350000D01*
X95787120Y-133330315D01*
X95741365Y-133277511D01*
X95731706Y-133239201D01*
X95731030Y-133239291D01*
X95728647Y-133221192D01*
X95700548Y-133007762D01*
X95641158Y-132786113D01*
X95553344Y-132574112D01*
X95438611Y-132375388D01*
X95438608Y-132375385D01*
X95438607Y-132375382D01*
X95298918Y-132193338D01*
X95298911Y-132193330D01*
X95136670Y-132031089D01*
X95136661Y-132031081D01*
X94954617Y-131891392D01*
X94755890Y-131776657D01*
X94755876Y-131776650D01*
X94543887Y-131688842D01*
X94322238Y-131629452D01*
X94166120Y-131608898D01*
X94090709Y-131598970D01*
X94090870Y-131597740D01*
X94030273Y-131575542D01*
X93988074Y-131519855D01*
X93980000Y-131475841D01*
X93980000Y-123647844D01*
X99500000Y-123647844D01*
X99506401Y-123707372D01*
X99506403Y-123707379D01*
X99556645Y-123842086D01*
X99556649Y-123842093D01*
X99642809Y-123957187D01*
X99642812Y-123957190D01*
X99757906Y-124043350D01*
X99757913Y-124043354D01*
X99892620Y-124093596D01*
X99892627Y-124093598D01*
X99952155Y-124099999D01*
X99952172Y-124100000D01*
X102850000Y-124100000D01*
X103350000Y-124100000D01*
X106247828Y-124100000D01*
X106247844Y-124099999D01*
X106307372Y-124093598D01*
X106307379Y-124093596D01*
X106442086Y-124043354D01*
X106442093Y-124043350D01*
X106557187Y-123957190D01*
X106557190Y-123957187D01*
X106643350Y-123842093D01*
X106643354Y-123842086D01*
X106693596Y-123707379D01*
X106693598Y-123707372D01*
X106699999Y-123647844D01*
X106700000Y-123647827D01*
X106700000Y-121900000D01*
X103350000Y-121900000D01*
X103350000Y-124100000D01*
X102850000Y-124100000D01*
X102850000Y-121900000D01*
X99500000Y-121900000D01*
X99500000Y-123647844D01*
X93980000Y-123647844D01*
X93980000Y-119652155D01*
X99500000Y-119652155D01*
X99500000Y-121400000D01*
X102850000Y-121400000D01*
X103350000Y-121400000D01*
X106700000Y-121400000D01*
X106700000Y-119652172D01*
X106699999Y-119652155D01*
X106693598Y-119592627D01*
X106693596Y-119592620D01*
X106643354Y-119457913D01*
X106643350Y-119457906D01*
X106557190Y-119342812D01*
X106557187Y-119342809D01*
X106442093Y-119256649D01*
X106442086Y-119256645D01*
X106307379Y-119206403D01*
X106307372Y-119206401D01*
X106247844Y-119200000D01*
X103350000Y-119200000D01*
X103350000Y-121400000D01*
X102850000Y-121400000D01*
X102850000Y-119200000D01*
X99952155Y-119200000D01*
X99892627Y-119206401D01*
X99892620Y-119206403D01*
X99757913Y-119256645D01*
X99757906Y-119256649D01*
X99642812Y-119342809D01*
X99642809Y-119342812D01*
X99556649Y-119457906D01*
X99556645Y-119457913D01*
X99506403Y-119592620D01*
X99506401Y-119592627D01*
X99500000Y-119652155D01*
X93980000Y-119652155D01*
X93980000Y-117721153D01*
X132099500Y-117721153D01*
X132099500Y-117878846D01*
X132130261Y-118033489D01*
X132130264Y-118033501D01*
X132190602Y-118179172D01*
X132190609Y-118179185D01*
X132278210Y-118310288D01*
X132278213Y-118310292D01*
X132389707Y-118421786D01*
X132389711Y-118421789D01*
X132520814Y-118509390D01*
X132520827Y-118509397D01*
X132666498Y-118569735D01*
X132666503Y-118569737D01*
X132821153Y-118600499D01*
X132821156Y-118600500D01*
X132821158Y-118600500D01*
X132978844Y-118600500D01*
X132978845Y-118600499D01*
X133133497Y-118569737D01*
X133279179Y-118509394D01*
X133279185Y-118509390D01*
X133410875Y-118421398D01*
X133477553Y-118400520D01*
X133479766Y-118400500D01*
X134420234Y-118400500D01*
X134487273Y-118420185D01*
X134489125Y-118421398D01*
X134620814Y-118509390D01*
X134620827Y-118509397D01*
X134766498Y-118569735D01*
X134766503Y-118569737D01*
X134921153Y-118600499D01*
X134921156Y-118600500D01*
X134921158Y-118600500D01*
X135078844Y-118600500D01*
X135078845Y-118600499D01*
X135233497Y-118569737D01*
X135379179Y-118509394D01*
X135510289Y-118421789D01*
X135621789Y-118310289D01*
X135709394Y-118179179D01*
X135769737Y-118033497D01*
X135800500Y-117878842D01*
X135800500Y-117721158D01*
X135800500Y-117721155D01*
X135800499Y-117721153D01*
X135769738Y-117566510D01*
X135769737Y-117566503D01*
X135769735Y-117566498D01*
X135709397Y-117420827D01*
X135709390Y-117420814D01*
X135621789Y-117289711D01*
X135621786Y-117289707D01*
X135510292Y-117178213D01*
X135510288Y-117178210D01*
X135379185Y-117090609D01*
X135379172Y-117090602D01*
X135233501Y-117030264D01*
X135233489Y-117030261D01*
X135078845Y-116999500D01*
X135078842Y-116999500D01*
X134921158Y-116999500D01*
X134921155Y-116999500D01*
X134766510Y-117030261D01*
X134766498Y-117030264D01*
X134620827Y-117090602D01*
X134620814Y-117090609D01*
X134489125Y-117178602D01*
X134422447Y-117199480D01*
X134420234Y-117199500D01*
X133479766Y-117199500D01*
X133412727Y-117179815D01*
X133410875Y-117178602D01*
X133279185Y-117090609D01*
X133279172Y-117090602D01*
X133133501Y-117030264D01*
X133133489Y-117030261D01*
X132978845Y-116999500D01*
X132978842Y-116999500D01*
X132821158Y-116999500D01*
X132821155Y-116999500D01*
X132666510Y-117030261D01*
X132666498Y-117030264D01*
X132520827Y-117090602D01*
X132520814Y-117090609D01*
X132389711Y-117178210D01*
X132389707Y-117178213D01*
X132278213Y-117289707D01*
X132278210Y-117289711D01*
X132190609Y-117420814D01*
X132190602Y-117420827D01*
X132130264Y-117566498D01*
X132130261Y-117566510D01*
X132099500Y-117721153D01*
X93980000Y-117721153D01*
X93980000Y-115109448D01*
X98149500Y-115109448D01*
X98149500Y-115290551D01*
X98177829Y-115469410D01*
X98233787Y-115641636D01*
X98233788Y-115641639D01*
X98316006Y-115802997D01*
X98422441Y-115949494D01*
X98422445Y-115949499D01*
X98550500Y-116077554D01*
X98550505Y-116077558D01*
X98678287Y-116170396D01*
X98697006Y-116183996D01*
X98802484Y-116237740D01*
X98858360Y-116266211D01*
X98858363Y-116266212D01*
X98944476Y-116294191D01*
X99030591Y-116322171D01*
X99113429Y-116335291D01*
X99209449Y-116350500D01*
X99209454Y-116350500D01*
X99390551Y-116350500D01*
X99477259Y-116336765D01*
X99569409Y-116322171D01*
X99741639Y-116266211D01*
X99902994Y-116183996D01*
X100049501Y-116077553D01*
X100177553Y-115949501D01*
X100283996Y-115802994D01*
X100366211Y-115641639D01*
X100422171Y-115469409D01*
X100436765Y-115377259D01*
X100450500Y-115290551D01*
X100450500Y-115109448D01*
X100434019Y-115005397D01*
X100422171Y-114930591D01*
X100366211Y-114758361D01*
X100366211Y-114758360D01*
X100337740Y-114702484D01*
X100283996Y-114597006D01*
X100270396Y-114578287D01*
X100177558Y-114450505D01*
X100177554Y-114450500D01*
X100049499Y-114322445D01*
X100049494Y-114322441D01*
X99902997Y-114216006D01*
X99902996Y-114216005D01*
X99902994Y-114216004D01*
X99851300Y-114189664D01*
X99741639Y-114133788D01*
X99741636Y-114133787D01*
X99569410Y-114077829D01*
X99390551Y-114049500D01*
X99390546Y-114049500D01*
X99209454Y-114049500D01*
X99209449Y-114049500D01*
X99030589Y-114077829D01*
X98858363Y-114133787D01*
X98858360Y-114133788D01*
X98697002Y-114216006D01*
X98550505Y-114322441D01*
X98550500Y-114322445D01*
X98422445Y-114450500D01*
X98422441Y-114450505D01*
X98316006Y-114597002D01*
X98233788Y-114758360D01*
X98233787Y-114758363D01*
X98177829Y-114930589D01*
X98149500Y-115109448D01*
X93980000Y-115109448D01*
X93980000Y-102721153D01*
X101599500Y-102721153D01*
X101599500Y-102878846D01*
X101630261Y-103033489D01*
X101630264Y-103033501D01*
X101690602Y-103179172D01*
X101690609Y-103179185D01*
X101778210Y-103310288D01*
X101778213Y-103310292D01*
X101889707Y-103421786D01*
X101889711Y-103421789D01*
X102020814Y-103509390D01*
X102020827Y-103509397D01*
X102166498Y-103569735D01*
X102166503Y-103569737D01*
X102321153Y-103600499D01*
X102321156Y-103600500D01*
X102321158Y-103600500D01*
X102478844Y-103600500D01*
X102478845Y-103600499D01*
X102633497Y-103569737D01*
X102779179Y-103509394D01*
X102910289Y-103421789D01*
X103021789Y-103310289D01*
X103109394Y-103179179D01*
X103169737Y-103033497D01*
X103189113Y-102936085D01*
X103200638Y-102878150D01*
X103233023Y-102816239D01*
X103234516Y-102814718D01*
X104312417Y-101736819D01*
X104373740Y-101703334D01*
X104400098Y-101700500D01*
X104478844Y-101700500D01*
X104478845Y-101700499D01*
X104633497Y-101669737D01*
X104779179Y-101609394D01*
X104910289Y-101521789D01*
X105021789Y-101410289D01*
X105109394Y-101279179D01*
X105169737Y-101133497D01*
X105200500Y-100978842D01*
X105200500Y-100821158D01*
X105200500Y-100821155D01*
X105200499Y-100821153D01*
X105175807Y-100697019D01*
X105169737Y-100666503D01*
X105162693Y-100649496D01*
X105109397Y-100520827D01*
X105109390Y-100520814D01*
X105021789Y-100389711D01*
X105021786Y-100389707D01*
X104910292Y-100278213D01*
X104910288Y-100278210D01*
X104779185Y-100190609D01*
X104779172Y-100190602D01*
X104633501Y-100130264D01*
X104633489Y-100130261D01*
X104478845Y-100099500D01*
X104478842Y-100099500D01*
X104321158Y-100099500D01*
X104321155Y-100099500D01*
X104166510Y-100130261D01*
X104166498Y-100130264D01*
X104020827Y-100190602D01*
X104020814Y-100190609D01*
X103889711Y-100278210D01*
X103889707Y-100278213D01*
X103778213Y-100389707D01*
X103778210Y-100389711D01*
X103690609Y-100520814D01*
X103690602Y-100520827D01*
X103630263Y-100666500D01*
X103630262Y-100666505D01*
X103624192Y-100697019D01*
X103591805Y-100758929D01*
X103590256Y-100760506D01*
X102385339Y-101965425D01*
X102324016Y-101998910D01*
X102321850Y-101999361D01*
X102166508Y-102030261D01*
X102166498Y-102030264D01*
X102020827Y-102090602D01*
X102020814Y-102090609D01*
X101889711Y-102178210D01*
X101889707Y-102178213D01*
X101778213Y-102289707D01*
X101778210Y-102289711D01*
X101690609Y-102420814D01*
X101690602Y-102420827D01*
X101630264Y-102566498D01*
X101630261Y-102566510D01*
X101599500Y-102721153D01*
X93980000Y-102721153D01*
X93980000Y-73829054D01*
X98399498Y-73829054D01*
X98416135Y-73891141D01*
X98440423Y-73981785D01*
X98519481Y-74118716D01*
X100681284Y-76280520D01*
X100818215Y-76359577D01*
X100970943Y-76400501D01*
X100970946Y-76400501D01*
X101136654Y-76400501D01*
X101136670Y-76400500D01*
X101175500Y-76400500D01*
X101242539Y-76420185D01*
X101288294Y-76472989D01*
X101299500Y-76524500D01*
X101299500Y-87266470D01*
X101299499Y-87266488D01*
X101299499Y-87432194D01*
X101299498Y-87432194D01*
X101340423Y-87584925D01*
X101369358Y-87635040D01*
X101369359Y-87635044D01*
X101369360Y-87635044D01*
X101419479Y-87721854D01*
X101419481Y-87721857D01*
X101538349Y-87840725D01*
X101538355Y-87840730D01*
X105864181Y-92166556D01*
X105897666Y-92227879D01*
X105900500Y-92254237D01*
X105900500Y-106175500D01*
X105880815Y-106242539D01*
X105828011Y-106288294D01*
X105776500Y-106299500D01*
X99952129Y-106299500D01*
X99952123Y-106299501D01*
X99892516Y-106305908D01*
X99757671Y-106356202D01*
X99757664Y-106356206D01*
X99642455Y-106442452D01*
X99642452Y-106442455D01*
X99556206Y-106557664D01*
X99556202Y-106557671D01*
X99505908Y-106692517D01*
X99499501Y-106752116D01*
X99499500Y-106752135D01*
X99499500Y-110747870D01*
X99499501Y-110747876D01*
X99505908Y-110807483D01*
X99556202Y-110942328D01*
X99556206Y-110942335D01*
X99642452Y-111057544D01*
X99642455Y-111057547D01*
X99757664Y-111143793D01*
X99757671Y-111143797D01*
X99892517Y-111194091D01*
X99892516Y-111194091D01*
X99899444Y-111194835D01*
X99952127Y-111200500D01*
X106247872Y-111200499D01*
X106307483Y-111194091D01*
X106442331Y-111143796D01*
X106557546Y-111057546D01*
X106643796Y-110942331D01*
X106694091Y-110807483D01*
X106700500Y-110747873D01*
X106700499Y-110249094D01*
X106720183Y-110182057D01*
X106772987Y-110136302D01*
X106842146Y-110126358D01*
X106905702Y-110155383D01*
X106912180Y-110161415D01*
X109373710Y-112622945D01*
X109407195Y-112684268D01*
X109406708Y-112739130D01*
X109405909Y-112742511D01*
X109399501Y-112802116D01*
X109399501Y-112802123D01*
X109399500Y-112802135D01*
X109399500Y-116197870D01*
X109399501Y-116197876D01*
X109405908Y-116257483D01*
X109456202Y-116392328D01*
X109456206Y-116392335D01*
X109542452Y-116507544D01*
X109542455Y-116507547D01*
X109657664Y-116593793D01*
X109657671Y-116593797D01*
X109792517Y-116644091D01*
X109792516Y-116644091D01*
X109799444Y-116644835D01*
X109852127Y-116650500D01*
X114347872Y-116650499D01*
X114407483Y-116644091D01*
X114542331Y-116593796D01*
X114657546Y-116507546D01*
X114743796Y-116392331D01*
X114794091Y-116257483D01*
X114800500Y-116197873D01*
X114800500Y-115224500D01*
X114820185Y-115157461D01*
X114872989Y-115111706D01*
X114924500Y-115100500D01*
X116620234Y-115100500D01*
X116687273Y-115120185D01*
X116689125Y-115121398D01*
X116820814Y-115209390D01*
X116820827Y-115209397D01*
X116966498Y-115269735D01*
X116966503Y-115269737D01*
X117121153Y-115300499D01*
X117121156Y-115300500D01*
X117121158Y-115300500D01*
X117278844Y-115300500D01*
X117278845Y-115300499D01*
X117433497Y-115269737D01*
X117579179Y-115209394D01*
X117710289Y-115121789D01*
X117821789Y-115010289D01*
X117909394Y-114879179D01*
X117969737Y-114733497D01*
X118000500Y-114578842D01*
X118000500Y-114421158D01*
X118000500Y-114421155D01*
X118000499Y-114421153D01*
X117980865Y-114322447D01*
X117969737Y-114266503D01*
X117948820Y-114216004D01*
X117909397Y-114120827D01*
X117909390Y-114120814D01*
X117821789Y-113989711D01*
X117821786Y-113989707D01*
X117710292Y-113878213D01*
X117710288Y-113878210D01*
X117579185Y-113790609D01*
X117579172Y-113790602D01*
X117433501Y-113730264D01*
X117433489Y-113730261D01*
X117278845Y-113699500D01*
X117278842Y-113699500D01*
X117121158Y-113699500D01*
X117121155Y-113699500D01*
X116966510Y-113730261D01*
X116966498Y-113730264D01*
X116820827Y-113790602D01*
X116820814Y-113790609D01*
X116689125Y-113878602D01*
X116622447Y-113899480D01*
X116620234Y-113899500D01*
X114924499Y-113899500D01*
X114857460Y-113879815D01*
X114811705Y-113827011D01*
X114800499Y-113775500D01*
X114800499Y-112802129D01*
X114800498Y-112802123D01*
X114800497Y-112802116D01*
X114794091Y-112742517D01*
X114743796Y-112607669D01*
X114743795Y-112607668D01*
X114743793Y-112607664D01*
X114657547Y-112492455D01*
X114657544Y-112492452D01*
X114542335Y-112406206D01*
X114542328Y-112406202D01*
X114407482Y-112355908D01*
X114407483Y-112355908D01*
X114347883Y-112349501D01*
X114347881Y-112349500D01*
X114347873Y-112349500D01*
X114347865Y-112349500D01*
X110850098Y-112349500D01*
X110783059Y-112329815D01*
X110762417Y-112313181D01*
X107137819Y-108688583D01*
X107104334Y-108627260D01*
X107101500Y-108600902D01*
X107101500Y-105321153D01*
X154499500Y-105321153D01*
X154499500Y-105478846D01*
X154530261Y-105633489D01*
X154530264Y-105633501D01*
X154590602Y-105779172D01*
X154590609Y-105779185D01*
X154678210Y-105910288D01*
X154678213Y-105910292D01*
X154789707Y-106021786D01*
X154789711Y-106021789D01*
X154920814Y-106109390D01*
X154920827Y-106109397D01*
X155066498Y-106169735D01*
X155066503Y-106169737D01*
X155221153Y-106200499D01*
X155221156Y-106200500D01*
X155221158Y-106200500D01*
X155378844Y-106200500D01*
X155378845Y-106200499D01*
X155533497Y-106169737D01*
X155650199Y-106121398D01*
X155677864Y-106109939D01*
X155725316Y-106100500D01*
X160420234Y-106100500D01*
X160487273Y-106120185D01*
X160489125Y-106121398D01*
X160620814Y-106209390D01*
X160620827Y-106209397D01*
X160766498Y-106269735D01*
X160766503Y-106269737D01*
X160916131Y-106299500D01*
X160921153Y-106300499D01*
X160921156Y-106300500D01*
X160921158Y-106300500D01*
X161078844Y-106300500D01*
X161078845Y-106300499D01*
X161233497Y-106269737D01*
X161379179Y-106209394D01*
X161510289Y-106121789D01*
X161621789Y-106010289D01*
X161709394Y-105879179D01*
X161769737Y-105733497D01*
X161800500Y-105578842D01*
X161800500Y-105421158D01*
X161800500Y-105421155D01*
X161800499Y-105421153D01*
X161769737Y-105266503D01*
X161728314Y-105166498D01*
X161709397Y-105120827D01*
X161709390Y-105120814D01*
X161621789Y-104989711D01*
X161621786Y-104989707D01*
X161510292Y-104878213D01*
X161510288Y-104878210D01*
X161379185Y-104790609D01*
X161379172Y-104790602D01*
X161233501Y-104730264D01*
X161233489Y-104730261D01*
X161078845Y-104699500D01*
X161078842Y-104699500D01*
X160921158Y-104699500D01*
X160921155Y-104699500D01*
X160766510Y-104730261D01*
X160766498Y-104730264D01*
X160620827Y-104790602D01*
X160620814Y-104790609D01*
X160489125Y-104878602D01*
X160422447Y-104899480D01*
X160420234Y-104899500D01*
X155982940Y-104899500D01*
X155915901Y-104879815D01*
X155895263Y-104863185D01*
X155810289Y-104778211D01*
X155810288Y-104778210D01*
X155810287Y-104778209D01*
X155679185Y-104690609D01*
X155679172Y-104690602D01*
X155533501Y-104630264D01*
X155533489Y-104630261D01*
X155378845Y-104599500D01*
X155378842Y-104599500D01*
X155221158Y-104599500D01*
X155221155Y-104599500D01*
X155066510Y-104630261D01*
X155066498Y-104630264D01*
X154920827Y-104690602D01*
X154920814Y-104690609D01*
X154789711Y-104778210D01*
X154789707Y-104778213D01*
X154678213Y-104889707D01*
X154678210Y-104889711D01*
X154590609Y-105020814D01*
X154590602Y-105020827D01*
X154530264Y-105166498D01*
X154530261Y-105166510D01*
X154499500Y-105321153D01*
X107101500Y-105321153D01*
X107101500Y-92443854D01*
X107121185Y-92376815D01*
X107173989Y-92331060D01*
X107243147Y-92321116D01*
X107306703Y-92350141D01*
X107330024Y-92377141D01*
X107349582Y-92407784D01*
X107795622Y-93106646D01*
X107803344Y-93118744D01*
X107807493Y-93130560D01*
X107819300Y-93143743D01*
X107828819Y-93158658D01*
X107830610Y-93160525D01*
X107848652Y-93176518D01*
X109050120Y-94518072D01*
X109059698Y-94528766D01*
X109065702Y-94539758D01*
X109079486Y-94550862D01*
X109086214Y-94558374D01*
X109086215Y-94558375D01*
X109091289Y-94564041D01*
X109093361Y-94565597D01*
X109113746Y-94578461D01*
X110527391Y-95717245D01*
X110535090Y-95727119D01*
X110550480Y-95735845D01*
X110558332Y-95742171D01*
X110564262Y-95746948D01*
X110566562Y-95748150D01*
X110588760Y-95757551D01*
X112156948Y-96646756D01*
X112445630Y-96810446D01*
X112462253Y-96821744D01*
X112680003Y-96997157D01*
X112694576Y-97010988D01*
X112881108Y-97219269D01*
X112893261Y-97235281D01*
X113043692Y-97470977D01*
X113053099Y-97488744D01*
X113163462Y-97745643D01*
X113169873Y-97764697D01*
X113237272Y-98036050D01*
X113240521Y-98055889D01*
X113264104Y-98345860D01*
X113264512Y-98355779D01*
X113266700Y-100393479D01*
X113266700Y-100462028D01*
X113280121Y-100520827D01*
X113294305Y-100582971D01*
X113348131Y-100694740D01*
X113425478Y-100791729D01*
X113522469Y-100869074D01*
X113634238Y-100922898D01*
X113634241Y-100922898D01*
X113634242Y-100922899D01*
X113674553Y-100932099D01*
X113755183Y-100950501D01*
X113817210Y-100950500D01*
X115014931Y-100950500D01*
X115047093Y-100950500D01*
X115059344Y-100950500D01*
X115059788Y-100950454D01*
X115076957Y-100950457D01*
X115197901Y-100922866D01*
X115309626Y-100869074D01*
X115309668Y-100869054D01*
X115309668Y-100869053D01*
X115309672Y-100869052D01*
X115406665Y-100791714D01*
X115484015Y-100694731D01*
X115537843Y-100582966D01*
X115565449Y-100462026D01*
X115565450Y-100400000D01*
X115565450Y-100394724D01*
X115565516Y-99874483D01*
X115585209Y-99807447D01*
X115638019Y-99761699D01*
X115689516Y-99750500D01*
X118510550Y-99750500D01*
X118577589Y-99770185D01*
X118623344Y-99822989D01*
X118634550Y-99874500D01*
X118634550Y-100348587D01*
X118634499Y-100348760D01*
X118634500Y-100462026D01*
X118634500Y-100462027D01*
X118634501Y-100462031D01*
X118662110Y-100582983D01*
X118715928Y-100694729D01*
X118715943Y-100694760D01*
X118717745Y-100697019D01*
X118793299Y-100791750D01*
X118890301Y-100869094D01*
X119002082Y-100922913D01*
X119123037Y-100950507D01*
X119123037Y-100950506D01*
X119123038Y-100950507D01*
X119185069Y-100950500D01*
X120447026Y-100950500D01*
X120567969Y-100922895D01*
X120679737Y-100869071D01*
X120776725Y-100791725D01*
X120854071Y-100694737D01*
X120907895Y-100582969D01*
X120935500Y-100462026D01*
X120935500Y-100400000D01*
X120935500Y-100365649D01*
X120935500Y-98355766D01*
X120935908Y-98345715D01*
X120936500Y-98338438D01*
X120959479Y-98055881D01*
X120962725Y-98036060D01*
X121030128Y-97764690D01*
X121036532Y-97745656D01*
X121146909Y-97488725D01*
X121156307Y-97470977D01*
X121306744Y-97235272D01*
X121318881Y-97219279D01*
X121505423Y-97010987D01*
X121520003Y-96997151D01*
X121737749Y-96821743D01*
X121754364Y-96810449D01*
X122043053Y-96646756D01*
X122043052Y-96646756D01*
X123623721Y-95750474D01*
X123635737Y-95746949D01*
X123649519Y-95735846D01*
X123664911Y-95727119D01*
X123664913Y-95727115D01*
X123666882Y-95725417D01*
X123683785Y-95708241D01*
X125097427Y-94569460D01*
X125108712Y-94564041D01*
X125120514Y-94550862D01*
X125134299Y-94539758D01*
X125134301Y-94539752D01*
X125135964Y-94537765D01*
X125149879Y-94518072D01*
X125187452Y-94476118D01*
X126360920Y-93165830D01*
X126371182Y-93158658D01*
X126380697Y-93143746D01*
X126387428Y-93136232D01*
X126387428Y-93136231D01*
X126387432Y-93136227D01*
X126392508Y-93130560D01*
X126392509Y-93130555D01*
X126393827Y-93128328D01*
X126404371Y-93106655D01*
X127380991Y-91576477D01*
X127389960Y-91567741D01*
X127396942Y-91551484D01*
X127402371Y-91542980D01*
X127402371Y-91542979D01*
X127406465Y-91536566D01*
X127406465Y-91536563D01*
X127406467Y-91536561D01*
X127407408Y-91534146D01*
X127414309Y-91511060D01*
X128130829Y-89843179D01*
X128138270Y-89833106D01*
X128142536Y-89815928D01*
X128149520Y-89799673D01*
X128149520Y-89799670D01*
X128150058Y-89797141D01*
X128153142Y-89773228D01*
X128419783Y-88699716D01*
X128590727Y-88011487D01*
X128596441Y-88000346D01*
X128597875Y-87982708D01*
X128602141Y-87965535D01*
X128602141Y-87965532D01*
X128602263Y-87962951D01*
X128601442Y-87938850D01*
X128748592Y-86129556D01*
X128752431Y-86117638D01*
X128750996Y-86100000D01*
X128752431Y-86082362D01*
X128752430Y-86082361D01*
X128752431Y-86082360D01*
X128752133Y-86079785D01*
X128747428Y-86056142D01*
X128600279Y-84246847D01*
X128602141Y-84234466D01*
X128597875Y-84217292D01*
X128596441Y-84199655D01*
X128596439Y-84199651D01*
X128595732Y-84197168D01*
X128587269Y-84174592D01*
X128149683Y-82412845D01*
X128149520Y-82400328D01*
X128142536Y-82384072D01*
X128138270Y-82366895D01*
X128138270Y-82366894D01*
X128137167Y-82364550D01*
X128125167Y-82343642D01*
X127408649Y-80675764D01*
X127406465Y-80663435D01*
X127396944Y-80648518D01*
X127389960Y-80632260D01*
X127388493Y-80630125D01*
X127373270Y-80611425D01*
X126986578Y-80005552D01*
X126396656Y-79081256D01*
X126392508Y-79069441D01*
X126380700Y-79056257D01*
X126371182Y-79041343D01*
X126371181Y-79041342D01*
X126369388Y-79039472D01*
X126351348Y-79023482D01*
X125149877Y-77681925D01*
X125149876Y-77681924D01*
X125140301Y-77671232D01*
X125134299Y-77660243D01*
X125120514Y-77649138D01*
X125113784Y-77641623D01*
X125108715Y-77635962D01*
X125106634Y-77634400D01*
X125086255Y-77621540D01*
X123683784Y-76491757D01*
X123683783Y-76491756D01*
X123672607Y-76482753D01*
X123664911Y-76472882D01*
X123649519Y-76464154D01*
X123641663Y-76457825D01*
X123635740Y-76453054D01*
X123635738Y-76453053D01*
X123635737Y-76453052D01*
X123635735Y-76453051D01*
X123633440Y-76451851D01*
X123611240Y-76442449D01*
X123554528Y-76410292D01*
X122242806Y-75666510D01*
X121998255Y-75527843D01*
X121998246Y-75527837D01*
X121754370Y-75389553D01*
X121737744Y-75378252D01*
X121520003Y-75202848D01*
X121505421Y-75189009D01*
X121364168Y-75031287D01*
X121318886Y-74980725D01*
X121306738Y-74964718D01*
X121156307Y-74729022D01*
X121146907Y-74711269D01*
X121036534Y-74454347D01*
X121030126Y-74435302D01*
X120962725Y-74163941D01*
X120959479Y-74144116D01*
X120937922Y-73879059D01*
X120935908Y-73854284D01*
X120935500Y-73844233D01*
X120935500Y-71737974D01*
X120907895Y-71617031D01*
X120907889Y-71617018D01*
X120888763Y-71577301D01*
X120877411Y-71508360D01*
X120905134Y-71444225D01*
X120963129Y-71405260D01*
X121000483Y-71399500D01*
X123798903Y-71399500D01*
X123865942Y-71419185D01*
X123886584Y-71435819D01*
X136765425Y-84314660D01*
X136798910Y-84375983D01*
X136799361Y-84378149D01*
X136830261Y-84533491D01*
X136830264Y-84533501D01*
X136890602Y-84679172D01*
X136890609Y-84679185D01*
X136978210Y-84810288D01*
X136978213Y-84810292D01*
X137089707Y-84921786D01*
X137089711Y-84921789D01*
X137220814Y-85009390D01*
X137220827Y-85009397D01*
X137366498Y-85069735D01*
X137366503Y-85069737D01*
X137521153Y-85100499D01*
X137521156Y-85100500D01*
X137521158Y-85100500D01*
X137678844Y-85100500D01*
X137678845Y-85100499D01*
X137833497Y-85069737D01*
X137979179Y-85009394D01*
X138110289Y-84921789D01*
X138221789Y-84810289D01*
X138309394Y-84679179D01*
X138369737Y-84533497D01*
X138400500Y-84378842D01*
X138400500Y-84221158D01*
X138400500Y-84221155D01*
X138400499Y-84221153D01*
X138397732Y-84207241D01*
X138369737Y-84066503D01*
X138369735Y-84066498D01*
X138309397Y-83920827D01*
X138309390Y-83920814D01*
X138221789Y-83789711D01*
X138221786Y-83789707D01*
X138110292Y-83678213D01*
X138110288Y-83678210D01*
X137979185Y-83590609D01*
X137979172Y-83590602D01*
X137833501Y-83530264D01*
X137833491Y-83530261D01*
X137678149Y-83499361D01*
X137616238Y-83466976D01*
X137614660Y-83465425D01*
X133970388Y-79821153D01*
X137799500Y-79821153D01*
X137799500Y-79978846D01*
X137830261Y-80133489D01*
X137830264Y-80133501D01*
X137890602Y-80279172D01*
X137890609Y-80279185D01*
X137978210Y-80410288D01*
X137978213Y-80410292D01*
X138089707Y-80521786D01*
X138089711Y-80521789D01*
X138220814Y-80609390D01*
X138220827Y-80609397D01*
X138357092Y-80665839D01*
X138366503Y-80669737D01*
X138463073Y-80688946D01*
X138521153Y-80700499D01*
X138521156Y-80700500D01*
X138521158Y-80700500D01*
X138678844Y-80700500D01*
X138678845Y-80700499D01*
X138833497Y-80669737D01*
X138946166Y-80623067D01*
X138979172Y-80609397D01*
X138979172Y-80609396D01*
X138979179Y-80609394D01*
X139058040Y-80556701D01*
X139110875Y-80521398D01*
X139177553Y-80500520D01*
X139179766Y-80500500D01*
X163965500Y-80500500D01*
X163974185Y-80503050D01*
X163983147Y-80501762D01*
X164007187Y-80512740D01*
X164032539Y-80520185D01*
X164038466Y-80527025D01*
X164046703Y-80530787D01*
X164060992Y-80553021D01*
X164078294Y-80572989D01*
X164080581Y-80583503D01*
X164084477Y-80589565D01*
X164089500Y-80624500D01*
X164089500Y-80775500D01*
X164069815Y-80842539D01*
X164017011Y-80888294D01*
X163965500Y-80899500D01*
X160620940Y-80899500D01*
X160617738Y-80900358D01*
X160617733Y-80900360D01*
X160468214Y-80940423D01*
X160468209Y-80940426D01*
X160331290Y-81019475D01*
X160331282Y-81019481D01*
X144185339Y-97165425D01*
X144124016Y-97198910D01*
X144121850Y-97199361D01*
X143966508Y-97230261D01*
X143966498Y-97230264D01*
X143820827Y-97290602D01*
X143820814Y-97290609D01*
X143689711Y-97378210D01*
X143689707Y-97378213D01*
X143578213Y-97489707D01*
X143578210Y-97489711D01*
X143490609Y-97620814D01*
X143490602Y-97620827D01*
X143430264Y-97766498D01*
X143430261Y-97766510D01*
X143399500Y-97921153D01*
X143399500Y-98078846D01*
X143430261Y-98233489D01*
X143430264Y-98233501D01*
X143490602Y-98379172D01*
X143490609Y-98379185D01*
X143578210Y-98510288D01*
X143578213Y-98510292D01*
X143689707Y-98621786D01*
X143689711Y-98621789D01*
X143820814Y-98709390D01*
X143820827Y-98709397D01*
X143966498Y-98769735D01*
X143966503Y-98769737D01*
X144121153Y-98800499D01*
X144121156Y-98800500D01*
X144121158Y-98800500D01*
X144278844Y-98800500D01*
X144278845Y-98800499D01*
X144433497Y-98769737D01*
X144579179Y-98709394D01*
X144710289Y-98621789D01*
X144821789Y-98510289D01*
X144909394Y-98379179D01*
X144969737Y-98233497D01*
X144989113Y-98136085D01*
X145000638Y-98078150D01*
X145033023Y-98016239D01*
X145034518Y-98014716D01*
X158612320Y-84436913D01*
X158673641Y-84403430D01*
X158743333Y-84408414D01*
X158787677Y-84436913D01*
X162760819Y-88410054D01*
X166551719Y-92200954D01*
X166585204Y-92262277D01*
X166580220Y-92331969D01*
X166538348Y-92387902D01*
X166476643Y-92411993D01*
X166447201Y-92415001D01*
X166447200Y-92415001D01*
X166280668Y-92470185D01*
X166280663Y-92470187D01*
X166131342Y-92562289D01*
X166007289Y-92686342D01*
X165915187Y-92835663D01*
X165915185Y-92835668D01*
X165914801Y-92836828D01*
X165860001Y-93002203D01*
X165860001Y-93002204D01*
X165860000Y-93002204D01*
X165849500Y-93104983D01*
X165849500Y-94895001D01*
X165849501Y-94895018D01*
X165860000Y-94997796D01*
X165860001Y-94997799D01*
X165897774Y-95111788D01*
X165915186Y-95164334D01*
X166007288Y-95313656D01*
X166131344Y-95437712D01*
X166280666Y-95529814D01*
X166447203Y-95584999D01*
X166549991Y-95595500D01*
X167890008Y-95595499D01*
X167992797Y-95584999D01*
X168159334Y-95529814D01*
X168308656Y-95437712D01*
X168432712Y-95313656D01*
X168524814Y-95164334D01*
X168524817Y-95164323D01*
X168525353Y-95163177D01*
X168525934Y-95162516D01*
X168528605Y-95158187D01*
X168529344Y-95158643D01*
X168571521Y-95110734D01*
X168638713Y-95091577D01*
X168705596Y-95111788D01*
X168725420Y-95127892D01*
X168867502Y-95269974D01*
X169041963Y-95396728D01*
X169234098Y-95494627D01*
X169439190Y-95561266D01*
X169510000Y-95572481D01*
X169510000Y-94542709D01*
X169530339Y-94554452D01*
X169681667Y-94595000D01*
X169838333Y-94595000D01*
X169989661Y-94554452D01*
X170010000Y-94542709D01*
X170010000Y-95572480D01*
X170080809Y-95561266D01*
X170285901Y-95494627D01*
X170478036Y-95396728D01*
X170652496Y-95269974D01*
X170652497Y-95269974D01*
X170804974Y-95117497D01*
X170804979Y-95117491D01*
X170929372Y-94946280D01*
X170984702Y-94903614D01*
X171054315Y-94897635D01*
X171116110Y-94930241D01*
X171130008Y-94946279D01*
X171254641Y-95117821D01*
X171407179Y-95270359D01*
X171581701Y-95397157D01*
X171773911Y-95495092D01*
X171979074Y-95561754D01*
X172046796Y-95572480D01*
X172192134Y-95595500D01*
X172192139Y-95595500D01*
X172407866Y-95595500D01*
X172526230Y-95576752D01*
X172620926Y-95561754D01*
X172826089Y-95495092D01*
X173018299Y-95397157D01*
X173192821Y-95270359D01*
X173345359Y-95117821D01*
X173472157Y-94943299D01*
X173570092Y-94751089D01*
X173636754Y-94545926D01*
X173651752Y-94451230D01*
X173670500Y-94332866D01*
X173670500Y-93667133D01*
X173636754Y-93454077D01*
X173636754Y-93454074D01*
X173570092Y-93248911D01*
X173472157Y-93056701D01*
X173345359Y-92882179D01*
X173192821Y-92729641D01*
X173018299Y-92602843D01*
X172826089Y-92504908D01*
X172620926Y-92438246D01*
X172620924Y-92438245D01*
X172620922Y-92438245D01*
X172407866Y-92404500D01*
X172407861Y-92404500D01*
X172192139Y-92404500D01*
X172192134Y-92404500D01*
X171979077Y-92438245D01*
X171979076Y-92438245D01*
X171773915Y-92504906D01*
X171769419Y-92506769D01*
X171768914Y-92505550D01*
X171706158Y-92517329D01*
X171641421Y-92491045D01*
X171630866Y-92481630D01*
X167267819Y-88118583D01*
X167234334Y-88057260D01*
X167231500Y-88030902D01*
X167231500Y-83073366D01*
X167251185Y-83006327D01*
X167303989Y-82960572D01*
X167373147Y-82950628D01*
X167411796Y-82962882D01*
X167474096Y-82994626D01*
X167679190Y-83061266D01*
X167750000Y-83072481D01*
X167750000Y-82042709D01*
X167770339Y-82054452D01*
X167921667Y-82095000D01*
X168078333Y-82095000D01*
X168229661Y-82054452D01*
X168250000Y-82042709D01*
X168250000Y-83072480D01*
X168320809Y-83061266D01*
X168525901Y-82994627D01*
X168718036Y-82896728D01*
X168892496Y-82769974D01*
X168892497Y-82769974D01*
X169044974Y-82617497D01*
X169044979Y-82617491D01*
X169169372Y-82446280D01*
X169224702Y-82403614D01*
X169294315Y-82397635D01*
X169356110Y-82430241D01*
X169370008Y-82446279D01*
X169494641Y-82617821D01*
X169647179Y-82770359D01*
X169821701Y-82897157D01*
X170013911Y-82995092D01*
X170219074Y-83061754D01*
X170286796Y-83072480D01*
X170432134Y-83095500D01*
X170432139Y-83095500D01*
X170647866Y-83095500D01*
X170766230Y-83076752D01*
X170860926Y-83061754D01*
X171066089Y-82995092D01*
X171258299Y-82897157D01*
X171432821Y-82770359D01*
X171585359Y-82617821D01*
X171712157Y-82443299D01*
X171810092Y-82251089D01*
X171876754Y-82045926D01*
X171891752Y-81951230D01*
X171910500Y-81832866D01*
X171910500Y-81167133D01*
X171876754Y-80954077D01*
X171876754Y-80954074D01*
X171810092Y-80748911D01*
X171712157Y-80556701D01*
X171585359Y-80382179D01*
X171432821Y-80229641D01*
X171258299Y-80102843D01*
X171066089Y-80004908D01*
X170860926Y-79938246D01*
X170860924Y-79938245D01*
X170860922Y-79938245D01*
X170647866Y-79904500D01*
X170647861Y-79904500D01*
X170432139Y-79904500D01*
X170432134Y-79904500D01*
X170219077Y-79938245D01*
X170013913Y-80004907D01*
X170009407Y-80006774D01*
X170008901Y-80005552D01*
X169946157Y-80017329D01*
X169881420Y-79991045D01*
X169870865Y-79981630D01*
X165427590Y-75538355D01*
X165427588Y-75538352D01*
X165308717Y-75419481D01*
X165308709Y-75419475D01*
X165199500Y-75356424D01*
X165199499Y-75356423D01*
X165180018Y-75345176D01*
X165171785Y-75340423D01*
X165019057Y-75299499D01*
X164860943Y-75299499D01*
X164853347Y-75299499D01*
X164853331Y-75299500D01*
X159479766Y-75299500D01*
X159412727Y-75279815D01*
X159410875Y-75278602D01*
X159279185Y-75190609D01*
X159279172Y-75190602D01*
X159133501Y-75130264D01*
X159133489Y-75130261D01*
X158978845Y-75099500D01*
X158978842Y-75099500D01*
X158821158Y-75099500D01*
X158821155Y-75099500D01*
X158666510Y-75130261D01*
X158666498Y-75130264D01*
X158520827Y-75190602D01*
X158520814Y-75190609D01*
X158389711Y-75278210D01*
X158389707Y-75278213D01*
X158278213Y-75389707D01*
X158278210Y-75389711D01*
X158190609Y-75520814D01*
X158190602Y-75520827D01*
X158130264Y-75666498D01*
X158130261Y-75666510D01*
X158099500Y-75821153D01*
X158099500Y-75978846D01*
X158130261Y-76133489D01*
X158130264Y-76133501D01*
X158190602Y-76279172D01*
X158190609Y-76279185D01*
X158278210Y-76410288D01*
X158278213Y-76410292D01*
X158389707Y-76521786D01*
X158389711Y-76521789D01*
X158520814Y-76609390D01*
X158520827Y-76609397D01*
X158666498Y-76669735D01*
X158666503Y-76669737D01*
X158821153Y-76700499D01*
X158821156Y-76700500D01*
X158821158Y-76700500D01*
X158978844Y-76700500D01*
X158978845Y-76700499D01*
X159133497Y-76669737D01*
X159279179Y-76609394D01*
X159340498Y-76568422D01*
X159410875Y-76521398D01*
X159477553Y-76500520D01*
X159479766Y-76500500D01*
X164639903Y-76500500D01*
X164706942Y-76520185D01*
X164727584Y-76536819D01*
X167895845Y-79705080D01*
X167929330Y-79766403D01*
X167924346Y-79836095D01*
X167882474Y-79892028D01*
X167827562Y-79915234D01*
X167679190Y-79938733D01*
X167474098Y-80005373D01*
X167278373Y-80105100D01*
X167209703Y-80117996D01*
X167144963Y-80091720D01*
X167114692Y-80056617D01*
X167111522Y-80051127D01*
X167111518Y-80051122D01*
X166479877Y-79419481D01*
X166479876Y-79419480D01*
X166393064Y-79369360D01*
X166393064Y-79369359D01*
X166393060Y-79369358D01*
X166342945Y-79340423D01*
X166190217Y-79299499D01*
X166032103Y-79299499D01*
X166024507Y-79299499D01*
X166024491Y-79299500D01*
X139179766Y-79299500D01*
X139112727Y-79279815D01*
X139110875Y-79278602D01*
X138979185Y-79190609D01*
X138979172Y-79190602D01*
X138833501Y-79130264D01*
X138833489Y-79130261D01*
X138678845Y-79099500D01*
X138678842Y-79099500D01*
X138521158Y-79099500D01*
X138521155Y-79099500D01*
X138366510Y-79130261D01*
X138366498Y-79130264D01*
X138220827Y-79190602D01*
X138220814Y-79190609D01*
X138089711Y-79278210D01*
X138089707Y-79278213D01*
X137978213Y-79389707D01*
X137978210Y-79389711D01*
X137890609Y-79520814D01*
X137890602Y-79520827D01*
X137830264Y-79666498D01*
X137830261Y-79666510D01*
X137799500Y-79821153D01*
X133970388Y-79821153D01*
X126970388Y-72821153D01*
X128599500Y-72821153D01*
X128599500Y-72978846D01*
X128630261Y-73133489D01*
X128630264Y-73133501D01*
X128690602Y-73279172D01*
X128690609Y-73279185D01*
X128778210Y-73410288D01*
X128778213Y-73410292D01*
X128889707Y-73521786D01*
X128889711Y-73521789D01*
X129020814Y-73609390D01*
X129020827Y-73609397D01*
X129148592Y-73662318D01*
X129166503Y-73669737D01*
X129321153Y-73700499D01*
X129321156Y-73700500D01*
X129321158Y-73700500D01*
X129478844Y-73700500D01*
X129478845Y-73700499D01*
X129633497Y-73669737D01*
X129779179Y-73609394D01*
X129779185Y-73609390D01*
X129910875Y-73521398D01*
X129977553Y-73500520D01*
X129979766Y-73500500D01*
X132213331Y-73500500D01*
X132213347Y-73500501D01*
X132220943Y-73500501D01*
X132379054Y-73500501D01*
X132379057Y-73500501D01*
X132531785Y-73459577D01*
X132581904Y-73430639D01*
X132668716Y-73380520D01*
X132780520Y-73268716D01*
X132780520Y-73268714D01*
X132790728Y-73258507D01*
X132790730Y-73258504D01*
X132914662Y-73134572D01*
X132975984Y-73101088D01*
X132978151Y-73100637D01*
X132978840Y-73100500D01*
X132978842Y-73100500D01*
X133133497Y-73069737D01*
X133279179Y-73009394D01*
X133410289Y-72921789D01*
X133521789Y-72810289D01*
X133609394Y-72679179D01*
X133669737Y-72533497D01*
X133700500Y-72378842D01*
X133700500Y-72221158D01*
X133700500Y-72221155D01*
X133700499Y-72221153D01*
X133682420Y-72130263D01*
X133669737Y-72066503D01*
X133609534Y-71921158D01*
X133609397Y-71920827D01*
X133609390Y-71920814D01*
X133521789Y-71789711D01*
X133521786Y-71789707D01*
X133410292Y-71678213D01*
X133410288Y-71678210D01*
X133279185Y-71590609D01*
X133279172Y-71590602D01*
X133133501Y-71530264D01*
X133133489Y-71530261D01*
X132978845Y-71499500D01*
X132978842Y-71499500D01*
X132821158Y-71499500D01*
X132821155Y-71499500D01*
X132666510Y-71530261D01*
X132666498Y-71530264D01*
X132520827Y-71590602D01*
X132520814Y-71590609D01*
X132389711Y-71678210D01*
X132389707Y-71678213D01*
X132278213Y-71789707D01*
X132278210Y-71789711D01*
X132190609Y-71920814D01*
X132190602Y-71920827D01*
X132130264Y-72066498D01*
X132130261Y-72066508D01*
X132103769Y-72199692D01*
X132071384Y-72261603D01*
X132010668Y-72296177D01*
X131982152Y-72299500D01*
X130907703Y-72299500D01*
X130840664Y-72279815D01*
X130794909Y-72227011D01*
X130784965Y-72157853D01*
X130786086Y-72151309D01*
X130800499Y-72078846D01*
X130800500Y-72078844D01*
X130800500Y-71921155D01*
X130800499Y-71921153D01*
X130786592Y-71851240D01*
X130769737Y-71766503D01*
X130757918Y-71737969D01*
X130709397Y-71620827D01*
X130709390Y-71620814D01*
X130621398Y-71489125D01*
X130600520Y-71422447D01*
X130600500Y-71420234D01*
X130600500Y-70279765D01*
X130620185Y-70212726D01*
X130621398Y-70210874D01*
X130709390Y-70079185D01*
X130709390Y-70079184D01*
X130709394Y-70079179D01*
X130769737Y-69933497D01*
X130800500Y-69778842D01*
X130800500Y-69621158D01*
X130800500Y-69621155D01*
X130800499Y-69621153D01*
X130769738Y-69466510D01*
X130769737Y-69466503D01*
X130769735Y-69466498D01*
X130709397Y-69320827D01*
X130709390Y-69320814D01*
X130621789Y-69189711D01*
X130621786Y-69189707D01*
X130510292Y-69078213D01*
X130510288Y-69078210D01*
X130379185Y-68990609D01*
X130379172Y-68990602D01*
X130233501Y-68930264D01*
X130233489Y-68930261D01*
X130078845Y-68899500D01*
X130078842Y-68899500D01*
X129921158Y-68899500D01*
X129921155Y-68899500D01*
X129766510Y-68930261D01*
X129766498Y-68930264D01*
X129620827Y-68990602D01*
X129620814Y-68990609D01*
X129489711Y-69078210D01*
X129489707Y-69078213D01*
X129378213Y-69189707D01*
X129378210Y-69189711D01*
X129290609Y-69320814D01*
X129290602Y-69320827D01*
X129230264Y-69466498D01*
X129230261Y-69466510D01*
X129199500Y-69621153D01*
X129199500Y-69778846D01*
X129230261Y-69933489D01*
X129230264Y-69933501D01*
X129290602Y-70079172D01*
X129290609Y-70079185D01*
X129378602Y-70210874D01*
X129399480Y-70277551D01*
X129399500Y-70279765D01*
X129399500Y-71420234D01*
X129379815Y-71487273D01*
X129378602Y-71489125D01*
X129290609Y-71620814D01*
X129290602Y-71620827D01*
X129230264Y-71766498D01*
X129230261Y-71766510D01*
X129199500Y-71921153D01*
X129199500Y-72033740D01*
X129179815Y-72100779D01*
X129127011Y-72146534D01*
X129122953Y-72148301D01*
X129020824Y-72190604D01*
X129020814Y-72190609D01*
X128889711Y-72278210D01*
X128889707Y-72278213D01*
X128778213Y-72389707D01*
X128778210Y-72389711D01*
X128690609Y-72520814D01*
X128690602Y-72520827D01*
X128630264Y-72666498D01*
X128630261Y-72666510D01*
X128599500Y-72821153D01*
X126970388Y-72821153D01*
X124586590Y-70437355D01*
X124586588Y-70437352D01*
X124467717Y-70318481D01*
X124467716Y-70318480D01*
X124380904Y-70268360D01*
X124380904Y-70268359D01*
X124380900Y-70268358D01*
X124330785Y-70239423D01*
X124178057Y-70198499D01*
X124019943Y-70198499D01*
X124012347Y-70198499D01*
X124012331Y-70198500D01*
X102030057Y-70198500D01*
X101871942Y-70198500D01*
X101719215Y-70239423D01*
X101719214Y-70239423D01*
X101719212Y-70239424D01*
X101719209Y-70239425D01*
X101669096Y-70268359D01*
X101669095Y-70268360D01*
X101653176Y-70277551D01*
X101582285Y-70318479D01*
X101582282Y-70318481D01*
X101470478Y-70430286D01*
X98631284Y-73269481D01*
X98519483Y-73381281D01*
X98519481Y-73381284D01*
X98440423Y-73518214D01*
X98440423Y-73518215D01*
X98399499Y-73670943D01*
X98399499Y-73670945D01*
X98399499Y-73829054D01*
X98399498Y-73829054D01*
X93980000Y-73829054D01*
X93980000Y-55214158D01*
X93999685Y-55147119D01*
X94052489Y-55101364D01*
X94090798Y-55091711D01*
X94090709Y-55091030D01*
X94106937Y-55088893D01*
X94322238Y-55060548D01*
X94543887Y-55001158D01*
X94755888Y-54913344D01*
X94954612Y-54798611D01*
X95136661Y-54658919D01*
X95136665Y-54658914D01*
X95136670Y-54658911D01*
X95298911Y-54496670D01*
X95298914Y-54496665D01*
X95298919Y-54496661D01*
X95438611Y-54314612D01*
X95553344Y-54115888D01*
X95641158Y-53903887D01*
X95700548Y-53682238D01*
X95730500Y-53454734D01*
X95731030Y-53450709D01*
X95732259Y-53450870D01*
X95754458Y-53390273D01*
X95810145Y-53348074D01*
X95854159Y-53340000D01*
X120276000Y-53340000D01*
X120343039Y-53359685D01*
G37*
%TD.AperFunction*%
%TD*%
M02*
